<svg version="1.1" id="Layer_1" xmlns="http://www.w3.org/2000/svg" xmlns:xlink="http://www.w3.org/1999/xlink" x="0px" y="0px"
	 width="100%" viewBox="0 0 311 162" enable-background="new 0 0 311 162" xml:space="preserve">
<path fill="#FEFEFE" opacity="1.000000" stroke="none" 
	d="
M238.000000,163.000000 
	C158.666672,163.000000 79.833351,163.000000 1.000021,163.000000 
	C1.000014,109.000015 1.000014,55.000031 1.000007,1.000036 
	C104.666634,1.000024 208.333267,1.000024 311.999939,1.000012 
	C311.999939,54.999966 311.999939,108.999931 311.999969,162.999939 
	C287.500000,163.000000 263.000000,163.000000 238.000000,163.000000 
M130.964981,149.740982 
	C131.291779,150.149414 131.618576,150.557846 132.664688,151.003922 
	C133.144196,150.979584 133.623703,150.955231 134.696640,151.044022 
	C135.097046,151.013763 135.497452,150.983490 136.513489,151.196213 
	C141.622345,153.312286 144.914673,150.143417 148.419128,147.178711 
	C146.855408,146.765060 145.437271,146.389908 144.289597,145.893906 
	C144.188095,145.922882 144.086578,145.951859 143.466187,146.145920 
	C141.535904,145.507385 139.605637,144.868835 137.451233,144.156143 
	C137.167175,144.649033 136.498520,145.809235 135.800613,146.427460 
	C134.314056,143.884827 133.588272,145.088730 132.460358,146.992859 
	C132.279922,147.013351 132.099503,147.033859 131.433380,147.093018 
	C131.148575,147.281601 130.962173,147.540939 130.248062,147.940262 
	C129.683182,148.073853 129.118301,148.207443 127.230034,148.653992 
	C129.327316,148.941177 130.090622,149.045700 130.964981,149.740982 
M175.612396,146.547256 
	C175.531952,145.839172 175.451508,145.131088 175.371048,144.423019 
	C174.575104,144.607040 173.779175,144.791077 172.245636,144.988602 
	C168.559067,147.205887 171.969788,149.758987 171.479568,152.454788 
	C173.806442,152.146347 175.667786,151.899612 177.529129,151.652878 
	C178.152420,150.917618 178.775696,150.182373 179.398987,149.447113 
	C177.991226,148.958649 176.583466,148.470184 175.051682,147.499176 
	C175.051682,147.499176 175.166870,147.014420 175.612396,146.547256 
M105.153503,146.352264 
	C104.474930,149.466110 104.373955,152.053299 109.367058,150.425568 
	C108.917915,148.888840 108.501320,147.463486 107.359421,146.021805 
	C106.875832,146.027939 106.392235,146.034073 105.153503,146.352264 
M114.507782,147.021027 
	C114.507782,147.021027 114.121864,147.115219 113.487389,146.799149 
	C112.614082,146.204025 111.740776,145.608917 109.744942,144.248840 
	C110.552200,147.452850 110.979172,149.147522 111.248451,150.216309 
	C112.091141,149.829559 112.860443,149.476501 113.937744,149.601654 
	C114.284355,149.710800 114.630966,149.819931 114.996872,150.627991 
	C115.209770,151.290604 115.422668,151.953201 115.821213,153.193619 
	C117.947075,150.197052 118.717728,148.145981 114.507782,147.021027 
M165.473373,150.707764 
	C166.639755,150.390945 167.806137,150.074112 168.972519,149.757294 
	C167.978271,148.989334 166.984039,148.221359 165.639542,147.069870 
	C165.126236,147.035263 164.612946,147.000641 163.689896,146.661316 
	C162.784332,147.066010 161.878784,147.470703 160.585266,147.309448 
	C158.407990,146.159241 156.230698,145.009048 153.821945,143.736557 
	C154.446426,147.348419 154.926971,150.127747 155.430374,153.039230 
	C158.586777,152.060608 161.863968,151.044525 165.473373,150.707764 
M234.625198,131.634079 
	C235.441315,130.354431 236.257416,129.074768 237.555649,127.039124 
	C234.011765,127.039124 231.473190,127.039124 228.340469,126.742401 
	C224.588135,122.859215 220.835800,118.976028 217.194824,114.142937 
	C217.195282,92.372223 217.220901,70.601425 217.145676,48.830971 
	C217.140030,47.192764 216.415436,45.557045 215.483246,43.262032 
	C209.982666,43.201035 204.482071,43.140038 198.674789,42.424419 
	C190.020493,20.274658 169.386429,6.162239 145.376511,6.181911 
	C121.980621,6.201080 101.734787,20.542150 92.006462,43.065769 
	C86.662956,43.345688 81.319458,43.625610 75.174660,44.299614 
	C75.139122,71.190491 75.103592,98.081367 75.030304,125.558983 
	C75.339226,126.040085 75.648148,126.521187 75.441055,127.024834 
	C75.282204,127.316307 75.123352,127.607780 74.035583,127.979912 
	C68.027435,127.944450 62.019283,127.908981 55.770016,127.431961 
	C55.801743,128.016739 55.833469,128.601532 56.094761,129.853180 
	C57.709877,132.615250 59.742321,133.984009 63.315670,133.971695 
	C108.799767,133.814896 154.284561,133.855743 200.376602,134.236389 
	C205.105286,138.817795 209.833984,143.399216 214.901245,148.619598 
	C215.930817,149.904083 216.960373,151.188568 218.300491,152.860474 
	C223.907516,147.113632 228.826965,141.798340 234.073669,136.828522 
	C236.171432,134.841461 235.092148,133.593719 234.625198,131.634079 
z"/>
<path fill="#4A4A4E" opacity="1.000000" stroke="none" 
	d="
M92.927177,42.970181 
	C101.734787,20.542150 121.980621,6.201080 145.376511,6.181911 
	C169.386429,6.162239 190.020493,20.274658 198.877197,43.074287 
	C199.727966,44.839283 200.376343,45.954411 200.951004,47.485382 
	C201.296219,50.363766 201.715149,52.826302 202.091156,55.733688 
	C202.840775,67.599030 201.115448,78.496307 195.848465,88.813454 
	C194.877350,90.715691 195.246262,93.302010 194.996674,95.572578 
	C195.491867,95.680908 195.987061,95.789238 196.482254,95.897568 
	C195.455719,97.087646 194.429184,98.277725 193.353470,99.524841 
	C195.826859,102.174583 198.065628,104.572960 200.135254,107.275360 
	C196.744370,110.693008 193.522614,113.806633 190.112061,116.578529 
	C188.024399,115.454514 186.144180,114.055382 184.223404,113.997292 
	C176.141510,113.752861 168.027802,113.313316 160.257538,116.664696 
	C157.749786,117.746307 154.765289,117.764420 151.983521,118.161369 
	C141.687149,119.630615 131.936996,117.115311 122.058899,113.725410 
	C119.568001,112.243835 117.293297,111.041801 114.851730,109.560532 
	C95.925323,96.114571 87.899841,77.990334 89.851578,54.876892 
	C90.072205,53.292610 90.196190,52.134209 90.705017,50.981308 
	C92.373360,50.989571 93.656837,50.992325 94.968872,51.420006 
	C91.302155,72.713364 97.320366,90.415215 114.236313,103.036263 
	C121.553177,108.495399 130.818207,112.053642 139.744202,114.386681 
	C145.341217,115.849602 152.091064,114.023750 158.087265,112.645210 
	C185.409576,106.363731 202.794296,78.517227 196.700912,51.331841 
	C190.466156,23.515566 162.763641,5.831503 134.978943,11.893972 
	C117.040779,15.807981 105.040863,26.835340 96.931740,43.070541 
	C95.301010,43.013897 94.114098,42.992039 92.927177,42.970181 
z"/>
<path fill="#403D43" opacity="1.000000" stroke="none" 
	d="
M92.466820,43.017975 
	C94.114098,42.992039 95.301010,43.013897 96.852982,43.438526 
	C96.458794,46.225895 95.699562,48.610485 94.940323,50.995079 
	C93.656837,50.992325 92.373360,50.989571 90.616531,50.612259 
	C90.225533,49.324596 90.307869,48.411495 90.390205,47.498390 
	C87.104866,47.421421 83.801720,47.146660 80.549637,47.439255 
	C79.921234,47.495792 79.492477,49.771343 78.672951,51.312641 
	C78.261948,69.834023 78.141251,88.066010 78.076920,106.298187 
	C78.074959,106.856468 78.659538,107.416809 79.038773,108.426727 
	C79.160789,110.699799 79.214699,112.522331 79.236626,114.770889 
	C79.204651,117.107803 79.204651,119.018684 79.204651,121.005638 
	C115.556328,121.005638 151.323517,121.005638 187.248871,121.272751 
	C188.669327,122.933502 189.931610,124.327133 191.113831,125.975021 
	C190.997818,126.403320 190.961868,126.577362 190.464615,126.798294 
	C151.987900,126.897560 113.972481,126.949921 75.957062,127.002289 
	C75.648148,126.521187 75.339226,126.040085 75.353134,124.979752 
	C75.795998,123.424332 76.020821,122.448143 76.020790,121.471962 
	C76.019997,95.616486 75.995995,69.761009 75.975952,43.905533 
	C81.319458,43.625610 86.662956,43.345688 92.466820,43.017975 
z"/>
<path fill="#858484" opacity="1.000000" stroke="none" 
	d="
M199.769165,133.846313 
	C154.284561,133.855743 108.799767,133.814896 63.315670,133.971695 
	C59.742321,133.984009 57.709877,132.615250 56.041695,129.194092 
	C55.996128,128.314514 56.003628,128.094025 56.011131,127.873520 
	C62.019283,127.908981 68.027435,127.944450 74.776627,128.262695 
	C76.324883,128.691437 77.132011,128.964600 77.939308,128.965073 
	C115.390244,128.986832 152.841202,128.993103 190.292084,128.949814 
	C191.548584,128.948364 192.804443,128.418579 194.332306,128.289093 
	C196.325714,130.244186 198.047440,132.045258 199.769165,133.846313 
z"/>
<path fill="#353138" opacity="1.000000" stroke="none" 
	d="
M201.024719,47.069538 
	C200.376343,45.954411 199.727966,44.839283 199.030548,43.401596 
	C204.482071,43.140038 209.982666,43.201035 215.742569,44.064743 
	C215.952744,67.981461 215.903580,91.095474 215.577087,114.059906 
	C214.403259,112.779366 213.506775,111.648407 212.705109,110.011963 
	C212.799927,88.793159 212.799927,68.079857 212.799927,47.069538 
	C208.330185,47.069538 204.677460,47.069538 201.024719,47.069538 
z"/>
<path fill="#A19DA2" opacity="1.000000" stroke="none" 
	d="
M194.060608,128.135056 
	C192.804443,128.418579 191.548584,128.948364 190.292084,128.949814 
	C152.841202,128.993103 115.390244,128.986832 77.939308,128.965073 
	C77.132011,128.964600 76.324883,128.691437 75.241081,128.222366 
	C75.123352,127.607780 75.282204,127.316307 75.699059,127.013565 
	C113.972481,126.949921 151.987900,126.897560 190.811737,126.861191 
	C191.853210,126.846970 192.086243,126.816742 192.589386,126.876411 
	C193.259872,127.355881 193.660233,127.745468 194.060608,128.135056 
z"/>
<path fill="#F18351" opacity="1.000000" stroke="none" 
	d="
M212.610291,110.517456 
	C213.506775,111.648407 214.403259,112.779366 215.697601,114.305603 
	C216.424789,114.831535 216.754120,114.962189 217.083466,115.092842 
	C220.835800,118.976028 224.588135,122.859215 228.789703,127.177933 
	C229.855972,128.705963 230.473007,129.798447 230.897736,131.153290 
	C229.555573,132.383881 228.405701,133.352127 227.088669,133.993988 
	C225.679596,132.335602 224.462677,130.979233 223.191620,129.675644 
	C215.792816,122.087318 208.381271,114.511391 201.118576,106.641418 
	C202.432480,105.407249 203.601852,104.462929 205.036652,103.722282 
	C205.512619,103.999451 205.723190,104.072952 206.083160,104.440269 
	C208.358475,106.661880 210.484375,108.589668 212.610291,110.517456 
z"/>
<path fill="#D84124" opacity="1.000000" stroke="none" 
	d="
M194.332306,128.289093 
	C193.660233,127.745468 193.259872,127.355881 192.438904,126.660507 
	C191.743500,126.143394 191.468704,125.932083 191.193893,125.720764 
	C189.931610,124.327133 188.669327,122.933502 187.335602,120.980965 
	C188.158295,119.592224 189.052444,118.762383 190.298767,117.983643 
	C199.474686,126.797630 208.298447,135.560516 217.036667,144.632751 
	C216.154984,145.954941 215.358826,146.967773 214.562668,147.980621 
	C209.833984,143.399216 205.105286,138.817795 200.072876,134.041351 
	C198.047440,132.045258 196.325714,130.244186 194.332306,128.289093 
z"/>
<path fill="#454045" opacity="1.000000" stroke="none" 
	d="
M214.731964,148.300110 
	C215.358826,146.967773 216.154984,145.954941 217.356354,144.505829 
	C220.926300,140.819839 224.091064,137.570099 227.255829,134.320374 
	C228.405701,133.352127 229.555573,132.383881 231.216049,131.175674 
	C232.496490,131.290909 233.266312,131.646118 234.036148,132.001328 
	C235.092148,133.593719 236.171432,134.841461 234.073669,136.828522 
	C228.826965,141.798340 223.907516,147.113632 218.300491,152.860474 
	C216.960373,151.188568 215.930817,149.904083 214.731964,148.300110 
z"/>
<path fill="#1F1D1C" opacity="1.000000" stroke="none" 
	d="
M75.575302,44.102573 
	C75.995995,69.761009 76.019997,95.616486 76.020790,121.471962 
	C76.020821,122.448143 75.795998,123.424332 75.372009,124.686378 
	C75.103592,98.081367 75.139122,71.190491 75.575302,44.102573 
z"/>
<path fill="#231822" opacity="1.000000" stroke="none" 
	d="
M217.139145,114.617889 
	C216.754120,114.962189 216.424789,114.831535 215.974945,114.455185 
	C215.903580,91.095474 215.952744,67.981461 216.013474,44.393814 
	C216.415436,45.557045 217.140030,47.192764 217.145676,48.830971 
	C217.220901,70.601425 217.195282,92.372223 217.139145,114.617889 
z"/>
<path fill="#E0FFFF" opacity="1.000000" stroke="none" 
	d="
M144.019150,146.014771 
	C145.437271,146.389908 146.855408,146.765060 148.419128,147.178711 
	C144.914673,150.143417 141.622345,153.312286 136.135223,150.755310 
	C135.781265,149.199432 135.805557,148.084427 135.829865,146.969437 
	C136.498520,145.809235 137.167175,144.649033 137.451233,144.156143 
	C139.605637,144.868835 141.535904,145.507385 143.733170,146.072845 
	C144.000153,145.999771 144.019150,146.014771 144.019150,146.014771 
z"/>
<path fill="#D1EFEE" opacity="1.000000" stroke="none" 
	d="
M164.099640,146.966034 
	C164.612946,147.000641 165.126236,147.035263 165.803558,147.606064 
	C166.442291,148.595154 166.916992,149.048065 167.727356,149.821213 
	C166.630844,149.909088 165.886002,149.968765 165.141144,150.028458 
	C161.863968,151.044525 158.586777,152.060608 155.430374,153.039230 
	C154.926971,150.127747 154.446426,147.348419 153.821945,143.736557 
	C156.230698,145.009048 158.407990,146.159241 160.935120,147.913269 
	C162.223190,148.000061 163.161407,147.483047 164.099640,146.966034 
M158.207733,149.180664 
	C158.379242,149.121033 158.550735,149.061401 158.722229,149.001770 
	C158.548691,148.945236 158.375137,148.888687 158.207733,149.180664 
z"/>
<path fill="#E4F9F9" opacity="1.000000" stroke="none" 
	d="
M175.175705,147.981735 
	C176.583466,148.470184 177.991226,148.958649 179.398987,149.447113 
	C178.775696,150.182373 178.152420,150.917618 177.529129,151.652878 
	C175.667786,151.899612 173.806442,152.146347 171.479568,152.454788 
	C171.969788,149.758987 168.559067,147.205887 172.624313,144.996124 
	C173.002991,145.003632 173.023041,145.030960 173.017822,145.351746 
	C173.289474,146.434235 173.566345,147.195938 173.915344,148.305573 
	C174.119522,149.245377 174.251556,149.837219 174.595856,151.380569 
	C174.905426,149.566010 175.040558,148.773880 175.175705,147.981735 
z"/>
<path fill="#938E8D" opacity="1.000000" stroke="none" 
	d="
M234.330673,131.817703 
	C233.266312,131.646118 232.496490,131.290909 231.408356,130.913330 
	C230.473007,129.798447 229.855972,128.705963 229.086792,127.326294 
	C231.473190,127.039124 234.011765,127.039124 237.555649,127.039124 
	C236.257416,129.074768 235.441315,130.354431 234.330673,131.817703 
z"/>
<path fill="#9ADCF0" opacity="1.000000" stroke="none" 
	d="
M113.629745,149.123428 
	C112.860443,149.476501 112.091141,149.829559 111.248451,150.216309 
	C110.979172,149.147522 110.552200,147.452850 109.744942,144.248840 
	C111.740776,145.608917 112.614082,146.204025 113.746567,147.298111 
	C113.880409,148.239197 113.755074,148.681305 113.629745,149.123428 
z"/>
<path fill="#F0FBF8" opacity="1.000000" stroke="none" 
	d="
M114.904602,147.039642 
	C118.717728,148.145981 117.947075,150.197052 115.821213,153.193619 
	C115.422668,151.953201 115.209770,151.290604 115.004616,149.916824 
	C114.976440,148.483658 114.940521,147.761642 114.904602,147.039642 
z"/>
<path fill="#0097D8" opacity="1.000000" stroke="none" 
	d="
M108.084717,146.038116 
	C108.501320,147.463486 108.917915,148.888840 109.367058,150.425568 
	C104.373955,152.053299 104.474930,149.466110 105.562988,146.585419 
	C106.175560,147.849854 106.378647,148.881134 106.581741,149.912430 
	C106.938293,149.866226 107.294853,149.820023 107.651413,149.773819 
	C107.795845,148.528580 107.940285,147.283356 108.084717,146.038116 
z"/>
<path fill="#0896D2" opacity="1.000000" stroke="none" 
	d="
M135.815231,146.698456 
	C135.805557,148.084427 135.781265,149.199432 135.827423,150.633820 
	C135.497452,150.983490 135.097046,151.013763 134.372467,150.621460 
	C133.700577,149.130981 133.352844,148.063034 133.005127,146.995102 
	C133.588272,145.088730 134.314056,143.884827 135.815231,146.698456 
z"/>
<path fill="#24A7CE" opacity="1.000000" stroke="none" 
	d="
M165.307251,150.368103 
	C165.886002,149.968765 166.630844,149.909088 167.727356,149.821213 
	C166.916992,149.048065 166.442291,148.595154 165.978699,147.797821 
	C166.984039,148.221359 167.978271,148.989334 168.972519,149.757294 
	C167.806137,150.074112 166.639755,150.390945 165.307251,150.368103 
z"/>
<path fill="#C6E9EF" opacity="1.000000" stroke="none" 
	d="
M132.732742,146.993988 
	C133.352844,148.063034 133.700577,149.130981 134.075760,150.564911 
	C133.623703,150.955231 133.144196,150.979584 132.337952,150.594238 
	C131.980499,149.141144 131.949783,148.097748 131.919067,147.054352 
	C132.099503,147.033859 132.279922,147.013351 132.732742,146.993988 
z"/>
<path fill="#E2F5F5" opacity="1.000000" stroke="none" 
	d="
M107.722069,146.029968 
	C107.940285,147.283356 107.795845,148.528580 107.651413,149.773819 
	C107.294853,149.820023 106.938293,149.866226 106.581741,149.912430 
	C106.378647,148.881134 106.175560,147.849854 105.940552,146.429382 
	C106.392235,146.034073 106.875832,146.027939 107.722069,146.029968 
z"/>
<path fill="#E4F9F9" opacity="1.000000" stroke="none" 
	d="
M172.993103,144.989380 
	C173.779175,144.791077 174.575104,144.607040 175.371048,144.423004 
	C175.451508,145.131088 175.531952,145.839172 175.284058,146.519012 
	C174.645584,146.338867 174.335449,146.186996 173.909882,145.819458 
	C173.605515,145.320984 173.348389,145.130035 173.023041,145.030960 
	C173.023041,145.030960 173.002991,145.003632 172.993103,144.989380 
z"/>
<path fill="#30B0D6" opacity="1.000000" stroke="none" 
	d="
M163.894775,146.813675 
	C163.161407,147.483047 162.223190,148.000061 161.129089,148.196243 
	C161.878784,147.470703 162.784332,147.066010 163.894775,146.813675 
z"/>
<path fill="#0091D1" opacity="1.000000" stroke="none" 
	d="
M174.025299,146.035110 
	C174.335449,146.186996 174.645584,146.338867 175.061310,146.752594 
	C175.166870,147.014420 175.051682,147.499176 175.113693,147.740448 
	C175.040558,148.773880 174.905426,149.566010 174.595856,151.380569 
	C174.251556,149.837219 174.119522,149.245377 173.980194,147.989349 
	C173.990356,146.895142 174.007828,146.465134 174.025299,146.035110 
z"/>
<path fill="#0099E5" opacity="1.000000" stroke="none" 
	d="
M131.676224,147.073685 
	C131.949783,148.097748 131.980499,149.141144 131.978302,150.575409 
	C131.618576,150.557846 131.291779,150.149414 130.923798,149.125992 
	C130.879791,148.297653 130.876984,148.084320 130.874176,147.871002 
	C130.962173,147.540939 131.148575,147.281601 131.676224,147.073685 
z"/>
<path fill="#67B8DA" opacity="1.000000" stroke="none" 
	d="
M130.561127,147.905640 
	C130.876984,148.084320 130.879791,148.297653 130.868271,148.830612 
	C130.090622,149.045700 129.327316,148.941177 127.230034,148.653992 
	C129.118301,148.207443 129.683182,148.073853 130.561127,147.905640 
z"/>
<path fill="#009FD8" opacity="1.000000" stroke="none" 
	d="
M114.706192,147.030334 
	C114.940521,147.761642 114.976440,148.483658 114.994965,149.567352 
	C114.630966,149.819931 114.284355,149.710800 113.783745,149.362549 
	C113.755074,148.681305 113.880409,148.239197 114.063805,147.456146 
	C114.121864,147.115219 114.507782,147.021027 114.706192,147.030334 
z"/>
<path fill="#A19DA2" opacity="1.000000" stroke="none" 
	d="
M55.890572,127.652740 
	C56.003628,128.094025 55.996128,128.314514 55.926910,128.860657 
	C55.833469,128.601532 55.801743,128.016739 55.890572,127.652740 
z"/>
<path fill="#E0FFFF" opacity="1.000000" stroke="none" 
	d="
M143.992615,145.990295 
	C144.086578,145.951859 144.188095,145.922882 144.154373,145.954346 
	C144.019150,146.014771 144.000153,145.999771 143.992615,145.990295 
z"/>
<path fill="#FDFDFD" opacity="1.000000" stroke="none" 
	d="
M94.968872,51.420006 
	C95.699562,48.610485 96.458794,46.225895 97.296791,43.473320 
	C105.040863,26.835340 117.040779,15.807981 134.978943,11.893972 
	C162.763641,5.831503 190.466156,23.515566 196.700912,51.331841 
	C202.794296,78.517227 185.409576,106.363731 158.087265,112.645210 
	C152.091064,114.023750 145.341217,115.849602 139.744202,114.386681 
	C130.818207,112.053642 121.553177,108.495399 114.236313,103.036263 
	C97.320366,90.415215 91.302155,72.713364 94.968872,51.420006 
M166.061722,93.509094 
	C166.076172,93.335724 166.090607,93.162354 166.385208,92.672714 
	C166.577820,92.466530 166.786713,92.278435 167.803207,92.068855 
	C168.850159,92.115326 169.897125,92.161797 171.356720,92.729950 
	C175.349884,95.926399 175.733154,91.362061 178.134796,89.874367 
	C173.626572,85.580460 175.461243,82.717430 180.698914,80.501045 
	C179.342239,78.448280 178.007294,75.254181 177.191406,75.381676 
	C171.257492,76.308975 171.808563,72.082748 171.504211,68.553871 
	C169.518158,68.087601 167.774002,67.678116 165.869797,67.231056 
	C164.136642,69.320763 164.054764,74.500854 159.934906,70.449112 
	C162.259186,67.784737 163.385956,65.580040 159.742630,62.600548 
	C157.852234,61.054581 158.194489,57.945953 161.636948,57.061306 
	C162.731720,56.779968 163.882629,56.716953 165.243546,56.519905 
	C165.409866,53.435291 167.329102,50.043297 161.770935,49.748611 
	C158.860992,49.594326 157.916122,46.049198 159.938797,43.874916 
	C160.810730,42.937630 161.901321,42.203770 163.104401,41.200924 
	C161.950531,39.386532 160.914581,37.757568 159.931915,36.212372 
	C154.305405,38.224274 154.305405,38.224274 151.555496,34.459251 
	C152.114212,32.757767 152.662994,31.086536 153.257202,29.276917 
	C151.336227,28.283751 149.761963,27.469833 148.276794,26.701982 
	C142.916229,32.378624 141.184601,32.061192 138.540573,25.150232 
	C136.771027,25.150232 134.973557,25.150232 133.236893,25.150232 
	C131.071960,31.887047 129.315994,32.178226 123.386024,26.632271 
	C121.867355,27.561153 120.265099,28.541157 119.661842,28.910131 
	C119.495773,32.123928 120.177345,35.202404 119.092941,36.067696 
	C117.506523,37.333569 114.653801,37.012482 112.340759,37.367741 
	C112.170311,36.994724 111.999855,36.621708 111.829399,36.248692 
	C110.865433,37.926929 109.901466,39.605167 109.519188,40.270718 
	C110.895805,43.137653 112.921860,45.398720 112.535492,47.117508 
	C112.168182,48.751545 109.279121,49.818729 106.615852,51.788101 
	C106.534088,53.456287 104.691826,56.941566 110.224739,57.129028 
	C111.122589,57.159451 112.539223,58.557053 112.698433,59.495377 
	C112.898315,60.673409 112.259689,62.156788 111.586990,63.268894 
	C111.035576,64.180481 109.904770,64.741600 108.880272,65.581467 
	C110.009941,67.389580 111.037651,69.034492 111.316010,69.480026 
	C114.719200,69.859261 117.689217,69.341614 118.889877,70.563118 
	C120.086311,71.780319 119.507904,74.742065 119.797997,77.932281 
	C120.438522,78.318047 122.060570,79.294945 123.608711,80.227333 
	C129.211227,74.165550 130.755157,74.594460 133.529419,82.626274 
	C135.282654,82.626274 137.045517,82.626274 138.732941,82.626274 
	C140.782318,74.670403 142.083618,74.353775 149.096344,80.585007 
	C150.414017,78.919991 151.721603,77.267715 153.695404,76.069366 
	C153.834198,77.759171 154.638748,80.554085 153.993652,80.942696 
	C151.528763,82.427612 149.729813,84.223305 151.483047,86.707817 
	C152.451462,88.080132 155.188889,88.203346 157.128036,88.891914 
	C157.591980,89.056656 158.052704,89.230423 158.833832,90.138535 
	C159.542099,92.499977 157.558701,96.575218 163.103027,96.526665 
	C163.740540,96.353180 164.378067,96.179688 165.458176,95.636284 
	C165.580017,95.082047 165.701859,94.527809 166.061722,93.509094 
z"/>
<path fill="#2DAAB0" opacity="1.000000" stroke="none" 
	d="
M78.971619,51.023270 
	C79.492477,49.771343 79.921234,47.495792 80.549637,47.439255 
	C83.801720,47.146660 87.104866,47.421421 90.390205,47.498390 
	C90.307869,48.411495 90.225533,49.324596 90.231682,50.606750 
	C90.196190,52.134209 90.072205,53.292610 89.463318,54.907585 
	C88.324135,56.757542 87.110359,58.147106 87.100807,59.544907 
	C86.986275,76.296257 87.050346,93.048828 87.311203,110.143112 
	C96.357002,110.364372 105.159332,110.243599 114.218521,110.024536 
	C114.656448,109.897430 114.837517,109.868607 115.018593,109.839775 
	C117.293297,111.041801 119.568001,112.243835 121.566551,113.800842 
	C107.283134,114.218834 93.275864,114.281845 79.268600,114.344864 
	C79.214699,112.522331 79.160789,110.699799 79.083801,107.962196 
	C79.031021,88.372505 79.001320,69.697891 78.971619,51.023270 
z"/>
<path fill="#F5FAFA" opacity="1.000000" stroke="none" 
	d="
M79.236626,114.770889 
	C93.275864,114.281845 107.283134,114.218834 121.782745,114.080383 
	C131.936996,117.115311 141.687149,119.630615 151.983521,118.161369 
	C154.765289,117.764420 157.749786,117.746307 160.257538,116.664696 
	C168.027802,113.313316 176.141510,113.752861 184.223404,113.997292 
	C186.144180,114.055382 188.024399,115.454514 190.000031,116.823196 
	C190.033386,117.583916 189.989990,117.758232 189.946609,117.932541 
	C189.052444,118.762383 188.158295,119.592224 187.177429,120.713852 
	C151.323517,121.005638 115.556328,121.005638 79.204651,121.005638 
	C79.204651,119.018684 79.204651,117.107803 79.236626,114.770889 
z"/>
<path fill="#F06129" opacity="1.000000" stroke="none" 
	d="
M190.298767,117.983643 
	C189.989990,117.758232 190.033386,117.583916 190.188812,117.164932 
	C193.522614,113.806633 196.744370,110.693008 200.301254,107.245529 
	C200.636368,106.911667 200.974045,106.931267 200.974045,106.931267 
	C208.381271,114.511391 215.792816,122.087318 223.191620,129.675644 
	C224.462677,130.979233 225.679596,132.335602 227.088654,133.993973 
	C224.091064,137.570099 220.926300,140.819839 217.441864,144.196503 
	C208.298447,135.560516 199.474686,126.797630 190.298767,117.983643 
z"/>
<path fill="#F8FBFB" opacity="1.000000" stroke="none" 
	d="
M87.067726,109.801079 
	C87.050346,93.048828 86.986275,76.296257 87.100807,59.544907 
	C87.110359,58.147106 88.324135,56.757542 89.366676,55.333458 
	C87.899841,77.990334 95.925323,96.114571 114.851730,109.560532 
	C114.837517,109.868607 114.656448,109.897430 113.756813,109.959526 
	C104.381401,109.928894 95.724564,109.864990 87.067726,109.801079 
z"/>
<path fill="#2DA8AE" opacity="1.000000" stroke="none" 
	d="
M212.705109,110.011963 
	C210.484375,108.589668 208.358475,106.661880 206.102203,104.099030 
	C205.693176,102.652596 205.414520,101.841232 205.081345,100.763885 
	C205.063110,100.320580 205.099426,100.143257 205.403473,99.653610 
	C205.766144,86.478127 205.872192,73.614990 205.919113,60.751652 
	C205.921204,60.179794 205.384964,59.605972 205.028717,58.664726 
	C204.016663,57.293869 203.075363,56.291351 202.134064,55.288841 
	C201.715149,52.826302 201.296219,50.363766 200.951004,47.485382 
	C204.677460,47.069538 208.330185,47.069538 212.799927,47.069538 
	C212.799927,68.079857 212.799927,88.793159 212.705109,110.011963 
z"/>
<path fill="#F6FAFA" opacity="1.000000" stroke="none" 
	d="
M202.091156,55.733685 
	C203.075363,56.291351 204.016663,57.293869 204.972565,59.127579 
	C205.036697,73.294495 205.086212,86.630219 205.135727,99.965935 
	C205.099426,100.143257 205.063110,100.320580 205.011719,101.073547 
	C204.921494,102.272331 204.846375,102.895477 204.771240,103.518616 
	C203.601852,104.462929 202.432480,105.407249 201.118576,106.641418 
	C200.974045,106.931267 200.636368,106.911667 200.470367,106.941498 
	C198.065628,104.572960 195.826859,102.174583 193.353470,99.524841 
	C194.429184,98.277725 195.455719,97.087646 196.482254,95.897568 
	C195.987061,95.789238 195.491867,95.680908 194.996674,95.572578 
	C195.246262,93.302010 194.877350,90.715691 195.848465,88.813454 
	C201.115448,78.496307 202.840775,67.599030 202.091156,55.733685 
z"/>
<path fill="#2B3529" opacity="1.000000" stroke="none" 
	d="
M78.672943,51.312641 
	C79.001320,69.697891 79.031021,88.372505 79.015694,107.511658 
	C78.659538,107.416809 78.074959,106.856468 78.076920,106.298187 
	C78.141251,88.066010 78.261948,69.834023 78.672943,51.312641 
z"/>
<path fill="#5B565C" opacity="1.000000" stroke="none" 
	d="
M191.113831,125.975029 
	C191.468704,125.932083 191.743500,126.143394 192.168793,126.570618 
	C192.086243,126.816742 191.853210,126.846970 191.273041,126.814301 
	C190.961868,126.577362 190.997818,126.403320 191.113831,125.975029 
z"/>
<path fill="#31A0B4" opacity="1.000000" stroke="none" 
	d="
M205.036652,103.722282 
	C204.846375,102.895477 204.921494,102.272331 205.066254,101.339523 
	C205.414520,101.841232 205.693176,102.652596 205.952789,103.805206 
	C205.723190,104.072952 205.512619,103.999451 205.036652,103.722282 
z"/>
<path fill="#FEFEFE" opacity="1.000000" stroke="none" 
	d="
M158.204666,149.006409 
	C158.375137,148.888687 158.548691,148.945236 158.722229,149.001770 
	C158.550735,149.061401 158.379242,149.121033 158.204666,149.006409 
z"/>
<path fill="#FEFEFE" opacity="1.000000" stroke="none" 
	d="
M173.909882,145.819458 
	C174.007828,146.465134 173.990356,146.895142 173.908051,147.641388 
	C173.566345,147.195938 173.289474,146.434235 173.017822,145.351746 
	C173.348389,145.130035 173.605515,145.320984 173.909882,145.819458 
z"/>
<path fill="#35AFB5" opacity="1.000000" stroke="none" 
	d="
M153.029205,75.615433 
	C151.721603,77.267715 150.414017,78.919991 149.096344,80.585007 
	C142.083618,74.353775 140.782318,74.670403 138.732941,82.626274 
	C137.045517,82.626274 135.282654,82.626274 133.529419,82.626274 
	C130.755157,74.594460 129.211227,74.165550 123.608711,80.227333 
	C122.060570,79.294945 120.438522,78.318047 119.797997,77.932281 
	C119.507904,74.742065 120.086311,71.780319 118.889877,70.563118 
	C117.689217,69.341614 114.719200,69.859261 111.316010,69.480026 
	C111.037651,69.034492 110.009941,67.389580 108.880272,65.581467 
	C109.904770,64.741600 111.035576,64.180481 111.586990,63.268894 
	C112.259689,62.156788 112.898315,60.673409 112.698433,59.495377 
	C112.539223,58.557053 111.122589,57.159451 110.224739,57.129028 
	C104.691826,56.941566 106.534088,53.456287 106.615852,51.788101 
	C109.279121,49.818729 112.168182,48.751545 112.535492,47.117508 
	C112.921860,45.398720 110.895805,43.137653 109.519188,40.270718 
	C109.901466,39.605167 110.865433,37.926929 111.829399,36.248692 
	C111.999855,36.621708 112.170311,36.994724 112.340759,37.367741 
	C114.653801,37.012482 117.506523,37.333569 119.092941,36.067696 
	C120.177345,35.202404 119.495773,32.123928 119.661842,28.910131 
	C120.265099,28.541157 121.867355,27.561153 123.386024,26.632271 
	C129.315994,32.178226 131.071960,31.887047 133.236893,25.150232 
	C134.973557,25.150232 136.771027,25.150232 138.540573,25.150232 
	C141.184601,32.061192 142.916229,32.378624 148.276794,26.701982 
	C149.761963,27.469833 151.336227,28.283751 153.257202,29.276917 
	C152.662994,31.086536 152.114212,32.757767 151.555496,34.459251 
	C154.305405,38.224274 154.305405,38.224274 159.931915,36.212372 
	C160.914581,37.757568 161.950531,39.386532 163.104401,41.200924 
	C161.901321,42.203770 160.810730,42.937630 159.938797,43.874916 
	C157.916122,46.049198 158.860992,49.594326 161.770935,49.748611 
	C167.329102,50.043297 165.409866,53.435291 165.243546,56.519905 
	C163.882629,56.716953 162.731720,56.779968 161.636948,57.061306 
	C158.194489,57.945953 157.852234,61.054581 159.742630,62.600548 
	C163.385956,65.580040 162.259186,67.784737 159.317871,70.669693 
	C153.444260,69.222237 152.571579,69.949287 153.029205,75.615433 
M126.907951,36.574974 
	C125.195374,37.978008 123.482788,39.381039 121.178978,41.153519 
	C114.091782,50.524487 115.501198,62.079426 124.566116,68.922485 
	C132.933655,75.239098 145.147339,73.353745 151.646454,64.742249 
	C157.980927,56.348915 155.991455,44.624287 146.651764,37.390446 
	C140.928162,33.939625 135.026901,32.562054 128.294724,35.920258 
	C128.002594,35.986561 127.756859,36.131496 126.907951,36.574974 
z"/>
<path fill="#C3D857" opacity="1.000000" stroke="none" 
	d="
M153.362305,75.842400 
	C152.571579,69.949287 153.444260,69.222237 159.029251,70.936852 
	C164.054764,74.500854 164.136642,69.320763 165.869797,67.231056 
	C167.774002,67.678116 169.518158,68.087601 171.504211,68.553871 
	C171.808563,72.082748 171.257492,76.308975 177.191406,75.381676 
	C178.007294,75.254181 179.342239,78.448280 180.698914,80.501045 
	C175.461243,82.717430 173.626572,85.580460 178.134796,89.874367 
	C175.733154,91.362061 175.349884,95.926399 171.034164,92.184486 
	C170.499832,90.359085 170.288040,89.079140 170.424652,87.790894 
	C171.190247,86.852989 171.607422,85.923393 172.009216,84.994690 
	C171.993851,84.995567 172.001572,85.025391 172.366119,84.960739 
	C175.402542,80.667511 173.195969,77.338524 169.991440,75.228256 
	C166.611710,73.002617 162.581375,72.429726 159.242859,76.687561 
	C155.941971,80.351799 156.220383,83.812912 159.021866,87.537613 
	C159.006271,88.219925 159.003128,88.609962 158.879135,89.100510 
	C158.758270,89.201012 158.514908,89.400040 158.514908,89.400040 
	C158.052704,89.230423 157.591980,89.056656 157.128036,88.891914 
	C155.188889,88.203346 152.451462,88.080132 151.483047,86.707817 
	C149.729813,84.223305 151.528763,82.427612 153.993652,80.942696 
	C154.638748,80.554085 153.834198,77.759171 153.362305,75.842400 
z"/>
<path fill="#C6D961" opacity="1.000000" stroke="none" 
	d="
M170.076263,87.799202 
	C170.288040,89.079140 170.499832,90.359085 170.827850,91.923645 
	C169.897125,92.161797 168.850159,92.115326 167.404129,91.811432 
	C167.003174,91.369446 167.001282,91.184875 166.999695,91.000153 
	C167.000000,91.000000 167.000504,90.999397 167.281036,90.756561 
	C167.196548,89.197464 166.831528,87.881218 166.746552,86.359634 
	C167.768112,84.239342 169.642929,81.334953 169.014923,80.615631 
	C167.711517,79.122650 165.079819,78.789307 162.837830,77.716095 
	C162.343414,77.225021 162.005341,76.997078 161.933121,76.542946 
	C168.604767,74.214149 171.800079,77.052872 172.001572,85.025391 
	C172.001572,85.025391 171.993851,84.995567 171.704178,85.063370 
	C170.968430,86.020508 170.522339,86.909859 170.076263,87.799202 
z"/>
<path fill="#C3D857" opacity="1.000000" stroke="none" 
	d="
M166.999390,91.000305 
	C167.001282,91.184875 167.003174,91.369446 167.008484,91.831223 
	C166.786713,92.278435 166.577820,92.466530 166.067215,92.893082 
	C165.660980,93.198746 165.482803,93.316765 165.499893,93.363762 
	C165.577835,93.577950 165.710632,93.772171 165.823700,93.973579 
	C165.701859,94.527809 165.580017,95.082047 164.843597,95.824661 
	C163.704758,96.056015 163.180511,96.098984 162.656265,96.141953 
	C157.558701,96.575218 159.542099,92.499977 158.674377,89.769287 
	C158.514908,89.400040 158.758270,89.201012 159.264038,89.107109 
	C162.179657,89.675568 164.589523,90.337936 166.999390,91.000305 
z"/>
<path fill="#C6D961" opacity="1.000000" stroke="none" 
	d="
M162.879639,96.334305 
	C163.180511,96.098984 163.704758,96.056015 164.622284,96.009628 
	C164.378067,96.179688 163.740540,96.353180 162.879639,96.334305 
z"/>
<path fill="#C6D961" opacity="1.000000" stroke="none" 
	d="
M165.942719,93.741333 
	C165.710632,93.772171 165.577835,93.577950 165.499893,93.363762 
	C165.482803,93.316765 165.660980,93.198746 165.927139,93.051208 
	C166.090607,93.162354 166.076172,93.335724 165.942719,93.741333 
z"/>
<path fill="#30A2A7" opacity="1.000000" stroke="none" 
	d="
M87.311203,110.143112 
	C95.724564,109.864990 104.381401,109.928894 113.499954,110.057808 
	C105.159332,110.243599 96.357002,110.364372 87.311203,110.143112 
z"/>
<path fill="#31A0B4" opacity="1.000000" stroke="none" 
	d="
M205.403473,99.653610 
	C205.086212,86.630219 205.036697,73.294495 205.043320,59.495922 
	C205.384964,59.605972 205.921204,60.179794 205.919113,60.751652 
	C205.872192,73.614990 205.766144,86.478127 205.403473,99.653610 
z"/>
<path fill="#D9F1F2" opacity="1.000000" stroke="none" 
	d="
M147.100067,37.948906 
	C155.991455,44.624287 157.980927,56.348915 151.646454,64.742249 
	C145.147339,73.353745 132.933655,75.239098 124.566116,68.922485 
	C115.501198,62.079426 114.091782,50.524487 121.721024,41.205429 
	C122.426994,41.415447 122.590935,41.573559 122.544067,42.011848 
	C121.759178,43.304508 121.117744,44.285179 120.621964,45.334660 
	C117.516136,51.909172 117.685204,58.369473 122.329918,64.071510 
	C126.870384,69.645561 132.875061,71.961411 140.118820,70.170959 
	C146.684982,68.547981 151.142487,64.379402 152.752365,57.993835 
	C154.662140,50.418728 152.278687,43.873978 146.134750,38.723850 
	C146.538834,38.317204 146.819443,38.133053 147.100067,37.948906 
z"/>
<path fill="#D4EFF0" opacity="1.000000" stroke="none" 
	d="
M146.875916,37.669674 
	C146.819443,38.133053 146.538834,38.317204 145.789001,38.597855 
	C140.480423,35.777832 135.345917,35.422825 129.843201,36.688908 
	C129.368103,36.250824 129.046783,36.052551 128.725464,35.854279 
	C135.026901,32.562054 140.928162,33.939625 146.875916,37.669674 
z"/>
<path fill="#D9F1F2" opacity="1.000000" stroke="none" 
	d="
M122.016632,41.020706 
	C123.482788,39.381039 125.195374,37.978008 127.427956,36.752193 
	C128.092484,37.107433 128.237015,37.285458 128.145050,37.685448 
	C126.190651,39.182171 124.472763,40.456921 122.754868,41.731670 
	C122.590935,41.573559 122.426994,41.415447 122.016632,41.020706 
z"/>
<path fill="#D9F1F2" opacity="1.000000" stroke="none" 
	d="
M128.510101,35.887268 
	C129.046783,36.052551 129.368103,36.250824 129.586334,36.812767 
	C129.116013,37.272114 128.748779,37.367798 128.381546,37.463478 
	C128.237015,37.285458 128.092484,37.107433 127.752739,36.642235 
	C127.756859,36.131496 128.002594,35.986561 128.510101,35.887268 
z"/>
<path fill="#F2F6D7" opacity="1.000000" stroke="none" 
	d="
M172.366119,84.960739 
	C171.800079,77.052872 168.604767,74.214149 161.695831,76.616570 
	C160.884506,77.042595 160.571487,77.155396 160.082916,77.070969 
	C159.797760,76.765190 159.683350,76.643211 159.568939,76.521240 
	C162.581375,72.429726 166.611710,73.002617 169.991440,75.228256 
	C173.195969,77.338524 175.402542,80.667511 172.366119,84.960739 
z"/>
<path fill="#C6D961" opacity="1.000000" stroke="none" 
	d="
M166.999695,91.000153 
	C164.589523,90.337936 162.179657,89.675568 159.384888,89.006607 
	C159.003128,88.609962 159.006271,88.219925 159.061157,87.134888 
	C159.122955,85.637253 159.133026,84.834610 159.365509,84.206512 
	C160.125793,84.868698 160.663651,85.356339 161.147614,85.846848 
	C161.093719,85.849724 161.158035,85.763023 161.245575,86.060837 
	C161.887924,86.573250 162.442734,86.787849 163.230774,87.274681 
	C164.642822,88.697746 165.821655,89.848572 167.000504,90.999397 
	C167.000504,90.999397 167.000000,91.000000 166.999695,91.000153 
z"/>
<path fill="#F2F6D7" opacity="1.000000" stroke="none" 
	d="
M159.143112,84.031975 
	C159.133026,84.834610 159.122955,85.637253 159.073608,86.842621 
	C156.220383,83.812912 155.941971,80.351799 159.242859,76.687561 
	C159.683350,76.643211 159.797760,76.765190 159.948380,77.426750 
	C159.704086,79.988213 159.423599,82.010094 159.143112,84.031975 
z"/>
<path fill="#F2F6D7" opacity="1.000000" stroke="none" 
	d="
M170.424652,87.790894 
	C170.522339,86.909859 170.968430,86.020508 171.719543,85.062485 
	C171.607422,85.923393 171.190247,86.852989 170.424652,87.790894 
z"/>
<path fill="#FCFDF4" opacity="1.000000" stroke="none" 
	d="
M162.994202,77.979233 
	C165.079819,78.789307 167.711517,79.122650 169.014923,80.615631 
	C169.642929,81.334953 167.768112,84.239342 166.493988,86.372208 
	C165.451035,86.667015 164.940689,86.743919 164.223663,86.640671 
	C163.673950,86.354927 163.330933,86.249336 162.700531,85.972885 
	C161.994766,85.789032 161.576401,85.776031 161.158035,85.763023 
	C161.158035,85.763023 161.093719,85.849724 161.233307,85.441124 
	C161.913330,82.681427 162.453766,80.330330 162.994202,77.979233 
z"/>
<path fill="#C3D857" opacity="1.000000" stroke="none" 
	d="
M162.837830,77.716095 
	C162.453766,80.330330 161.913330,82.681427 161.287216,85.438248 
	C160.663651,85.356339 160.125793,84.868698 159.365509,84.206512 
	C159.423599,82.010094 159.704086,79.988213 160.119110,77.610550 
	C160.571487,77.155396 160.884506,77.042595 161.429993,76.842758 
	C162.005341,76.997078 162.343414,77.225021 162.837830,77.716095 
z"/>
<path fill="#C3D857" opacity="1.000000" stroke="none" 
	d="
M164.430359,86.820816 
	C164.940689,86.743919 165.451035,86.667015 166.213928,86.577545 
	C166.831528,87.881218 167.196548,89.197464 167.281036,90.756561 
	C165.821655,89.848572 164.642822,88.697746 163.231995,87.273460 
	C163.000000,87.000000 163.002441,86.997467 163.360809,86.964615 
	C163.956253,86.894783 164.193314,86.857796 164.430359,86.820816 
z"/>
<path fill="#2EAEB5" opacity="1.000000" stroke="none" 
	d="
M128.145050,37.685448 
	C128.748779,37.367798 129.116013,37.272114 129.740112,37.052574 
	C135.345917,35.422825 140.480423,35.777832 145.665527,38.820351 
	C152.278687,43.873978 154.662140,50.418728 152.752365,57.993835 
	C151.142487,64.379402 146.684982,68.547981 140.118820,70.170959 
	C132.875061,71.961411 126.870384,69.645561 122.329918,64.071510 
	C117.685204,58.369473 117.516136,51.909172 120.621964,45.334660 
	C121.117744,44.285179 121.759178,43.304508 122.544067,42.011848 
	C124.472763,40.456921 126.190651,39.182171 128.145050,37.685448 
M139.146835,50.131802 
	C137.306656,49.944229 134.858047,48.958061 133.784164,49.776257 
	C132.513107,50.744678 131.407333,53.927738 132.074066,54.961952 
	C133.015823,56.422726 135.921997,57.831581 137.500702,57.414902 
	C140.808563,56.541824 141.392578,53.733154 139.146835,50.131802 
z"/>
<path fill="#C3D857" opacity="1.000000" stroke="none" 
	d="
M161.245575,86.060837 
	C161.576401,85.776031 161.994766,85.789032 162.703491,86.186111 
	C162.993851,86.570183 163.002441,86.997467 163.002441,86.997467 
	C163.002441,86.997467 163.000000,87.000000 162.998779,87.001221 
	C162.442734,86.787849 161.887924,86.573250 161.245575,86.060837 
z"/>
<path fill="#C6D961" opacity="1.000000" stroke="none" 
	d="
M163.360809,86.964615 
	C163.002441,86.997467 162.993851,86.570183 162.990891,86.356964 
	C163.330933,86.249336 163.673950,86.354927 164.223663,86.640671 
	C164.193314,86.857796 163.956253,86.894783 163.360809,86.964615 
z"/>
<path fill="#EFF9F9" opacity="1.000000" stroke="none" 
	d="
M139.405930,50.405598 
	C141.392578,53.733154 140.808563,56.541824 137.500702,57.414902 
	C135.921997,57.831581 133.015823,56.422726 132.074066,54.961952 
	C131.407333,53.927738 132.513107,50.744678 133.784164,49.776257 
	C134.858047,48.958061 137.306656,49.944229 139.405930,50.405598 
z"/>
</svg>