<svg version="1.1" id="Layer_1" xmlns="http://www.w3.org/2000/svg" xmlns:xlink="http://www.w3.org/1999/xlink" x="0px" y="0px"
	 width="100%" viewBox="0 0 225 225" enable-background="new 0 0 225 225" xml:space="preserve">
<path fill="#0D56C9" opacity="1.000000" stroke="none" 
	d="
M130.000000,226.000000 
	C86.666672,226.000000 43.833340,226.000000 1.000006,226.000000 
	C1.000004,151.000000 1.000004,76.000015 1.000002,1.000016 
	C75.999992,1.000010 150.999985,1.000010 225.999969,1.000005 
	C225.999985,75.999985 225.999985,150.999969 226.000000,225.999969 
	C194.166672,226.000000 162.333328,226.000000 130.000000,226.000000 
M179.243561,87.740479 
	C179.341492,87.522858 179.287369,87.353874 179.391174,86.526009 
	C179.483231,86.022202 179.575302,85.518394 179.961197,84.255066 
	C180.255478,81.831924 180.549774,79.408783 180.979996,76.322281 
	C181.047104,75.649712 181.114197,74.977150 181.616226,73.698288 
	C181.718796,72.474991 181.821365,71.251686 182.155136,69.312424 
	C182.277115,68.571991 182.399078,67.831566 182.831558,66.503014 
	C182.958984,64.969528 183.086395,63.436039 183.535187,61.326286 
	C183.579407,60.891621 183.623642,60.456951 183.941925,59.323879 
	C183.971649,58.580986 184.001373,57.838097 184.117767,57.034939 
	C184.117767,57.034939 184.063049,56.944683 184.432541,56.482849 
	C184.272308,55.370533 184.112061,54.258217 183.997482,53.053566 
	C183.997482,53.053566 183.904678,53.008873 183.854752,52.316696 
	C182.228256,51.509857 180.601761,50.703018 178.287674,49.443306 
	C177.310745,49.298325 176.333908,49.027073 175.356888,49.026535 
	C133.804092,49.003643 92.251266,48.992519 50.698536,49.050694 
	C49.123486,49.052898 47.549416,49.754471 46.179379,49.909344 
	C46.179379,49.909344 46.403187,50.110542 45.861134,50.372463 
	C45.574120,50.648739 45.287109,50.925018 45.037548,51.041534 
	C45.037548,51.041534 45.196598,51.081882 44.500454,51.215118 
	C40.724335,54.442966 42.714897,57.706718 44.208954,60.995846 
	C44.208954,60.995846 44.189213,60.764336 44.146317,61.537102 
	C44.640202,63.328300 45.134087,65.119499 45.967319,67.710121 
	C47.357002,78.358589 48.536842,89.039818 50.193115,99.646660 
	C51.987854,111.140190 54.168900,122.575073 56.289188,134.015579 
	C58.144138,144.024399 60.148510,154.005524 61.867287,164.684128 
	C62.495235,168.509140 61.253506,172.863632 65.258690,176.566376 
	C67.252060,177.045227 69.244057,177.934494 71.238998,177.941132 
	C99.214462,178.034073 127.190361,178.024704 155.166016,177.969284 
	C157.101196,177.965454 159.035278,177.400604 161.634674,176.845764 
	C162.863876,175.069107 164.093094,173.292450 165.720032,170.809753 
	C166.250107,167.003693 166.780182,163.197647 167.708466,158.699631 
	C168.180084,155.240173 168.651718,151.780701 169.495132,147.611282 
	C169.764771,145.248108 170.034409,142.884918 170.685577,139.889969 
	C170.774307,138.922394 170.863052,137.954819 171.299789,136.274307 
	C171.651718,133.332596 172.003632,130.390900 172.714752,126.783585 
	C172.879059,125.538818 173.043365,124.294052 173.585876,122.406631 
	C173.955750,119.906929 174.325623,117.407227 174.877441,114.105080 
	C175.090195,112.473045 175.302948,110.841011 175.789917,108.497704 
	C176.548187,103.370041 177.306442,98.242371 178.531158,92.899628 
	C178.617218,92.592110 178.703278,92.284592 178.926407,91.332329 
	C178.862747,90.897682 178.799072,90.463036 178.994019,89.404701 
	C178.994370,88.962570 178.994736,88.520447 179.080536,88.004257 
	C179.080536,88.004257 179.009842,87.916000 179.243561,87.740479 
z"/>
<path fill="#FEFEFE" opacity="1.000000" stroke="none" 
	d="
M178.735413,90.028381 
	C178.799072,90.463036 178.862747,90.897682 178.620392,91.680702 
	C177.891083,92.232735 177.467789,92.436394 176.606766,92.710487 
	C174.098969,92.818619 172.028900,92.856308 169.724930,92.694534 
	C168.357071,92.598610 167.223083,92.702156 165.620361,92.801704 
	C161.098282,92.889763 157.044952,92.981819 152.551804,93.003960 
	C149.736130,92.983582 147.360306,93.033104 144.571243,93.018829 
	C142.766312,92.992775 141.374619,93.030518 139.652557,92.994492 
	C138.875717,92.855194 138.429230,92.789665 137.792389,92.499893 
	C135.264053,91.744728 132.928909,90.774071 130.587616,90.759026 
	C120.437431,90.693771 110.282890,90.813240 100.136017,91.089096 
	C97.737312,91.154305 95.362183,92.086243 92.727852,92.721710 
	C92.310875,92.884171 92.142250,92.944397 91.656708,93.108551 
	C91.339790,98.003517 91.339790,102.794579 91.339790,107.585632 
	C91.821098,107.566650 92.302406,107.547661 92.783722,107.528679 
	C93.190735,107.016869 93.597748,106.505066 94.226196,106.178711 
	C94.500259,106.929588 94.552887,107.495033 94.446701,108.390190 
	C94.310463,112.235962 94.207977,115.761345 94.469009,119.259605 
	C94.516945,119.901970 96.040535,120.434219 96.997025,121.280029 
	C97.116516,121.921165 97.121971,122.299561 97.077194,123.136780 
	C97.662621,126.401840 98.298286,129.208084 99.060722,132.271088 
	C99.177528,132.908020 99.167557,133.288177 99.335754,134.008026 
	C102.004883,134.895264 104.495834,135.442841 107.292221,136.142395 
	C112.131828,142.809647 116.781685,149.248230 121.165588,155.863083 
	C125.054626,161.731232 128.648270,167.795166 132.509323,173.992584 
	C132.116577,174.675690 131.549194,175.662521 130.521332,176.734528 
	C111.047516,176.761047 92.034203,176.702393 72.976364,176.304504 
	C68.102493,173.247131 63.062435,170.716248 62.518696,164.197342 
	C62.512218,164.119720 62.236771,164.064545 62.086872,163.998886 
	C60.148510,154.005524 58.144138,144.024399 56.289188,134.015579 
	C54.168900,122.575073 51.987854,111.140190 50.193115,99.646660 
	C48.536842,89.039818 47.357002,78.358589 45.774078,66.955261 
	C45.116962,64.388374 44.653088,62.576355 44.189213,60.764336 
	C44.189213,60.764336 44.208954,60.995846 44.346298,60.534889 
	C44.721291,57.076580 44.958946,54.079231 45.196598,51.081882 
	C45.196598,51.081882 45.037548,51.041534 45.312794,51.109062 
	C45.778877,51.136482 45.969719,51.096375 46.618553,51.085247 
	C89.803558,51.093613 132.530655,51.035122 175.257385,51.136600 
	C178.141281,51.143452 181.022308,52.356709 183.904678,53.008873 
	C183.904678,53.008873 183.997482,53.053566 183.917435,53.478512 
	C183.912613,54.917198 183.987839,55.930939 184.063049,56.944683 
	C184.063049,56.944683 184.117767,57.034939 183.872665,57.250832 
	C183.640991,58.318577 183.654434,59.170429 183.667877,60.022282 
	C183.623642,60.456951 183.579407,60.891621 183.137756,61.794441 
	C182.667221,63.872112 182.594147,65.481628 182.521057,67.091141 
	C182.399078,67.831566 182.277115,68.571991 181.820602,69.970963 
	C181.384476,71.854530 181.282883,73.079552 181.181290,74.304581 
	C181.114197,74.977150 181.047104,75.649712 180.710709,76.854782 
	C179.427490,78.106102 178.413559,78.824913 177.503387,79.470177 
	C178.252396,81.389236 178.959885,83.201912 179.667374,85.014587 
	C179.575302,85.518394 179.483231,86.022202 179.145935,86.975708 
	C178.828568,87.613075 178.864944,87.776604 179.009842,87.916000 
	C179.009842,87.916000 179.080536,88.004257 178.862579,88.184959 
	C178.674896,88.919899 178.705154,89.474144 178.735413,90.028381 
M97.606110,135.079956 
	C97.606110,135.079956 97.456673,134.862732 97.456673,134.862732 
	C97.456673,134.862732 97.473465,135.142914 97.606110,135.079956 
M91.497742,113.526855 
	C91.497742,113.526855 91.482964,113.487122 91.497742,113.526855 
M96.471359,89.498024 
	C96.471359,89.498024 96.513634,89.481636 96.471359,89.498024 
z"/>
<path fill="#A3C2EB" opacity="1.000000" stroke="none" 
	d="
M169.123337,148.321243 
	C168.651718,151.780701 168.180084,155.240173 167.316238,158.692535 
	C166.607895,156.468628 166.291779,154.251801 165.981552,152.076279 
	C162.163803,153.620270 162.864334,149.954193 161.977539,147.630402 
	C157.089172,139.548508 152.217194,131.837479 147.345123,124.126495 
	C146.484253,122.763985 145.682739,121.359299 144.751190,120.046913 
	C141.184891,115.022560 137.576736,110.027916 133.717896,104.852173 
	C133.971771,103.121513 134.491959,101.560860 135.300995,100.169907 
	C137.186234,101.755836 139.112366,102.935791 140.324356,104.627396 
	C147.151428,114.156052 153.936249,123.720894 160.465271,133.454636 
	C163.653351,138.207550 166.255814,143.353302 169.123337,148.321243 
z"/>
<path fill="#99BBE9" opacity="1.000000" stroke="none" 
	d="
M169.309235,147.966263 
	C166.255814,143.353302 163.653351,138.207550 160.465271,133.454636 
	C153.936249,123.720894 147.151428,114.156052 140.324356,104.627396 
	C139.112366,102.935791 137.186234,101.755836 135.273056,99.781517 
	C134.955826,98.445580 134.955399,97.667747 135.092804,96.594345 
	C135.474182,95.229912 135.717712,94.161041 136.299835,93.037933 
	C137.086548,92.897186 137.534637,92.810669 137.982742,92.724152 
	C138.429230,92.789665 138.875717,92.855194 139.536621,93.276688 
	C139.676575,93.955399 139.427582,94.390877 139.552750,94.584694 
	C145.371353,103.594086 151.143829,112.634956 157.096436,121.555542 
	C161.371750,127.962517 165.892685,134.205566 170.304062,140.521744 
	C170.034409,142.884918 169.764771,145.248108 169.309235,147.966263 
z"/>
<path fill="#B3CDEF" opacity="1.000000" stroke="none" 
	d="
M161.993896,148.001266 
	C162.864334,149.954193 162.163803,153.620270 165.981552,152.076279 
	C166.291779,154.251801 166.607895,156.468628 167.117142,159.038513 
	C166.780182,163.197647 166.250107,167.003693 165.426025,170.750702 
	C165.064499,170.133575 164.996979,169.575485 164.950806,168.581970 
	C165.677795,164.205139 164.395599,161.143234 161.159637,158.722488 
	C159.466843,157.456146 157.719620,156.013031 156.610001,154.261414 
	C152.599197,147.930023 148.848358,141.433914 144.999359,134.602173 
	C145.161072,128.016129 139.927368,126.581642 136.002121,123.621063 
	C135.997665,122.503807 135.994049,121.759056 135.992828,120.612915 
	C135.997040,119.141121 135.998825,118.070709 136.334900,117.071823 
	C141.257492,123.053955 145.739655,129.051193 150.468201,134.847382 
	C154.151062,139.361755 158.140640,143.625916 161.993896,148.001266 
z"/>
<path fill="#91B4E6" opacity="1.000000" stroke="none" 
	d="
M170.494812,140.205856 
	C165.892685,134.205566 161.371750,127.962517 157.096436,121.555542 
	C151.143829,112.634956 145.371353,103.594086 139.552750,94.584694 
	C139.427582,94.390877 139.676575,93.955399 139.866974,93.350464 
	C141.374619,93.030518 142.766312,92.992775 144.455627,93.298065 
	C144.765533,94.274971 144.530197,95.074135 144.826691,95.518349 
	C151.076019,104.881561 157.476761,114.144882 163.641617,123.562767 
	C166.429428,127.821640 170.914642,131.214172 170.951782,136.987244 
	C170.863052,137.954819 170.774307,138.922394 170.494812,140.205856 
z"/>
<path fill="#89AFE6" opacity="1.000000" stroke="none" 
	d="
M171.125793,136.630768 
	C170.914642,131.214172 166.429428,127.821640 163.641617,123.562767 
	C157.476761,114.144882 151.076019,104.881561 144.826691,95.518349 
	C144.530197,95.074135 144.765533,94.274971 144.868835,93.361862 
	C147.360306,93.033104 149.736130,92.983582 152.548431,93.235001 
	C152.984909,93.535942 152.968964,93.997978 152.647430,94.019768 
	C152.129593,95.227303 151.351868,96.775902 151.829422,97.541107 
	C155.486282,103.400650 159.320618,109.153664 163.234543,114.847153 
	C166.171249,119.119080 169.307922,123.253532 172.355560,127.449188 
	C172.003632,130.390900 171.651718,133.332596 171.125793,136.630768 
z"/>
<path fill="#C5DAF3" opacity="1.000000" stroke="none" 
	d="
M164.929474,169.017395 
	C164.996979,169.575485 165.064499,170.133575 165.227173,171.103729 
	C164.093094,173.292450 162.863876,175.069107 160.973846,176.897003 
	C159.872711,176.869339 159.432404,176.790451 159.101837,176.418472 
	C160.143692,174.751709 161.075775,173.378036 162.197205,171.970230 
	C162.258926,171.623093 162.131302,171.310104 161.729706,170.780746 
	C158.996384,168.086014 156.119064,165.898422 154.155167,163.075394 
	C147.980728,154.199905 142.334229,144.953323 136.041000,136.167236 
	C134.664032,134.244827 134.235901,129.068558 129.371658,131.572189 
	C129.656906,129.831253 129.961487,128.443863 130.416565,127.203209 
	C131.045120,127.232819 131.523163,127.115700 132.206421,126.842033 
	C133.609909,127.788605 134.808197,128.891739 136.072830,130.333237 
	C138.481476,133.870834 140.984161,136.966324 143.133835,140.290131 
	C148.126404,148.009689 152.750412,155.975845 157.958466,163.542877 
	C159.557617,165.866364 162.566238,167.219772 164.929474,169.017395 
z"/>
<path fill="#81AAE4" opacity="1.000000" stroke="none" 
	d="
M172.535156,127.116386 
	C169.307922,123.253532 166.171249,119.119080 163.234543,114.847153 
	C159.320618,109.153664 155.486282,103.400650 151.829422,97.541107 
	C151.351868,96.775902 152.129593,95.227303 152.878296,94.252304 
	C154.618958,94.976204 155.807205,95.489365 157.061554,96.354340 
	C162.487656,105.487190 167.847656,114.268234 173.207672,123.049278 
	C173.043365,124.294052 172.879059,125.538818 172.535156,127.116386 
z"/>
<path fill="#CCE5F9" opacity="1.000000" stroke="none" 
	d="
M183.879715,52.662785 
	C181.022308,52.356709 178.141281,51.143452 175.257385,51.136600 
	C132.530655,51.035122 89.803558,51.093613 46.696465,50.853275 
	C46.316391,50.592319 46.403187,50.110542 46.403187,50.110542 
	C46.403187,50.110542 46.179379,49.909344 46.552208,50.063690 
	C49.580215,50.157494 52.235332,50.047497 54.890594,50.043816 
	C96.252136,49.986492 137.613708,49.942924 178.975266,49.896179 
	C180.601761,50.703018 182.228256,51.509857 183.879715,52.662785 
z"/>
<path fill="#0151A0" opacity="1.000000" stroke="none" 
	d="
M178.631470,49.669739 
	C137.613708,49.942924 96.252136,49.986492 54.890594,50.043816 
	C52.235332,50.047497 49.580215,50.157494 46.449959,50.174091 
	C47.549416,49.754471 49.123486,49.052898 50.698536,49.050694 
	C92.251266,48.992519 133.804092,49.003643 175.356888,49.026535 
	C176.333908,49.027073 177.310745,49.298325 178.631470,49.669739 
z"/>
<path fill="#78A4E3" opacity="1.000000" stroke="none" 
	d="
M173.396774,122.727951 
	C167.847656,114.268234 162.487656,105.487190 157.396790,96.353661 
	C158.112839,96.000885 158.559784,96.000595 159.329498,96.095352 
	C160.912796,97.688644 162.206955,99.160049 163.427567,100.690125 
	C167.198593,105.417252 170.941589,110.166725 174.695480,114.907524 
	C174.325623,117.407227 173.955750,119.906929 173.396774,122.727951 
z"/>
<path fill="#6798DD" opacity="1.000000" stroke="none" 
	d="
M169.958817,92.893997 
	C172.028900,92.856308 174.098969,92.818619 176.864655,92.822998 
	C177.728394,92.948273 177.896545,93.031487 178.064697,93.114708 
	C177.306442,98.242371 176.548187,103.370041 175.296967,108.674103 
	C171.876663,103.937599 168.949310,99.024689 166.054260,94.045883 
	C166.086563,93.979980 166.121490,93.837402 166.477081,93.867981 
	C167.874710,93.563713 168.916763,93.228859 169.958817,92.893997 
z"/>
<path fill="#044DB1" opacity="1.000000" stroke="none" 
	d="
M158.992081,176.711563 
	C159.432404,176.790451 159.872711,176.869339 160.641449,177.022430 
	C159.035278,177.400604 157.101196,177.965454 155.166016,177.969284 
	C127.190361,178.024704 99.214462,178.034073 71.238998,177.941132 
	C69.244057,177.934494 67.252060,177.045227 65.434563,176.227020 
	C66.001244,175.968735 66.392044,176.049805 66.981873,176.377090 
	C67.790627,176.662613 68.400368,176.701935 69.409866,176.803268 
	C70.880051,176.791443 71.950470,176.717575 73.020882,176.643707 
	C92.034203,176.702393 111.047516,176.761047 130.956116,176.826645 
	C134.987717,176.764801 138.124069,176.695999 141.657928,176.719635 
	C143.411850,176.759644 144.768250,176.707199 146.411179,176.748169 
	C148.087173,176.788254 149.476654,176.734924 151.255524,176.777130 
	C154.093964,176.818954 156.543030,176.765259 158.992081,176.711563 
z"/>
<path fill="#6F9DE0" opacity="1.000000" stroke="none" 
	d="
M166.021957,94.111786 
	C168.949310,99.024689 171.876663,103.937599 175.159851,109.029739 
	C175.302948,110.841011 175.090195,112.473045 174.786469,114.506302 
	C170.941589,110.166725 167.198593,105.417252 163.427567,100.690125 
	C162.206955,99.160049 160.912796,97.688644 159.470947,95.749451 
	C161.533737,94.909592 163.777847,94.510689 166.021957,94.111786 
z"/>
<path fill="#F3F9FC" opacity="1.000000" stroke="none" 
	d="
M66.782852,176.130890 
	C66.392044,176.049805 66.001244,175.968735 65.312965,175.844391 
	C61.253506,172.863632 62.495235,168.509140 61.977081,164.341507 
	C62.236771,164.064545 62.512218,164.119720 62.518696,164.197342 
	C63.062435,170.716248 68.102493,173.247131 72.976364,176.304504 
	C71.950470,176.717575 70.880051,176.791443 69.171997,176.617981 
	C67.950523,176.290756 67.366684,176.210815 66.782852,176.130890 
z"/>
<path fill="#CCE5F9" opacity="1.000000" stroke="none" 
	d="
M179.814285,84.634827 
	C178.959885,83.201912 178.252396,81.389236 177.503387,79.470177 
	C178.413559,78.824913 179.427490,78.106102 180.642731,77.186462 
	C180.549774,79.408783 180.255478,81.831924 179.814285,84.634827 
z"/>
<path fill="#0151A0" opacity="1.000000" stroke="none" 
	d="
M44.848526,51.148499 
	C44.958946,54.079231 44.721291,57.076580 44.461685,60.521370 
	C42.714897,57.706718 40.724335,54.442966 44.848526,51.148499 
z"/>
<path fill="#CCE5F9" opacity="1.000000" stroke="none" 
	d="
M182.676300,66.797073 
	C182.594147,65.481628 182.667221,63.872112 182.977051,62.082573 
	C183.086395,63.436039 182.958984,64.969528 182.676300,66.797073 
z"/>
<path fill="#0151A0" opacity="1.000000" stroke="none" 
	d="
M44.167763,61.150719 
	C44.653088,62.576355 45.116962,64.388374 45.604404,66.555542 
	C45.134087,65.119499 44.640202,63.328300 44.167763,61.150719 
z"/>
<path fill="#CCE5F9" opacity="1.000000" stroke="none" 
	d="
M181.398758,74.001434 
	C181.282883,73.079552 181.384476,71.854530 181.705002,70.328949 
	C181.821365,71.251686 181.718796,72.474991 181.398758,74.001434 
z"/>
<path fill="#CCE5F9" opacity="1.000000" stroke="none" 
	d="
M184.247803,56.713768 
	C183.987839,55.930939 183.912613,54.917198 183.894608,53.524681 
	C184.112061,54.258217 184.272308,55.370533 184.247803,56.713768 
z"/>
<path fill="#CCE5F9" opacity="1.000000" stroke="none" 
	d="
M183.804901,59.673080 
	C183.654434,59.170429 183.640991,58.318577 183.829346,57.280964 
	C184.001373,57.838097 183.971649,58.580986 183.804901,59.673080 
z"/>
<path fill="#CCE5F9" opacity="1.000000" stroke="none" 
	d="
M178.864716,89.716537 
	C178.705154,89.474144 178.674896,88.919899 178.819855,88.221985 
	C178.994736,88.520447 178.994370,88.962570 178.864716,89.716537 
z"/>
<path fill="#E8F4F6" opacity="1.000000" stroke="none" 
	d="
M178.297928,93.007172 
	C177.896545,93.031487 177.728394,92.948273 177.302368,92.752563 
	C177.467789,92.436394 177.891083,92.232735 178.551865,92.003075 
	C178.703278,92.284592 178.617218,92.592110 178.297928,93.007172 
z"/>
<path fill="#CCE5F9" opacity="1.000000" stroke="none" 
	d="
M179.126709,87.828239 
	C178.864944,87.776604 178.828568,87.613075 178.990952,87.329468 
	C179.287369,87.353874 179.341492,87.522858 179.126709,87.828239 
z"/>
<path fill="#0151A0" opacity="1.000000" stroke="none" 
	d="
M46.132160,50.241501 
	C46.403187,50.110542 46.316391,50.592319 46.238476,50.824291 
	C45.969719,51.096375 45.778877,51.136482 45.294067,51.188942 
	C45.287109,50.925018 45.574120,50.648739 46.132160,50.241501 
z"/>
<path fill="#0F56C7" opacity="1.000000" stroke="none" 
	d="
M130.266068,127.056480 
	C129.961487,128.443863 129.656906,129.831253 129.225647,131.962891 
	C127.406670,133.254410 125.714363,133.801697 123.605698,134.275909 
	C121.788124,134.263123 120.386909,134.323410 118.625015,134.296783 
	C117.526283,134.247314 116.788216,134.284744 115.678726,134.220062 
	C114.547768,134.186493 113.788223,134.255051 112.613266,134.261383 
	C110.800522,134.232559 109.403198,134.265945 107.570099,134.197571 
	C104.475418,133.953323 101.816498,133.810837 99.157578,133.668350 
	C99.167557,133.288177 99.177528,132.908020 99.094269,131.862732 
	C98.376495,128.357727 97.751961,125.517845 97.127426,122.677956 
	C97.121971,122.299561 97.116516,121.921165 97.040054,120.866158 
	C96.181213,116.146523 95.393372,112.103493 94.605515,108.060471 
	C94.552887,107.495033 94.500259,106.929588 94.228378,105.753441 
	C93.522621,101.973083 93.036110,98.803429 92.879578,95.317719 
	C94.136795,94.694344 95.062210,94.125862 95.991539,94.119392 
	C107.576614,94.038773 119.164009,93.941154 130.745499,94.146729 
	C132.164444,94.171921 133.552567,95.933189 134.954971,96.889908 
	C134.955399,97.667747 134.955826,98.445580 134.984192,99.611816 
	C134.491959,101.560860 133.971771,103.121513 133.675079,105.241745 
	C133.544983,108.161804 133.191391,110.522285 132.629349,113.195206 
	C132.251328,115.008507 132.081772,116.509377 131.781158,118.220314 
	C131.491272,118.774597 131.544006,119.082573 131.580048,119.556671 
	C131.314865,120.157524 131.278015,120.556007 131.152069,121.293488 
	C131.074478,122.098419 131.085999,122.564354 130.959915,123.348320 
	C130.636887,124.796394 130.451477,125.926437 130.266068,127.056480 
M116.519257,95.995430 
	C120.124382,95.995430 123.729507,95.995430 127.334625,95.995430 
	C127.327278,95.751381 127.319923,95.507324 127.312576,95.263275 
	C120.441147,95.263275 113.569725,95.263275 106.698303,95.263275 
	C106.692001,95.507347 106.685692,95.751419 106.679390,95.995491 
	C109.637817,95.995491 112.596245,95.995491 116.519257,95.995430 
M97.503639,95.470947 
	C97.503639,95.470947 97.520241,95.513184 97.503639,95.470947 
z"/>
<path fill="#F3F9FC" opacity="1.000000" stroke="none" 
	d="
M108.005875,134.299332 
	C109.403198,134.265945 110.800522,134.232559 112.863602,134.450760 
	C114.348236,134.884171 115.167130,135.065979 115.994095,135.622879 
	C117.528870,139.444992 118.626343,143.172379 120.661018,146.287659 
	C127.344307,156.520462 134.367691,166.531158 141.260406,176.627197 
	C138.124069,176.695999 134.987717,176.764801 131.416595,176.741486 
	C131.549194,175.662521 132.116577,174.675690 132.509323,173.992584 
	C128.648270,167.795166 125.054626,161.731232 121.165588,155.863083 
	C116.781685,149.248230 112.131828,142.809647 107.403946,135.921860 
	C107.475456,135.132660 107.740669,134.716003 108.005875,134.299332 
z"/>
<path fill="#E8F4F6" opacity="1.000000" stroke="none" 
	d="
M137.792389,92.499893 
	C137.534637,92.810669 137.086548,92.897186 135.836639,92.963547 
	C121.015282,92.835426 106.995750,92.727455 92.976212,92.619476 
	C95.362183,92.086243 97.737312,91.154305 100.136017,91.089096 
	C110.282890,90.813240 120.437431,90.693771 130.587616,90.759026 
	C132.928909,90.774071 135.264053,91.744728 137.792389,92.499893 
z"/>
<path fill="#1B51A3" opacity="1.000000" stroke="none" 
	d="
M92.727852,92.721710 
	C106.995750,92.727455 121.015282,92.835426 135.498016,93.017776 
	C135.717712,94.161041 135.474182,95.229912 135.092804,96.594345 
	C133.552567,95.933189 132.164444,94.171921 130.745499,94.146729 
	C119.164009,93.941154 107.576614,94.038773 95.991539,94.119392 
	C95.062210,94.125862 94.136795,94.694344 92.710861,95.022034 
	C92.132652,94.363152 92.053139,93.683891 91.973633,93.004631 
	C92.142250,92.944397 92.310875,92.884171 92.727852,92.721710 
z"/>
<path fill="#E8F4F6" opacity="1.000000" stroke="none" 
	d="
M91.656708,93.108551 
	C92.053139,93.683891 92.132652,94.363152 92.380882,95.338097 
	C93.036110,98.803429 93.522621,101.973083 94.006943,105.567993 
	C93.597748,106.505066 93.190735,107.016869 92.783722,107.528679 
	C92.302406,107.547661 91.821098,107.566650 91.339790,107.585632 
	C91.339790,102.794579 91.339790,98.003517 91.656708,93.108551 
z"/>
<path fill="#7AA2DC" opacity="1.000000" stroke="none" 
	d="
M166.054260,94.045883 
	C163.777847,94.510689 161.533737,94.909592 159.148163,95.654404 
	C158.559784,96.000595 158.112839,96.000885 157.330688,96.001846 
	C155.807205,95.489365 154.618958,94.976204 153.199829,94.230515 
	C152.968964,93.997978 152.984909,93.535942 152.988281,93.304901 
	C157.044952,92.981819 161.098282,92.889763 165.618256,93.060043 
	C166.097122,93.494049 166.109314,93.665726 166.121490,93.837402 
	C166.121490,93.837402 166.086563,93.979980 166.054260,94.045883 
z"/>
<path fill="#E8F4F6" opacity="1.000000" stroke="none" 
	d="
M94.446701,108.390190 
	C95.393372,112.103493 96.181213,116.146523 96.926018,120.603416 
	C96.040535,120.434219 94.516945,119.901970 94.469009,119.259605 
	C94.207977,115.761345 94.310463,112.235962 94.446701,108.390190 
z"/>
<path fill="#E8F4F6" opacity="1.000000" stroke="none" 
	d="
M97.077194,123.136780 
	C97.751961,125.517845 98.376495,128.357727 98.967484,131.605972 
	C98.298286,129.208084 97.662621,126.401840 97.077194,123.136780 
z"/>
<path fill="#CDDFF4" opacity="1.000000" stroke="none" 
	d="
M107.570099,134.197571 
	C107.740669,134.716003 107.475456,135.132660 107.098526,135.769867 
	C104.495834,135.442841 102.004883,134.895264 99.335754,134.008026 
	C101.816498,133.810837 104.475418,133.953323 107.570099,134.197571 
z"/>
<path fill="#E8F4F6" opacity="1.000000" stroke="none" 
	d="
M166.477081,93.867981 
	C166.109314,93.665726 166.097122,93.494049 166.087006,93.064034 
	C167.223083,92.702156 168.357071,92.598610 169.724930,92.694534 
	C168.916763,93.228859 167.874710,93.563713 166.477081,93.867981 
z"/>
<path fill="#E8F4F6" opacity="1.000000" stroke="none" 
	d="
M97.539787,135.111435 
	C97.473465,135.142914 97.456673,134.862732 97.456673,134.862732 
	C97.456673,134.862732 97.606110,135.079956 97.539787,135.111435 
z"/>
<path fill="#E8F4F6" opacity="1.000000" stroke="none" 
	d="
M91.490356,113.506989 
	C91.482964,113.487122 91.497742,113.526855 91.490356,113.506989 
z"/>
<path fill="#E8F4F6" opacity="1.000000" stroke="none" 
	d="
M96.492493,89.489830 
	C96.513634,89.481636 96.471359,89.498024 96.492493,89.489830 
z"/>
<path fill="#AEC9EF" opacity="1.000000" stroke="none" 
	d="
M132.837799,112.882767 
	C133.191391,110.522285 133.544983,108.161804 133.941406,105.411743 
	C137.576736,110.027916 141.184891,115.022560 144.751190,120.046913 
	C145.682739,121.359299 146.484253,122.763985 147.345123,124.126495 
	C152.217194,131.837479 157.089172,139.548508 161.977539,147.630402 
	C158.140640,143.625916 154.151062,139.361755 150.468201,134.847382 
	C145.739655,129.051193 141.257492,123.053955 136.084747,117.070465 
	C135.333542,116.997993 135.166763,116.998390 135.000732,116.640121 
	C134.389771,115.188896 136.531479,112.467377 133.026337,113.007812 
	C132.963379,112.966293 132.837784,112.882767 132.837799,112.882767 
z"/>
<path fill="#C1D5F2" opacity="1.000000" stroke="none" 
	d="
M164.950806,168.581970 
	C162.566238,167.219772 159.557617,165.866364 157.958466,163.542877 
	C152.750412,155.975845 148.126404,148.009689 143.133835,140.290131 
	C140.984161,136.966324 138.481476,133.870834 136.432617,130.353851 
	C139.483841,131.690735 142.241623,133.345367 144.999390,135.000000 
	C148.848358,141.433914 152.599197,147.930023 156.610001,154.261414 
	C157.719620,156.013031 159.466843,157.456146 161.159637,158.722488 
	C164.395599,161.143234 165.677795,164.205139 164.950806,168.581970 
z"/>
<path fill="#BCD3EF" opacity="1.000000" stroke="none" 
	d="
M144.999359,134.602173 
	C142.241623,133.345367 139.483841,131.690735 136.366272,130.015472 
	C134.808197,128.891739 133.609909,127.788605 132.203659,126.490807 
	C131.696304,125.207512 131.396896,124.118904 131.097504,123.030289 
	C131.085999,122.564354 131.074478,122.098419 131.307251,121.052376 
	C131.637146,120.099609 131.722748,119.726959 131.808365,119.354301 
	C131.544006,119.082573 131.491272,118.774597 131.992142,118.083557 
	C132.559250,117.489769 132.784348,117.242805 133.341141,116.997482 
	C134.115234,116.999008 134.557617,116.998894 135.000000,116.998779 
	C135.166763,116.998390 135.333542,116.997993 135.750458,116.998947 
	C135.998825,118.070709 135.997040,119.141121 135.748001,120.765472 
	C135.668137,122.210808 135.835541,123.102196 136.002945,123.993584 
	C139.927368,126.581642 145.161072,128.016129 144.999359,134.602173 
z"/>
<path fill="#C5DAF3" opacity="1.000000" stroke="none" 
	d="
M136.002121,123.621063 
	C135.835541,123.102196 135.668137,122.210808 135.745575,121.166870 
	C135.994049,121.759056 135.997665,122.503807 136.002121,123.621063 
z"/>
<path fill="#CDDFF4" opacity="1.000000" stroke="none" 
	d="
M124.022057,134.348969 
	C125.714363,133.801697 127.406670,133.254410 129.244980,132.316437 
	C134.235901,129.068558 134.664032,134.244827 136.041000,136.167236 
	C142.334229,144.953323 147.980728,154.199905 154.155167,163.075394 
	C156.119064,165.898422 158.996384,168.086014 161.728241,171.032593 
	C162.003113,171.668671 162.005493,171.836533 162.007858,172.004379 
	C161.075775,173.378036 160.143692,174.751709 159.101837,176.418472 
	C156.543030,176.765259 154.093964,176.818954 151.406921,176.467361 
	C151.777054,175.376633 152.385178,174.691193 152.991455,173.625916 
	C152.334732,171.798096 151.914566,170.174500 150.985001,168.932007 
	C146.576477,163.039429 141.752365,157.438171 137.632462,151.356400 
	C135.070923,147.575073 133.358902,143.183395 131.532928,138.950333 
	C130.212463,135.889175 128.260880,134.476242 124.764633,135.052292 
	C124.354362,134.788971 124.165886,134.590118 124.022057,134.348969 
z"/>
<path fill="#CDDFF4" opacity="1.000000" stroke="none" 
	d="
M130.959900,123.348320 
	C131.396896,124.118904 131.696304,125.207512 131.998459,126.647354 
	C131.523163,127.115700 131.045120,127.232819 130.416565,127.203209 
	C130.451477,125.926437 130.636887,124.796394 130.959900,123.348320 
z"/>
<path fill="#C1D5F2" opacity="1.000000" stroke="none" 
	d="
M162.197205,171.970230 
	C162.005493,171.836533 162.003113,171.668671 162.002213,171.248962 
	C162.131302,171.310104 162.258926,171.623093 162.197205,171.970230 
z"/>
<path fill="#E2EDFA" opacity="1.000000" stroke="none" 
	d="
M123.605698,134.275909 
	C124.165886,134.590118 124.354362,134.788971 124.787201,135.424179 
	C125.834564,138.199615 126.277939,140.765900 127.598763,142.747223 
	C133.826614,152.089554 140.431656,161.181885 146.588165,170.569321 
	C148.282288,173.152527 150.041718,174.370117 152.993286,174.005753 
	C152.385178,174.691193 151.777054,175.376633 151.017548,176.371826 
	C149.476654,176.734924 148.087173,176.788254 146.277069,176.390991 
	C140.601425,168.313324 135.192352,160.786545 130.140717,153.027069 
	C126.192398,146.962326 122.687576,140.608871 118.985687,134.383698 
	C120.386909,134.323410 121.788124,134.263123 123.605698,134.275909 
z"/>
<path fill="#ECF1FB" opacity="1.000000" stroke="none" 
	d="
M118.625015,134.296783 
	C122.687576,140.608871 126.192398,146.962326 130.140717,153.027069 
	C135.192352,160.786545 140.601425,168.313324 145.990570,176.297562 
	C144.768250,176.707199 143.411850,176.759644 141.657928,176.719635 
	C134.367691,166.531158 127.344307,156.520462 120.661018,146.287659 
	C118.626343,143.172379 117.528870,139.444992 116.026825,135.391663 
	C116.051491,134.785355 116.050148,134.322159 116.050148,134.322174 
	C116.788216,134.284744 117.526283,134.247314 118.625015,134.296783 
z"/>
<path fill="#C5DAF3" opacity="1.000000" stroke="none" 
	d="
M66.981873,176.377075 
	C67.366684,176.210815 67.950523,176.290756 68.772232,176.555969 
	C68.400368,176.701935 67.790627,176.662613 66.981873,176.377075 
z"/>
<path fill="#0A55BB" opacity="1.000000" stroke="none" 
	d="
M116.036964,95.995461 
	C112.596245,95.995491 109.637817,95.995491 106.679390,95.995491 
	C106.685692,95.751419 106.692001,95.507347 106.698303,95.263275 
	C113.569725,95.263275 120.441147,95.263275 127.312576,95.263275 
	C127.319923,95.507324 127.327278,95.751381 127.334625,95.995430 
	C123.729507,95.995430 120.124382,95.995430 116.036964,95.995461 
z"/>
<path fill="#AEC9EF" opacity="1.000000" stroke="none" 
	d="
M133.009430,116.995842 
	C132.784348,117.242805 132.559250,117.489769 132.123169,117.873489 
	C132.081772,116.509377 132.251328,115.008507 132.629333,113.195206 
	C132.837784,112.882767 132.963379,112.966293 133.007706,113.402344 
	C133.037827,114.890884 133.023621,115.943359 133.009430,116.995842 
z"/>
<path fill="#CDDFF4" opacity="1.000000" stroke="none" 
	d="
M115.678726,134.220047 
	C116.050148,134.322159 116.051491,134.785355 116.018753,135.016571 
	C115.167130,135.065979 114.348236,134.884171 113.279022,134.512970 
	C113.788223,134.255051 114.547768,134.186493 115.678726,134.220047 
z"/>
<path fill="#AEC9EF" opacity="1.000000" stroke="none" 
	d="
M131.580048,119.556671 
	C131.722748,119.726959 131.637146,120.099609 131.396347,120.713379 
	C131.278015,120.556007 131.314865,120.157524 131.580048,119.556671 
z"/>
<path fill="#0A55BB" opacity="1.000000" stroke="none" 
	d="
M97.511940,95.492065 
	C97.520241,95.513184 97.503639,95.470947 97.511940,95.492065 
z"/>
<path fill="#B3CDEF" opacity="1.000000" stroke="none" 
	d="
M133.341125,116.997482 
	C133.023621,115.943359 133.037827,114.890884 133.070679,113.443871 
	C136.531479,112.467377 134.389771,115.188896 135.000732,116.640121 
	C134.557617,116.998894 134.115234,116.999008 133.341125,116.997482 
z"/>
<path fill="#DAE6F7" opacity="1.000000" stroke="none" 
	d="
M152.991455,173.625916 
	C150.041718,174.370117 148.282288,173.152527 146.588165,170.569321 
	C140.431656,161.181885 133.826614,152.089554 127.598763,142.747223 
	C126.277939,140.765900 125.834564,138.199615 124.964355,135.530960 
	C128.260880,134.476242 130.212463,135.889175 131.532928,138.950333 
	C133.358902,143.183395 135.070923,147.575073 137.632462,151.356400 
	C141.752365,157.438171 146.576477,163.039429 150.985001,168.932007 
	C151.914566,170.174500 152.334732,171.798096 152.991455,173.625916 
z"/>
</svg>