<svg version="1.1" id="Layer_1" xmlns="http://www.w3.org/2000/svg" xmlns:xlink="http://www.w3.org/1999/xlink" x="0px" y="0px"
	 width="100%" viewBox="0 0 228 221" enable-background="new 0 0 228 221" xml:space="preserve">
<path fill="#FEFEFE" opacity="1.000000" stroke="none" 
	d="
M229.000000,41.000000 
	C229.000000,101.257195 229.000000,161.514389 229.000000,222.000000 
	C173.979309,222.000000 118.958313,222.000000 63.596577,221.693726 
	C63.574181,219.911697 63.400925,217.647278 64.292686,217.091415 
	C69.150757,214.063110 70.096603,209.485962 70.393204,204.450287 
	C71.092415,204.555222 71.825569,204.782166 71.947868,204.599701 
	C72.660057,203.537109 73.015877,201.616745 73.880409,201.375046 
	C79.751244,199.733627 81.401215,195.300842 82.200150,189.709503 
	C83.246422,188.610168 83.986595,187.610428 84.977486,187.072617 
	C88.943024,184.920227 92.986389,182.911224 97.441399,180.914108 
	C100.254204,180.936401 102.626572,180.893768 105.367188,180.931549 
	C108.173012,181.949829 110.610588,182.887695 113.348541,183.981171 
	C115.725067,184.770203 117.801224,185.403625 119.980942,186.295471 
	C120.386894,186.757828 120.689270,186.961761 120.976578,187.560669 
	C119.562355,188.637787 118.192955,189.392883 116.754799,189.979431 
	C115.563766,190.465210 114.291634,190.752197 113.055428,191.127258 
	C114.663795,192.115997 115.930862,191.934418 117.173500,192.040131 
	C118.458160,192.149429 119.742256,192.836365 120.985413,192.739899 
	C123.343033,192.556946 126.151848,192.623764 126.298569,188.977203 
	C127.092094,189.236435 127.595261,189.487473 128.116623,189.933090 
	C128.419281,190.132126 128.703735,190.136597 129.336609,190.178070 
	C132.163666,191.394424 134.642303,192.573761 137.085785,194.187363 
	C136.696686,197.980286 136.970978,201.174362 141.397339,200.838654 
	C142.789307,200.733093 144.048248,198.873840 145.714935,197.852905 
	C147.985992,198.716446 149.910172,199.544357 152.030746,200.607452 
	C153.158051,201.201416 154.088959,201.560165 155.312103,202.119110 
	C161.279007,204.932327 166.953674,207.545380 172.879242,210.416656 
	C176.720352,212.410095 180.303940,214.159210 183.902176,215.877655 
	C191.242493,219.383209 194.474747,218.149841 197.757614,210.775772 
	C202.479919,200.168396 207.272339,189.592239 212.353760,178.968292 
	C213.775574,175.956375 214.878464,172.978943 215.988434,169.997894 
	C215.995499,169.994263 215.989380,169.978958 216.299255,169.832245 
	C219.166382,166.999100 221.645645,164.287125 219.621979,159.795441 
	C219.443436,158.978424 219.375961,158.504074 219.601959,157.961716 
	C219.249908,156.936508 218.604370,155.979324 217.736176,154.927673 
	C217.242859,154.632141 217.066635,154.368088 216.948792,153.663818 
	C214.946808,152.521500 212.980881,151.756378 211.008118,150.996231 
	C211.001282,151.001221 211.006744,150.987900 211.069702,150.629089 
	C212.422287,149.846085 213.711914,149.421875 215.125488,149.197327 
	C215.590225,149.384247 215.931030,149.371490 216.271835,149.358734 
	C215.847076,149.239929 215.422302,149.121155 214.941010,148.666443 
	C212.242462,148.603836 209.600464,148.877136 206.586761,149.107758 
	C202.839417,147.548691 199.463745,146.032303 195.851883,144.287216 
	C189.541550,141.299423 183.467438,138.540329 177.193436,135.489990 
	C174.972046,134.182907 172.950531,133.167084 170.913818,131.825241 
	C167.664963,129.356110 164.498413,127.096153 161.141022,125.168564 
	C160.470337,124.783485 159.071350,125.666878 157.646149,125.923309 
	C152.209534,123.864403 147.134964,121.847565 142.239426,119.620773 
	C143.152328,117.237198 143.888092,115.064201 144.584259,112.878586 
	C144.589493,112.862099 144.053650,112.673264 143.608246,112.502831 
	C143.199799,113.533356 142.795990,114.552200 142.455322,115.411736 
	C139.941513,114.845398 137.580322,114.313438 134.511108,113.621964 
	C135.597565,115.018196 136.069824,115.625099 137.233337,117.120369 
	C131.553497,115.638657 126.970955,114.511955 122.447533,113.183876 
	C121.819435,112.999474 121.482994,111.821678 121.389526,111.069946 
	C122.521278,111.099060 123.275040,111.161987 124.254303,111.443367 
	C125.995728,111.588654 127.511658,111.515488 129.468369,111.376099 
	C132.293701,111.328529 134.678268,111.347191 137.306702,111.556870 
	C138.691910,111.560966 139.833237,111.374046 141.342941,111.104492 
	C142.966278,110.957329 144.221268,110.892807 145.855637,110.880127 
	C147.150620,110.672729 148.066223,110.413490 149.244583,110.072723 
	C149.690628,109.998505 149.873917,110.005814 150.389389,110.078842 
	C152.921692,111.638695 154.841476,114.237396 158.311584,112.122711 
	C163.146744,112.270309 160.045883,108.761719 161.179214,107.016632 
	C161.355423,106.902946 161.774811,106.901741 162.176941,106.973236 
	C167.092529,109.360672 169.518921,107.209618 171.042145,103.055466 
	C171.055557,103.014091 171.134308,103.051025 171.464020,103.050011 
	C176.349258,104.707710 178.547684,103.347336 181.303162,97.118759 
	C188.318726,90.933105 195.060272,84.962883 202.080994,78.778481 
	C204.916916,75.396164 207.473633,72.228035 210.355545,68.942871 
	C212.380905,66.877319 214.370224,65.110344 215.728455,62.947113 
	C220.273911,55.707764 224.593765,48.326759 229.000000,41.000000 
M168.447937,110.676247 
	C167.155487,110.573586 165.863037,110.470932 164.570587,110.368271 
	C164.607651,110.881767 164.644714,111.395264 164.681778,111.908760 
	C165.932404,111.726021 167.183029,111.543274 168.447937,110.676247 
M180.072998,104.821716 
	C180.567078,104.560875 181.061142,104.300034 181.555206,104.039185 
	C181.375656,103.817566 181.057968,103.390327 181.036850,103.404518 
	C180.563812,103.722313 180.123383,104.088684 180.072998,104.821716 
M222.190933,153.274765 
	C221.732101,153.322784 221.273254,153.370804 220.814423,153.418823 
	C221.007477,153.796707 221.200531,154.174576 221.393600,154.552475 
	C221.788971,154.257614 222.184357,153.962753 222.190933,153.274765 
M128.482437,192.589233 
	C128.482437,192.589233 128.414627,192.476517 128.482437,192.589233 
M216.416321,179.484528 
	C216.416321,179.484528 216.521149,179.423035 216.416321,179.484528 
z"/>
<path fill="#2684FE" opacity="1.000000" stroke="none" 
	d="
M0.999997,187.000000 
	C1.000000,185.933212 1.000000,184.866425 1.235867,183.160019 
	C3.566990,179.337051 5.662246,176.153702 7.776781,172.654633 
	C7.860259,171.607147 7.658749,170.682556 8.028745,170.172699 
	C13.115257,163.163513 18.200644,156.150238 23.467920,149.277145 
	C25.424082,146.724625 27.851866,144.533524 30.312622,142.065887 
	C30.681055,141.630371 30.801449,141.306595 31.119232,140.797165 
	C31.578180,140.145462 31.839737,139.679382 32.409874,139.071838 
	C35.885639,136.104294 39.052826,133.278229 42.546829,130.318985 
	C47.889954,127.027473 52.906254,123.869133 58.277000,120.628006 
	C62.081543,119.008827 65.531639,117.472443 69.352432,115.934021 
	C71.808403,115.260750 73.893684,114.589500 76.359016,113.934250 
	C78.475784,113.566528 80.212509,113.182808 82.357689,112.849869 
	C90.193314,112.654305 97.620483,112.407959 105.039970,112.534302 
	C105.169533,113.550674 105.157478,114.279610 105.468399,114.824127 
	C107.399727,118.206482 107.798103,120.745842 102.741234,121.324486 
	C101.659882,121.448227 100.343979,122.640930 99.781975,123.687866 
	C95.564781,131.543900 91.491829,139.477737 87.412918,147.407394 
	C85.925537,150.298950 84.311813,153.157303 83.167320,156.186310 
	C81.250557,161.259216 79.350281,166.212921 74.514977,169.390747 
	C73.718369,169.914276 73.542671,171.338715 72.999596,172.301407 
	C72.002571,174.068802 71.019371,175.852066 69.886925,177.531982 
	C69.172607,178.591644 67.970818,179.354645 67.380981,180.460495 
	C65.332886,184.300461 63.478817,188.243332 61.510208,192.126404 
	C57.903866,199.239899 54.268501,206.338699 50.875629,212.991852 
	C48.292297,213.720703 46.148239,214.325623 43.686321,214.832306 
	C41.237549,213.540756 39.106628,212.347458 36.723274,210.917511 
	C28.265518,205.606888 19.976551,200.661499 11.891439,195.402695 
	C8.060083,192.910629 4.618282,189.819656 0.999997,187.000000 
z"/>
<path fill="#2684FE" opacity="1.000000" stroke="none" 
	d="
M150.057190,110.013123 
	C149.873917,110.005814 149.690628,109.998505 148.881363,110.023178 
	C147.328995,110.312859 146.402618,110.570572 145.476242,110.828293 
	C144.221268,110.892807 142.966278,110.957329 141.096954,111.030594 
	C140.318619,110.990044 140.154633,110.940750 139.919647,110.535156 
	C138.590240,110.059830 137.305923,110.060905 136.078949,109.796219 
	C133.697678,109.282524 131.348618,108.619476 128.986633,107.640991 
	C128.758453,106.482590 128.774750,105.434479 128.261505,104.963783 
	C124.929787,101.908188 125.950836,99.508911 128.730103,96.591919 
	C131.719025,93.454865 134.324020,89.881233 136.675613,86.227203 
	C139.137207,82.402245 141.089157,78.250198 143.280487,74.250221 
	C147.086655,67.302582 151.231903,60.517273 154.630859,53.376347 
	C158.304001,45.659348 160.780106,37.330009 167.747147,31.590466 
	C168.502731,30.967995 168.548477,29.522108 169.014450,28.499626 
	C169.533752,27.360146 170.060089,26.203279 170.752380,25.166893 
	C173.344833,21.286007 177.400757,17.747032 178.296143,13.525850 
	C179.468903,7.997011 181.810867,7.765920 185.888824,9.285432 
	C188.410065,16.031242 191.367416,17.368851 196.282791,14.261492 
	C205.488419,19.836870 214.417938,25.249640 223.217880,30.865461 
	C225.363617,32.234798 227.084030,34.270622 229.000000,36.000000 
	C229.000000,37.388889 229.000000,38.777779 229.000000,40.583336 
	C224.593765,48.326759 220.273911,55.707764 215.728455,62.947113 
	C214.370224,65.110344 212.380905,66.877319 210.209503,68.615219 
	C208.217178,67.884476 205.409500,66.811752 205.361176,66.924232 
	C203.703842,70.782837 202.307709,74.753632 200.874084,78.708328 
	C201.183319,78.803101 201.492569,78.897881 201.801804,78.992661 
	C195.060272,84.962883 188.318726,90.933105 180.954803,97.101913 
	C177.266388,99.217339 174.200348,101.134186 171.134308,103.051025 
	C171.134308,103.051025 171.055557,103.014091 170.681000,103.083427 
	C167.462570,104.402428 164.618698,105.652084 161.774811,106.901741 
	C161.774811,106.901741 161.355423,106.902946 160.809753,107.003769 
	C158.178543,107.770004 156.093018,108.435425 153.657684,109.056198 
	C152.224304,109.345413 151.140747,109.679268 150.057190,110.013123 
z"/>
<path fill="#FEFFFF" opacity="1.000000" stroke="none" 
	d="
M30.064581,142.177612 
	C27.851866,144.533524 25.424082,146.724625 23.467920,149.277145 
	C18.200644,156.150238 13.115257,163.163513 8.028745,170.172699 
	C7.658749,170.682556 7.860259,171.607147 7.401195,172.653625 
	C6.004038,172.979111 5.001746,172.989853 3.944808,172.865173 
	C3.806979,172.680664 3.723796,172.631607 3.640612,172.582535 
	C3.760641,172.721497 3.880671,172.860443 3.967840,173.340424 
	C2.956654,174.454315 1.978329,175.227158 1.000002,176.000000 
	C1.000000,117.789604 1.000000,59.579216 1.000000,1.000000 
	C11.684732,1.000000 22.373709,1.000000 33.481544,1.402294 
	C33.410275,4.030981 32.920139,6.257373 32.388569,8.671991 
	C30.062973,8.907434 27.813633,9.135159 24.973783,9.422665 
	C25.256783,13.041375 25.908998,16.426970 25.626383,19.732641 
	C25.471151,21.548323 24.093220,24.309223 22.657675,24.777576 
	C17.424801,26.484833 14.915696,29.973488 17.458122,34.963692 
	C19.424473,38.823193 17.761162,39.874378 14.944615,41.287605 
	C12.963477,42.281658 9.612516,43.542442 9.541782,44.830654 
	C9.228188,50.541779 9.878637,56.305840 10.242577,62.361355 
	C10.247730,63.296299 10.190618,63.920639 10.095853,65.014229 
	C8.571282,71.771393 12.617488,73.054825 17.867449,73.361435 
	C15.521658,78.677635 18.443998,80.264687 22.638327,80.680542 
	C24.911366,80.905907 27.277479,80.987350 29.512234,80.607666 
	C32.463737,80.106209 34.024242,80.845856 33.859505,84.052612 
	C33.815094,84.072380 33.908562,84.037498 34.402473,84.001801 
	C35.870792,84.000122 36.938663,83.999260 38.188396,84.258057 
	C39.584396,85.338356 40.798538,86.158981 42.051834,87.306961 
	C43.062481,87.752296 44.033978,87.870293 45.254402,87.988342 
	C45.503338,87.988403 46.001202,87.990990 46.330383,87.993202 
	C47.419540,87.693405 48.179516,87.391396 49.048088,86.975731 
	C49.156689,86.862076 49.332207,86.601234 49.526474,86.644318 
	C49.720741,86.687401 49.998795,86.972122 50.020210,87.272125 
	C50.361946,88.044426 50.682270,88.516724 51.001793,89.394997 
	C50.552231,91.977356 50.103462,94.153748 49.494316,97.107925 
	C52.000050,96.804070 54.442997,96.858421 56.652081,96.166321 
	C61.129818,94.763420 64.571548,96.053581 67.771965,99.200638 
	C69.720558,101.116745 71.988983,102.719360 74.218544,104.316498 
	C74.404663,104.449837 75.391129,103.465919 76.379753,103.000389 
	C77.502052,102.997757 78.250343,102.995811 78.999588,103.247269 
	C79.001778,103.669609 79.003029,103.838539 79.172791,104.250015 
	C79.894417,104.661041 80.447510,104.829529 81.000351,105.415619 
	C81.002701,107.226372 81.005318,108.619507 81.027298,110.310608 
	C81.347527,111.338737 81.648384,112.068909 81.949234,112.799088 
	C80.212509,113.182808 78.475784,113.566528 76.101288,113.673340 
	C73.307663,113.599014 71.151802,113.801582 68.545395,114.003387 
	C64.582184,113.836708 61.069530,113.670792 56.781723,113.468262 
	C57.193523,116.082550 57.558041,118.396675 57.922558,120.710793 
	C52.906254,123.869133 47.889954,127.027473 42.377892,130.013580 
	C38.955250,129.841324 36.028366,129.841324 33.423489,129.841324 
	C32.930309,133.337082 32.515800,136.275208 32.101292,139.213318 
	C31.839737,139.679382 31.578180,140.145462 30.906172,140.939743 
	C30.352007,141.571182 30.208294,141.874390 30.064581,142.177612 
M2.531710,170.383865 
	C2.818413,170.118103 3.105116,169.852325 3.391816,169.586548 
	C3.289340,169.485367 3.107761,169.287491 3.095962,169.297150 
	C2.807294,169.533325 2.536674,169.791565 2.531710,170.383865 
M36.630234,88.475128 
	C36.841175,88.529396 37.052116,88.583664 37.263062,88.637932 
	C37.127510,88.504616 36.991959,88.371300 36.630234,88.475128 
z"/>
<path fill="#FCFDFE" opacity="1.000000" stroke="none" 
	d="
M10.180309,62.050747 
	C9.878637,56.305840 9.228188,50.541779 9.541782,44.830654 
	C9.612516,43.542442 12.963477,42.281658 14.944615,41.287605 
	C17.761162,39.874378 19.424473,38.823193 17.458122,34.963692 
	C14.915696,29.973488 17.424801,26.484833 22.657675,24.777576 
	C24.093220,24.309223 25.471151,21.548323 25.626383,19.732641 
	C25.908998,16.426970 25.256783,13.041375 24.973783,9.422665 
	C27.813633,9.135159 30.062973,8.907434 32.388569,8.671991 
	C32.920139,6.257373 33.410275,4.030981 33.950203,1.402294 
	C76.354225,1.000000 118.708458,1.000000 161.532135,1.409907 
	C162.666306,3.547814 163.331024,5.275813 163.957001,7.373643 
	C162.940170,10.815600 161.962067,13.887727 160.892365,17.291847 
	C158.502060,20.732607 156.203354,23.841373 153.635773,26.855881 
	C152.923996,27.522991 152.481064,28.284359 152.018768,29.023344 
	C151.999390,29.000961 152.045624,29.037422 151.668579,29.030548 
	C150.539246,30.028933 149.786957,31.034187 149.017822,32.019363 
	C149.000992,31.999285 149.040222,32.035095 148.699417,32.021313 
	C147.576706,32.337048 146.794815,32.666561 145.591675,32.998024 
	C142.949554,33.770958 140.728668,34.541946 137.916122,35.518337 
	C137.952148,35.549622 137.030640,34.749245 136.109146,33.948864 
	C135.799728,34.173347 135.490326,34.397831 135.180923,34.622314 
	C135.463089,36.161896 135.745255,37.701477 135.790192,39.446037 
	C135.384140,39.774231 135.215317,39.897453 134.709503,39.967216 
	C133.727432,39.763004 133.082336,39.612251 132.200470,39.152359 
	C130.293564,37.888092 128.623474,36.932964 126.227615,35.562775 
	C126.586784,37.712551 126.785172,38.900005 126.609734,40.150085 
	C125.480019,40.221725 124.724129,40.230732 123.723785,40.151905 
	C123.308411,40.091904 123.137497,40.119736 122.992401,40.062881 
	C123.018227,39.978191 123.066109,39.807705 123.046516,39.459030 
	C122.771156,38.184498 122.515381,37.258636 122.219177,36.186413 
	C120.934326,37.608547 119.999168,38.643620 118.803741,39.795143 
	C118.355957,39.880466 118.168442,39.849346 117.867661,39.632889 
	C117.558975,39.220184 117.316101,39.069065 116.692047,38.933441 
	C115.908646,38.852428 115.458992,38.832172 115.006729,38.460693 
	C115.003433,37.406986 115.002739,36.704502 115.328705,35.996899 
	C116.313248,35.685501 116.971130,35.379227 117.629013,35.072956 
	C117.432144,34.782227 117.235275,34.491501 117.038399,34.200771 
	C116.358467,34.799881 115.678543,35.398991 114.757889,35.844261 
	C112.009224,36.036381 109.501282,36.382336 106.665154,36.816235 
	C105.889732,36.975590 105.442505,37.047001 104.702888,36.918179 
	C99.085922,33.748447 93.761337,30.778952 88.196228,27.557159 
	C86.067780,26.496864 84.179863,25.688869 82.035889,24.629589 
	C77.185425,22.271885 72.591003,20.165468 67.734695,17.821701 
	C64.660591,16.360809 61.848366,15.137266 58.840687,13.666973 
	C57.869816,13.127449 57.094395,12.834678 56.312035,12.526029 
	C56.305088,12.510152 56.327522,12.480585 56.047592,12.276621 
	C52.658234,10.591058 49.603992,8.975533 46.424026,7.665104 
	C43.171196,6.324650 39.475246,4.807033 36.448788,7.331145 
	C34.152866,9.245975 32.384342,12.114514 31.122921,14.895176 
	C24.017918,30.557386 17.137384,46.321430 10.180309,62.050747 
M119.609352,34.408398 
	C119.965797,34.317081 120.322250,34.225765 120.678696,34.134453 
	C120.357330,34.087238 120.035965,34.040024 119.609352,34.408398 
z"/>
<path fill="#FCFDFE" opacity="1.000000" stroke="none" 
	d="
M229.000000,35.531342 
	C227.084030,34.270622 225.363617,32.234798 223.217880,30.865461 
	C214.417938,25.249640 205.488419,19.836870 195.978546,14.103775 
	C193.907272,12.818607 192.464035,11.779035 191.016205,10.367113 
	C189.941986,4.958011 187.074265,3.396111 181.960648,5.048482 
	C181.967239,5.035375 181.946915,5.061349 181.963425,4.705898 
	C182.319962,3.233632 182.659988,2.116817 183.000000,1.000001 
	C198.250031,1.000000 213.500076,1.000000 229.000000,1.000000 
	C229.000000,12.353007 229.000000,23.707846 229.000000,35.531342 
z"/>
<path fill="#FDFEFE" opacity="1.000000" stroke="none" 
	d="
M0.999997,187.468658 
	C4.618282,189.819656 8.060083,192.910629 11.891439,195.402695 
	C19.976551,200.661499 28.265518,205.606888 36.671474,211.232361 
	C36.371635,212.555801 35.871162,213.327759 34.652012,215.208206 
	C38.994133,215.827438 42.620758,216.344650 46.470070,216.919342 
	C46.692760,216.976852 47.031155,217.288437 47.153805,217.468384 
	C47.494732,217.858902 47.754608,217.980957 48.313568,218.083466 
	C48.691654,218.282944 48.812267,218.413437 48.588100,218.632843 
	C47.482426,218.932770 46.721535,219.143799 45.692959,219.429047 
	C47.048450,220.482834 48.024227,221.241409 49.000000,222.000000 
	C33.084812,222.000000 17.169626,222.000000 1.000000,222.000000 
	C1.000000,210.647034 1.000000,199.292175 0.999997,187.468658 
z"/>
<path fill="#EDF6F8" opacity="1.000000" stroke="none" 
	d="
M49.464653,222.000000 
	C48.024227,221.241409 47.048450,220.482834 45.692959,219.429047 
	C46.721535,219.143799 47.482426,218.932770 48.900902,218.748627 
	C57.269966,222.506866 59.050159,221.945862 63.589775,214.444809 
	C65.704544,210.950485 67.875992,207.490479 70.053314,204.106735 
	C70.084877,204.198547 70.144966,204.383179 70.144966,204.383179 
	C70.096603,209.485962 69.150757,214.063110 64.292686,217.091415 
	C63.400925,217.647278 63.574181,219.911697 63.127918,221.693726 
	C58.643101,222.000000 54.286201,222.000000 49.464653,222.000000 
z"/>
<path fill="#F1F8F9" opacity="1.000000" stroke="none" 
	d="
M182.531464,1.000001 
	C182.659988,2.116817 182.319962,3.233632 181.587158,4.655355 
	C177.811066,3.679050 174.724915,-0.077195 170.746063,3.125975 
	C168.833633,4.665581 167.486633,6.907532 165.855530,8.787191 
	C165.827499,8.742956 165.770035,8.655365 165.844360,8.285505 
	C165.841888,6.445807 165.765076,4.975970 165.688278,3.506133 
	C165.280624,3.513594 164.872986,3.521055 164.465332,3.528516 
	C164.311386,4.684849 164.157440,5.841183 164.001755,6.998741 
	C164.000000,6.999965 163.995728,7.003815 163.995728,7.003814 
	C163.331024,5.275813 162.666306,3.547814 162.000793,1.409907 
	C168.687637,1.000000 175.375290,1.000000 182.531464,1.000001 
z"/>
<path fill="#EAF5F9" opacity="1.000000" stroke="none" 
	d="
M3.999454,173.000610 
	C5.001746,172.989853 6.004038,172.979111 7.381916,172.969360 
	C5.662246,176.153702 3.566990,179.337051 1.235867,182.760193 
	C1.000000,180.958328 1.000000,178.916672 1.000002,176.437500 
	C1.978329,175.227158 2.956654,174.454315 3.967490,173.340729 
	C4.000000,173.000000 3.999454,173.000610 3.999454,173.000610 
z"/>
<path fill="#0756D0" opacity="1.000000" stroke="none" 
	d="
M212.034851,179.002762 
	C207.272339,189.592239 202.479919,200.168396 197.757614,210.775772 
	C194.474747,218.149841 191.242493,219.383209 183.902176,215.877655 
	C180.303940,214.159210 176.720352,212.410095 173.273743,210.348816 
	C175.140335,208.924515 177.622543,208.227142 178.451538,206.656921 
	C181.615829,200.663330 184.016846,194.267792 187.161118,188.262238 
	C189.183884,184.398743 192.049347,180.982132 194.460220,177.314667 
	C197.349289,172.919800 200.456833,168.629349 202.899399,163.993164 
	C204.696457,160.582153 205.577240,156.688400 206.866333,153.009766 
	C206.490036,152.830078 206.113724,152.650391 205.737411,152.470703 
	C206.920654,151.933258 208.103882,151.395813 209.575317,150.878494 
	C210.244583,150.928375 210.625671,150.958145 211.006744,150.987900 
	C211.006744,150.987900 211.001282,151.001221 211.111694,151.255020 
	C211.213867,151.877258 211.205643,152.245697 211.048615,152.898666 
	C209.065216,155.301346 208.695679,156.539536 212.353149,156.398590 
	C217.165634,156.213120 218.294235,158.352875 216.377594,162.953415 
	C216.035736,163.773987 216.794403,165.053070 216.971649,166.450684 
	C216.595367,167.846954 216.292374,168.912949 215.989380,169.978958 
	C215.989380,169.978958 215.995499,169.994263 215.740463,170.233307 
	C214.335236,173.315811 213.185043,176.159286 212.034851,179.002762 
z"/>
<path fill="#095CD5" opacity="1.000000" stroke="none" 
	d="
M209.287109,150.858368 
	C208.103882,151.395813 206.920654,151.933258 205.737411,152.470703 
	C206.113724,152.650391 206.490036,152.830078 206.866333,153.009766 
	C205.577240,156.688400 204.696457,160.582153 202.899399,163.993164 
	C200.456833,168.629349 197.349289,172.919800 194.460220,177.314667 
	C192.049347,180.982132 189.183884,184.398743 187.161118,188.262238 
	C184.016846,194.267792 181.615829,200.663330 178.451538,206.656921 
	C177.622543,208.227142 175.140335,208.924515 173.022858,210.090576 
	C166.953674,207.545380 161.279007,204.932327 155.586548,201.849640 
	C158.749420,201.573105 161.930069,201.766251 165.359940,201.974518 
	C163.623886,197.638550 166.364410,194.644806 169.177612,191.160339 
	C172.435638,187.124893 174.649918,182.243103 177.287048,177.711121 
	C179.924194,173.179153 182.406250,168.552231 185.173492,164.101990 
	C187.898132,159.720215 190.990494,155.567566 193.730026,151.194427 
	C194.982071,149.195801 198.813446,147.958542 196.088089,144.515900 
	C199.463745,146.032303 202.839417,147.548691 206.756256,149.355728 
	C207.960678,150.050369 208.623901,150.454376 209.287109,150.858368 
z"/>
<path fill="#1169E4" opacity="1.000000" stroke="none" 
	d="
M137.120956,193.753082 
	C134.642303,192.573761 132.163666,191.394424 129.145065,190.009125 
	C128.436218,189.781616 128.267334,189.760071 128.098434,189.738525 
	C127.595261,189.487473 127.092094,189.236435 126.078239,188.710358 
	C124.042252,188.012146 122.516945,187.588928 120.991638,187.165710 
	C120.689270,186.961761 120.386894,186.757828 120.426926,186.284241 
	C122.845978,186.011963 124.922630,186.009354 127.154907,186.245422 
	C127.994873,186.823547 128.679199,187.162994 130.100311,187.867889 
	C129.541061,186.408142 129.271439,185.704376 129.388992,185.000397 
	C131.183899,185.333237 132.591644,185.666321 133.861252,186.053665 
	C133.815613,186.072174 133.908112,186.036392 134.348557,185.995819 
	C135.960617,181.258011 139.616791,178.372070 142.498367,174.741318 
	C147.046509,169.010757 148.930893,161.251190 152.894409,154.948929 
	C157.358871,147.850128 161.183594,140.800171 161.147964,132.175964 
	C161.144791,131.410492 161.736755,130.642578 162.443405,129.918182 
	C165.532669,130.690811 168.230850,131.421021 170.929016,132.151245 
	C172.950531,133.167084 174.972046,134.182907 176.909637,135.630005 
	C176.550873,136.373688 176.276047,136.686111 175.629303,137.075180 
	C174.840958,137.970825 174.268539,138.747620 174.033630,139.615753 
	C172.570297,145.023468 171.284714,150.426483 165.599167,153.357086 
	C164.385712,153.982574 163.730240,155.870239 163.032104,157.282440 
	C160.859726,161.676697 161.447342,167.176208 156.365189,170.513443 
	C153.609863,172.322739 151.901276,175.998734 150.213699,179.100998 
	C147.277084,184.499359 144.722321,190.105438 141.696640,195.526688 
	C139.964188,194.870316 138.542572,194.311691 137.120956,193.753082 
z"/>
<path fill="#0C60DB" opacity="1.000000" stroke="none" 
	d="
M176.001221,136.998535 
	C176.276047,136.686111 176.550873,136.373688 177.109497,135.921265 
	C183.467438,138.540329 189.541550,141.299423 195.851883,144.287216 
	C198.813446,147.958542 194.982071,149.195801 193.730026,151.194427 
	C190.990494,155.567566 187.898132,159.720215 185.173492,164.101990 
	C182.406250,168.552231 179.924194,173.179153 177.287048,177.711121 
	C174.649918,182.243103 172.435638,187.124893 169.177612,191.160339 
	C166.364410,194.644806 163.623886,197.638550 165.359940,201.974518 
	C161.930069,201.766251 158.749420,201.573105 155.294327,201.649445 
	C154.088959,201.560165 153.158051,201.201416 152.163086,200.278931 
	C152.654541,196.753082 152.443710,193.175797 157.203003,193.706680 
	C157.645874,193.756088 158.520538,192.995697 158.630234,192.489090 
	C159.547974,188.250519 162.657913,185.328278 164.690598,181.782013 
	C170.230804,172.116501 175.076767,162.038971 179.849579,151.959793 
	C180.776596,150.002136 180.440201,147.254440 180.111816,144.953201 
	C179.836029,143.020615 178.816071,141.162384 177.941452,139.360611 
	C177.508789,138.469330 176.661118,137.779495 176.001221,136.998535 
z"/>
<path fill="#1E7AF6" opacity="1.000000" stroke="none" 
	d="
M97.000969,180.849197 
	C92.986389,182.911224 88.943024,184.920227 84.977486,187.072617 
	C83.986595,187.610428 83.246422,188.610168 81.957031,189.724747 
	C81.523064,190.051895 81.042274,190.130432 81.031189,189.768921 
	C81.346725,188.270386 81.673340,187.133362 82.000488,185.613205 
	C82.012299,184.733200 81.847534,184.138138 82.061607,183.754379 
	C84.735680,178.960709 89.123436,175.489456 91.064575,169.904327 
	C92.646484,165.352768 97.139786,161.903122 99.544662,157.526657 
	C103.254059,150.776199 106.287766,143.654007 109.595596,136.683548 
	C110.705864,134.343948 111.280098,131.512955 112.970467,129.734604 
	C116.575737,125.941689 115.959808,119.323029 121.679459,117.099510 
	C121.410767,116.717346 121.142075,116.335182 120.938080,115.724403 
	C121.002785,115.495789 121.148170,115.043396 121.516144,114.997467 
	C123.589668,115.652992 125.295219,116.354431 126.958725,117.364029 
	C126.606880,118.381531 125.842674,119.505913 126.055000,119.738380 
	C129.614563,123.635696 129.146240,126.368385 124.754662,129.337402 
	C123.460724,130.212189 122.583076,132.058380 122.056755,133.639801 
	C120.920906,137.052765 121.095894,142.726395 119.024162,143.653671 
	C113.325005,146.204514 113.573837,152.423477 109.411255,155.908920 
	C104.872299,159.709503 105.308678,167.753143 98.886902,170.820084 
	C98.365173,171.069244 98.170845,172.256378 98.048233,173.042557 
	C97.643753,175.636124 97.342102,178.245743 97.000969,180.849197 
z"/>
<path fill="#0F64DF" opacity="1.000000" stroke="none" 
	d="
M175.629288,137.075165 
	C176.661118,137.779495 177.508789,138.469330 177.941452,139.360611 
	C178.816071,141.162384 179.836029,143.020615 180.111816,144.953201 
	C180.440201,147.254440 180.776596,150.002136 179.849579,151.959793 
	C175.076767,162.038971 170.230804,172.116501 164.690598,181.782013 
	C162.657913,185.328278 159.547974,188.250519 158.630234,192.489090 
	C158.520538,192.995697 157.645874,193.756088 157.203003,193.706680 
	C152.443710,193.175797 152.654541,196.753082 151.966705,200.043732 
	C149.910172,199.544357 147.985992,198.716446 145.510284,197.582779 
	C143.975021,196.726151 142.991257,196.175293 142.007477,195.624451 
	C144.722321,190.105438 147.277084,184.499359 150.213699,179.100998 
	C151.901276,175.998734 153.609863,172.322739 156.365189,170.513443 
	C161.447342,167.176208 160.859726,161.676697 163.032104,157.282440 
	C163.730240,155.870239 164.385712,153.982574 165.599167,153.357086 
	C171.284714,150.426483 172.570297,145.023468 174.033630,139.615753 
	C174.268539,138.747620 174.840958,137.970825 175.629288,137.075165 
z"/>
<path fill="#1771EB" opacity="1.000000" stroke="none" 
	d="
M126.999283,186.006744 
	C124.922630,186.009354 122.845978,186.011963 120.323349,186.025818 
	C117.801224,185.403625 115.725067,184.770203 113.633522,183.733734 
	C116.191658,182.088226 122.429062,185.231705 120.007401,177.599457 
	C120.122879,172.476974 122.996971,169.321686 125.708267,165.770081 
	C128.611008,161.967682 130.371979,157.280365 132.533081,152.930496 
	C133.675125,150.631775 134.473633,148.158508 135.666153,145.889633 
	C137.633469,142.146652 140.983566,138.690887 141.593781,134.777695 
	C142.498474,128.976120 145.715057,128.739807 150.000366,129.421692 
	C149.786530,131.631668 150.021179,133.635681 149.284607,135.174957 
	C145.309937,143.481323 141.135666,151.693558 136.938538,159.891327 
	C135.553268,162.597031 134.506302,166.401535 132.229294,167.525909 
	C127.932022,169.647903 126.145874,172.866379 124.350471,176.854767 
	C122.052361,181.959869 122.257980,183.745605 126.999283,186.006744 
z"/>
<path fill="#1D78F1" opacity="1.000000" stroke="none" 
	d="
M97.441399,180.914108 
	C97.342102,178.245743 97.643753,175.636124 98.048233,173.042557 
	C98.170845,172.256378 98.365173,171.069244 98.886902,170.820084 
	C105.308678,167.753143 104.872299,159.709503 109.411255,155.908920 
	C113.573837,152.423477 113.325005,146.204514 119.024162,143.653671 
	C121.095894,142.726395 120.920906,137.052765 122.056755,133.639801 
	C122.583076,132.058380 123.460724,130.212189 124.754662,129.337402 
	C129.146240,126.368385 129.614563,123.635696 126.055000,119.738380 
	C125.842674,119.505913 126.606880,118.381531 127.268967,117.195290 
	C130.746979,117.539101 133.872696,118.359818 136.911057,119.531578 
	C132.195419,120.739410 133.748611,125.319695 131.984177,127.851196 
	C125.892830,136.590714 123.407120,147.571808 114.921494,154.868683 
	C113.239090,156.315384 112.799873,159.134079 111.556602,161.179840 
	C108.551079,166.125320 104.676567,170.682770 104.999542,177.384583 
	C104.999039,178.796906 104.998993,179.824020 104.998947,180.851135 
	C102.626572,180.893768 100.254204,180.936401 97.441399,180.914108 
z"/>
<path fill="#1A73EE" opacity="1.000000" stroke="none" 
	d="
M105.367188,180.931549 
	C104.998993,179.824020 104.999039,178.796906 105.428604,177.384628 
	C107.451019,176.901978 109.043907,176.804489 109.670410,176.766144 
	C112.454712,171.055679 114.702019,166.134094 117.231705,161.362183 
	C119.087135,157.862152 121.386414,154.600449 123.354790,151.156448 
	C125.714355,147.028015 127.496300,142.483749 130.358398,138.757034 
	C132.416473,136.077225 135.421555,134.254837 135.626617,130.339706 
	C135.653015,129.835617 137.822998,129.443817 139.251663,129.217407 
	C139.526566,129.908615 139.731537,130.474258 139.545547,130.842377 
	C137.080658,135.721054 134.600800,140.593170 132.041580,145.422897 
	C130.128937,149.032410 128.050034,152.553650 126.128929,156.158844 
	C123.840706,160.452957 121.653023,164.800522 119.400749,169.113953 
	C117.785141,172.208054 116.336273,175.270660 119.999390,178.000000 
	C122.429062,185.231705 116.191658,182.088226 113.333145,183.578125 
	C110.610588,182.887695 108.173012,181.949829 105.367188,180.931549 
z"/>
<path fill="#1A72ED" opacity="1.000000" stroke="none" 
	d="
M120.007401,177.599457 
	C116.336273,175.270660 117.785141,172.208054 119.400749,169.113953 
	C121.653023,164.800522 123.840706,160.452957 126.128929,156.158844 
	C128.050034,152.553650 130.128937,149.032410 132.041580,145.422897 
	C134.600800,140.593170 137.080658,135.721054 139.545547,130.842377 
	C139.731537,130.474258 139.526566,129.908615 139.251663,128.780029 
	C138.677475,125.141373 138.354950,122.157494 138.373566,119.101852 
	C139.829926,119.296967 140.945145,119.563850 142.060379,119.830727 
	C147.134964,121.847565 152.209534,123.864403 157.869263,126.168686 
	C159.372635,127.278435 160.290894,128.100739 160.788239,128.944733 
	C159.244263,128.976303 158.121185,128.986221 156.667572,128.852112 
	C154.224869,128.805786 152.112747,128.903503 150.000610,129.001221 
	C145.715057,128.739807 142.498474,128.976120 141.593781,134.777695 
	C140.983566,138.690887 137.633469,142.146652 135.666153,145.889633 
	C134.473633,148.158508 133.675125,150.631775 132.533081,152.930496 
	C130.371979,157.280365 128.611008,161.967682 125.708267,165.770081 
	C122.996971,169.321686 120.122879,172.476974 120.007401,177.599457 
z"/>
<path fill="#EFF5FA" opacity="1.000000" stroke="none" 
	d="
M142.239426,119.620773 
	C140.945145,119.563850 139.829926,119.296967 138.114716,119.049622 
	C137.342606,119.106285 137.170502,119.143410 136.998413,119.180527 
	C133.872696,118.359818 130.746979,117.539101 127.311020,116.887131 
	C125.295219,116.354431 123.589668,115.652992 121.290489,115.063293 
	C120.395355,115.307030 120.175652,115.522453 119.704102,115.866409 
	C118.553291,114.957298 117.736115,114.003098 117.187241,112.854691 
	C117.699112,112.052483 117.942696,111.444473 118.542381,110.772797 
	C119.602837,110.840668 120.307190,110.972206 121.011536,111.103745 
	C121.482994,111.821678 121.819435,112.999474 122.447533,113.183876 
	C126.970955,114.511955 131.553497,115.638657 137.233337,117.120369 
	C136.069824,115.625099 135.597565,115.018196 134.511108,113.621964 
	C137.580322,114.313438 139.941513,114.845398 142.455322,115.411736 
	C142.795990,114.552200 143.199799,113.533356 143.608246,112.502831 
	C144.053650,112.673264 144.589493,112.862099 144.584259,112.878586 
	C143.888092,115.064201 143.152328,117.237198 142.239426,119.620773 
z"/>
<path fill="#E6F5F9" opacity="1.000000" stroke="none" 
	d="
M81.042267,190.130432 
	C81.042274,190.130432 81.523064,190.051895 81.766174,190.036652 
	C81.401215,195.300842 79.751244,199.733627 73.880409,201.375046 
	C73.015877,201.616745 72.660057,203.537109 71.947868,204.599701 
	C71.825569,204.782166 71.092415,204.555222 70.393204,204.450287 
	C70.144966,204.383179 70.084877,204.198547 70.119705,203.744751 
	C71.806381,200.935043 73.458237,198.579132 75.400795,196.060852 
	C77.475090,193.975800 79.258675,192.053116 81.042267,190.130432 
z"/>
<path fill="#1F83F5" opacity="1.000000" stroke="none" 
	d="
M202.080994,78.778481 
	C201.492569,78.897881 201.183319,78.803101 200.874084,78.708328 
	C202.307709,74.753632 203.703842,70.782837 205.361176,66.924232 
	C205.409500,66.811752 208.217178,67.884476 209.884323,68.732254 
	C207.473633,72.228035 204.916916,75.396164 202.080994,78.778481 
z"/>
<path fill="#1183FA" opacity="1.000000" stroke="none" 
	d="
M121.389526,111.069946 
	C120.307190,110.972206 119.602837,110.840668 118.533585,110.787552 
	C118.168671,110.865982 118.143356,110.865486 118.020676,110.696083 
	C117.627449,110.363045 117.363014,110.372375 116.764053,110.406067 
	C115.943268,110.136986 115.463112,110.016502 115.265518,109.635666 
	C117.370148,109.245171 119.192223,109.115036 121.310715,108.969025 
	C122.077438,108.639603 122.547737,108.326057 123.444542,108.012558 
	C125.576103,108.014503 127.281166,108.016411 128.986221,108.018311 
	C131.348618,108.619476 133.697678,109.282524 136.078949,109.796219 
	C137.305923,110.060905 138.590240,110.059830 139.554596,110.611282 
	C138.527985,111.151100 137.795395,111.258476 137.062820,111.365860 
	C134.678268,111.347191 132.293701,111.328529 129.064911,111.257858 
	C126.823372,111.212212 125.426086,111.218559 124.028801,111.224915 
	C123.275040,111.161987 122.521278,111.099060 121.389526,111.069946 
z"/>
<path fill="#F4F9F7" opacity="1.000000" stroke="none" 
	d="
M120.976578,187.560669 
	C122.516945,187.588928 124.042252,188.012146 125.787888,188.702179 
	C126.151848,192.623764 123.343033,192.556946 120.985413,192.739899 
	C119.742256,192.836365 118.458160,192.149429 117.173500,192.040131 
	C115.930862,191.934418 114.663795,192.115997 113.055428,191.127258 
	C114.291634,190.752197 115.563766,190.465210 116.754799,189.979431 
	C118.192955,189.392883 119.562355,188.637787 120.976578,187.560669 
z"/>
<path fill="#0E5AD2" opacity="1.000000" stroke="none" 
	d="
M217.044922,166.120438 
	C216.794403,165.053070 216.035736,163.773987 216.377594,162.953415 
	C218.294235,158.352875 217.165634,156.213120 212.353149,156.398590 
	C208.695679,156.539536 209.065216,155.301346 211.416656,152.997589 
	C213.617279,153.221664 215.301071,153.631348 216.984848,154.041016 
	C217.066635,154.368088 217.242859,154.632141 217.825745,155.246918 
	C218.528122,156.450363 218.918304,157.240051 219.308487,158.029739 
	C219.375961,158.504074 219.443436,158.978424 219.419113,160.112274 
	C218.566513,162.554688 217.805710,164.337570 217.044922,166.120438 
z"/>
<path fill="#F4FCF6" opacity="1.000000" stroke="none" 
	d="
M141.696655,195.526688 
	C142.991257,196.175293 143.975021,196.726151 145.163437,197.547134 
	C144.048248,198.873840 142.789307,200.733093 141.397339,200.838654 
	C136.970978,201.174362 136.696686,197.980286 137.085785,194.187363 
	C138.542572,194.311691 139.964188,194.870316 141.696655,195.526688 
M139.482132,196.587997 
	C139.482132,196.587997 139.415009,196.476532 139.482132,196.587997 
z"/>
<path fill="#E2F2FA" opacity="1.000000" stroke="none" 
	d="
M161.209137,128.923050 
	C160.290894,128.100739 159.372635,127.278435 158.231293,126.210754 
	C159.071350,125.666878 160.470337,124.783485 161.141022,125.168564 
	C164.498413,127.096153 167.664963,129.356110 170.913818,131.825241 
	C168.230850,131.421021 165.532669,130.690811 162.383118,129.697723 
	C161.778183,129.140945 161.537323,128.970352 161.209137,128.923050 
z"/>
<path fill="#F0F7F9" opacity="1.000000" stroke="none" 
	d="
M171.464020,103.050018 
	C174.200348,101.134186 177.266388,99.217339 180.680756,97.317337 
	C178.547684,103.347336 176.349258,104.707710 171.464020,103.050018 
z"/>
<path fill="#F9FAF8" opacity="1.000000" stroke="none" 
	d="
M154.007492,109.100845 
	C156.093018,108.435425 158.178543,107.770004 160.633545,107.117447 
	C160.045883,108.761719 163.146744,112.270309 158.271637,111.810295 
	C156.610046,110.610039 155.308777,109.855446 154.007492,109.100845 
z"/>
<path fill="#F0F7F9" opacity="1.000000" stroke="none" 
	d="
M162.176941,106.973236 
	C164.618698,105.652084 167.462570,104.402428 170.667603,103.124802 
	C169.518921,107.209618 167.092529,109.360672 162.176941,106.973236 
z"/>
<path fill="#E6F1F7" opacity="1.000000" stroke="none" 
	d="
M216.971649,166.450684 
	C217.805710,164.337570 218.566513,162.554688 219.530182,160.454971 
	C221.645645,164.287125 219.166382,166.999100 216.299255,169.832245 
	C216.292374,168.912949 216.595367,167.846954 216.971649,166.450684 
z"/>
<path fill="#EFF5FA" opacity="1.000000" stroke="none" 
	d="
M153.657684,109.056206 
	C155.308777,109.855446 156.610046,110.610039 157.951294,111.677048 
	C154.841476,114.237396 152.921692,111.638695 150.389389,110.078842 
	C151.140747,109.679268 152.224304,109.345413 153.657684,109.056206 
z"/>
<path fill="#E5F1F3" opacity="1.000000" stroke="none" 
	d="
M209.575317,150.878510 
	C208.623901,150.454376 207.960678,150.050369 207.127960,149.398407 
	C209.600464,148.877136 212.242462,148.603836 214.942230,148.665268 
	C215.000000,149.000000 215.001541,148.997681 215.001541,148.997681 
	C213.711914,149.421875 212.422287,149.846085 211.069702,150.629089 
	C210.625671,150.958145 210.244583,150.928375 209.575317,150.878510 
z"/>
<path fill="#E6F1F7" opacity="1.000000" stroke="none" 
	d="
M212.353760,178.968292 
	C213.185043,176.159286 214.335236,173.315811 215.733398,170.236923 
	C214.878464,172.978943 213.775574,175.956375 212.353760,178.968292 
z"/>
<path fill="#E5F1F3" opacity="1.000000" stroke="none" 
	d="
M216.948792,153.663818 
	C215.301071,153.631348 213.617279,153.221664 211.565460,152.713058 
	C211.205643,152.245697 211.213867,151.877258 211.118530,151.250031 
	C212.980881,151.756378 214.946808,152.521500 216.948792,153.663818 
z"/>
<path fill="#F9FAF8" opacity="1.000000" stroke="none" 
	d="
M168.440796,111.018387 
	C167.183029,111.543274 165.932404,111.726021 164.681778,111.908760 
	C164.644714,111.395264 164.607651,110.881767 164.570587,110.368271 
	C165.863037,110.470932 167.155487,110.573586 168.440796,111.018387 
z"/>
<path fill="#EFF5FA" opacity="1.000000" stroke="none" 
	d="
M124.254303,111.443367 
	C125.426086,111.218559 126.823372,111.212212 128.624115,111.324089 
	C127.511658,111.515488 125.995728,111.588654 124.254303,111.443367 
z"/>
<path fill="#E6F1F7" opacity="1.000000" stroke="none" 
	d="
M219.601959,157.961716 
	C218.918304,157.240051 218.528122,156.450363 218.048386,155.341415 
	C218.604370,155.979324 219.249908,156.936508 219.601959,157.961716 
z"/>
<path fill="#F0F7F9" opacity="1.000000" stroke="none" 
	d="
M179.874908,104.633789 
	C180.123383,104.088684 180.563812,103.722313 181.036850,103.404518 
	C181.057968,103.390327 181.375656,103.817566 181.555206,104.039185 
	C181.061142,104.300034 180.567078,104.560875 179.874908,104.633789 
z"/>
<path fill="#E6F1F7" opacity="1.000000" stroke="none" 
	d="
M222.385345,153.471329 
	C222.184357,153.962753 221.788971,154.257614 221.393585,154.552460 
	C221.200531,154.174576 221.007477,153.796707 220.814423,153.418823 
	C221.273254,153.370804 221.732101,153.322784 222.385345,153.471329 
z"/>
<path fill="#EFF5FA" opacity="1.000000" stroke="none" 
	d="
M137.306702,111.556870 
	C137.795395,111.258476 138.527985,111.151100 139.625610,110.967590 
	C140.154633,110.940750 140.318619,110.990044 140.728607,111.113235 
	C139.833237,111.374046 138.691910,111.560966 137.306702,111.556870 
z"/>
<path fill="#EFF5FA" opacity="1.000000" stroke="none" 
	d="
M145.855637,110.880127 
	C146.402618,110.570572 147.328995,110.312859 148.618591,110.104706 
	C148.066223,110.413490 147.150620,110.672729 145.855637,110.880127 
z"/>
<path fill="#E5F1F3" opacity="1.000000" stroke="none" 
	d="
M214.998779,149.001190 
	C215.422302,149.121155 215.847076,149.239929 216.271835,149.358734 
	C215.931030,149.371490 215.590225,149.384247 215.125488,149.197342 
	C215.001541,148.997681 215.000000,149.000000 214.998779,149.001190 
z"/>
<path fill="#F4F9F7" opacity="1.000000" stroke="none" 
	d="
M128.448532,192.532867 
	C128.414627,192.476517 128.482437,192.589233 128.448532,192.532867 
z"/>
<path fill="#F4F9F7" opacity="1.000000" stroke="none" 
	d="
M128.116623,189.933090 
	C128.267334,189.760071 128.436218,189.781616 128.796661,189.972107 
	C128.703735,190.136597 128.419281,190.132126 128.116623,189.933090 
z"/>
<path fill="#E6F1F7" opacity="1.000000" stroke="none" 
	d="
M216.468735,179.453781 
	C216.521149,179.423035 216.416321,179.484528 216.468735,179.453781 
z"/>
<path fill="#227EFA" opacity="1.000000" stroke="none" 
	d="
M75.110092,196.223236 
	C73.458237,198.579132 71.806381,200.935043 70.088135,203.652924 
	C67.875992,207.490479 65.704544,210.950485 63.589775,214.444809 
	C59.050159,221.945862 57.269966,222.506866 49.245682,218.659729 
	C48.812267,218.413437 48.691654,218.282944 48.210171,217.880524 
	C47.630901,217.362976 47.358185,217.256256 47.031155,217.288437 
	C47.031155,217.288437 46.692760,216.976852 46.309280,216.665436 
	C45.285259,215.879517 44.644718,215.405029 44.004173,214.930542 
	C46.148239,214.325623 48.292297,213.720703 50.875629,212.991852 
	C54.268501,206.338699 57.903866,199.239899 61.510208,192.126404 
	C63.478817,188.243332 65.332886,184.300461 67.380981,180.460495 
	C67.970818,179.354645 69.172607,178.591644 69.886925,177.531982 
	C71.019371,175.852066 72.002571,174.068802 72.999596,172.301407 
	C73.542671,171.338715 73.718369,169.914276 74.514977,169.390747 
	C79.350281,166.212921 81.250557,161.259216 83.167320,156.186310 
	C84.311813,153.157303 85.925537,150.298950 87.412918,147.407394 
	C91.491829,139.477737 95.564781,131.543900 99.781975,123.687866 
	C100.343979,122.640930 101.659882,121.448227 102.741234,121.324486 
	C107.798103,120.745842 107.399727,118.206482 105.468399,114.824127 
	C105.157478,114.279610 105.169533,113.550674 105.041031,112.440460 
	C105.049774,111.973946 104.969139,111.804466 105.215683,111.871704 
	C105.630074,111.909683 105.797913,111.880432 106.366425,111.932495 
	C109.502861,112.281448 112.238609,112.549088 115.290848,112.908722 
	C116.044533,113.016769 116.481735,113.032829 116.918945,113.048889 
	C117.736115,114.003098 118.553291,114.957298 119.907883,115.931900 
	C120.445305,115.952293 120.873390,115.953018 120.873383,115.953018 
	C121.142075,116.335182 121.410767,116.717346 121.679459,117.099510 
	C115.959808,119.323029 116.575737,125.941689 112.970467,129.734604 
	C111.280098,131.512955 110.705864,134.343948 109.595596,136.683548 
	C106.287766,143.654007 103.254059,150.776199 99.544662,157.526657 
	C97.139786,161.903122 92.646484,165.352768 91.064575,169.904327 
	C89.123436,175.489456 84.735680,178.960709 82.061607,183.754379 
	C81.847534,184.138138 82.012299,184.733200 81.632263,185.609741 
	C78.728775,185.121277 76.179840,185.011307 74.920807,187.773987 
	C73.686874,190.481598 72.278717,193.480377 75.110092,196.223236 
M47.827858,215.244843 
	C47.882961,215.410889 47.938068,215.576935 47.993176,215.742981 
	C48.046879,215.576004 48.100578,215.409012 47.827858,215.244843 
z"/>
<path fill="#EFF5FA" opacity="1.000000" stroke="none" 
	d="
M114.974365,112.816727 
	C112.238609,112.549088 109.502861,112.281448 106.279594,111.784767 
	C105.517769,111.638641 105.243454,111.721550 104.969139,111.804459 
	C104.969139,111.804466 105.049774,111.973946 105.048714,112.067780 
	C97.620483,112.407959 90.193314,112.654305 82.357697,112.849869 
	C81.648384,112.068909 81.347527,111.338737 81.414154,110.301590 
	C86.535751,110.207253 91.289856,110.419884 95.922905,110.627106 
	C96.279587,109.160294 96.630325,107.717888 97.362473,106.259033 
	C100.737480,106.888474 103.731079,107.534370 107.000023,108.405212 
	C108.191811,108.863953 109.108261,109.097740 110.036743,109.683617 
	C111.690643,110.962715 113.332504,111.889717 114.974365,112.816727 
z"/>
<path fill="#F4F8F9" opacity="1.000000" stroke="none" 
	d="
M58.277000,120.628006 
	C57.558041,118.396675 57.193523,116.082550 56.781723,113.468262 
	C61.069530,113.670792 64.582184,113.836708 68.545593,114.325333 
	C68.991478,115.077377 68.986610,115.506714 68.981743,115.936050 
	C65.531639,117.472443 62.081543,119.008827 58.277000,120.628006 
z"/>
<path fill="#F0F8F8" opacity="1.000000" stroke="none" 
	d="
M32.409874,139.071838 
	C32.515800,136.275208 32.930309,133.337082 33.423489,129.841324 
	C36.028366,129.841324 38.955250,129.841324 42.051071,130.146729 
	C39.052826,133.278229 35.885639,136.104294 32.409874,139.071838 
z"/>
<path fill="#EDF6F8" opacity="1.000000" stroke="none" 
	d="
M43.686317,214.832306 
	C44.644718,215.405029 45.285259,215.879517 46.086594,216.607925 
	C42.620758,216.344650 38.994133,215.827438 34.652012,215.208206 
	C35.871162,213.327759 36.371635,212.555801 36.923904,211.468994 
	C39.106628,212.347458 41.237549,213.540756 43.686317,214.832306 
z"/>
<path fill="#FCFDFE" opacity="1.000000" stroke="none" 
	d="
M69.352432,115.934021 
	C68.986610,115.506714 68.991478,115.077377 68.996140,114.326096 
	C71.151802,113.801582 73.307663,113.599014 75.721252,113.657349 
	C73.893684,114.589500 71.808403,115.260750 69.352432,115.934021 
z"/>
<path fill="#F0F8F8" opacity="1.000000" stroke="none" 
	d="
M30.312622,142.065887 
	C30.208294,141.874390 30.352007,141.571182 30.708782,141.125381 
	C30.801449,141.306595 30.681055,141.630371 30.312622,142.065887 
z"/>
<path fill="#227EFA" opacity="1.000000" stroke="none" 
	d="
M110.024704,109.331528 
	C109.108261,109.097740 108.191811,108.863953 107.277283,108.217140 
	C107.818199,106.071457 108.104362,104.202957 108.947479,102.633690 
	C110.858833,99.076164 112.982208,95.626373 115.152275,92.217369 
	C115.916557,91.016731 117.079178,90.072441 118.040627,88.993912 
	C119.718132,87.112144 121.775131,85.436951 122.974457,83.285706 
	C126.365089,77.203842 129.442093,70.944794 132.557541,64.712990 
	C133.790588,62.246517 134.549179,59.517433 135.960983,57.170979 
	C138.994003,52.130054 142.391953,47.290508 142.275330,40.706589 
	C145.851028,40.418671 149.146561,40.418671 152.905731,40.418671 
	C151.078918,37.883488 146.660080,37.704430 148.007050,33.402138 
	C148.440353,32.803841 148.740295,32.419472 149.040222,32.035099 
	C149.040222,32.035095 149.000992,31.999285 149.316666,31.925095 
	C150.436768,30.913076 151.241196,29.975248 152.045624,29.037422 
	C152.045624,29.037422 151.999390,29.000961 152.294830,28.924492 
	C153.028381,28.215393 153.466507,27.582766 153.904633,26.950138 
	C156.203354,23.841373 158.502060,20.732607 161.174316,17.109272 
	C162.993088,14.006947 164.438339,11.419188 165.883575,8.831427 
	C167.486633,6.907532 168.833633,4.665581 170.746063,3.125975 
	C174.724915,-0.077195 177.811066,3.679050 181.570648,5.010807 
	C181.946915,5.061349 181.967239,5.035375 182.132721,5.312875 
	C183.685852,6.539550 185.073517,7.488724 186.344604,8.578657 
	C186.228043,8.719417 185.992386,8.998812 185.992386,8.998812 
	C181.810867,7.765920 179.468903,7.997011 178.296143,13.525850 
	C177.400757,17.747032 173.344833,21.286007 170.752380,25.166893 
	C170.060089,26.203279 169.533752,27.360146 169.014450,28.499626 
	C168.548477,29.522108 168.502731,30.967995 167.747147,31.590466 
	C160.780106,37.330009 158.304001,45.659348 154.630859,53.376347 
	C151.231903,60.517273 147.086655,67.302582 143.280487,74.250221 
	C141.089157,78.250198 139.137207,82.402245 136.675613,86.227203 
	C134.324020,89.881233 131.719025,93.454865 128.730103,96.591919 
	C125.950836,99.508911 124.929787,101.908188 128.261505,104.963783 
	C128.774750,105.434479 128.758453,106.482590 128.986633,107.640991 
	C127.281166,108.016411 125.576103,108.014503 123.146484,108.028198 
	C121.952705,108.357498 121.483498,108.671196 121.014290,108.984894 
	C119.192223,109.115036 117.370148,109.245171 115.060745,109.713951 
	C113.984299,110.053040 113.395180,110.053490 112.750275,109.943687 
	C112.694481,109.833435 112.345894,109.957382 111.980347,109.779678 
	C111.084770,109.511826 110.554741,109.421677 110.024704,109.331528 
z"/>
<path fill="#227EFA" opacity="1.000000" stroke="none" 
	d="
M191.020782,10.739461 
	C192.464035,11.779035 193.907272,12.818607 195.654755,14.015898 
	C191.367416,17.368851 188.410065,16.031242 185.888824,9.285432 
	C185.992386,8.998812 186.228043,8.719417 186.642593,8.697884 
	C188.378357,9.364053 189.699570,10.051757 191.020782,10.739461 
z"/>
<path fill="#0657D0" opacity="1.000000" stroke="none" 
	d="
M10.242577,62.361355 
	C17.137384,46.321430 24.017918,30.557386 31.122921,14.895176 
	C32.384342,12.114514 34.152866,9.245975 36.448788,7.331145 
	C39.475246,4.807033 43.171196,6.324650 46.424026,7.665104 
	C49.603992,8.975533 52.658234,10.591058 55.755226,12.420786 
	C53.467152,18.098732 54.438564,25.488626 46.516579,27.283127 
	C46.176270,27.360212 46.110706,28.482214 45.844173,29.085197 
	C45.113159,30.738997 44.409874,32.410206 43.577461,34.013172 
	C39.285835,42.277504 34.468323,50.315086 30.841276,58.859257 
	C28.940033,63.337978 27.906542,67.436295 21.671524,66.973419 
	C19.912842,66.855850 18.484314,66.768120 16.865438,66.668701 
	C16.349833,65.361443 15.748802,63.837593 15.182105,62.400799 
	C13.632673,63.765003 12.366516,64.879799 10.948832,65.742737 
	C10.576038,65.175575 10.354773,64.860275 10.133505,64.544975 
	C10.190618,63.920639 10.247730,63.296299 10.242577,62.361355 
z"/>
<path fill="#1168E3" opacity="1.000000" stroke="none" 
	d="
M82.291946,24.880875 
	C84.179863,25.688869 86.067780,26.496864 87.852829,27.627224 
	C86.177010,30.862488 86.476288,31.162004 92.965668,32.288307 
	C89.973625,38.101318 87.089691,43.588551 84.323334,49.134430 
	C83.178535,51.429470 82.410637,53.913628 81.250221,56.199528 
	C79.271324,60.097713 77.115486,63.906006 75.038422,67.754456 
	C72.835976,71.835205 71.284424,76.520172 68.226707,79.803215 
	C65.943611,82.254562 64.767647,84.261032 64.930840,87.429054 
	C64.983566,88.452667 64.345551,89.511864 64.323502,89.583252 
	C61.942642,90.015327 60.367256,90.301224 58.495605,90.487389 
	C57.806675,90.252335 57.414017,90.117020 57.010754,89.990692 
	C57.000153,89.999695 57.018085,89.978310 56.939735,89.694702 
	C56.243294,88.934227 55.625206,88.457352 54.952942,87.715271 
	C54.592438,87.341805 54.286114,87.233528 53.832367,86.844566 
	C52.456230,86.699959 51.227512,86.836044 49.998795,86.972122 
	C49.998795,86.972122 49.720741,86.687401 49.466293,86.464607 
	C49.211849,86.241814 49.020088,85.914490 49.056992,85.607758 
	C49.729469,83.867447 50.365040,82.433876 51.357792,81.006790 
	C53.012642,81.539749 54.310307,82.066223 55.996468,82.750313 
	C57.023209,80.814949 58.197216,79.034714 58.957493,77.092529 
	C61.939217,69.475502 65.219009,62.080379 71.191063,56.192410 
	C72.144119,55.252781 72.495323,53.654869 72.996323,52.313324 
	C74.675606,47.816654 74.634521,42.325462 80.048088,39.999065 
	C83.794807,38.388973 83.544815,35.761955 82.156311,32.680614 
	C81.631264,31.515459 81.378502,30.227606 81.249763,28.812401 
	C81.762581,27.379704 82.027260,26.130289 82.291946,24.880875 
z"/>
<path fill="#FCFDFE" opacity="1.000000" stroke="none" 
	d="
M10.095854,65.014229 
	C10.354773,64.860275 10.576038,65.175575 10.985043,66.085052 
	C14.744959,68.867050 18.317139,71.054878 22.066025,73.524933 
	C23.105625,74.006119 23.968521,74.205086 25.041605,74.652000 
	C26.453705,75.385323 27.655617,75.870697 29.096165,76.609467 
	C32.217731,78.301819 35.100662,79.740768 37.986496,81.532089 
	C37.995110,82.589104 38.000824,83.293747 38.006535,83.998398 
	C36.938663,83.999260 35.870792,84.000122 34.401459,84.000496 
	C34.000000,84.000000 33.997387,83.997971 33.997387,83.997971 
	C34.024242,80.845856 32.463737,80.106209 29.512234,80.607666 
	C27.277479,80.987350 24.911366,80.905907 22.638327,80.680542 
	C18.443998,80.264687 15.521658,78.677635 17.867449,73.361435 
	C12.617488,73.054825 8.571282,71.771393 10.095854,65.014229 
z"/>
<path fill="#FCFDFE" opacity="1.000000" stroke="none" 
	d="
M53.979790,87.125259 
	C54.286114,87.233528 54.592438,87.341805 54.976738,88.045715 
	C55.709167,89.087006 56.363625,89.532661 57.018082,89.978310 
	C57.018085,89.978310 57.000153,89.999695 57.004158,90.344971 
	C57.503654,91.403419 57.999146,92.116577 58.494637,92.829742 
	C59.001785,92.294510 59.508934,91.759285 60.327103,91.217178 
	C61.430405,91.875328 62.222687,92.540359 63.149857,93.400543 
	C63.535282,93.826294 63.829418,93.919708 64.121826,93.895264 
	C64.076500,93.914581 64.072014,93.816147 64.245567,94.121765 
	C65.085289,94.560226 65.751465,94.693077 66.753021,94.878036 
	C69.097191,95.857948 71.105980,96.785744 73.089188,98.080040 
	C74.044304,99.964722 75.025024,101.482903 76.005745,103.001083 
	C75.391129,103.465919 74.404663,104.449837 74.218544,104.316498 
	C71.988983,102.719360 69.720558,101.116745 67.771965,99.200638 
	C64.571548,96.053581 61.129818,94.763420 56.652081,96.166321 
	C54.442997,96.858421 52.000050,96.804070 49.494316,97.107925 
	C50.103462,94.153748 50.552231,91.977356 51.350101,89.393158 
	C52.459404,88.365318 53.219601,87.745285 53.979790,87.125259 
z"/>
<path fill="#FCFDFE" opacity="1.000000" stroke="none" 
	d="
M96.981064,106.275482 
	C96.630325,107.717888 96.279587,109.160294 95.922905,110.627106 
	C91.289856,110.419884 86.535751,110.207253 81.394791,110.003632 
	C81.005318,108.619507 81.002701,107.226372 81.385773,105.416634 
	C85.193024,106.761292 88.611763,106.385345 92.269638,104.978256 
	C92.510132,104.970070 92.956543,105.149887 92.800400,105.365944 
	C92.377151,105.922661 92.110062,106.263321 91.842964,106.603981 
	C92.944023,106.375259 94.045090,106.146538 95.460358,105.925903 
	C96.176735,106.047813 96.578896,106.161652 96.981064,106.275482 
z"/>
<path fill="#EFF5FA" opacity="1.000000" stroke="none" 
	d="
M92.029152,104.986443 
	C88.611763,106.385345 85.193024,106.761292 81.386032,104.999023 
	C80.447510,104.829529 79.894417,104.661041 79.458054,104.215126 
	C79.880516,103.511185 80.186241,103.084671 80.491959,102.658165 
	C79.994186,102.770065 79.496407,102.881966 78.998634,102.993866 
	C78.250343,102.995811 77.502052,102.997757 76.379753,103.000389 
	C75.025024,101.482903 74.044304,99.964722 73.321953,98.105072 
	C73.580315,97.763611 74.044884,97.704231 74.396103,97.864319 
	C76.437767,98.381783 78.128212,98.739166 79.987320,99.412048 
	C83.058075,100.899208 85.960167,102.070869 89.064438,103.479462 
	C90.187462,104.139748 91.108307,104.563095 92.029152,104.986443 
M78.478592,100.592834 
	C78.478592,100.592834 78.412453,100.484077 78.478592,100.592834 
z"/>
<path fill="#EBF4F8" opacity="1.000000" stroke="none" 
	d="
M38.188396,84.258057 
	C38.000824,83.293747 37.995110,82.589104 38.329330,81.622307 
	C42.119541,82.878265 45.569813,84.396378 49.020088,85.914490 
	C49.020088,85.914490 49.211849,86.241814 49.272026,86.421524 
	C49.332207,86.601234 49.156689,86.862076 48.719276,86.945633 
	C47.521645,87.349792 46.761425,87.670395 46.001202,87.990990 
	C46.001202,87.990990 45.503338,87.988403 45.047913,87.727806 
	C43.732552,87.304672 42.872616,87.142143 42.012676,86.979614 
	C40.798538,86.158981 39.584396,85.338356 38.188396,84.258057 
z"/>
<path fill="#EBF4F8" opacity="1.000000" stroke="none" 
	d="
M53.832371,86.844574 
	C53.219601,87.745285 52.459404,88.365318 51.350899,88.987183 
	C50.682270,88.516724 50.361946,88.044426 50.020210,87.272125 
	C51.227512,86.836044 52.456230,86.699959 53.832371,86.844574 
z"/>
<path fill="#FCFDFE" opacity="1.000000" stroke="none" 
	d="
M42.051834,87.306961 
	C42.872616,87.142143 43.732552,87.304672 44.798981,87.727753 
	C44.033978,87.870293 43.062481,87.752296 42.051834,87.306961 
z"/>
<path fill="#FCFDFE" opacity="1.000000" stroke="none" 
	d="
M78.999588,103.247269 
	C79.496407,102.881966 79.994186,102.770065 80.491959,102.658165 
	C80.186241,103.084671 79.880516,103.511185 79.289536,103.972580 
	C79.003029,103.838539 79.001778,103.669609 78.999588,103.247269 
z"/>
<path fill="#EAF5F9" opacity="1.000000" stroke="none" 
	d="
M2.397264,170.214859 
	C2.536674,169.791565 2.807294,169.533325 3.095962,169.297150 
	C3.107761,169.287491 3.289340,169.485367 3.391818,169.586548 
	C3.105116,169.852325 2.818413,170.118103 2.397264,170.214859 
z"/>
<path fill="#FCFDFE" opacity="1.000000" stroke="none" 
	d="
M46.330383,87.993202 
	C46.761425,87.670395 47.521645,87.349792 48.610680,87.059288 
	C48.179516,87.391396 47.419540,87.693405 46.330383,87.993202 
z"/>
<path fill="#FCFDFE" opacity="1.000000" stroke="none" 
	d="
M36.743320,88.356552 
	C36.991959,88.371300 37.127510,88.504616 37.263062,88.637939 
	C37.052116,88.583664 36.841175,88.529396 36.743320,88.356552 
z"/>
<path fill="#FCFDFE" opacity="1.000000" stroke="none" 
	d="
M34.001015,84.001305 
	C33.908562,84.037498 33.815094,84.072380 33.859505,84.052612 
	C33.997387,83.997971 34.000000,84.000000 34.001015,84.001305 
z"/>
<path fill="#EAF5F9" opacity="1.000000" stroke="none" 
	d="
M4.000350,172.999695 
	C3.880671,172.860443 3.760641,172.721497 3.640612,172.582535 
	C3.723796,172.631607 3.806979,172.680664 3.944808,172.865173 
	C3.999454,173.000610 4.000000,173.000000 4.000350,172.999695 
z"/>
<path fill="#095CD6" opacity="1.000000" stroke="none" 
	d="
M28.857531,76.356071 
	C27.655617,75.870697 26.453705,75.385323 25.158537,74.342117 
	C25.043020,72.855835 25.020758,71.927376 24.992842,70.643494 
	C23.992020,69.193130 22.996849,68.098198 22.001678,67.003258 
	C27.906542,67.436295 28.940033,63.337978 30.841276,58.859257 
	C34.468323,50.315086 39.285835,42.277504 43.577461,34.013172 
	C44.409874,32.410206 45.113159,30.738997 45.844173,29.085197 
	C46.110706,28.482214 46.176270,27.360212 46.516579,27.283127 
	C54.438564,25.488626 53.467152,18.098732 56.035156,12.624750 
	C56.327522,12.480585 56.305088,12.510152 56.303307,12.863539 
	C57.213066,13.449191 58.124603,13.681458 59.036140,13.913724 
	C61.848366,15.137266 64.660591,16.360809 67.574677,18.117634 
	C66.833603,19.772987 65.665222,20.777153 65.208084,22.038992 
	C63.773907,25.997793 63.071926,30.280525 61.242134,34.025280 
	C57.263222,42.168312 52.720024,50.033997 48.489967,58.056541 
	C46.001369,62.776302 43.696400,67.592514 41.261005,72.340813 
	C39.436546,75.897972 35.210289,77.279846 31.233721,75.868225 
	C30.581566,75.636719 29.656477,76.174065 28.857531,76.356071 
z"/>
<path fill="#1E7AF5" opacity="1.000000" stroke="none" 
	d="
M92.269638,104.978256 
	C91.108307,104.563095 90.187462,104.139748 89.289909,103.174232 
	C90.999527,102.119995 92.685852,101.607925 95.689178,100.695930 
	C92.581093,100.058746 90.969864,99.728432 88.217010,99.164078 
	C89.902092,98.459862 90.450401,98.230713 91.225815,98.256500 
	C100.996216,99.684464 104.658279,92.011047 108.551186,86.021706 
	C112.582008,79.820168 114.731110,72.417816 117.953682,65.660110 
	C119.810753,61.765846 123.167091,58.322346 124.028984,54.287285 
	C125.016289,49.665058 127.619560,46.834339 130.553024,43.776505 
	C131.055786,43.252430 130.543198,41.754288 130.624695,40.533405 
	C130.749756,40.360691 131.007278,40.020767 131.273254,40.061871 
	C131.786957,39.903492 132.034683,39.704010 132.321838,39.496376 
	C132.361282,39.488220 132.437256,39.461494 132.437256,39.461494 
	C133.082336,39.612251 133.727432,39.763004 134.915558,40.229218 
	C137.637466,40.694618 139.816299,40.844559 141.995148,40.994503 
	C142.391953,47.290508 138.994003,52.130054 135.960983,57.170979 
	C134.549179,59.517433 133.790588,62.246517 132.557541,64.712990 
	C129.442093,70.944794 126.365089,77.203842 122.974457,83.285706 
	C121.775131,85.436951 119.718132,87.112144 118.040627,88.993912 
	C117.079178,90.072441 115.916557,91.016731 115.152275,92.217369 
	C112.982208,95.626373 110.858833,99.076164 108.947479,102.633690 
	C108.104362,104.202957 107.818199,106.071457 107.001938,107.992188 
	C103.731079,107.534370 100.737480,106.888474 97.362473,106.259033 
	C96.578896,106.161652 96.176735,106.047813 95.253433,105.698814 
	C94.140381,105.359055 93.548462,105.254471 92.956543,105.149887 
	C92.956543,105.149887 92.510132,104.970070 92.269638,104.978256 
z"/>
<path fill="#146BE6" opacity="1.000000" stroke="none" 
	d="
M74.044884,97.704231 
	C74.044884,97.704231 73.580315,97.763611 73.347549,97.738571 
	C71.105980,96.785744 69.097191,95.857948 66.536163,94.622932 
	C65.346619,94.149193 64.709320,93.982666 64.072014,93.816147 
	C64.072014,93.816147 64.076500,93.914581 64.002304,93.683380 
	C63.662891,93.224976 63.358513,93.142715 63.014969,93.205383 
	C62.222687,92.540359 61.430405,91.875328 60.104332,91.144432 
	C59.248417,91.013901 58.988857,90.850082 58.791870,90.587120 
	C60.367256,90.301224 61.942642,90.015327 64.323502,89.583252 
	C64.345551,89.511864 64.983566,88.452667 64.930840,87.429054 
	C64.767647,84.261032 65.943611,82.254562 68.226707,79.803215 
	C71.284424,76.520172 72.835976,71.835205 75.038422,67.754456 
	C77.115486,63.906006 79.271324,60.097713 81.250221,56.199528 
	C82.410637,53.913628 83.178535,51.429470 84.323334,49.134430 
	C87.089691,43.588551 89.973625,38.101318 92.965668,32.288307 
	C86.476288,31.162004 86.177010,30.862488 88.093353,27.879522 
	C93.761337,30.778952 99.085922,33.748447 104.635574,37.268272 
	C103.303177,38.932140 100.303719,40.246300 100.426125,41.126137 
	C101.133415,46.210068 97.003922,48.797981 95.278458,52.557743 
	C92.240097,59.178314 89.161720,65.780800 86.057671,72.370880 
	C82.075325,80.825653 78.051079,89.260689 74.044884,97.704231 
z"/>
<path fill="#1B75EF" opacity="1.000000" stroke="none" 
	d="
M130.499649,40.706120 
	C130.543198,41.754288 131.055786,43.252430 130.553024,43.776505 
	C127.619560,46.834339 125.016289,49.665058 124.028984,54.287285 
	C123.167091,58.322346 119.810753,61.765846 117.953682,65.660110 
	C114.731110,72.417816 112.582008,79.820168 108.551186,86.021706 
	C104.658279,92.011047 100.996216,99.684464 90.994987,97.983688 
	C89.358955,97.304070 88.180847,97.152184 87.001907,96.585808 
	C87.338005,90.006104 90.726006,85.412048 94.706100,81.101791 
	C95.550446,80.187401 96.396690,79.198074 96.938171,78.094208 
	C99.093666,73.700035 100.928696,69.136902 103.280724,64.855141 
	C104.795349,62.097824 108.013634,59.961281 108.686859,57.123833 
	C110.001976,51.580956 117.024597,48.163177 114.516930,41.280228 
	C114.476471,41.169174 116.231453,40.403980 117.361588,39.945110 
	C117.574585,39.946175 117.980919,39.818222 117.980919,39.818222 
	C118.168442,39.849346 118.355957,39.880466 119.204155,39.834549 
	C120.931923,39.774242 121.999016,39.790974 123.066109,39.807705 
	C123.066109,39.807705 123.018227,39.978191 123.084793,40.205978 
	C123.423653,40.369091 123.695946,40.304413 123.968239,40.239738 
	C124.724129,40.230732 125.480019,40.221725 126.868454,40.307331 
	C128.500549,40.503338 129.500092,40.604729 130.499649,40.706120 
z"/>
<path fill="#1670EA" opacity="1.000000" stroke="none" 
	d="
M117.148582,39.944046 
	C116.231453,40.403980 114.476471,41.169174 114.516930,41.280228 
	C117.024597,48.163177 110.001976,51.580956 108.686859,57.123833 
	C108.013634,59.961281 104.795349,62.097824 103.280724,64.855141 
	C100.928696,69.136902 99.093666,73.700035 96.938171,78.094208 
	C96.396690,79.198074 95.550446,80.187401 94.706100,81.101791 
	C90.726006,85.412048 87.338005,90.006104 87.001190,96.834442 
	C87.001305,97.497574 87.000481,97.994843 86.599976,97.996185 
	C85.131180,98.000481 84.062889,98.003441 82.656372,98.035828 
	C81.484978,98.409019 80.651817,98.752785 79.818665,99.096550 
	C78.128212,98.739166 76.437767,98.381783 74.396103,97.864319 
	C78.051079,89.260689 82.075325,80.825653 86.057671,72.370880 
	C89.161720,65.780800 92.240097,59.178314 95.278458,52.557743 
	C97.003922,48.797981 101.133415,46.210068 100.426125,41.126137 
	C100.303719,40.246300 103.303177,38.932140 104.927956,37.468506 
	C105.442505,37.047001 105.889732,36.975590 107.041992,36.915844 
	C110.167786,37.555645 112.588562,38.183781 115.009331,38.811916 
	C115.458992,38.832172 115.908646,38.852428 116.705750,39.173092 
	C117.053200,39.473499 117.148582,39.944046 117.148582,39.944046 
z"/>
<path fill="#0D61DC" opacity="1.000000" stroke="none" 
	d="
M29.096165,76.609467 
	C29.656477,76.174065 30.581566,75.636719 31.233721,75.868225 
	C35.210289,77.279846 39.436546,75.897972 41.261005,72.340813 
	C43.696400,67.592514 46.001369,62.776302 48.489967,58.056541 
	C52.720024,50.033997 57.263222,42.168312 61.242134,34.025280 
	C63.071926,30.280525 63.773907,25.997793 65.208084,22.038992 
	C65.665222,20.777153 66.833603,19.772987 67.836563,18.354984 
	C72.591003,20.165468 77.185425,22.271885 82.035896,24.629589 
	C82.027260,26.130289 81.762581,27.379704 81.196114,28.472551 
	C79.705254,28.277220 77.826363,27.745674 77.442924,28.282429 
	C75.465630,31.050333 73.729012,34.019005 72.174301,37.053837 
	C69.136665,42.983395 67.522408,50.272919 63.038132,54.677330 
	C56.877388,60.728344 54.313049,68.699722 49.200962,75.161911 
	C48.484928,76.067047 50.337193,79.003914 51.000610,81.000305 
	C50.365040,82.433876 49.729469,83.867447 49.056992,85.607758 
	C45.569813,84.396378 42.119541,82.878265 38.326431,81.269943 
	C35.100662,79.740768 32.217731,78.301819 29.096165,76.609467 
z"/>
<path fill="#207CEE" opacity="1.000000" stroke="none" 
	d="
M142.275330,40.706589 
	C139.816299,40.844559 137.637466,40.694618 135.252563,40.282673 
	C135.215317,39.897453 135.384140,39.774231 136.171875,39.434708 
	C140.178497,37.409325 143.566193,35.600246 147.186264,33.760120 
	C147.418640,33.729076 147.873672,33.616062 147.873672,33.616062 
	C146.660080,37.704430 151.078918,37.883488 152.905731,40.418671 
	C149.146561,40.418671 145.851028,40.418671 142.275330,40.706589 
z"/>
<path fill="#F5F8F9" opacity="1.000000" stroke="none" 
	d="
M146.953888,33.791164 
	C143.566193,35.600246 140.178497,37.409325 136.409103,39.229733 
	C135.745255,37.701477 135.463089,36.161896 135.180923,34.622314 
	C135.490326,34.397831 135.799728,34.173347 136.109146,33.948864 
	C137.030640,34.749245 137.952148,35.549622 137.916122,35.518337 
	C140.728668,34.541946 142.949554,33.770958 145.786743,33.080368 
	C146.652084,33.313736 146.835693,33.523869 146.953888,33.791164 
z"/>
<path fill="#F5F8F9" opacity="1.000000" stroke="none" 
	d="
M115.006729,38.460693 
	C112.588562,38.183781 110.167786,37.555645 107.370178,36.827900 
	C109.501282,36.382336 112.009224,36.036381 114.758583,35.845215 
	C115.000000,36.000000 115.002052,36.002022 115.002052,36.002022 
	C115.002739,36.704502 115.003433,37.406986 115.006729,38.460693 
z"/>
<path fill="#F1F8F9" opacity="1.000000" stroke="none" 
	d="
M165.855530,8.787191 
	C164.438339,11.419188 162.993088,14.006947 161.265900,16.777279 
	C161.962067,13.887727 162.940170,10.815600 163.957001,7.373645 
	C163.995728,7.003815 164.000000,6.999965 164.223114,7.125738 
	C164.887497,7.719462 165.328766,8.187413 165.770035,8.655365 
	C165.770035,8.655365 165.827499,8.742956 165.855530,8.787191 
z"/>
<path fill="#F5F8F9" opacity="1.000000" stroke="none" 
	d="
M130.624695,40.533405 
	C129.500092,40.604729 128.500549,40.503338 127.242279,40.244705 
	C126.785172,38.900005 126.586784,37.712551 126.227615,35.562775 
	C128.623474,36.932964 130.293564,37.888092 132.200470,39.152359 
	C132.437256,39.461494 132.361282,39.488220 132.066040,39.407036 
	C131.516281,39.557487 131.261780,39.789127 131.007278,40.020767 
	C131.007278,40.020767 130.749756,40.360691 130.624695,40.533405 
z"/>
<path fill="#F5F8F9" opacity="1.000000" stroke="none" 
	d="
M123.046516,39.459030 
	C121.999016,39.790974 120.931923,39.774242 119.464417,39.718102 
	C119.999168,38.643620 120.934326,37.608547 122.219177,36.186413 
	C122.515381,37.258636 122.771156,38.184498 123.046516,39.459030 
z"/>
<path fill="#EEF5F6" opacity="1.000000" stroke="none" 
	d="
M151.668579,29.030548 
	C151.241196,29.975248 150.436768,30.913076 149.333496,31.945175 
	C149.786957,31.034187 150.539246,30.028933 151.668579,29.030548 
z"/>
<path fill="#0657D0" opacity="1.000000" stroke="none" 
	d="
M58.840687,13.666973 
	C58.124603,13.681458 57.213066,13.449191 56.310253,12.879416 
	C57.094395,12.834678 57.869816,13.127449 58.840687,13.666973 
z"/>
<path fill="#F5F8F9" opacity="1.000000" stroke="none" 
	d="
M114.999306,35.999050 
	C115.678543,35.398991 116.358467,34.799881 117.038399,34.200771 
	C117.235275,34.491501 117.432144,34.782227 117.629013,35.072956 
	C116.971130,35.379227 116.313248,35.685501 115.328705,35.996899 
	C115.002052,36.002022 115.000000,36.000000 114.999306,35.999050 
z"/>
<path fill="#EEF5F6" opacity="1.000000" stroke="none" 
	d="
M147.186264,33.760120 
	C146.835693,33.523869 146.652084,33.313736 146.207977,33.078423 
	C146.794815,32.666561 147.576706,32.337048 148.699432,32.021317 
	C148.740295,32.419472 148.440353,32.803841 148.007050,33.402138 
	C147.873672,33.616062 147.418640,33.729076 147.186264,33.760120 
z"/>
<path fill="#EEF5F6" opacity="1.000000" stroke="none" 
	d="
M153.635773,26.855881 
	C153.466507,27.582766 153.028381,28.215393 152.314194,28.946875 
	C152.481064,28.284359 152.923996,27.522991 153.635773,26.855881 
z"/>
<path fill="#F5F8F9" opacity="1.000000" stroke="none" 
	d="
M119.661972,34.200600 
	C120.035965,34.040024 120.357330,34.087238 120.678696,34.134453 
	C120.322250,34.225765 119.965797,34.317081 119.661972,34.200600 
z"/>
<path fill="#F5F8F9" opacity="1.000000" stroke="none" 
	d="
M117.361588,39.945110 
	C117.148582,39.944046 117.053200,39.473499 117.039490,39.233849 
	C117.316101,39.069065 117.558975,39.220184 117.867661,39.632889 
	C117.980919,39.818222 117.574585,39.946175 117.361588,39.945110 
z"/>
<path fill="#1E7AF5" opacity="1.000000" stroke="none" 
	d="
M123.723785,40.151905 
	C123.695946,40.304413 123.423653,40.369091 123.058968,40.290665 
	C123.137497,40.119736 123.308411,40.091904 123.723785,40.151905 
z"/>
<path fill="#F1F8F9" opacity="1.000000" stroke="none" 
	d="
M191.016205,10.367113 
	C189.699570,10.051757 188.378357,9.364053 186.759155,8.557124 
	C185.073517,7.488724 183.685852,6.539550 182.126129,5.325982 
	C187.074265,3.396111 189.941986,4.958011 191.016205,10.367113 
z"/>
<path fill="#EDF6F8" opacity="1.000000" stroke="none" 
	d="
M47.153805,217.468384 
	C47.358185,217.256256 47.630901,217.362976 47.952698,217.811539 
	C47.754608,217.980957 47.494732,217.858902 47.153805,217.468384 
z"/>
<path fill="#FCFDFE" opacity="1.000000" stroke="none" 
	d="
M165.844360,8.285505 
	C165.328766,8.187413 164.887497,7.719462 164.224869,7.124514 
	C164.157440,5.841183 164.311386,4.684849 164.465332,3.528516 
	C164.872986,3.521055 165.280624,3.513594 165.688278,3.506133 
	C165.765076,4.975970 165.841888,6.445807 165.844360,8.285505 
z"/>
<path fill="#146CE7" opacity="1.000000" stroke="none" 
	d="
M160.788239,128.944733 
	C161.537323,128.970352 161.778183,129.140945 161.992004,129.655319 
	C161.736755,130.642578 161.144791,131.410492 161.147964,132.175964 
	C161.183594,140.800171 157.358871,147.850128 152.894409,154.948929 
	C148.930893,161.251190 147.046509,169.010757 142.498367,174.741318 
	C139.616791,178.372070 135.960617,181.258011 134.348251,185.995514 
	C134.000000,186.000000 133.999390,185.999390 133.999390,185.999390 
	C132.591644,185.666321 131.183899,185.333237 129.388321,184.585129 
	C130.482544,177.977875 131.002441,171.241821 138.605118,168.763794 
	C139.582245,168.445312 140.301285,166.905945 140.856277,165.790970 
	C144.477325,158.516281 148.258926,151.306747 151.503128,143.864548 
	C153.607025,139.038239 158.199738,135.055206 156.998123,128.996140 
	C158.121185,128.986221 159.244263,128.976303 160.788239,128.944733 
z"/>
<path fill="#156EE8" opacity="1.000000" stroke="none" 
	d="
M156.667572,128.852112 
	C158.199738,135.055206 153.607025,139.038239 151.503128,143.864548 
	C148.258926,151.306747 144.477325,158.516281 140.856277,165.790970 
	C140.301285,166.905945 139.582245,168.445312 138.605118,168.763794 
	C131.002441,171.241821 130.482544,177.977875 129.001160,184.585358 
	C129.271439,185.704376 129.541061,186.408142 130.100311,187.867889 
	C128.679199,187.162994 127.994873,186.823547 127.154907,186.245422 
	C122.257980,183.745605 122.052361,181.959869 124.350471,176.854767 
	C126.145874,172.866379 127.932022,169.647903 132.229294,167.525909 
	C134.506302,166.401535 135.553268,162.597031 136.938538,159.891327 
	C141.135666,151.693558 145.309937,143.481323 149.284607,135.174957 
	C150.021179,133.635681 149.786530,131.631668 150.000366,129.421692 
	C152.112747,128.903503 154.224869,128.805786 156.667572,128.852112 
z"/>
<path fill="#146CE7" opacity="1.000000" stroke="none" 
	d="
M134.000305,186.000305 
	C133.908112,186.036392 133.815613,186.072174 133.861252,186.053665 
	C133.999390,185.999390 134.000000,186.000000 134.000305,186.000305 
z"/>
<path fill="#1F7DF0" opacity="1.000000" stroke="none" 
	d="
M75.400795,196.060852 
	C72.278717,193.480377 73.686874,190.481598 74.920807,187.773987 
	C76.179840,185.011307 78.728775,185.121277 81.631744,185.992874 
	C81.673340,187.133362 81.346725,188.270386 81.031189,189.768921 
	C79.258675,192.053116 77.475090,193.975800 75.400795,196.060852 
z"/>
<path fill="#FEFEFE" opacity="1.000000" stroke="none" 
	d="
M120.938087,115.724403 
	C120.873390,115.953018 120.445305,115.952293 120.241524,115.886803 
	C120.175652,115.522453 120.395355,115.307030 120.922516,115.109222 
	C121.148170,115.043396 121.002785,115.495789 120.938087,115.724403 
z"/>
<path fill="#1C75F0" opacity="1.000000" stroke="none" 
	d="
M136.911057,119.531578 
	C137.170502,119.143410 137.342606,119.106285 137.773575,119.121391 
	C138.354950,122.157494 138.677475,125.141373 139.000000,128.562622 
	C137.822998,129.443817 135.653015,129.835617 135.626617,130.339706 
	C135.421555,134.254837 132.416473,136.077225 130.358398,138.757034 
	C127.496300,142.483749 125.714355,147.028015 123.354790,151.156448 
	C121.386414,154.600449 119.087135,157.862152 117.231705,161.362183 
	C114.702019,166.134094 112.454712,171.055679 109.670410,176.766144 
	C109.043907,176.804489 107.451019,176.901978 105.429062,176.999420 
	C104.676567,170.682770 108.551079,166.125320 111.556602,161.179840 
	C112.799873,159.134079 113.239090,156.315384 114.921494,154.868683 
	C123.407120,147.571808 125.892830,136.590714 131.984177,127.851196 
	C133.748611,125.319695 132.195419,120.739410 136.911057,119.531578 
z"/>
<path fill="#FEFEFE" opacity="1.000000" stroke="none" 
	d="
M112.806061,110.053940 
	C113.395180,110.053490 113.984299,110.053040 114.778191,109.974304 
	C115.463112,110.016502 115.943268,110.136986 116.910011,110.527458 
	C117.396606,110.797455 117.763008,110.907677 117.763008,110.907677 
	C117.763008,110.907677 118.143356,110.865486 118.143356,110.865486 
	C118.143356,110.865486 118.168671,110.865982 118.177475,110.851227 
	C117.942696,111.444473 117.699112,112.052483 117.187241,112.854691 
	C116.481735,113.032829 116.044533,113.016769 115.290848,112.908722 
	C113.332504,111.889717 111.690643,110.962715 110.036743,109.683624 
	C110.554741,109.421677 111.084770,109.511826 112.055176,109.800964 
	C112.495537,109.999954 112.806061,110.053940 112.806061,110.053940 
z"/>
<path fill="#2684FE" opacity="1.000000" stroke="none" 
	d="
M121.310715,108.969025 
	C121.483498,108.671196 121.952705,108.357498 122.719971,108.028152 
	C122.547737,108.326057 122.077438,108.639603 121.310715,108.969025 
z"/>
<path fill="#EFF5FA" opacity="1.000000" stroke="none" 
	d="
M118.020676,110.696083 
	C118.143356,110.865486 117.763008,110.907677 117.763008,110.907677 
	C117.763008,110.907677 117.396606,110.797455 117.250641,110.676064 
	C117.363014,110.372375 117.627449,110.363045 118.020676,110.696083 
z"/>
<path fill="#FEFEFE" opacity="1.000000" stroke="none" 
	d="
M139.448578,196.532257 
	C139.415009,196.476532 139.482132,196.587997 139.448578,196.532257 
z"/>
<path fill="#2684FE" opacity="1.000000" stroke="none" 
	d="
M47.991070,215.243439 
	C48.100578,215.409012 48.046879,215.576004 47.993176,215.742981 
	C47.938068,215.576935 47.882961,215.410889 47.991070,215.243439 
z"/>
<path fill="#FEFEFE" opacity="1.000000" stroke="none" 
	d="
M105.215683,111.871704 
	C105.243454,111.721550 105.517769,111.638641 105.878914,111.703445 
	C105.797913,111.880432 105.630074,111.909683 105.215683,111.871704 
z"/>
<path fill="#EFF5FA" opacity="1.000000" stroke="none" 
	d="
M112.750275,109.943687 
	C112.806061,110.053940 112.495537,109.999954 112.420715,109.978668 
	C112.345894,109.957382 112.694481,109.833435 112.750275,109.943687 
z"/>
<path fill="#0F5DD3" opacity="1.000000" stroke="none" 
	d="
M21.671524,66.973419 
	C22.996849,68.098198 23.992020,69.193130 24.691183,70.775085 
	C23.559893,71.922295 22.724606,72.582504 21.889318,73.242706 
	C18.317139,71.054878 14.744959,68.867050 11.136569,66.336906 
	C12.366516,64.879799 13.632673,63.765003 15.182105,62.400799 
	C15.748802,63.837593 16.349833,65.361443 16.865438,66.668701 
	C18.484314,66.768120 19.912842,66.855850 21.671524,66.973419 
z"/>
<path fill="#0F64E0" opacity="1.000000" stroke="none" 
	d="
M51.357792,81.006790 
	C50.337193,79.003914 48.484928,76.067047 49.200962,75.161911 
	C54.313049,68.699722 56.877388,60.728344 63.038132,54.677330 
	C67.522408,50.272919 69.136665,42.983395 72.174301,37.053837 
	C73.729012,34.019005 75.465630,31.050333 77.442924,28.282429 
	C77.826363,27.745674 79.705254,28.277220 80.947975,28.655834 
	C81.378502,30.227606 81.631264,31.515459 82.156311,32.680614 
	C83.544815,35.761955 83.794807,38.388973 80.048088,39.999065 
	C74.634521,42.325462 74.675606,47.816654 72.996323,52.313324 
	C72.495323,53.654869 72.144119,55.252781 71.191063,56.192410 
	C65.219009,62.080379 61.939217,69.475502 58.957493,77.092529 
	C58.197216,79.034714 57.023209,80.814949 55.996468,82.750313 
	C54.310307,82.066223 53.012642,81.539749 51.357792,81.006790 
z"/>
<path fill="#EBF4F8" opacity="1.000000" stroke="none" 
	d="
M58.495605,90.487389 
	C58.988857,90.850082 59.248417,91.013901 59.793316,91.151314 
	C59.508934,91.759285 59.001785,92.294510 58.494637,92.829742 
	C57.999146,92.116577 57.503654,91.403419 57.014759,90.335976 
	C57.414017,90.117020 57.806675,90.252335 58.495605,90.487389 
z"/>
<path fill="#EBF4F8" opacity="1.000000" stroke="none" 
	d="
M56.939732,89.694702 
	C56.363625,89.532661 55.709167,89.087006 55.030914,88.310913 
	C55.625206,88.457352 56.243294,88.934227 56.939732,89.694702 
z"/>
<path fill="#0657D0" opacity="1.000000" stroke="none" 
	d="
M22.066025,73.524933 
	C22.724606,72.582504 23.559893,71.922295 24.696836,71.130508 
	C25.020758,71.927376 25.043020,72.855835 24.948351,74.094177 
	C23.968521,74.205086 23.105625,74.006119 22.066025,73.524933 
z"/>
<path fill="#EBF4F8" opacity="1.000000" stroke="none" 
	d="
M64.245567,94.121765 
	C64.709320,93.982666 65.346619,94.149193 66.200775,94.570816 
	C65.751465,94.693077 65.085289,94.560226 64.245567,94.121765 
z"/>
<path fill="#EBF4F8" opacity="1.000000" stroke="none" 
	d="
M63.149857,93.400543 
	C63.358513,93.142715 63.662891,93.224976 64.047630,93.664062 
	C63.829418,93.919708 63.535282,93.826294 63.149857,93.400543 
z"/>
<path fill="#EFF5FA" opacity="1.000000" stroke="none" 
	d="
M92.800400,105.365944 
	C93.548462,105.254471 94.140381,105.359055 94.939224,105.690735 
	C94.045090,106.146538 92.944023,106.375259 91.842964,106.603981 
	C92.110062,106.263321 92.377151,105.922661 92.800400,105.365944 
z"/>
<path fill="#1A77E6" opacity="1.000000" stroke="none" 
	d="
M79.987320,99.412048 
	C80.651817,98.752785 81.484978,98.409019 82.717667,98.382454 
	C84.812569,100.673790 86.167145,100.770248 87.000481,97.994843 
	C87.000481,97.994843 87.001305,97.497574 87.002029,97.248940 
	C88.180847,97.152184 89.358955,97.304070 90.767883,97.728760 
	C90.450401,98.230713 89.902092,98.459862 88.217010,99.164078 
	C90.969864,99.728432 92.581093,100.058746 95.689178,100.695930 
	C92.685852,101.607925 90.999527,102.119995 89.087730,102.937294 
	C85.960167,102.070869 83.058075,100.899208 79.987320,99.412048 
z"/>
<path fill="#FCFDFE" opacity="1.000000" stroke="none" 
	d="
M78.445526,100.538452 
	C78.412453,100.484077 78.478592,100.592834 78.445526,100.538452 
z"/>
<path fill="#FCFDFE" opacity="1.000000" stroke="none" 
	d="
M131.273254,40.061867 
	C131.261780,39.789127 131.516281,39.557487 132.026611,39.415192 
	C132.034683,39.704010 131.786957,39.903492 131.273254,40.061867 
z"/>
<path fill="#1B75EF" opacity="1.000000" stroke="none" 
	d="
M86.599976,97.996185 
	C86.167145,100.770248 84.812569,100.673790 83.055893,98.353027 
	C84.062889,98.003441 85.131180,98.000481 86.599976,97.996185 
z"/>
</svg>