<svg version="1.1" id="Layer_1" xmlns="http://www.w3.org/2000/svg" xmlns:xlink="http://www.w3.org/1999/xlink" x="0px" y="0px"
	 width="100%" viewBox="0 0 301 167" enable-background="new 0 0 301 167" xml:space="preserve">
<path fill="#FEFFFF" opacity="1.000000" stroke="none" 
	d="
M239.000000,168.000000 
	C159.765091,168.000000 80.530174,168.000000 1.000000,168.000000 
	C1.000000,129.979614 1.000000,91.958466 1.344126,53.436447 
	C2.623809,52.813198 3.748129,52.293686 4.463829,52.633862 
	C8.636936,54.617382 12.771063,56.700672 16.805454,58.952538 
	C19.911552,60.686256 21.746393,59.570843 23.376015,56.782253 
	C24.140123,57.145432 24.619690,57.444691 25.066967,58.221611 
	C25.034676,61.625435 25.034676,64.551598 25.034676,69.442978 
	C29.515690,67.188370 32.778931,65.546486 36.383057,64.039291 
	C41.454414,66.371582 43.615742,61.398838 47.332825,60.440300 
	C47.630814,60.385044 47.728382,60.251972 47.877724,59.892521 
	C48.004375,59.721443 48.203217,59.345013 48.559452,59.257942 
	C51.475075,58.236610 54.724983,55.823273 56.468243,56.637135 
	C62.407642,59.410000 67.816086,63.320156 73.103607,67.000359 
	C71.005501,69.400421 69.261162,71.621826 67.439735,73.778091 
	C66.819550,74.512283 65.450737,75.019173 65.368622,75.737862 
	C64.781578,80.875374 60.255230,86.691612 67.614708,90.655899 
	C67.993210,90.859787 68.287262,91.444771 68.389595,91.903831 
	C70.335747,100.634125 79.076210,100.880348 84.764717,104.872612 
	C88.399879,107.423820 92.589485,109.199471 96.579124,111.227203 
	C100.779037,113.361816 105.455223,114.848587 106.959671,120.189926 
	C107.097153,120.678047 108.762093,120.667526 109.663109,121.025894 
	C110.854187,121.499626 112.030235,122.040390 113.144440,122.672714 
	C116.615967,124.642860 119.936203,126.921959 123.532822,128.620163 
	C130.257507,131.795349 137.141220,134.632904 143.938675,137.656097 
	C144.518585,137.914017 144.880188,138.664810 145.460449,138.919586 
	C147.201263,139.683929 149.060974,141.017395 150.765167,140.869675 
	C156.145737,140.403336 161.520325,139.564636 166.799408,138.419205 
	C168.347626,138.083267 170.133392,136.512238 170.829208,135.042740 
	C172.486847,131.541946 175.300903,131.483185 178.538757,130.831818 
	C184.167358,129.699463 189.586594,127.526413 195.439682,125.867554 
	C205.467270,131.513321 215.148804,137.081223 225.479370,143.022415 
	C220.611572,145.768936 216.431442,148.127441 211.659180,150.820053 
	C216.406387,153.693146 220.360275,156.005951 224.231796,158.449265 
	C229.189209,161.577881 234.080322,164.811584 239.000000,168.000000 
z"/>
<path fill="#FFFFFF" opacity="1.000000" stroke="none" 
	d="
M76.000000,1.000000 
	C151.240143,1.000000 226.480286,1.000000 302.000000,1.000000 
	C302.000000,43.353817 302.000000,85.708252 301.636353,128.535126 
	C300.468231,129.430801 299.663696,129.854034 298.573914,130.235703 
	C297.822388,129.887482 297.356110,129.580826 296.925446,128.811005 
	C296.349426,125.982315 296.035461,121.744537 295.072174,121.591393 
	C291.772949,121.066895 288.245819,121.975838 284.595032,122.287659 
	C284.384491,122.237167 284.007782,122.023613 283.880096,121.788177 
	C283.444061,121.385170 283.135712,121.217598 282.550293,121.040024 
	C281.821777,120.752083 281.370331,120.474136 280.945496,119.757568 
	C281.389130,115.752113 280.743896,113.170982 276.313416,112.833885 
	C275.174713,112.747246 274.198578,110.814774 273.105072,109.775146 
	C271.488800,108.238464 270.062683,105.878044 268.157532,105.374535 
	C258.812897,102.904877 256.798370,104.658134 257.058289,114.116478 
	C257.016235,114.112465 257.083649,114.163353 256.834839,114.026192 
	C255.724045,113.926224 254.862015,113.963417 253.794800,113.737656 
	C252.726181,113.316658 251.862793,113.158638 250.634338,113.038681 
	C248.847931,113.385620 247.426605,113.694489 245.670929,113.858299 
	C242.720810,111.694412 240.105057,109.675575 237.489288,107.656746 
	C237.771927,106.888084 238.054550,106.119423 238.337189,105.350754 
	C242.327026,105.233574 246.318298,104.988350 250.306320,105.032997 
	C254.861313,105.083992 257.063965,103.098511 257.022064,98.459297 
	C256.943207,89.737289 257.095703,81.012672 256.968353,72.291817 
	C256.880402,66.269249 255.717636,65.375732 249.566452,64.959122 
	C246.080856,64.723045 242.302948,65.055199 241.209213,60.001289 
	C240.926804,58.696396 237.907639,57.182838 236.121140,57.151287 
	C230.251709,57.047626 224.910690,56.728455 224.534058,48.683952 
	C219.972366,50.520760 217.302643,50.253872 216.593567,45.060516 
	C216.380066,43.496765 213.288361,41.608059 211.240753,41.179630 
	C208.109497,40.524464 204.740051,41.007740 201.293976,41.007740 
	C201.245834,35.309265 198.968140,33.008179 193.663269,32.736713 
	C190.719482,32.586071 187.884186,30.315224 184.979538,28.701912 
	C184.639587,27.935350 184.320099,27.466879 183.947327,26.653980 
	C182.928955,25.873327 181.963867,25.437099 180.582291,25.000778 
	C178.777557,24.999859 177.389328,24.999039 175.763748,24.726763 
	C173.350937,23.303488 171.175476,22.151667 168.958847,20.678898 
	C168.278458,19.904486 167.639236,19.451023 166.916809,18.613108 
	C164.221802,17.819561 161.609985,17.410467 158.551605,17.001282 
	C155.070023,17.334131 152.035004,17.667074 148.599518,17.950939 
	C140.605225,15.687901 139.109299,16.522432 136.114548,24.446486 
	C134.306168,24.995743 132.653091,25.497833 130.666763,25.999922 
	C129.889221,26.000099 129.444916,26.000278 128.659302,25.852053 
	C122.699821,24.540035 121.121956,26.113997 120.992584,33.388607 
	C118.210663,38.393105 116.531212,38.244461 110.260109,32.706276 
	C111.055702,31.772972 111.851852,30.839016 112.986786,29.507635 
	C110.950813,28.479702 109.244644,27.618282 107.748169,26.497992 
	C108.949921,25.483587 109.941994,24.728052 111.320038,23.905468 
	C112.174431,21.733919 112.642845,19.629425 113.197601,17.136999 
	C109.018593,17.438913 106.044762,17.653761 102.756149,17.758404 
	C100.306625,16.157436 98.235863,14.563285 96.025146,13.195296 
	C89.379372,9.082887 82.679047,5.058640 76.000000,1.000000 
z"/>
<path fill="#FDFEFE" opacity="1.000000" stroke="none" 
	d="
M302.000000,134.000000 
	C302.000000,145.280319 302.000000,156.560654 302.000000,168.000000 
	C282.312683,168.000000 262.625000,168.000000 242.564529,167.687439 
	C241.881760,166.508133 241.829620,165.248398 241.215378,164.845367 
	C239.020203,163.405045 236.588821,162.331406 234.329697,160.980438 
	C229.074356,157.837616 223.867249,154.614151 217.775772,150.895416 
	C222.559097,148.176254 226.253372,146.076202 230.291992,144.012085 
	C237.118179,144.788956 232.624283,140.267792 233.724854,138.415741 
	C235.699829,139.364166 237.354065,140.171844 239.046005,141.348907 
	C240.251038,145.388519 243.222488,145.100937 246.485748,144.981110 
	C252.630371,148.321304 258.428101,151.614594 264.225830,154.907883 
	C264.629700,154.258423 265.033600,153.608963 265.437500,152.959488 
	C258.940277,148.500916 252.310287,144.238770 244.773483,140.799927 
	C244.026245,140.352722 243.524521,140.060730 243.003098,139.408722 
	C242.002380,137.066483 241.021332,135.084244 239.660080,132.333786 
	C238.765854,133.834793 238.251434,134.698273 237.377777,135.478210 
	C227.643784,130.022919 218.269028,124.651146 208.926453,118.905930 
	C209.618973,116.500969 210.279327,114.469467 210.919312,112.500664 
	C211.830200,112.419434 212.831955,112.330101 213.833694,112.240776 
	C214.035339,111.854530 214.236984,111.468292 214.438629,111.082054 
	C212.412933,109.323425 210.387253,107.564804 207.602356,105.147057 
	C209.857468,104.662910 211.453522,104.320267 213.268646,104.045998 
	C213.778290,104.253906 213.983521,104.473267 214.074631,105.146523 
	C214.500061,109.110191 216.762451,108.693344 219.536316,107.897667 
	C220.706238,108.566139 221.555496,109.190758 222.025452,109.873840 
	C220.887985,110.236656 220.129822,110.541008 219.371674,110.845367 
	C219.413879,111.129143 219.456100,111.412926 219.498322,111.696709 
	C221.709503,111.696709 223.920685,111.696709 226.439941,111.866074 
	C231.779144,114.932022 236.899933,117.685791 241.813217,120.770111 
	C245.785278,123.263588 249.267181,123.609482 253.161301,120.481964 
	C255.708633,118.436081 258.749969,116.899567 261.767975,115.591774 
	C263.193848,114.973915 265.444336,114.788818 266.706879,115.499290 
	C275.944061,120.697151 284.964661,126.279709 294.198120,131.484543 
	C296.530334,132.799210 299.385254,133.186539 302.000000,134.000000 
z"/>
<path fill="#FEFFFF" opacity="1.000000" stroke="none" 
	d="
M1.000000,42.000000 
	C1.000000,28.387423 1.000000,14.774845 1.000000,1.000000 
	C24.020666,1.000000 47.041676,1.000000 70.536919,1.360631 
	C71.718369,2.443907 72.425583,3.166551 73.064560,3.932494 
	C72.996315,3.975792 73.118774,3.869781 73.079330,4.288167 
	C73.353577,9.812985 74.140228,10.108388 79.273010,7.017560 
	C79.789917,7.179490 80.014709,7.372661 80.074646,8.037222 
	C76.686844,12.598863 72.175835,11.453379 67.884995,11.180317 
	C67.902855,11.167527 67.895576,11.135674 67.875870,10.756664 
	C66.792328,9.968846 65.728493,9.560038 64.380608,9.135889 
	C63.733101,9.015607 63.369633,8.910667 62.941616,8.487682 
	C61.923275,8.458478 60.969482,8.747319 59.981934,9.279484 
	C59.948177,9.522806 59.912045,10.012781 59.579041,9.974949 
	C54.585213,10.687844 57.746216,13.438231 57.115810,16.845247 
	C59.497330,14.392281 60.827019,13.022700 62.370369,11.741571 
	C62.855560,11.996012 63.059891,12.222600 63.141369,12.956320 
	C63.260479,19.078615 66.194046,17.415482 69.447266,15.826300 
	C70.850548,16.592445 71.959961,17.216082 73.046196,18.307186 
	C73.013451,21.849720 73.003876,24.924786 72.633133,28.040052 
	C69.624695,29.136919 67.845924,31.183067 69.601341,33.695724 
	C72.467812,37.798721 70.195396,39.407398 66.603813,41.002083 
	C63.435291,41.417133 60.662045,41.831932 57.557022,42.198250 
	C56.557133,42.125572 55.889023,42.101364 54.960155,42.138084 
	C54.468147,42.459370 54.236893,42.719730 53.800625,43.089352 
	C53.595612,43.198616 53.147671,43.322006 52.951496,43.008812 
	C49.443279,41.295238 49.111874,43.451092 48.694649,45.967918 
	C47.993851,46.175209 47.585728,46.268326 46.958900,46.032413 
	C45.087105,44.522789 43.434021,43.342194 42.190556,42.454140 
	C39.965321,42.454140 37.913364,42.500561 35.864498,42.440933 
	C33.860676,42.382622 31.859999,42.216175 29.580929,42.072319 
	C28.936171,42.004478 28.568422,41.961506 28.023758,41.661079 
	C26.875746,40.666656 25.904654,39.929680 24.990599,38.844578 
	C25.554646,37.547451 26.061655,36.598450 26.657587,35.483006 
	C22.252926,34.613010 18.223024,33.176048 14.193230,33.176342 
	C8.614787,33.176754 9.974508,39.549595 7.158244,42.282307 
	C6.961836,42.472889 7.010314,42.915844 6.695933,43.164497 
	C6.288803,43.015640 6.130653,42.943726 5.846840,42.668556 
	C5.492383,42.219528 5.211129,42.077579 4.653192,42.026764 
	C4.428973,42.014069 3.990487,41.916740 3.897991,41.763611 
	C3.539291,41.719341 3.273087,41.828197 2.674744,41.998222 
	C1.895070,42.039597 1.447535,42.019798 1.000000,42.000000 
z"/>
<path fill="#91CDF9" opacity="1.000000" stroke="none" 
	d="
M214.103409,104.772453 
	C213.983521,104.473267 213.778290,104.253906 213.057678,103.780197 
	C210.030151,101.781036 207.432709,100.116058 204.886780,98.088623 
	C204.958603,97.484787 204.978897,97.243393 204.972061,96.669769 
	C204.606064,95.516357 204.267197,94.695168 204.096466,93.633881 
	C204.817459,93.217621 205.370316,93.041458 206.073639,93.148071 
	C206.541046,93.716476 206.858002,94.002113 207.096771,94.586143 
	C207.330276,95.754166 207.385452,97.080772 207.993622,97.422119 
	C213.543716,100.537163 219.190048,103.480751 224.917511,106.791107 
	C231.979538,111.103210 238.932343,115.098625 246.130798,119.337402 
	C249.945511,117.774956 253.514587,115.969154 257.083649,114.163353 
	C257.083649,114.163353 257.016235,114.112465 257.415466,114.076385 
	C262.399200,110.236465 266.571564,111.101585 271.045593,114.597687 
	C273.994354,116.901917 277.604736,118.359505 280.918854,120.196190 
	C281.370331,120.474136 281.821777,120.752083 282.694885,121.261139 
	C283.413635,121.669373 283.710693,121.846497 284.007782,122.023613 
	C284.007782,122.023613 284.384491,122.237167 284.820007,122.532951 
	C289.133667,124.977211 293.011749,127.125687 296.889862,129.274170 
	C297.356110,129.580826 297.822388,129.887482 298.777649,130.458252 
	C300.177765,131.148239 301.088898,131.574127 302.000000,132.000000 
	C302.000000,132.444443 302.000000,132.888901 302.000000,133.666672 
	C299.385254,133.186539 296.530334,132.799210 294.198120,131.484543 
	C284.964661,126.279709 275.944061,120.697151 266.706879,115.499290 
	C265.444336,114.788818 263.193848,114.973915 261.767975,115.591774 
	C258.749969,116.899567 255.708633,118.436081 253.161301,120.481964 
	C249.267181,123.609482 245.785278,123.263588 241.813217,120.770111 
	C236.899933,117.685791 231.779144,114.932022 226.242386,111.622940 
	C224.626099,110.745438 223.515411,110.280411 222.404739,109.815384 
	C221.555496,109.190758 220.706238,108.566139 219.335327,107.619629 
	C217.243591,106.455978 215.673492,105.614220 214.103409,104.772453 
z"/>
<path fill="#8DCCFA" opacity="1.000000" stroke="none" 
	d="
M229.947647,143.976135 
	C226.253372,146.076202 222.559097,148.176254 217.775772,150.895416 
	C223.867249,154.614151 229.074356,157.837616 234.329697,160.980438 
	C236.588821,162.331406 239.020203,163.405045 241.215378,164.845367 
	C241.829620,165.248398 241.881760,166.508133 242.095871,167.687439 
	C241.250000,168.000000 240.500000,168.000000 239.375000,168.000000 
	C234.080322,164.811584 229.189209,161.577881 224.231796,158.449265 
	C220.360275,156.005951 216.406387,153.693146 211.659180,150.820053 
	C216.431442,148.127441 220.611572,145.768936 225.479370,143.022415 
	C215.148804,137.081223 205.467270,131.513321 195.215637,125.619438 
	C189.493286,122.164116 184.341064,119.034752 179.407211,115.718430 
	C179.764023,114.974190 179.902451,114.416916 180.418427,113.914398 
	C182.506454,114.350395 184.216919,114.731636 186.083878,115.411530 
	C187.457108,116.820000 188.522186,118.191063 189.914124,118.999054 
	C203.236053,126.732140 216.613205,134.370056 229.986786,142.017105 
	C229.999054,141.998932 229.963181,142.026855 229.984940,142.351776 
	C229.987015,143.109848 229.967331,143.542984 229.947647,143.976135 
z"/>
<path fill="#FEFFFF" opacity="1.000000" stroke="none" 
	d="
M23.091473,56.718334 
	C21.746393,59.570843 19.911552,60.686256 16.805454,58.952538 
	C12.771063,56.700672 8.636936,54.617382 4.463829,52.633862 
	C3.748129,52.293686 2.623809,52.813198 1.344126,52.967789 
	C1.000000,50.629444 1.000000,48.258884 1.375795,45.364521 
	C3.405177,45.475403 5.121809,45.983829 6.699068,46.771381 
	C9.862774,48.351078 12.950332,50.083279 16.334446,51.970531 
	C18.763536,53.698467 20.927505,55.208401 23.091473,56.718334 
M6.609497,49.797436 
	C6.214576,49.793251 5.819656,49.789066 5.424735,49.784882 
	C5.423221,49.948765 5.410727,50.255077 5.421782,50.255936 
	C5.814753,50.286228 6.209929,50.287910 6.609497,49.797436 
z"/>
<path fill="#8CCAF8" opacity="1.000000" stroke="none" 
	d="
M80.167198,7.649967 
	C80.014709,7.372661 79.789917,7.179490 79.060112,6.756948 
	C76.791191,5.585556 74.954979,4.727669 73.118774,3.869782 
	C73.118774,3.869781 72.996315,3.975792 73.038666,3.572769 
	C73.054008,2.446498 73.027008,1.723249 73.000000,1.000000 
	C73.750000,1.000000 74.500000,1.000000 75.625000,1.000000 
	C82.679047,5.058640 89.379372,9.082887 96.025146,13.195296 
	C98.235863,14.563285 100.306625,16.157436 102.741638,18.122234 
	C101.445938,18.407364 99.611900,18.661570 98.294708,17.953831 
	C92.173843,14.665048 86.196136,11.109830 80.167198,7.649967 
z"/>
<path fill="#93CEF8" opacity="1.000000" stroke="none" 
	d="
M16.069323,51.752529 
	C12.950332,50.083279 9.862774,48.351078 6.699068,46.771381 
	C5.121809,45.983829 3.405177,45.475403 1.375795,44.920357 
	C1.000000,44.250000 1.000000,43.500000 1.000000,42.375000 
	C1.447535,42.019798 1.895070,42.039597 2.921028,42.014412 
	C3.499452,41.969433 3.990487,41.916740 3.990487,41.916740 
	C3.990487,41.916740 4.428973,42.014069 4.781493,42.230873 
	C5.356852,42.701122 5.636349,42.842499 5.972504,42.871811 
	C6.130653,42.943726 6.288803,43.015640 6.913953,43.407814 
	C10.599213,45.774097 13.817471,47.820118 16.944429,50.117516 
	C16.591862,50.830105 16.330593,51.291317 16.069323,51.752529 
z"/>
<path fill="#FDFEFE" opacity="1.000000" stroke="none" 
	d="
M302.000000,131.625000 
	C301.088898,131.574127 300.177765,131.148239 299.062927,130.499817 
	C299.663696,129.854034 300.468231,129.430801 301.636353,129.003784 
	C302.000000,129.750000 302.000000,130.500000 302.000000,131.625000 
z"/>
<path fill="#F7FBFB" opacity="1.000000" stroke="none" 
	d="
M72.666672,1.000000 
	C73.027008,1.723249 73.054008,2.446498 73.106903,3.529471 
	C72.425583,3.166551 71.718369,2.443907 71.005577,1.360631 
	C71.444443,1.000000 71.888893,1.000000 72.666672,1.000000 
z"/>
<path fill="#F8FCFE" opacity="1.000000" stroke="none" 
	d="
M179.188828,115.905396 
	C184.341064,119.034752 189.493286,122.164116 194.869568,125.541595 
	C189.586594,127.526413 184.167358,129.699463 178.538757,130.831818 
	C175.300903,131.483185 172.486847,131.541946 170.829208,135.042740 
	C170.133392,136.512238 168.347626,138.083267 166.799408,138.419205 
	C161.520325,139.564636 156.145737,140.403336 150.765167,140.869675 
	C149.060974,141.017395 147.201263,139.683929 145.460449,138.919586 
	C144.880188,138.664810 144.518585,137.914017 143.938675,137.656097 
	C137.141220,134.632904 130.257507,131.795349 123.532822,128.620163 
	C119.936203,126.921959 116.615967,124.642860 113.144440,122.672714 
	C112.030235,122.040390 110.854187,121.499626 109.663109,121.025894 
	C108.762093,120.667526 107.097153,120.678047 106.959671,120.189926 
	C105.455223,114.848587 100.779037,113.361816 96.579124,111.227203 
	C92.589485,109.199471 88.399879,107.423820 84.764717,104.872612 
	C79.076210,100.880348 70.335747,100.634125 68.389595,91.903831 
	C68.287262,91.444771 67.993210,90.859787 67.614708,90.655899 
	C60.255230,86.691612 64.781578,80.875374 65.368622,75.737862 
	C65.450737,75.019173 66.819550,74.512283 67.439735,73.778091 
	C69.261162,71.621826 71.005501,69.400421 73.426613,67.056580 
	C79.050812,69.932678 84.028427,72.956718 89.221687,76.214684 
	C90.269150,77.330780 91.100960,78.212952 91.809021,79.430283 
	C87.515953,83.829994 87.735275,85.830856 92.686035,88.796959 
	C98.507904,92.284950 104.262627,95.892845 110.177010,99.216423 
	C116.354248,102.687706 122.686737,105.882721 129.119217,109.482147 
	C132.133270,111.283554 134.979446,112.801323 138.051483,114.564148 
	C148.315002,122.927124 158.601654,126.684090 169.692230,116.620033 
	C169.927536,116.406509 170.319656,116.372063 170.573090,116.171341 
	C173.384262,113.944832 176.253891,113.949829 179.188828,115.905396 
z"/>
<path fill="#91CCF7" opacity="1.000000" stroke="none" 
	d="
M89.006042,75.980759 
	C84.028427,72.956718 79.050812,69.932678 73.750198,66.852417 
	C67.816086,63.320156 62.407642,59.410000 56.468243,56.637135 
	C54.724983,55.823273 51.475075,58.236610 48.395485,58.955898 
	C47.522430,58.466419 47.169575,58.191910 47.043842,57.654240 
	C48.812412,56.424328 50.277157,55.288879 51.918789,54.542465 
	C53.314034,53.908073 55.175785,53.025105 56.370636,53.475033 
	C59.378006,54.607487 62.154190,56.380070 64.971024,57.987240 
	C72.402588,62.227406 79.806534,66.515984 87.876503,71.162430 
	C87.876503,67.862587 87.876503,65.451363 88.101158,63.032410 
	C88.325813,63.024673 88.773705,63.028404 88.870728,63.480881 
	C88.980515,67.949158 88.993279,71.964958 89.006042,75.980759 
z"/>
<path fill="#91CCF7" opacity="1.000000" stroke="none" 
	d="
M46.816723,57.917400 
	C47.169575,58.191910 47.522430,58.466419 48.039249,59.042969 
	C48.203217,59.345013 48.004375,59.721443 47.775742,59.932556 
	C47.547104,60.143669 47.207294,60.417778 47.207294,60.417778 
	C43.615742,61.398838 41.454414,66.371582 36.160763,63.777336 
	C32.098141,61.501781 28.598696,59.622868 25.099255,57.743950 
	C24.619690,57.444691 24.140123,57.145432 23.376017,56.782253 
	C20.927505,55.208401 18.763536,53.698467 16.334446,51.970531 
	C16.330593,51.291317 16.591862,50.830105 17.201496,50.206787 
	C17.719021,50.110046 17.888178,50.175411 18.147320,50.398510 
	C18.392586,50.745705 18.578905,50.896927 18.849239,51.034126 
	C18.902214,51.058334 18.952440,51.163437 19.043152,51.501522 
	C20.175962,52.188278 21.218058,52.536953 22.600338,52.952209 
	C24.815741,54.051521 26.808855,54.917824 28.544632,56.147400 
	C34.331909,60.246967 40.115101,63.582886 46.816723,57.917400 
z"/>
<path fill="#FEFFFF" opacity="1.000000" stroke="none" 
	d="
M25.066963,58.221611 
	C28.598696,59.622868 32.098141,61.501781 35.819878,63.642647 
	C32.778931,65.546486 29.515690,67.188370 25.034676,69.442978 
	C25.034676,64.551598 25.034676,61.625435 25.066963,58.221611 
z"/>
<path fill="#91CCF7" opacity="1.000000" stroke="none" 
	d="
M47.332825,60.440300 
	C47.207294,60.417778 47.547104,60.143669 47.649086,60.103634 
	C47.728382,60.251972 47.630814,60.385044 47.332825,60.440300 
z"/>
<path fill="#FDFEFE" opacity="1.000000" stroke="none" 
	d="
M245.885132,119.094048 
	C238.932343,115.098625 231.979538,111.103210 224.975616,106.305130 
	C225.108582,97.930412 225.111084,97.950157 233.060135,96.940407 
	C234.365936,96.774529 235.666458,96.001953 236.921921,96.102547 
	C242.453995,96.545792 242.202637,93.043823 241.904633,89.280586 
	C241.700455,86.702179 241.331924,84.034660 241.756149,81.528748 
	C242.815262,75.272568 242.240341,73.971840 236.300873,71.583084 
	C235.393051,71.217964 234.133316,70.778610 233.818909,70.040329 
	C231.681549,65.021362 227.148911,65.447487 222.928314,64.594093 
	C222.964310,59.519676 221.995224,55.580620 216.225403,54.547180 
	C212.029999,51.932137 208.014450,49.616936 203.744965,47.163033 
	C203.114410,46.953949 202.737762,46.883568 202.136307,46.546295 
	C197.536682,43.371307 193.161880,40.463211 188.826157,37.194069 
	C187.832718,36.600197 186.800171,36.367367 185.557846,36.101654 
	C185.348053,36.068779 184.971191,35.872967 184.846222,35.664993 
	C184.492737,35.209530 184.214310,35.047943 183.654694,34.836006 
	C182.946472,34.455502 182.469574,34.211235 181.845810,33.734428 
	C181.363297,33.369122 181.027618,33.236351 180.567688,33.138874 
	C180.443436,33.174164 180.199448,33.089146 179.912369,33.052803 
	C179.432846,33.002922 179.240402,32.989380 179.031616,32.983253 
	C179.015274,32.990665 179.019119,32.949841 179.022247,32.599136 
	C179.682800,31.673517 180.260178,30.939529 181.015610,30.559385 
	C182.284103,29.921053 183.665878,29.507893 185.000000,29.000000 
	C187.884186,30.315224 190.719482,32.586071 193.663269,32.736713 
	C198.968140,33.008179 201.245834,35.309265 201.293976,41.007740 
	C204.740051,41.007740 208.109497,40.524464 211.240753,41.179630 
	C213.288361,41.608059 216.380066,43.496765 216.593567,45.060516 
	C217.302643,50.253872 219.972366,50.520760 224.534058,48.683952 
	C224.910690,56.728455 230.251709,57.047626 236.121140,57.151287 
	C237.907639,57.182838 240.926804,58.696396 241.209213,60.001289 
	C242.302948,65.055199 246.080856,64.723045 249.566452,64.959122 
	C255.717636,65.375732 256.880402,66.269249 256.968353,72.291817 
	C257.095703,81.012672 256.943207,89.737289 257.022064,98.459297 
	C257.063965,103.098511 254.861313,105.083992 250.306320,105.032997 
	C246.318298,104.988350 242.327026,105.233574 238.337189,105.350754 
	C238.054550,106.119423 237.771927,106.888084 237.489288,107.656746 
	C240.105057,109.675575 242.720810,111.694412 245.705246,114.211052 
	C246.010986,116.170593 245.948059,117.632317 245.885132,119.094048 
M192.482483,35.589951 
	C192.482483,35.589951 192.414368,35.476677 192.482483,35.589951 
M190.410477,36.482628 
	C190.410477,36.482628 190.523239,36.414951 190.410477,36.482628 
z"/>
<path fill="#F7FBFB" opacity="1.000000" stroke="none" 
	d="
M80.074646,8.037222 
	C86.196136,11.109830 92.173843,14.665048 98.294708,17.953831 
	C99.611900,18.661570 101.445938,18.407364 103.056412,18.232439 
	C106.044762,17.653761 109.018593,17.438913 113.197601,17.136999 
	C112.642845,19.629425 112.174431,21.733919 111.311226,23.559612 
	C109.729805,22.387129 108.543175,21.493452 107.356544,20.599773 
	C107.445190,21.123999 107.533844,21.648222 107.622490,22.172445 
	C102.125984,25.505930 96.629486,28.839413 90.576027,32.510674 
	C96.651756,36.158806 101.923996,39.213551 107.055779,42.488403 
	C108.251144,43.251228 108.968948,44.762398 109.579369,45.995567 
	C107.760445,46.995750 106.268631,47.929604 104.515137,48.849457 
	C103.905586,48.837662 103.557716,48.839870 103.012764,48.561913 
	C94.510643,43.271435 86.205612,38.261112 77.871902,33.233490 
	C78.426094,32.421581 78.547569,32.050983 78.799210,31.905451 
	C80.809708,30.742704 82.859550,29.647972 84.869400,28.484144 
	C89.229057,25.959621 89.202744,24.045475 84.869904,21.458055 
	C79.185951,18.063803 73.533264,14.617197 67.867126,11.193107 
	C72.175835,11.453379 76.686844,12.598863 80.074646,8.037222 
z"/>
<path fill="#F7FCFC" opacity="1.000000" stroke="none" 
	d="
M107.538475,26.756863 
	C109.244644,27.618282 110.950813,28.479702 112.986786,29.507635 
	C111.851852,30.839016 111.055702,31.772972 110.260109,32.706276 
	C116.531212,38.244461 118.210663,38.393105 121.385643,33.435555 
	C124.164833,33.370342 126.540810,33.645996 128.944763,33.947998 
	C128.972733,33.974342 129.027557,34.028206 129.003510,34.355324 
	C128.943192,35.118561 128.906921,35.554672 128.661407,36.064869 
	C127.594986,36.330471 126.737785,36.521988 125.553154,36.802090 
	C123.758820,37.863407 122.291931,38.836143 120.495239,39.882408 
	C118.423309,40.962685 116.681160,41.969433 114.697838,42.990917 
	C114.456657,43.005653 113.990387,43.132706 113.738495,43.076168 
	C113.317696,42.986610 113.148781,42.953590 112.682526,42.775333 
	C107.024536,39.300713 101.663887,35.971336 95.348503,32.048988 
	C100.070259,29.999094 103.804367,28.377977 107.538475,26.756863 
z"/>
<path fill="#FDFEFE" opacity="1.000000" stroke="none" 
	d="
M280.945496,119.757568 
	C277.604736,118.359505 273.994354,116.901917 271.045593,114.597687 
	C266.571564,111.101585 262.399200,110.236465 257.457520,114.080399 
	C256.798370,104.658134 258.812897,102.904877 268.157532,105.374535 
	C270.062683,105.878044 271.488800,108.238464 273.105072,109.775146 
	C274.198578,110.814774 275.174713,112.747246 276.313416,112.833885 
	C280.743896,113.170982 281.389130,115.752113 280.945496,119.757568 
z"/>
<path fill="#8ECCF9" opacity="1.000000" stroke="none" 
	d="
M107.748169,26.497990 
	C103.804367,28.377977 100.070259,29.999094 95.348503,32.048988 
	C101.663887,35.971336 107.024536,39.300713 112.689224,43.159176 
	C113.660194,45.788902 114.327118,47.889549 114.886612,50.212677 
	C114.588081,50.720940 114.328468,50.915165 113.854881,50.710274 
	C112.441765,48.911556 111.174126,47.420399 109.906487,45.929245 
	C108.968948,44.762398 108.251144,43.251228 107.055779,42.488403 
	C101.923996,39.213551 96.651756,36.158806 90.576027,32.510674 
	C96.629486,28.839413 102.125984,25.505930 107.622490,22.172445 
	C107.533844,21.648222 107.445190,21.123999 107.356544,20.599773 
	C108.543175,21.493452 109.729805,22.387129 110.925247,23.626663 
	C109.941994,24.728052 108.949921,25.483587 107.748169,26.497990 
z"/>
<path fill="#FDFEFE" opacity="1.000000" stroke="none" 
	d="
M131.000000,25.999924 
	C132.653091,25.497833 134.306168,24.995743 136.114548,24.446486 
	C139.109299,16.522432 140.605225,15.687901 148.749054,18.175602 
	C146.916916,19.981342 143.851639,21.058296 144.919067,25.177347 
	C144.811691,25.588564 144.767288,25.752550 144.407318,25.938210 
	C143.049896,26.597334 142.008026,27.234787 140.716766,27.970716 
	C140.276657,28.357935 140.085922,28.646675 139.936676,28.937214 
	C139.978165,28.939013 139.942169,28.864161 139.626404,28.874016 
	C138.797302,29.224813 138.283951,29.565754 137.563263,29.944843 
	C137.355927,29.982990 136.999710,30.208570 136.661713,30.206116 
	C135.301224,30.641916 134.278717,31.080172 133.101212,31.166172 
	C132.297470,29.209251 131.648743,27.604588 131.000000,25.999924 
z"/>
<path fill="#FDFEFE" opacity="1.000000" stroke="none" 
	d="
M158.998169,17.001373 
	C161.609985,17.410467 164.221802,17.819561 166.958038,18.934206 
	C167.721619,20.093122 168.360809,20.546486 169.000000,20.999847 
	C171.175476,22.151667 173.350937,23.303488 175.508636,25.008520 
	C172.387680,25.358316 169.284500,25.154900 165.908356,24.947607 
	C165.454208,24.949530 165.272995,24.955328 164.913513,24.693138 
	C163.485443,23.726587 162.235657,23.028027 160.672836,22.188480 
	C159.678009,21.990278 158.996185,21.933064 158.242218,21.654842 
	C158.170044,21.433836 158.060486,20.981939 158.327499,20.867308 
	C161.511871,19.801683 158.803970,18.245390 158.998169,17.001373 
z"/>
<path fill="#F7FCFC" opacity="1.000000" stroke="none" 
	d="
M166.181305,24.951485 
	C169.284500,25.154900 172.387680,25.358316 175.745972,25.279974 
	C177.389328,24.999039 178.777557,24.999859 180.586273,25.337227 
	C182.004700,26.115322 183.002640,26.556868 184.000595,26.998409 
	C184.320099,27.466879 184.639587,27.935350 184.979538,28.701908 
	C183.665878,29.507893 182.284103,29.921053 181.015610,30.559385 
	C180.260178,30.939529 179.682800,31.673517 178.661774,32.616585 
	C177.235214,32.664791 176.172226,32.344845 175.331299,31.860348 
	C175.034378,31.134314 174.515396,30.572834 173.998505,30.005295 
	C174.000580,29.999237 173.988235,30.004097 173.801559,29.735752 
	C172.074677,28.674875 170.534485,27.882341 168.750107,26.945717 
	C167.998718,26.556351 167.491486,26.311073 166.776917,25.939995 
	C166.569550,25.814192 166.113602,25.648643 166.127258,25.474037 
	C166.140915,25.299429 166.181305,24.951485 166.181305,24.951485 
z"/>
<path fill="#FDFEFE" opacity="1.000000" stroke="none" 
	d="
M128.916779,33.921646 
	C126.540810,33.645996 124.164833,33.370342 121.395805,33.047745 
	C121.121956,26.113997 122.699821,24.540035 128.658997,26.293959 
	C128.972260,29.230061 128.944519,31.575853 128.916779,33.921646 
z"/>
<path fill="#F7FCFC" opacity="1.000000" stroke="none" 
	d="
M158.551605,17.001282 
	C158.803970,18.245390 161.511871,19.801683 157.951889,20.891592 
	C156.565277,21.090118 155.821304,21.149727 154.704575,21.162256 
	C151.548325,22.433441 148.764801,23.751707 145.731781,25.032942 
	C145.315536,24.973980 145.148804,24.952049 144.982056,24.930119 
	C143.851639,21.058296 146.916916,19.981342 149.149536,18.224680 
	C152.035004,17.667074 155.070023,17.334131 158.551605,17.001282 
z"/>
<path fill="#FDFEFE" opacity="1.000000" stroke="none" 
	d="
M296.925446,128.811005 
	C293.011749,127.125687 289.133667,124.977211 285.030579,122.583435 
	C288.245819,121.975838 291.772949,121.066895 295.072174,121.591393 
	C296.035461,121.744537 296.349426,125.982315 296.925446,128.811005 
z"/>
<path fill="#F4FAFB" opacity="1.000000" stroke="none" 
	d="
M246.130798,119.337402 
	C245.948059,117.632317 246.010986,116.170593 246.039581,114.356110 
	C247.426605,113.694489 248.847931,113.385620 250.670792,113.342697 
	C252.048203,113.739296 253.024109,113.869957 254.000000,114.000618 
	C254.862015,113.963417 255.724045,113.926224 256.834839,114.026192 
	C253.514587,115.969154 249.945511,117.774956 246.130798,119.337402 
z"/>
<path fill="#F7FCFC" opacity="1.000000" stroke="none" 
	d="
M128.944748,33.947994 
	C128.944519,31.575853 128.972260,29.230061 129.000305,26.442362 
	C129.444916,26.000278 129.889221,26.000099 130.666763,25.999920 
	C131.648743,27.604588 132.297470,29.209251 133.023834,31.403923 
	C133.063431,32.328983 133.025406,32.664036 132.869705,33.215027 
	C132.553909,33.697113 132.315765,33.920643 131.661194,34.079712 
	C130.532364,34.047985 129.779968,34.038097 129.027557,34.028206 
	C129.027557,34.028206 128.972733,33.974342 128.944748,33.947994 
z"/>
<path fill="#FDFEFE" opacity="1.000000" stroke="none" 
	d="
M183.947327,26.653984 
	C183.002640,26.556868 182.004700,26.115322 181.002762,25.337324 
	C181.963867,25.437099 182.928955,25.873327 183.947327,26.653984 
z"/>
<path fill="#FDFEFE" opacity="1.000000" stroke="none" 
	d="
M253.794800,113.737656 
	C253.024109,113.869957 252.048203,113.739296 251.035858,113.304626 
	C251.862793,113.158638 252.726181,113.316658 253.794800,113.737656 
z"/>
<path fill="#F7FCFC" opacity="1.000000" stroke="none" 
	d="
M168.958847,20.678900 
	C168.360809,20.546486 167.721619,20.093122 167.041229,19.318659 
	C167.639236,19.451023 168.278458,19.904486 168.958847,20.678900 
z"/>
<path fill="#FDFEFE" opacity="1.000000" stroke="none" 
	d="
M283.880096,121.788177 
	C283.710693,121.846497 283.413635,121.669373 282.971954,121.271141 
	C283.135712,121.217598 283.444061,121.385170 283.880096,121.788177 
z"/>
<path fill="#F5FAFD" opacity="1.000000" stroke="none" 
	d="
M204.835251,98.451080 
	C207.432709,100.116058 210.030151,101.781036 212.838577,103.711807 
	C211.453522,104.320267 209.857468,104.662910 207.602356,105.147057 
	C210.387253,107.564804 212.412933,109.323425 214.438629,111.082054 
	C214.236984,111.468292 214.035339,111.854530 213.833694,112.240776 
	C212.831955,112.330101 211.830200,112.419434 210.919312,112.500664 
	C210.279327,114.469467 209.618973,116.500969 208.576111,118.847321 
	C206.493591,118.368477 204.793579,117.574776 202.867432,116.541573 
	C197.741714,113.310654 192.842148,110.319237 187.092468,106.808800 
	C191.118164,104.454704 194.260941,102.372437 197.621399,100.737686 
	C199.865692,99.645920 202.419785,99.191002 204.835251,98.451080 
z"/>
<path fill="#F5FAFA" opacity="1.000000" stroke="none" 
	d="
M230.291992,144.012085 
	C229.967331,143.542984 229.987015,143.109848 230.273239,142.308487 
	C230.850876,141.544540 231.161987,141.148819 231.473083,140.753082 
	C231.214310,140.665695 230.757919,140.459015 230.727478,140.509445 
	C230.435440,140.993271 230.215302,141.520493 229.974548,142.035278 
	C216.613205,134.370056 203.236053,126.732140 189.914124,118.999054 
	C188.522186,118.191063 187.457108,116.820000 186.296509,115.130051 
	C188.510361,115.304199 190.627075,116.250664 192.844788,116.723923 
	C193.814011,116.930756 194.989868,116.169327 196.414795,115.915802 
	C198.418610,116.710121 200.079529,117.436218 201.962494,118.429222 
	C209.216827,123.050888 216.249084,127.405655 222.976990,132.000092 
	C220.636566,135.151947 223.370590,136.443085 224.978622,136.845779 
	C226.805344,137.303284 228.992386,136.322052 231.336121,136.007111 
	C232.234329,136.790329 232.819214,137.532669 233.404114,138.275009 
	C232.624283,140.267792 237.118179,144.788956 230.291992,144.012085 
z"/>
<path fill="#8CCAF8" opacity="1.000000" stroke="none" 
	d="
M223.281342,131.760437 
	C216.249084,127.405655 209.216827,123.050888 202.253159,118.266724 
	C202.579010,117.485245 202.836288,117.133163 203.093567,116.781082 
	C204.793579,117.574776 206.493591,118.368477 208.543945,119.220779 
	C218.269028,124.651146 227.643784,130.022919 237.457733,135.765045 
	C239.605545,137.346512 241.314163,138.557632 243.022781,139.768738 
	C243.524521,140.060730 244.026245,140.352722 244.587006,141.092377 
	C244.267242,141.798691 243.888474,142.057343 243.190643,142.237228 
	C241.583817,141.765488 240.296066,141.372513 239.008316,140.979538 
	C237.354065,140.171844 235.699829,139.364166 233.724854,138.415741 
	C232.819214,137.532669 232.234329,136.790329 231.175613,135.780533 
	C230.190384,135.323151 229.678986,135.133224 229.034760,134.730042 
	C228.607910,134.373962 228.313889,134.231140 227.792511,133.999786 
	C227.565186,133.911255 227.089966,133.800705 226.940369,133.575302 
	C226.186234,132.986420 225.581665,132.622925 224.705139,132.141083 
	C224.049240,131.935272 223.665283,131.847855 223.281342,131.760437 
z"/>
<path fill="#8FCEFA" opacity="1.000000" stroke="none" 
	d="
M243.509705,142.316010 
	C243.888474,142.057343 244.267242,141.798691 244.832504,141.247589 
	C252.310287,144.238770 258.940277,148.500916 265.437500,152.959488 
	C265.033600,153.608963 264.629700,154.258423 264.225830,154.907883 
	C258.428101,151.614594 252.630371,148.321304 246.299500,144.729294 
	C245.014145,143.725723 244.261917,143.020874 243.509705,142.316010 
z"/>
<path fill="#F4FAFB" opacity="1.000000" stroke="none" 
	d="
M243.003098,139.408722 
	C241.314163,138.557632 239.605545,137.346512 237.816971,135.848572 
	C238.251434,134.698273 238.765854,133.834793 239.660080,132.333786 
	C241.021332,135.084244 242.002380,137.066483 243.003098,139.408722 
z"/>
<path fill="#F5FAFA" opacity="1.000000" stroke="none" 
	d="
M243.190643,142.237244 
	C244.261917,143.020874 245.014145,143.725723 245.952606,144.682388 
	C243.222488,145.100937 240.251038,145.388519 239.046005,141.348907 
	C240.296066,141.372513 241.583817,141.765488 243.190643,142.237244 
z"/>
<path fill="#F5FAFD" opacity="1.000000" stroke="none" 
	d="
M222.025452,109.873840 
	C223.515411,110.280411 224.626099,110.745438 225.934326,111.453583 
	C223.920685,111.696709 221.709503,111.696709 219.498322,111.696709 
	C219.456100,111.412926 219.413879,111.129143 219.371674,110.845367 
	C220.129822,110.541008 220.887985,110.236656 222.025452,109.873840 
z"/>
<path fill="#F5FAFD" opacity="1.000000" stroke="none" 
	d="
M214.074631,105.146523 
	C215.673492,105.614220 217.243591,106.455978 219.014648,107.575775 
	C216.762451,108.693344 214.500061,109.110191 214.074631,105.146523 
z"/>
<path fill="#F7FBFB" opacity="1.000000" stroke="none" 
	d="
M18.057333,50.240772 
	C17.888178,50.175411 17.719021,50.110046 17.292795,49.955410 
	C13.817471,47.820118 10.599213,45.774097 7.162934,43.484756 
	C7.010314,42.915844 6.961836,42.472889 7.158244,42.282307 
	C9.974508,39.549595 8.614787,33.176754 14.193230,33.176342 
	C18.223024,33.176048 22.252926,34.613010 26.657587,35.483006 
	C26.061655,36.598450 25.554646,37.547451 24.634560,38.781235 
	C20.956861,38.197056 18.550562,34.429829 14.808618,35.172619 
	C14.630983,35.652103 14.453349,36.131592 14.275715,36.611076 
	C17.757715,38.448357 21.239714,40.285637 24.927668,42.404518 
	C28.111473,44.460545 31.377558,45.888676 34.009174,48.079071 
	C40.116554,53.162487 45.768375,52.682648 51.569664,47.716614 
	C54.741875,45.001122 57.741634,45.457321 61.365040,47.665432 
	C69.928314,52.883904 78.837898,57.534092 87.663094,62.574753 
	C87.718742,62.735424 87.876503,63.040142 87.876503,63.040142 
	C87.876503,65.451363 87.876503,67.862587 87.876503,71.162430 
	C79.806534,66.515984 72.402588,62.227406 64.971024,57.987240 
	C62.154190,56.380070 59.378006,54.607487 56.370636,53.475033 
	C55.175785,53.025105 53.314034,53.908073 51.918789,54.542465 
	C50.277157,55.288879 48.812412,56.424328 47.043842,57.654240 
	C40.115101,63.582886 34.331909,60.246967 28.544632,56.147400 
	C26.808855,54.917824 24.815741,54.051521 22.375797,52.724205 
	C20.858194,52.007557 19.905317,51.585495 18.952440,51.163437 
	C18.952440,51.163437 18.902214,51.058334 18.808731,50.841347 
	C18.566124,50.376266 18.346819,50.248405 18.057333,50.240772 
z"/>
<path fill="#FEFFFE" opacity="1.000000" stroke="none" 
	d="
M66.999084,41.001831 
	C70.195396,39.407398 72.467812,37.798721 69.601341,33.695724 
	C67.845924,31.183067 69.624695,29.136919 72.772964,28.362648 
	C73.566017,29.538748 73.858070,30.432455 73.968994,31.549133 
	C73.547424,32.462051 73.306984,33.151997 73.045120,34.246254 
	C73.023697,36.129330 73.023697,37.608089 73.023697,39.889263 
	C76.645973,39.889263 79.945740,39.889263 83.565842,39.945580 
	C85.262108,40.951576 86.638039,41.901253 88.045906,43.246635 
	C88.405968,45.509068 88.734093,47.375793 89.126175,49.606331 
	C87.179588,48.997520 85.923149,48.604557 84.666710,48.211590 
	C84.352585,48.630775 84.038460,49.049957 83.724335,49.469139 
	C84.993126,50.551144 86.412399,51.503643 87.487213,52.752579 
	C88.506088,53.936508 89.163979,55.431095 89.552856,56.883049 
	C87.084320,56.969421 85.043541,56.961803 82.963905,56.605526 
	C81.949928,54.171154 80.974808,52.085442 80.138741,49.945900 
	C80.185295,49.928150 80.092804,49.964226 79.591492,50.000465 
	C76.739296,50.104637 74.295914,50.208652 71.571167,50.242161 
	C70.838768,49.827023 70.387741,49.482391 69.989349,48.762642 
	C71.037231,46.207603 72.032471,44.027683 73.027718,41.847763 
	C72.627098,41.640476 72.226486,41.433189 71.825867,41.225903 
	C70.567650,42.110909 69.309425,42.995911 67.634697,44.173878 
	C67.352707,42.766621 67.175896,41.884224 66.999084,41.001831 
z"/>
<path fill="#7DC2F6" opacity="1.000000" stroke="none" 
	d="
M73.066544,33.841942 
	C73.306984,33.151997 73.547424,32.462051 74.312454,31.446100 
	C78.215126,29.256807 81.593216,27.393522 85.993004,24.966690 
	C80.994667,22.210266 77.032021,20.024990 73.069366,17.839716 
	C71.959961,17.216082 70.850548,16.592445 69.233948,15.570454 
	C66.883514,14.284660 65.040268,13.397223 63.197018,12.509786 
	C63.059891,12.222600 62.855560,11.996012 62.203362,11.516001 
	C61.185810,10.805579 60.548927,10.409180 59.912045,10.012781 
	C59.912045,10.012781 59.948177,9.522806 60.356438,9.262020 
	C61.511852,8.936065 62.259010,8.870896 63.006168,8.805728 
	C63.369633,8.910667 63.733101,9.015607 64.570694,9.409422 
	C65.995079,10.177422 66.945328,10.656548 67.895576,11.135674 
	C67.895576,11.135674 67.902855,11.167527 67.884995,11.180317 
	C73.533264,14.617197 79.185951,18.063803 84.869904,21.458055 
	C89.202744,24.045475 89.229057,25.959621 84.869400,28.484144 
	C82.859550,29.647972 80.809708,30.742704 78.799210,31.905451 
	C78.547569,32.050983 78.426094,32.421581 77.871902,33.233490 
	C86.205612,38.261112 94.510643,43.271435 102.744186,48.768562 
	C103.429863,50.497849 104.187019,51.740326 105.420509,53.764439 
	C102.035126,53.764439 99.429115,53.764439 96.925072,53.464081 
	C98.224037,52.202499 99.421028,51.241272 101.237724,49.782398 
	C96.429688,47.262177 92.221825,45.056553 88.013969,42.850929 
	C86.638039,41.901253 85.262108,40.951576 83.355392,39.665985 
	C79.571922,37.500698 76.319237,35.671318 73.066544,33.841942 
z"/>
<path fill="#8DCBFA" opacity="1.000000" stroke="none" 
	d="
M83.002762,56.954185 
	C85.043541,56.961803 87.084320,56.969421 89.787170,56.923027 
	C90.449249,56.869015 90.922272,56.908936 91.040169,57.179352 
	C91.439522,57.966888 91.720978,58.484009 91.630951,59.007187 
	C90.042130,60.146858 88.824791,61.280468 87.607445,62.414082 
	C78.837898,57.534092 69.928314,52.883904 61.365040,47.665432 
	C57.741634,45.457321 54.741875,45.001122 51.569664,47.716614 
	C45.768375,52.682648 40.116554,53.162487 34.009174,48.079071 
	C31.377558,45.888676 28.111473,44.460545 25.363056,42.363438 
	C26.461887,42.000011 27.331282,41.959270 28.200676,41.918533 
	C28.568422,41.961506 28.936171,42.004478 29.807949,42.328163 
	C33.128731,44.244858 36.097126,45.670971 38.724327,47.569286 
	C42.102932,50.010532 44.735954,49.393948 47.177608,46.361443 
	C47.585728,46.268326 47.993851,46.175209 48.996151,45.892387 
	C50.776112,44.909122 51.961891,44.115566 53.147671,43.322006 
	C53.147671,43.322006 53.595612,43.198616 54.048981,43.009541 
	C54.741867,42.572697 54.981388,42.324928 55.220909,42.077156 
	C55.889023,42.101364 56.557133,42.125572 57.763927,42.457932 
	C62.180645,44.889984 66.058678,47.013874 69.936714,49.137764 
	C70.387741,49.482391 70.838768,49.827023 71.783165,50.495285 
	C75.851944,52.864006 79.427353,54.909096 83.002762,56.954185 
z"/>
<path fill="#F6FAFA" opacity="1.000000" stroke="none" 
	d="
M73.046196,18.307186 
	C77.032021,20.024990 80.994667,22.210266 85.993004,24.966690 
	C81.593216,27.393522 78.215126,29.256807 74.493584,31.223125 
	C73.858070,30.432455 73.566017,29.538748 73.134132,28.322445 
	C73.003876,24.924786 73.013451,21.849720 73.046196,18.307186 
z"/>
<path fill="#F7FBFB" opacity="1.000000" stroke="none" 
	d="
M46.958900,46.032413 
	C44.735954,49.393948 42.102932,50.010532 38.724327,47.569286 
	C36.097126,45.670971 33.128731,44.244858 30.084961,42.353035 
	C31.859999,42.216175 33.860676,42.382622 35.864498,42.440933 
	C37.913364,42.500561 39.965321,42.454140 42.190556,42.454140 
	C43.434021,43.342194 45.087105,44.522789 46.958900,46.032413 
z"/>
<path fill="#F7FBFB" opacity="1.000000" stroke="none" 
	d="
M69.989349,48.762646 
	C66.058678,47.013874 62.180645,44.889984 58.095703,42.506409 
	C60.662045,41.831932 63.435291,41.417133 66.603813,41.002083 
	C67.175896,41.884224 67.352707,42.766621 67.634697,44.173878 
	C69.309425,42.995911 70.567650,42.110909 71.825867,41.225903 
	C72.226486,41.433189 72.627098,41.640476 73.027718,41.847763 
	C72.032471,44.027683 71.037231,46.207603 69.989349,48.762646 
z"/>
<path fill="#8ECCF9" opacity="1.000000" stroke="none" 
	d="
M28.023758,41.661079 
	C27.331282,41.959270 26.461887,42.000011 25.157104,42.081833 
	C21.239714,40.285637 17.757715,38.448357 14.275715,36.611076 
	C14.453349,36.131592 14.630983,35.652103 14.808618,35.172619 
	C18.550562,34.429829 20.956861,38.197056 24.577522,39.129356 
	C25.904654,39.929680 26.875746,40.666656 28.023758,41.661079 
z"/>
<path fill="#F7FBFB" opacity="1.000000" stroke="none" 
	d="
M59.579041,9.974948 
	C60.548927,10.409180 61.185810,10.805579 61.989700,11.427549 
	C60.827019,13.022700 59.497330,14.392281 57.115810,16.845247 
	C57.746216,13.438231 54.585213,10.687844 59.579041,9.974948 
z"/>
<path fill="#F7FBFB" opacity="1.000000" stroke="none" 
	d="
M73.079330,4.288168 
	C74.954979,4.727669 76.791191,5.585556 78.840302,6.704053 
	C74.140228,10.108388 73.353577,9.812985 73.079330,4.288168 
z"/>
<path fill="#F7FBFB" opacity="1.000000" stroke="none" 
	d="
M63.141369,12.956320 
	C65.040268,13.397223 66.883514,14.284660 68.940079,15.427943 
	C66.194046,17.415482 63.260479,19.078615 63.141369,12.956320 
z"/>
<path fill="#F7FBFB" opacity="1.000000" stroke="none" 
	d="
M52.951496,43.008812 
	C51.961891,44.115566 50.776112,44.909122 49.288826,45.778214 
	C49.111874,43.451092 49.443279,41.295238 52.951496,43.008812 
z"/>
<path fill="#F7FBFB" opacity="1.000000" stroke="none" 
	d="
M62.941616,8.487682 
	C62.259010,8.870896 61.511852,8.936065 60.390194,9.018698 
	C60.969482,8.747319 61.923275,8.458478 62.941616,8.487682 
z"/>
<path fill="#F7FBFB" opacity="1.000000" stroke="none" 
	d="
M67.875870,10.756664 
	C66.945328,10.656548 65.995079,10.177422 64.854736,9.424763 
	C65.728493,9.560038 66.792328,9.968846 67.875870,10.756664 
z"/>
<path fill="#F7FBFB" opacity="1.000000" stroke="none" 
	d="
M5.846840,42.668556 
	C5.636349,42.842499 5.356852,42.701122 5.005712,42.243568 
	C5.211129,42.077579 5.492383,42.219528 5.846840,42.668556 
z"/>
<path fill="#F7FBFB" opacity="1.000000" stroke="none" 
	d="
M54.960152,42.138084 
	C54.981388,42.324928 54.741867,42.572697 54.253990,42.900276 
	C54.236893,42.719730 54.468147,42.459370 54.960152,42.138084 
z"/>
<path fill="#F7FBFB" opacity="1.000000" stroke="none" 
	d="
M3.897991,41.763611 
	C3.990487,41.916740 3.499452,41.969433 3.253167,41.953243 
	C3.273087,41.828197 3.539291,41.719341 3.897991,41.763611 
z"/>
<path fill="#F8FCFE" opacity="1.000000" stroke="none" 
	d="
M222.972610,65.001511 
	C227.148911,65.447487 231.681549,65.021362 233.818909,70.040329 
	C234.133316,70.778610 235.393051,71.217964 236.300873,71.583084 
	C242.240341,73.971840 242.815262,75.272568 241.756149,81.528748 
	C241.331924,84.034660 241.700455,86.702179 241.904633,89.280586 
	C242.202637,93.043823 242.453995,96.545792 236.921921,96.102547 
	C235.666458,96.001953 234.365936,96.774529 233.060135,96.940407 
	C225.111084,97.950157 225.108582,97.930412 224.866394,105.988449 
	C219.190048,103.480751 213.543716,100.537163 207.993622,97.422119 
	C207.385452,97.080772 207.330276,95.754166 207.092773,94.550400 
	C207.166946,94.216270 207.150726,94.150017 207.425156,94.145157 
	C208.164749,93.873894 208.629898,93.607483 209.402390,93.203186 
	C210.873703,92.424271 212.037689,91.783234 213.556946,91.091522 
	C215.335587,90.283676 216.718140,89.433670 218.190048,88.786964 
	C222.429092,86.924477 223.904312,84.595497 219.974213,80.833076 
	C219.650269,80.522942 220.562988,78.921051 221.097198,77.666199 
	C221.599731,76.638092 221.906143,75.863129 222.420105,74.742020 
	C222.742645,71.264420 222.857620,68.132965 222.972610,65.001511 
z"/>
<path fill="#E6F4FA" opacity="1.000000" stroke="none" 
	d="
M205.923172,92.865295 
	C205.370316,93.041458 204.817459,93.217621 203.850800,93.777390 
	C202.979630,94.499092 202.522247,94.837212 201.737579,95.262039 
	C187.945740,103.215729 174.628235,111.356682 160.896774,118.726334 
	C158.034393,120.262566 153.421631,119.716080 150.011642,118.742271 
	C146.119080,117.630638 142.669418,114.968109 138.819138,112.714012 
	C135.406647,110.634911 132.202286,108.821335 128.705475,106.830368 
	C115.935326,99.342690 103.457619,92.032402 90.979919,84.722122 
	C91.243729,84.144386 91.507545,83.566650 91.771355,82.988922 
	C94.545975,84.503670 98.784721,80.924614 100.554123,86.406792 
	C100.623985,86.623253 102.763062,86.171867 104.207710,86.125854 
	C104.981148,86.472054 105.484863,86.724045 106.023155,87.338638 
	C106.371712,90.456375 107.337555,91.920494 110.453682,89.864197 
	C111.200890,90.104744 111.628281,90.240501 112.199310,90.663170 
	C113.005882,93.487747 113.792961,95.807899 117.490997,93.779617 
	C118.567757,92.592392 119.273933,91.301949 120.047867,89.887688 
	C123.505211,91.425835 119.601738,97.675552 125.018555,98.383698 
	C125.498207,101.275169 126.139580,103.341591 128.829803,100.206177 
	C128.853226,100.216904 128.873810,100.264160 128.993347,100.514679 
	C129.749786,101.134727 130.386673,101.504242 131.106384,102.148911 
	C131.287521,107.192017 134.738907,104.748352 137.124863,105.357239 
	C139.194702,106.550720 141.039841,107.466377 143.066895,108.663483 
	C144.215530,111.734200 145.518311,113.891258 149.314850,112.159790 
	C154.722366,114.862190 159.386765,113.563148 164.114334,110.997116 
	C165.239182,111.393196 166.859787,111.946045 166.940781,111.774033 
	C167.479324,110.630150 167.688477,109.331177 168.235779,108.045837 
	C168.466858,108.009056 168.905029,107.844742 169.151047,107.804352 
	C169.739456,107.632935 169.944672,107.387276 170.250641,106.991714 
	C170.488556,106.956444 170.969391,106.942917 170.943756,107.270889 
	C171.545914,107.972786 172.173706,108.346718 172.801514,108.720642 
	C173.204102,107.253517 173.606674,105.786392 174.390457,104.267975 
	C175.489990,103.942139 176.208313,103.667595 176.967209,103.740692 
	C177.956757,104.045135 179.292816,104.368851 179.763519,103.872276 
	C180.460281,103.137222 180.542831,101.819962 181.221497,100.596245 
	C182.005646,100.245644 182.455200,100.049385 183.149475,100.054489 
	C183.751022,100.952011 184.107849,101.648178 185.243027,103.862953 
	C186.054871,100.688248 186.525375,98.848289 187.319000,96.974792 
	C188.427750,96.595100 189.213394,96.248940 190.002655,96.242188 
	C190.175919,99.535233 191.709824,98.495834 192.621887,97.248047 
	C193.431793,96.140030 193.612747,94.572304 194.376129,93.073296 
	C195.090057,92.766495 195.499161,92.593895 195.970016,92.807999 
	C197.188614,96.022766 198.579697,94.995598 199.642746,93.247200 
	C200.354614,92.076385 200.584152,90.612297 201.331619,89.135101 
	C202.074234,88.925964 202.514740,88.861168 202.938416,89.150208 
	C203.804398,89.801277 204.687210,90.098511 205.570038,90.395744 
	C205.714920,88.985199 205.859818,87.574646 206.377182,86.113846 
	C207.499191,86.011948 208.248749,85.960304 209.062531,86.252670 
	C210.010712,86.423347 211.482452,86.485001 211.664032,86.030846 
	C212.134308,84.854561 212.036148,83.451004 212.437622,82.311829 
	C213.113342,82.613144 213.516388,82.740799 214.243439,83.017761 
	C215.860443,83.597130 217.153427,84.027191 218.941055,84.621765 
	C216.344711,86.332397 214.183167,87.756569 211.723526,89.233360 
	C210.619614,89.896194 209.813782,90.506424 208.712494,91.106567 
	C207.942459,91.385658 207.467911,91.674820 206.765289,92.048538 
	C206.242371,92.301559 206.037689,92.545624 205.923172,92.865295 
z"/>
<path fill="#8DCCF9" opacity="1.000000" stroke="none" 
	d="
M139.027283,112.979538 
	C142.669418,114.968109 146.119080,117.630638 150.011642,118.742271 
	C153.421631,119.716080 158.034393,120.262566 160.896774,118.726334 
	C174.628235,111.356682 187.945740,103.215729 201.915497,95.485443 
	C203.280212,96.082100 204.139709,96.542053 204.999191,97.002007 
	C204.978897,97.243393 204.958603,97.484787 204.886780,98.088623 
	C202.419785,99.191002 199.865692,99.645920 197.621399,100.737686 
	C194.260941,102.372437 191.118164,104.454704 187.092468,106.808800 
	C192.842148,110.319237 197.741714,113.310654 202.867432,116.541580 
	C202.836288,117.133163 202.579010,117.485245 202.031097,117.999825 
	C200.079529,117.436218 198.418610,116.710121 196.225769,115.636002 
	C191.987305,113.292053 188.374084,111.076454 184.515869,109.437653 
	C183.397171,108.962486 181.405487,109.877083 180.160187,110.686935 
	C179.648880,111.019440 180.053116,112.759735 180.040878,113.859650 
	C179.902451,114.416916 179.764023,114.974190 179.407211,115.718430 
	C176.253891,113.949829 173.384262,113.944832 170.573090,116.171341 
	C170.319656,116.372063 169.927536,116.406509 169.692230,116.620033 
	C158.601654,126.684090 148.315002,122.927124 138.187454,114.284241 
	C138.407471,113.499374 138.717377,113.239449 139.027283,112.979538 
z"/>
<path fill="#8EC8F6" opacity="1.000000" stroke="none" 
	d="
M204.972061,96.669769 
	C204.139709,96.542053 203.280212,96.082100 202.242798,95.398743 
	C202.522247,94.837212 202.979630,94.499092 203.682663,94.017479 
	C204.267197,94.695168 204.606064,95.516357 204.972061,96.669769 
z"/>
<path fill="#8EC8F6" opacity="1.000000" stroke="none" 
	d="
M206.073639,93.148064 
	C206.037689,92.545624 206.242371,92.301559 206.774673,92.413498 
	C207.058334,93.179276 207.104523,93.664642 207.150726,94.150017 
	C207.150726,94.150017 207.166946,94.216270 207.170944,94.252014 
	C206.858002,94.002113 206.541046,93.716476 206.073639,93.148064 
z"/>
<path fill="#F1FBFE" opacity="1.000000" stroke="none" 
	d="
M180.418427,113.914398 
	C180.053116,112.759735 179.648880,111.019440 180.160187,110.686935 
	C181.405487,109.877083 183.397171,108.962486 184.515869,109.437653 
	C188.374084,111.076454 191.987305,113.292053 195.882874,115.567787 
	C194.989868,116.169327 193.814011,116.930756 192.844788,116.723923 
	C190.627075,116.250664 188.510361,115.304199 186.140015,114.831390 
	C184.216919,114.731636 182.506454,114.350395 180.418427,113.914398 
z"/>
<path fill="#FEFFFF" opacity="1.000000" stroke="none" 
	d="
M6.607147,50.045521 
	C6.209929,50.287910 5.814753,50.286228 5.421782,50.255936 
	C5.410727,50.255077 5.423221,49.948765 5.424735,49.784882 
	C5.819656,49.789066 6.214576,49.793251 6.607147,50.045521 
z"/>
<path fill="#0B81E0" opacity="1.000000" stroke="none" 
	d="
M208.998291,85.908661 
	C208.248749,85.960304 207.499191,86.011948 206.338913,85.721558 
	C205.792648,84.373253 205.657104,83.366989 205.521576,82.360725 
	C204.995255,82.296997 204.468933,82.233269 203.942612,82.169533 
	C203.613495,84.378479 203.284378,86.587425 202.955261,88.796371 
	C202.514740,88.861168 202.074234,88.925964 201.016830,88.973221 
	C200.048767,87.912857 199.697586,86.870026 199.345566,85.824730 
	C194.774582,86.348579 196.853271,90.152359 195.908264,92.421295 
	C195.499161,92.593895 195.090057,92.766495 194.086884,92.838394 
	C193.142075,91.589272 192.791351,90.440857 192.440628,89.292435 
	C191.923386,89.268478 191.406128,89.244522 190.888885,89.220558 
	C190.592270,91.447960 190.295654,93.675369 189.999054,95.902771 
	C189.213394,96.248940 188.427750,96.595100 187.289032,96.585693 
	C186.774887,95.214264 186.613815,94.198395 186.437119,93.083992 
	C181.937973,93.980804 183.704041,97.530724 182.904739,99.853127 
	C182.455200,100.049385 182.005646,100.245644 181.168732,100.154984 
	C180.168472,98.903557 179.555573,97.939064 178.942688,96.974564 
	C178.316010,97.951057 177.461639,98.856125 177.126617,99.924103 
	C176.790436,100.995880 176.972000,102.230049 176.926666,103.393051 
	C176.208313,103.667595 175.489990,103.942139 174.379333,103.858307 
	C173.784561,102.409019 173.582138,101.318130 173.379715,100.227234 
	C172.762817,100.236702 172.145905,100.246162 171.528992,100.255623 
	C171.342453,102.484726 171.155914,104.713821 170.969391,106.942917 
	C170.969391,106.942917 170.488556,106.956444 169.991394,106.986282 
	C169.297821,107.292328 169.101425,107.568535 168.905029,107.844742 
	C168.905029,107.844742 168.466858,108.009056 168.196228,107.647202 
	C167.437393,106.214905 166.949188,105.144463 166.460983,104.074020 
	C165.682922,104.999153 164.596848,105.812279 164.208893,106.879257 
	C163.775055,108.072304 163.974197,109.495522 163.897888,110.818573 
	C159.386765,113.563148 154.722366,114.862190 149.116287,111.829971 
	C147.752136,108.822403 146.923279,106.314186 146.094421,103.805969 
	C145.661377,103.929176 145.228333,104.052383 144.795288,104.175591 
	C144.158524,105.577736 143.521759,106.979881 142.885010,108.382027 
	C141.039841,107.466377 139.194702,106.550720 136.905365,105.061272 
	C135.274033,102.011543 134.086853,99.535622 132.744629,96.854660 
	C132.138519,97.089600 131.687485,97.529579 131.180939,98.353485 
	C131.111389,99.254448 131.097336,99.771484 130.715820,100.249893 
	C129.856857,100.228889 129.365341,100.246521 128.873810,100.264160 
	C128.873810,100.264160 128.853226,100.216904 128.852814,99.783112 
	C128.605515,96.764549 129.948959,93.272575 124.995293,92.907944 
	C124.995293,94.791168 124.995293,96.412949 124.995293,98.034721 
	C119.601738,97.675552 123.505211,91.425835 120.047867,89.887688 
	C119.273933,91.301949 118.567757,92.592392 117.289124,93.471817 
	C115.905617,90.510353 115.094559,87.959908 114.283493,85.409454 
	C113.670174,85.534096 113.056847,85.658730 112.443527,85.783363 
	C112.314247,87.314331 112.184959,88.845291 112.055679,90.376259 
	C111.628281,90.240501 111.200890,90.104744 110.395531,89.454079 
	C109.229294,86.567108 111.465126,82.712532 106.239609,81.993912 
	C106.147758,83.816795 106.068169,85.396416 105.988579,86.976036 
	C105.484863,86.724045 104.981148,86.472054 104.031631,85.781616 
	C102.994682,82.956276 102.403534,80.569389 101.812386,78.182495 
	C101.401337,78.306648 100.990288,78.430801 100.579239,78.554955 
	C100.002846,79.766457 99.426445,80.977959 98.374542,83.188904 
	C97.186195,79.721924 96.358002,77.305702 95.219048,73.982811 
	C93.618507,76.472710 92.775642,77.783913 91.932777,79.095123 
	C91.100960,78.212952 90.269150,77.330780 89.221695,76.214684 
	C88.993279,71.964958 88.980515,67.949158 89.032181,63.278877 
	C89.745399,62.660950 90.394203,62.697491 91.224472,62.860092 
	C91.405945,62.986145 91.833427,63.093586 92.007019,63.362793 
	C93.104797,64.119835 94.028976,64.607681 95.170105,65.345230 
	C97.571281,66.771935 99.755516,67.948914 102.108994,69.365158 
	C102.814896,69.830711 103.351562,70.057007 104.026886,70.465340 
	C104.409126,70.847328 104.687721,70.962898 105.213104,71.260040 
	C109.574303,73.808998 113.723717,76.091995 118.086273,78.574341 
	C119.186462,79.213158 120.073502,79.652634 121.152466,80.369324 
	C129.071335,85.164932 136.988586,89.393272 144.462326,94.297501 
	C150.000580,97.931679 155.682404,99.804672 161.560501,96.582359 
	C173.908524,89.813324 185.947723,82.480972 198.408005,75.278526 
	C199.188400,74.806732 199.674515,74.436279 200.461823,73.957382 
	C201.843460,73.233040 202.923904,72.617126 204.319397,71.955391 
	C205.486252,71.313202 206.338043,70.716843 207.532959,70.059837 
	C212.349930,67.422142 216.823792,64.845093 222.212570,61.741032 
	C222.212570,66.939758 222.212570,71.013969 222.212555,75.088165 
	C221.906143,75.863129 221.599731,76.638092 220.750198,77.664291 
	C219.489334,76.891930 218.771606,75.868324 217.569443,74.153854 
	C216.224487,77.364983 215.071945,80.116714 213.919418,82.868454 
	C213.516388,82.740799 213.113342,82.613144 212.527527,82.039101 
	C212.209045,80.742607 212.073349,79.892494 211.937637,79.042389 
	C211.051270,79.555641 209.583344,79.912239 209.394485,80.613373 
	C208.942261,82.292229 209.091721,84.133156 208.998291,85.908661 
z"/>
<path fill="#89C9F8" opacity="1.000000" stroke="none" 
	d="
M91.809021,79.430283 
	C92.775642,77.783913 93.618507,76.472710 95.219048,73.982811 
	C96.358002,77.305702 97.186195,79.721924 98.374542,83.188904 
	C99.426445,80.977959 100.002846,79.766457 100.579239,78.554955 
	C100.990288,78.430801 101.401337,78.306648 101.812386,78.182495 
	C102.403534,80.569389 102.994682,82.956276 103.761909,85.687416 
	C102.763062,86.171867 100.623985,86.623253 100.554123,86.406792 
	C98.784721,80.924614 94.545975,84.503670 91.771355,82.988922 
	C91.507545,83.566650 91.243729,84.144386 90.979919,84.722122 
	C103.457619,92.032402 115.935326,99.342690 128.705276,107.194847 
	C128.982132,108.223984 128.966736,108.711243 128.951355,109.198502 
	C122.686737,105.882721 116.354248,102.687706 110.177010,99.216423 
	C104.262627,95.892845 98.507904,92.284950 92.686035,88.796959 
	C87.735275,85.830856 87.515953,83.829994 91.809021,79.430283 
z"/>
<path fill="#91CCF7" opacity="1.000000" stroke="none" 
	d="
M129.119217,109.482147 
	C128.966736,108.711243 128.982132,108.223984 128.997742,107.372238 
	C132.202286,108.821335 135.406647,110.634911 138.819138,112.714005 
	C138.717377,113.239449 138.407471,113.499374 137.961609,114.039192 
	C134.979446,112.801323 132.133270,111.283554 129.119217,109.482147 
z"/>
<path fill="#7DC2F6" opacity="1.000000" stroke="none" 
	d="
M91.042999,62.734035 
	C90.394203,62.697491 89.745399,62.660950 88.935150,62.826405 
	C88.773705,63.028404 88.325813,63.024673 88.101158,63.032410 
	C87.876503,63.040142 87.718742,62.735424 87.663094,62.574753 
	C88.824791,61.280468 90.042130,60.146858 91.629738,59.006622 
	C92.000000,59.000000 91.998901,58.997887 91.971191,59.325119 
	C91.643318,60.679581 91.343163,61.706810 91.042999,62.734035 
z"/>
<path fill="#93CEF8" opacity="1.000000" stroke="none" 
	d="
M19.043152,51.501522 
	C19.905317,51.585495 20.858194,52.007557 22.035614,52.657619 
	C21.218058,52.536953 20.175962,52.188278 19.043152,51.501522 
z"/>
<path fill="#93CEF8" opacity="1.000000" stroke="none" 
	d="
M18.147320,50.398510 
	C18.346819,50.248405 18.566124,50.376266 18.755756,50.817135 
	C18.578905,50.896927 18.392586,50.745705 18.147320,50.398510 
z"/>
<path fill="#7AC1F6" opacity="1.000000" stroke="none" 
	d="
M94.953156,65.095520 
	C94.028976,64.607681 93.104797,64.119835 92.377533,63.325363 
	C93.386444,62.344547 94.198433,61.670357 95.237564,60.824505 
	C94.978767,60.101532 94.492836,59.550217 93.672241,58.999523 
	C92.891357,58.999393 92.445129,58.998642 91.998901,58.997887 
	C91.998901,58.997887 92.000000,59.000000 92.001221,59.000565 
	C91.720978,58.484009 91.439522,57.966888 91.058975,57.188942 
	C90.959885,56.928112 90.953880,56.967274 91.346909,56.978630 
	C93.456726,55.943501 95.173523,54.897011 96.871811,53.830322 
	C96.853317,53.810127 96.823097,53.764439 96.823097,53.764439 
	C99.429115,53.764439 102.035126,53.764439 105.420509,53.764439 
	C104.187019,51.740326 103.429863,50.497849 102.941284,49.048721 
	C103.557716,48.839870 103.905586,48.837662 104.839745,49.015427 
	C106.331779,53.338207 111.144135,51.319973 112.848007,54.047089 
	C112.811249,54.075443 112.911308,54.045006 113.237297,54.148758 
	C114.090477,54.134262 114.717728,53.985573 115.344978,53.836884 
	C114.896767,52.897198 114.448563,51.957516 114.000351,51.017830 
	C114.328468,50.915165 114.588081,50.720940 115.147636,50.013485 
	C116.344971,48.728317 117.173843,47.864819 118.054855,47.140633 
	C118.192062,47.330261 118.277122,47.380573 118.362190,47.430882 
	C118.241867,47.288151 118.121552,47.145420 117.998657,46.747314 
	C117.992981,46.321712 117.989876,46.151485 118.167786,45.789585 
	C119.564743,45.066696 120.780701,44.535484 122.051407,44.144260 
	C122.194061,44.333225 122.281967,44.382195 122.369873,44.431164 
	C122.248009,44.286327 122.126144,44.141491 121.895676,43.776028 
	C121.587326,43.280296 121.326027,43.089439 121.002625,42.740955 
	C121.002068,42.499084 121.001999,42.015343 121.322624,41.969414 
	C122.094994,41.282223 122.546738,40.640961 123.201797,39.859688 
	C123.775711,40.519634 124.146309,41.319595 124.453026,41.981667 
	C126.173599,41.405334 127.796097,40.861855 129.815155,40.185539 
	C128.201309,38.761414 127.040955,37.737461 125.880592,36.713509 
	C126.737785,36.521988 127.594986,36.330471 129.054962,36.073212 
	C131.950272,36.763412 134.242798,37.519356 136.535309,38.275303 
	C136.701645,37.991192 136.867966,37.707081 137.034286,37.422974 
	C135.368729,36.315830 133.703171,35.208691 132.037613,34.101551 
	C132.315765,33.920643 132.553909,33.697113 133.227509,33.211647 
	C134.801895,32.064411 135.900803,31.136490 136.999710,30.208569 
	C136.999710,30.208570 137.355927,29.982990 137.897537,29.957050 
	C138.940155,29.575460 139.441162,29.219810 139.942169,28.864161 
	C139.942169,28.864161 139.978165,28.939013 140.186646,28.842926 
	C140.585480,28.455307 140.775818,28.163776 140.966156,27.872242 
	C142.008026,27.234787 143.049896,26.597334 144.672897,25.888500 
	C145.496445,25.568071 145.738876,25.319021 145.981293,25.069973 
	C148.764801,23.751707 151.548325,22.433441 154.950928,21.394646 
	C156.484802,21.741356 157.399597,21.808601 158.314377,21.875847 
	C158.996185,21.933064 159.678009,21.990278 160.677246,22.577194 
	C161.167877,24.972254 161.341064,26.837614 161.593994,29.561758 
	C163.271210,27.355717 164.181503,26.158422 165.091782,24.961128 
	C165.272995,24.955328 165.454208,24.949530 165.908356,24.947607 
	C166.181305,24.951485 166.140915,25.299429 166.137726,25.686771 
	C166.417786,26.071341 166.701035,26.068565 166.984268,26.065794 
	C167.491486,26.311073 167.998718,26.556351 168.714172,27.280436 
	C168.654831,28.890524 168.387253,30.021801 168.072403,31.352875 
	C170.370972,30.828814 172.179596,30.416456 173.988235,30.004097 
	C173.988235,30.004097 174.000580,29.999237 173.998077,30.333267 
	C173.990311,31.104725 173.985046,31.542154 173.684723,31.986374 
	C172.833908,32.146763 172.278152,32.300362 171.722397,32.453957 
	C171.948822,32.792973 172.175262,33.131981 172.401703,33.470989 
	C172.939240,32.987038 173.476776,32.503090 174.288055,32.017933 
	C174.744278,32.019451 174.926758,32.022175 175.109253,32.024902 
	C176.172226,32.344845 177.235214,32.664791 178.658661,32.967289 
	C179.019119,32.949841 179.015274,32.990665 179.101440,33.188114 
	C179.524902,33.286758 179.862167,33.187954 180.199448,33.089149 
	C180.199448,33.089146 180.443436,33.174164 180.733505,33.354183 
	C181.346603,33.678459 181.669632,33.822716 181.992661,33.966972 
	C182.469574,34.211235 182.946472,34.455502 183.762482,35.063652 
	C184.330490,35.695160 184.620346,35.843636 184.971191,35.872967 
	C184.971191,35.872967 185.348053,36.068779 185.624420,36.329300 
	C185.900787,36.589821 185.990601,37.056484 185.837692,37.346527 
	C183.983887,37.771626 182.282990,37.906681 180.663071,38.035309 
	C181.713135,41.801266 182.904327,46.073299 184.111893,50.404095 
	C184.819290,50.460411 186.651489,50.606270 188.651932,50.765522 
	C189.608002,48.217167 190.982376,46.630154 194.174164,49.594707 
	C195.271332,50.613766 197.362381,50.562767 199.005035,51.349083 
	C199.676025,52.656166 200.341370,53.614780 201.006714,54.573391 
	C201.405777,54.166721 201.804840,53.760052 202.203903,53.353378 
	C201.136139,52.568718 200.068375,51.784054 199.033737,50.654823 
	C200.164948,49.144566 201.263031,47.978874 202.361115,46.813187 
	C202.737762,46.883568 203.114410,46.953949 203.754150,47.510822 
	C204.017258,50.828495 204.017258,53.659676 204.017258,57.808506 
	C208.137604,56.823490 212.271423,55.835258 216.405228,54.847023 
	C221.995224,55.580620 222.964310,59.519676 222.928314,64.594093 
	C222.857620,68.132965 222.742645,71.264420 222.420105,74.742020 
	C222.212570,71.013969 222.212570,66.939758 222.212570,61.741032 
	C216.823792,64.845093 212.349930,67.422142 207.214233,69.917877 
	C205.703049,70.558121 204.853699,71.279671 204.004349,72.001221 
	C202.923904,72.617126 201.843460,73.233040 200.117340,73.962570 
	C199.019028,74.510750 198.566376,74.945312 198.113708,75.379868 
	C185.947723,82.480972 173.908524,89.813324 161.560501,96.582359 
	C155.682404,99.804672 150.000580,97.931679 144.462326,94.297501 
	C136.988586,89.393272 129.071335,85.164932 121.212723,80.016006 
	C121.721344,77.924515 122.361626,76.463570 123.275078,75.098389 
	C124.187439,74.321472 124.826630,73.448799 125.465820,72.576126 
	C124.952995,72.356102 124.440178,72.136086 123.927353,71.916069 
	C123.617523,72.943336 123.307693,73.970596 122.671066,74.950928 
	C121.436852,74.405502 120.529434,73.907013 119.397293,73.285065 
	C118.810287,75.245346 118.341705,76.810173 117.873123,78.374992 
	C113.723717,76.091995 109.574303,73.808998 105.441795,70.992935 
	C107.084312,68.760735 111.448708,72.972038 111.553322,67.187134 
	C108.134674,69.768028 106.367096,68.793198 106.418030,65.000885 
	C108.221466,65.001305 109.608711,65.002686 111.209808,65.262344 
	C112.469566,65.520630 113.515465,65.520630 114.561356,65.520630 
	C114.534241,65.158722 114.507118,64.796814 114.480003,64.434906 
	C113.320717,64.622101 112.161430,64.809303 110.771835,64.727539 
	C109.027328,64.638489 107.513138,64.818398 105.651772,64.963661 
	C101.828529,63.393280 98.350998,61.767574 94.953156,65.095520 
M112.712379,73.102676 
	C112.812561,73.071770 112.912743,73.040871 113.287102,72.893753 
	C113.188004,72.924789 113.088898,72.955826 112.712379,73.102676 
M160.109848,64.924782 
	C163.021317,63.143940 165.932770,61.363094 168.952240,59.516190 
	C157.284576,50.735119 154.247330,50.757698 143.942078,59.692410 
	C147.461929,61.729027 150.788330,63.957062 154.388016,65.578346 
	C155.717239,66.177025 157.690002,65.346886 160.109848,64.924782 
M120.460571,65.924606 
	C121.763306,62.775524 121.686569,62.676323 116.845428,61.934654 
	C118.003365,63.508038 118.907425,64.736458 120.460571,65.924606 
M157.965958,27.452873 
	C157.728821,21.582933 154.343597,24.636280 152.103943,24.483580 
	C154.127396,25.759573 155.934433,26.899107 157.965958,27.452873 
M125.073288,64.647186 
	C125.419922,65.235954 125.766556,65.824730 126.113174,66.413490 
	C126.381874,65.907402 126.995201,65.132324 126.851456,64.948166 
	C126.491882,64.487480 125.788956,64.294807 125.073288,64.647186 
M117.227448,67.391357 
	C116.881966,67.907112 116.536476,68.422867 116.190987,68.938622 
	C116.434067,69.039139 116.870064,69.257027 116.891106,69.222450 
	C117.174721,68.756302 117.400574,68.255005 117.227448,67.391357 
M144.559891,30.366182 
	C144.171982,30.059113 143.784058,29.752043 143.396149,29.444971 
	C143.195953,29.820616 142.995758,30.196259 142.795563,30.571907 
	C143.251724,30.631752 143.707870,30.691595 144.559891,30.366182 
M116.297585,73.429779 
	C116.010918,73.703621 115.724251,73.977455 115.437584,74.251297 
	C115.551163,74.369995 115.757248,74.598122 115.764992,74.591591 
	C116.067207,74.336159 116.351341,74.059334 116.297585,73.429779 
M200.411530,69.482277 
	C200.411530,69.482277 200.523514,69.415161 200.411530,69.482277 
M122.516541,62.411324 
	C122.516541,62.411324 122.583458,62.523582 122.516541,62.411324 
M116.483063,55.586781 
	C116.483063,55.586781 116.417358,55.476639 116.483063,55.586781 
z"/>
<path fill="#7BC0F3" opacity="1.000000" stroke="none" 
	d="
M202.136307,46.546295 
	C201.263031,47.978874 200.164948,49.144566 199.033432,50.655128 
	C199.000000,51.000000 198.999390,51.000610 198.999390,51.000610 
	C197.362381,50.562767 195.271332,50.613766 194.174164,49.594707 
	C190.982376,46.630154 189.608002,48.217167 188.651932,50.765522 
	C186.651489,50.606270 184.819290,50.460411 184.111893,50.404095 
	C182.904327,46.073299 181.713135,41.801266 180.663071,38.035309 
	C182.282990,37.906681 183.983887,37.771626 186.193588,37.362244 
	C187.397278,37.243652 188.092178,37.399384 188.787064,37.555115 
	C193.161880,40.463211 197.536682,43.371307 202.136307,46.546295 
z"/>
<path fill="#7BC0F3" opacity="1.000000" stroke="none" 
	d="
M216.225403,54.547180 
	C212.271423,55.835258 208.137604,56.823490 204.017258,57.808506 
	C204.017258,53.659676 204.017258,50.828495 204.008072,47.649521 
	C208.014450,49.616936 212.029999,51.932137 216.225403,54.547180 
M207.988358,53.313248 
	C207.611862,52.702209 207.235367,52.091171 206.858871,51.480125 
	C206.564987,52.277534 206.271103,53.074940 205.977219,53.872349 
	C206.650146,53.891491 207.323074,53.910637 207.988358,53.313248 
z"/>
<path fill="#F7FCFC" opacity="1.000000" stroke="none" 
	d="
M188.826157,37.194069 
	C188.092178,37.399384 187.397278,37.243652 186.346497,37.072201 
	C185.990601,37.056484 185.900787,36.589821 185.834213,36.362175 
	C186.800171,36.367367 187.832718,36.600197 188.826157,37.194069 
z"/>
<path fill="#F7FCFC" opacity="1.000000" stroke="none" 
	d="
M179.912369,33.052807 
	C179.862167,33.187954 179.524902,33.286758 179.117798,33.180702 
	C179.240402,32.989380 179.432846,33.002922 179.912369,33.052807 
z"/>
<path fill="#F7FCFC" opacity="1.000000" stroke="none" 
	d="
M181.845810,33.734428 
	C181.669632,33.822716 181.346603,33.678459 180.857758,33.318893 
	C181.027618,33.236351 181.363297,33.369122 181.845810,33.734428 
z"/>
<path fill="#F7FCFC" opacity="1.000000" stroke="none" 
	d="
M184.846222,35.664993 
	C184.620346,35.843636 184.330490,35.695160 183.993790,35.199898 
	C184.214310,35.047943 184.492737,35.209530 184.846222,35.664993 
z"/>
<path fill="#F7FCFC" opacity="1.000000" stroke="none" 
	d="
M192.448425,35.533314 
	C192.414368,35.476677 192.482483,35.589951 192.448425,35.533314 
z"/>
<path fill="#F7FCFC" opacity="1.000000" stroke="none" 
	d="
M190.466858,36.448792 
	C190.523239,36.414951 190.410477,36.482628 190.466858,36.448792 
z"/>
<path fill="#7DC2F6" opacity="1.000000" stroke="none" 
	d="
M112.984818,53.988297 
	C111.144135,51.319973 106.331779,53.338207 105.101433,49.029427 
	C106.268631,47.929604 107.760445,46.995750 109.579369,45.995571 
	C111.174126,47.420399 112.441765,48.911556 113.854881,50.710274 
	C114.448563,51.957516 114.896767,52.897198 115.344978,53.836884 
	C114.717728,53.985573 114.090477,54.134262 113.231476,54.141441 
	C112.999733,53.999935 112.984818,53.988297 112.984818,53.988297 
z"/>
<path fill="#7EC1F5" opacity="1.000000" stroke="none" 
	d="
M125.553154,36.802090 
	C127.040955,37.737461 128.201309,38.761414 129.815155,40.185539 
	C127.796097,40.861855 126.173599,41.405334 124.453026,41.981667 
	C124.146309,41.319595 123.775711,40.519634 122.871193,39.860981 
	C121.896599,40.006626 121.455933,40.010963 120.967163,39.964199 
	C120.919067,39.913094 120.825035,39.808884 120.825035,39.808884 
	C122.291931,38.836143 123.758820,37.863407 125.553154,36.802090 
z"/>
<path fill="#84C9FA" opacity="1.000000" stroke="none" 
	d="
M121.996658,44.004272 
	C120.780701,44.535484 119.564743,45.066696 117.855408,45.661705 
	C116.238144,44.861233 115.114265,43.996971 113.990387,43.132706 
	C113.990387,43.132706 114.456657,43.005653 115.132538,42.997330 
	C117.540009,42.986946 119.271591,42.984886 121.003181,42.982826 
	C121.326027,43.089439 121.587326,43.280296 121.893539,43.777702 
	C122.000000,44.000000 121.996658,44.004272 121.996658,44.004272 
z"/>
<path fill="#7EC1F5" opacity="1.000000" stroke="none" 
	d="
M131.661194,34.079712 
	C133.703171,35.208691 135.368729,36.315830 137.034286,37.422974 
	C136.867966,37.707081 136.701645,37.991192 136.535309,38.275303 
	C134.242798,37.519356 131.950272,36.763412 129.264206,35.999130 
	C128.906921,35.554672 128.943192,35.118561 129.003510,34.355328 
	C129.779968,34.038097 130.532364,34.047985 131.661194,34.079712 
z"/>
<path fill="#7DC2F6" opacity="1.000000" stroke="none" 
	d="
M113.738495,43.076172 
	C115.114265,43.996971 116.238144,44.861233 117.674400,45.853378 
	C117.989876,46.151485 117.992981,46.321712 117.998047,46.745972 
	C118.000000,47.000000 118.002716,47.001324 118.002716,47.001320 
	C117.173843,47.864819 116.344971,48.728317 115.255066,49.791008 
	C114.327118,47.889549 113.660194,45.788902 112.986572,43.304417 
	C113.148781,42.953590 113.317696,42.986610 113.738495,43.076172 
z"/>
<path fill="#7EC1F5" opacity="1.000000" stroke="none" 
	d="
M121.002625,42.740955 
	C119.271591,42.984886 117.540009,42.986946 115.373718,42.982597 
	C116.681160,41.969433 118.423309,40.962685 120.495239,39.882408 
	C120.825035,39.808884 120.919067,39.913094 120.961632,40.297249 
	C121.003464,41.126049 121.002731,41.570698 121.001999,42.015343 
	C121.001999,42.015343 121.002068,42.499084 121.002625,42.740955 
z"/>
<path fill="#7EC1F5" opacity="1.000000" stroke="none" 
	d="
M136.661713,30.206116 
	C135.900803,31.136490 134.801895,32.064411 133.345184,32.995712 
	C133.025406,32.664036 133.063431,32.328983 133.178833,31.756176 
	C134.278717,31.080172 135.301224,30.641916 136.661713,30.206116 
z"/>
<path fill="#7EC1F5" opacity="1.000000" stroke="none" 
	d="
M139.626404,28.874016 
	C139.441162,29.219810 138.940155,29.575460 138.104874,29.918903 
	C138.283951,29.565754 138.797302,29.224813 139.626404,28.874016 
z"/>
<path fill="#7EC1F5" opacity="1.000000" stroke="none" 
	d="
M145.731781,25.032940 
	C145.738876,25.319021 145.496445,25.568071 144.988449,25.866829 
	C144.767288,25.752550 144.811691,25.588564 144.919067,25.177347 
	C145.148804,24.952049 145.315536,24.973980 145.731781,25.032940 
z"/>
<path fill="#7EC1F5" opacity="1.000000" stroke="none" 
	d="
M140.716766,27.970718 
	C140.775818,28.163776 140.585480,28.455307 140.145172,28.841125 
	C140.085922,28.646675 140.276657,28.357935 140.716766,27.970718 
z"/>
<path fill="#7EC1F5" opacity="1.000000" stroke="none" 
	d="
M164.913513,24.693140 
	C164.181503,26.158422 163.271210,27.355717 161.593994,29.561758 
	C161.341064,26.837614 161.167877,24.972254 160.990265,22.718178 
	C162.235657,23.028027 163.485443,23.726587 164.913513,24.693140 
z"/>
<path fill="#7EC1F5" opacity="1.000000" stroke="none" 
	d="
M158.242218,21.654842 
	C157.399597,21.808601 156.484802,21.741356 155.323669,21.441723 
	C155.821304,21.149727 156.565277,21.090118 157.684875,21.006224 
	C158.060486,20.981939 158.170044,21.433836 158.242218,21.654842 
z"/>
<path fill="#7EC1F5" opacity="1.000000" stroke="none" 
	d="
M173.801559,29.735752 
	C172.179596,30.416456 170.370972,30.828814 168.072403,31.352875 
	C168.387253,30.021801 168.654831,28.890524 168.958344,27.424526 
	C170.534485,27.882341 172.074677,28.674875 173.801559,29.735752 
z"/>
<path fill="#7EC1F5" opacity="1.000000" stroke="none" 
	d="
M173.979797,31.979582 
	C173.985046,31.542154 173.990311,31.104725 173.996002,30.339325 
	C174.515396,30.572834 175.034378,31.134314 175.331299,31.860348 
	C174.926758,32.022175 174.744278,32.019451 174.280121,32.007626 
	C173.998444,31.998526 173.979797,31.979582 173.979797,31.979582 
z"/>
<path fill="#7EC1F5" opacity="1.000000" stroke="none" 
	d="
M166.776917,25.939991 
	C166.701035,26.068565 166.417786,26.071341 166.124084,25.861378 
	C166.113602,25.648643 166.569550,25.814192 166.776917,25.939991 
z"/>
<path fill="#FDFEFE" opacity="1.000000" stroke="none" 
	d="
M222.976990,132.000092 
	C223.665283,131.847855 224.049240,131.935272 224.716843,132.452667 
	C225.696991,133.188660 226.393478,133.494690 227.089966,133.800705 
	C227.089966,133.800705 227.565186,133.911255 227.922928,134.212143 
	C228.576309,134.656464 228.871948,134.799881 229.167587,134.943298 
	C229.678986,135.133224 230.190384,135.323151 230.862289,135.739655 
	C228.992386,136.322052 226.805344,137.303284 224.978622,136.845779 
	C223.370590,136.443085 220.636566,135.151947 222.976990,132.000092 
z"/>
<path fill="#FDFEFE" opacity="1.000000" stroke="none" 
	d="
M229.986801,142.017105 
	C230.215302,141.520493 230.435440,140.993271 230.727478,140.509445 
	C230.757919,140.459015 231.214310,140.665695 231.473083,140.753082 
	C231.161987,141.148819 230.850876,141.544540 230.251480,141.983566 
	C229.963181,142.026855 229.999054,141.998932 229.986801,142.017105 
z"/>
<path fill="#F5FAFA" opacity="1.000000" stroke="none" 
	d="
M226.940369,133.575302 
	C226.393478,133.494690 225.696991,133.188660 224.988800,132.571045 
	C225.581665,132.622925 226.186234,132.986420 226.940369,133.575302 
z"/>
<path fill="#F5FAFA" opacity="1.000000" stroke="none" 
	d="
M229.034760,134.730042 
	C228.871948,134.799881 228.576309,134.656464 228.150269,134.300674 
	C228.313889,134.231140 228.607910,134.373962 229.034760,134.730042 
z"/>
<path fill="#F7FBFB" opacity="1.000000" stroke="none" 
	d="
M90.941078,56.918526 
	C90.922272,56.908936 90.449249,56.869015 90.214935,56.829041 
	C89.163979,55.431095 88.506088,53.936508 87.487213,52.752579 
	C86.412399,51.503643 84.993126,50.551144 83.724335,49.469139 
	C84.038460,49.049957 84.352585,48.630775 84.666710,48.211590 
	C85.923149,48.604557 87.179588,48.997520 89.126175,49.606331 
	C88.734093,47.375793 88.405968,45.509068 88.045906,43.246635 
	C92.221825,45.056553 96.429688,47.262177 101.237724,49.782398 
	C99.421028,51.241272 98.224037,52.202499 96.925072,53.464081 
	C96.823097,53.764439 96.853317,53.810127 96.519859,53.838341 
	C94.442230,54.900124 92.698051,55.933701 90.953880,56.967274 
	C90.953880,56.967274 90.959885,56.928112 90.941078,56.918526 
z"/>
<path fill="#F7FBFB" opacity="1.000000" stroke="none" 
	d="
M73.045120,34.246254 
	C76.319237,35.671318 79.571922,37.500698 83.035065,39.609669 
	C79.945740,39.889263 76.645973,39.889263 73.023697,39.889263 
	C73.023697,37.608089 73.023697,36.129330 73.045120,34.246254 
z"/>
<path fill="#F7FBFB" opacity="1.000000" stroke="none" 
	d="
M82.963905,56.605526 
	C79.427353,54.909096 75.851944,52.864006 72.064529,50.565788 
	C74.295914,50.208652 76.739296,50.104637 79.591339,50.000313 
	C80.000000,50.000000 79.999695,49.999725 79.999695,49.999725 
	C80.974808,52.085442 81.949928,54.171154 82.963905,56.605526 
z"/>
<path fill="#F7FBFB" opacity="1.000000" stroke="none" 
	d="
M80.000153,50.000153 
	C80.092804,49.964226 80.185295,49.928150 80.138748,49.945900 
	C79.999695,49.999725 80.000000,50.000000 80.000153,50.000153 
z"/>
<path fill="#85C8FA" opacity="1.000000" stroke="none" 
	d="
M214.243439,83.017761 
	C215.071945,80.116714 216.224487,77.364983 217.569443,74.153854 
	C218.771606,75.868324 219.489334,76.891930 220.554077,77.917442 
	C220.562988,78.921051 219.650269,80.522942 219.974213,80.833076 
	C223.904312,84.595497 222.429092,86.924477 218.190048,88.786964 
	C216.718140,89.433670 215.335587,90.283676 213.293060,90.929977 
	C212.456467,90.272987 212.239029,89.726868 212.021606,89.180740 
	C214.183167,87.756569 216.344711,86.332397 218.941055,84.621765 
	C217.153427,84.027191 215.860443,83.597130 214.243439,83.017761 
z"/>
<path fill="#8EC8F6" opacity="1.000000" stroke="none" 
	d="
M211.723511,89.233353 
	C212.239029,89.726868 212.456467,90.272987 212.937775,90.980652 
	C212.037689,91.783234 210.873703,92.424271 209.372986,92.830154 
	C209.026825,92.102211 209.017380,91.609428 209.007950,91.116638 
	C209.813782,90.506424 210.619614,89.896194 211.723511,89.233353 
z"/>
<path fill="#91CDF9" opacity="1.000000" stroke="none" 
	d="
M208.712494,91.106567 
	C209.017380,91.609428 209.026825,92.102211 209.065659,92.968033 
	C208.629898,93.607483 208.164749,93.873894 207.425140,94.145157 
	C207.104523,93.664642 207.058334,93.179276 207.002747,92.328949 
	C207.467911,91.674820 207.942459,91.385658 208.712494,91.106567 
z"/>
<path fill="#98D0F8" opacity="1.000000" stroke="none" 
	d="
M195.970016,92.807999 
	C196.853271,90.152359 194.774582,86.348579 199.345566,85.824730 
	C199.697586,86.870026 200.048767,87.912857 200.714737,89.117569 
	C200.584152,90.612297 200.354614,92.076385 199.642746,93.247200 
	C198.579697,94.995598 197.188614,96.022766 195.970016,92.807999 
z"/>
<path fill="#76C1F5" opacity="1.000000" stroke="none" 
	d="
M143.066895,108.663483 
	C143.521759,106.979881 144.158524,105.577736 144.795288,104.175591 
	C145.228333,104.052383 145.661377,103.929176 146.094421,103.805969 
	C146.923279,106.314186 147.752136,108.822403 148.779541,111.660431 
	C145.518311,113.891258 144.215530,111.734200 143.066895,108.663483 
z"/>
<path fill="#74BEF6" opacity="1.000000" stroke="none" 
	d="
M125.018555,98.383698 
	C124.995293,96.412949 124.995293,94.791168 124.995293,92.907944 
	C129.948959,93.272575 128.605515,96.764549 128.829376,99.772385 
	C126.139580,103.341591 125.498207,101.275169 125.018555,98.383698 
z"/>
<path fill="#7CC3F9" opacity="1.000000" stroke="none" 
	d="
M106.023155,87.338638 
	C106.068169,85.396416 106.147758,83.816795 106.239609,81.993912 
	C111.465126,82.712532 109.229294,86.567108 110.075722,89.349274 
	C107.337555,91.920494 106.371712,90.456375 106.023155,87.338638 
z"/>
<path fill="#7AC5F7" opacity="1.000000" stroke="none" 
	d="
M164.114334,110.997116 
	C163.974197,109.495522 163.775055,108.072304 164.208893,106.879257 
	C164.596848,105.812279 165.682922,104.999153 166.460983,104.074020 
	C166.949188,105.144463 167.437393,106.214905 167.965149,107.683983 
	C167.688477,109.331177 167.479324,110.630150 166.940781,111.774033 
	C166.859787,111.946045 165.239182,111.393196 164.114334,110.997116 
z"/>
<path fill="#7FC5F7" opacity="1.000000" stroke="none" 
	d="
M132.899689,97.059692 
	C134.086853,99.535622 135.274033,102.011543 136.680695,104.783447 
	C134.738907,104.748352 131.287521,107.192017 131.101074,101.883728 
	C131.036392,100.991768 131.059830,100.640152 131.083282,100.288528 
	C131.097336,99.771484 131.111389,99.254448 131.390274,98.243904 
	C132.069962,97.520172 132.484833,97.289932 132.899689,97.059692 
z"/>
<path fill="#7BC3F6" opacity="1.000000" stroke="none" 
	d="
M183.149475,100.054489 
	C183.704041,97.530724 181.937973,93.980804 186.437119,93.083992 
	C186.613815,94.198395 186.774887,95.214264 186.965927,96.619232 
	C186.525375,98.848289 186.054871,100.688248 185.243027,103.862953 
	C184.107849,101.648178 183.751022,100.952011 183.149475,100.054489 
z"/>
<path fill="#80C4F8" opacity="1.000000" stroke="none" 
	d="
M112.199310,90.663170 
	C112.184959,88.845291 112.314247,87.314331 112.443527,85.783363 
	C113.056847,85.658730 113.670174,85.534096 114.283493,85.409454 
	C115.094559,87.959908 115.905617,90.510353 116.918549,93.368607 
	C113.792961,95.807899 113.005882,93.487747 112.199310,90.663170 
z"/>
<path fill="#7EC4F8" opacity="1.000000" stroke="none" 
	d="
M176.967224,103.740692 
	C176.972000,102.230049 176.790436,100.995880 177.126617,99.924103 
	C177.461639,98.856125 178.316010,97.951057 178.942688,96.974564 
	C179.555573,97.939064 180.168472,98.903557 180.834137,100.309319 
	C180.542831,101.819962 180.460281,103.137222 179.763519,103.872276 
	C179.292816,104.368851 177.956757,104.045135 176.967224,103.740692 
z"/>
<path fill="#7FC5F7" opacity="1.000000" stroke="none" 
	d="
M190.002655,96.242188 
	C190.295654,93.675369 190.592270,91.447960 190.888885,89.220558 
	C191.406128,89.244522 191.923386,89.268478 192.440628,89.292435 
	C192.791351,90.440857 193.142075,91.589272 193.782059,92.972595 
	C193.612747,94.572304 193.431793,96.140030 192.621887,97.248047 
	C191.709824,98.495834 190.175919,99.535233 190.002655,96.242188 
z"/>
<path fill="#8ECFF8" opacity="1.000000" stroke="none" 
	d="
M202.938416,89.150208 
	C203.284378,86.587425 203.613495,84.378479 203.942612,82.169533 
	C204.468933,82.233269 204.995255,82.296997 205.521576,82.360725 
	C205.657104,83.366989 205.792648,84.373253 205.966446,85.771805 
	C205.859818,87.574646 205.714920,88.985199 205.570038,90.395744 
	C204.687210,90.098511 203.804398,89.801277 202.938416,89.150208 
z"/>
<path fill="#7CC2F8" opacity="1.000000" stroke="none" 
	d="
M209.062531,86.252670 
	C209.091721,84.133156 208.942261,82.292229 209.394485,80.613373 
	C209.583344,79.912239 211.051270,79.555641 211.937637,79.042389 
	C212.073349,79.892494 212.209045,80.742607 212.254837,81.865448 
	C212.036148,83.451004 212.134308,84.854561 211.664032,86.030846 
	C211.482452,86.485001 210.010712,86.423347 209.062531,86.252670 
z"/>
<path fill="#7FC5F7" opacity="1.000000" stroke="none" 
	d="
M170.943741,107.270889 
	C171.155914,104.713821 171.342453,102.484726 171.528992,100.255623 
	C172.145905,100.246162 172.762817,100.236702 173.379715,100.227234 
	C173.582138,101.318130 173.784561,102.409019 173.998108,103.909592 
	C173.606674,105.786392 173.204102,107.253517 172.801514,108.720642 
	C172.173706,108.346718 171.545914,107.972786 170.943741,107.270889 
z"/>
<path fill="#74BEF6" opacity="1.000000" stroke="none" 
	d="
M130.715836,100.249893 
	C131.059830,100.640152 131.036392,100.991768 131.018265,101.608574 
	C130.386673,101.504242 129.749786,101.134727 128.993347,100.514679 
	C129.365341,100.246521 129.856857,100.228889 130.715836,100.249893 
z"/>
<path fill="#7FC5F7" opacity="1.000000" stroke="none" 
	d="
M169.151031,107.804344 
	C169.101425,107.568535 169.297821,107.292328 169.753479,107.021553 
	C169.944672,107.387276 169.739456,107.632935 169.151031,107.804344 
z"/>
<path fill="#7DC2F6" opacity="1.000000" stroke="none" 
	d="
M106.001831,65.001831 
	C106.367096,68.793198 108.134674,69.768028 111.553322,67.187134 
	C111.448708,72.972038 107.084312,68.760735 105.230011,70.726974 
	C104.687721,70.962898 104.409126,70.847328 104.037445,70.138916 
	C103.252815,69.462265 102.596283,69.294083 101.939751,69.125900 
	C99.755516,67.948914 97.571281,66.771935 95.170105,65.345230 
	C98.350998,61.767574 101.828529,63.393280 105.652298,64.964508 
	C106.000000,65.000000 106.001831,65.001831 106.001831,65.001831 
z"/>
<path fill="#7DC2F6" opacity="1.000000" stroke="none" 
	d="
M123.001907,75.002632 
	C122.361626,76.463570 121.721344,77.924515 121.020798,79.738785 
	C120.073502,79.652634 119.186462,79.213158 118.086273,78.574341 
	C118.341705,76.810173 118.810287,75.245346 119.397293,73.285065 
	C120.529434,73.907013 121.436852,74.405502 122.672134,74.951996 
	C123.000000,75.000000 123.001915,75.002632 123.001907,75.002632 
z"/>
<path fill="#8DCBFA" opacity="1.000000" stroke="none" 
	d="
M95.010422,60.996162 
	C94.198433,61.670357 93.386444,62.344547 92.203941,63.056160 
	C91.833427,63.093586 91.405945,62.986145 91.224472,62.860092 
	C91.343163,61.706810 91.643318,60.679581 91.971191,59.325119 
	C92.445129,58.998642 92.891357,58.999393 93.691872,59.297924 
	C94.367577,60.062523 94.688995,60.529343 95.010422,60.996162 
z"/>
<path fill="#75BFF5" opacity="1.000000" stroke="none" 
	d="
M204.319397,71.955399 
	C204.853699,71.279671 205.703049,70.558121 206.871124,69.978531 
	C206.338043,70.716843 205.486252,71.313202 204.319397,71.955399 
z"/>
<path fill="#7AC1F6" opacity="1.000000" stroke="none" 
	d="
M102.108994,69.365158 
	C102.596283,69.294083 103.252815,69.462265 103.898788,69.956879 
	C103.351562,70.057007 102.814896,69.830711 102.108994,69.365158 
z"/>
<path fill="#74BEF6" opacity="1.000000" stroke="none" 
	d="
M132.744629,96.854660 
	C132.484833,97.289932 132.069962,97.520172 131.445770,97.859985 
	C131.687485,97.529579 132.138519,97.089600 132.744629,96.854660 
z"/>
<path fill="#75BFF5" opacity="1.000000" stroke="none" 
	d="
M198.408020,75.278534 
	C198.566376,74.945312 199.019028,74.510750 199.816162,74.070999 
	C199.674515,74.436279 199.188400,74.806732 198.408020,75.278534 
z"/>
<path fill="#075393" opacity="1.000000" stroke="none" 
	d="
M159.739548,65.046600 
	C157.690002,65.346886 155.717239,66.177025 154.388016,65.578346 
	C150.788330,63.957062 147.461929,61.729027 143.942078,59.692410 
	C154.247330,50.757698 157.284576,50.735119 168.952240,59.516190 
	C165.932770,61.363094 163.021317,63.143940 159.739548,65.046600 
z"/>
<path fill="#7DC2F6" opacity="1.000000" stroke="none" 
	d="
M120.136032,65.944740 
	C118.907425,64.736458 118.003365,63.508038 116.845428,61.934654 
	C121.686569,62.676323 121.763306,62.775524 120.136032,65.944740 
z"/>
<path fill="#7EC1F5" opacity="1.000000" stroke="none" 
	d="
M157.853729,27.745756 
	C155.934433,26.899107 154.127396,25.759573 152.103943,24.483580 
	C154.343597,24.636280 157.728821,21.582933 157.853729,27.745756 
z"/>
<path fill="#7DC2F6" opacity="1.000000" stroke="none" 
	d="
M91.346909,56.978630 
	C92.698051,55.933701 94.442230,54.900124 96.538361,53.858536 
	C95.173523,54.897011 93.456726,55.943501 91.346909,56.978630 
z"/>
<path fill="#7BC0F3" opacity="1.000000" stroke="none" 
	d="
M199.000305,50.999695 
	C200.068375,51.784054 201.136139,52.568718 202.203903,53.353378 
	C201.804840,53.760052 201.405777,54.166721 201.006714,54.573391 
	C200.341370,53.614780 199.676025,52.656166 199.005035,51.349083 
	C198.999390,51.000610 199.000000,51.000000 199.000305,50.999695 
z"/>
<path fill="#7DC2F6" opacity="1.000000" stroke="none" 
	d="
M125.148537,64.320892 
	C125.788956,64.294807 126.491882,64.487480 126.851456,64.948166 
	C126.995201,65.132324 126.381874,65.907402 126.113174,66.413498 
	C125.766556,65.824730 125.419922,65.235954 125.148537,64.320892 
z"/>
<path fill="#7DC2F6" opacity="1.000000" stroke="none" 
	d="
M122.998932,74.998932 
	C123.307693,73.970596 123.617523,72.943336 123.927353,71.916069 
	C124.440178,72.136086 124.952995,72.356102 125.465820,72.576126 
	C124.826630,73.448799 124.187439,74.321472 123.275085,75.098389 
	C123.001915,75.002632 123.000000,75.000000 122.998932,74.998932 
z"/>
<path fill="#7DC2F6" opacity="1.000000" stroke="none" 
	d="
M111.002144,64.996498 
	C112.161430,64.809303 113.320717,64.622101 114.480003,64.434906 
	C114.507118,64.796814 114.534241,65.158722 114.561356,65.520630 
	C113.515465,65.520630 112.469566,65.520630 111.211830,65.260330 
	C110.999985,65.000031 111.002144,64.996498 111.002144,64.996498 
z"/>
<path fill="#7DC2F6" opacity="1.000000" stroke="none" 
	d="
M117.434097,67.576889 
	C117.400574,68.255005 117.174721,68.756302 116.891106,69.222450 
	C116.870064,69.257027 116.434067,69.039139 116.190987,68.938622 
	C116.536476,68.422867 116.881966,67.907112 117.434097,67.576889 
z"/>
<path fill="#7DC2F6" opacity="1.000000" stroke="none" 
	d="
M105.999466,64.999153 
	C107.513138,64.818398 109.027328,64.638489 110.771835,64.727539 
	C111.002144,64.996498 110.999985,65.000031 110.997971,65.002045 
	C109.608711,65.002686 108.221466,65.001305 106.418030,65.000885 
	C106.001831,65.001831 106.000000,65.000000 105.999466,64.999153 
z"/>
<path fill="#7EC1F5" opacity="1.000000" stroke="none" 
	d="
M144.361969,30.558811 
	C143.707870,30.691595 143.251724,30.631752 142.795563,30.571905 
	C142.995758,30.196259 143.195953,29.820616 143.396149,29.444973 
	C143.784058,29.752043 144.171982,30.059113 144.361969,30.558811 
z"/>
<path fill="#84C9FA" opacity="1.000000" stroke="none" 
	d="
M121.322624,41.969414 
	C121.002731,41.570698 121.003464,41.126049 121.009735,40.348354 
	C121.455933,40.010963 121.896599,40.006626 122.667877,40.000992 
	C122.546738,40.640961 122.094994,41.282223 121.322624,41.969414 
z"/>
<path fill="#7EC1F5" opacity="1.000000" stroke="none" 
	d="
M174.006378,32.008835 
	C173.476776,32.503090 172.939240,32.987038 172.401703,33.470989 
	C172.175262,33.131981 171.948822,32.792973 171.722397,32.453957 
	C172.278152,32.300362 172.833908,32.146763 173.684723,31.986374 
	C173.979797,31.979582 173.998444,31.998526 174.006378,32.008835 
z"/>
<path fill="#7DC2F6" opacity="1.000000" stroke="none" 
	d="
M95.237564,60.824501 
	C94.688995,60.529343 94.367577,60.062523 94.026535,59.297302 
	C94.492836,59.550217 94.978767,60.101532 95.237564,60.824501 
z"/>
<path fill="#7DC2F6" opacity="1.000000" stroke="none" 
	d="
M116.467712,73.607544 
	C116.351341,74.059334 116.067207,74.336159 115.764992,74.591591 
	C115.757248,74.598122 115.551163,74.369995 115.437576,74.251297 
	C115.724251,73.977455 116.010918,73.703621 116.467712,73.607544 
z"/>
<path fill="#7DC2F6" opacity="1.000000" stroke="none" 
	d="
M113.012924,73.009964 
	C112.912743,73.040871 112.812561,73.071770 112.856186,73.051270 
	C113.000000,72.999863 113.012924,73.009964 113.012924,73.009964 
z"/>
<path fill="#7DC2F6" opacity="1.000000" stroke="none" 
	d="
M112.994904,72.993362 
	C113.088898,72.955826 113.188004,72.924789 113.150009,72.951859 
	C113.012924,73.009964 113.000000,72.999863 112.994904,72.993362 
z"/>
<path fill="#75BFF5" opacity="1.000000" stroke="none" 
	d="
M200.467529,69.448715 
	C200.523514,69.415161 200.411530,69.482277 200.467529,69.448715 
z"/>
<path fill="#7DC2F6" opacity="1.000000" stroke="none" 
	d="
M122.550003,62.467453 
	C122.583458,62.523582 122.516541,62.411324 122.550003,62.467453 
z"/>
<path fill="#7DC2F6" opacity="1.000000" stroke="none" 
	d="
M116.450211,55.531708 
	C116.417358,55.476639 116.483063,55.586781 116.450211,55.531708 
z"/>
<path fill="#7DC2F6" opacity="1.000000" stroke="none" 
	d="
M113.005554,54.007252 
	C112.911308,54.045006 112.811249,54.075443 112.848007,54.047089 
	C112.984818,53.988297 112.999733,53.999935 113.005554,54.007252 
z"/>
<path fill="#84C9FA" opacity="1.000000" stroke="none" 
	d="
M118.000610,47.001343 
	C118.121552,47.145420 118.241867,47.288151 118.362190,47.430882 
	C118.277122,47.380573 118.192062,47.330261 118.054855,47.140636 
	C118.002716,47.001324 118.000000,47.000000 118.000610,47.001343 
z"/>
<path fill="#84C9FA" opacity="1.000000" stroke="none" 
	d="
M122.002136,43.998329 
	C122.126144,44.141491 122.248009,44.286327 122.369873,44.431164 
	C122.281967,44.382195 122.194061,44.333225 122.051407,44.144264 
	C121.996658,44.004272 122.000000,44.000000 122.002136,43.998329 
z"/>
<path fill="#7AC1F6" opacity="1.000000" stroke="none" 
	d="
M207.992188,53.621513 
	C207.323074,53.910637 206.650146,53.891491 205.977203,53.872345 
	C206.271103,53.074940 206.564987,52.277534 206.858856,51.480129 
	C207.235367,52.091171 207.611862,52.702209 207.992188,53.621513 
z"/>
</svg>