<svg version="1.1" id="Layer_1" xmlns="http://www.w3.org/2000/svg" xmlns:xlink="http://www.w3.org/1999/xlink" x="0px" y="0px"
	 width="100%" viewBox="0 0 225 225" enable-background="new 0 0 225 225" xml:space="preserve">
<path fill="#0152CC" opacity="1.000000" stroke="none" 
	d="
M131.000000,226.000000 
	C87.333336,226.000000 44.166672,226.000000 1.000006,226.000000 
	C1.000004,151.000000 1.000004,76.000015 1.000002,1.000016 
	C75.999992,1.000011 150.999985,1.000011 225.999969,1.000005 
	C225.999985,75.999985 225.999985,150.999969 226.000000,225.999969 
	C194.500000,226.000000 163.000000,226.000000 131.000000,226.000000 
M108.547432,68.084717 
	C108.858337,68.279823 109.169243,68.474930 109.850121,68.894218 
	C109.850121,68.894218 110.032425,69.286514 110.049004,69.949524 
	C111.722984,71.288063 113.396957,72.626602 115.008995,73.985321 
	C115.008995,73.985321 115.011902,73.920250 115.331947,74.534195 
	C119.046082,78.604683 123.939163,79.632668 129.868179,79.974480 
	C132.282974,79.859550 134.697784,79.744621 137.965652,79.480049 
	C140.271576,79.528496 142.577499,79.576942 145.321930,80.148918 
	C146.217010,81.734688 147.720963,83.259453 147.887161,84.918259 
	C148.300735,89.046234 147.798248,93.267174 148.227356,97.392128 
	C148.835312,103.236145 149.321625,109.305862 155.575623,113.396118 
	C158.065720,115.799553 160.555817,118.202980 163.524567,121.006752 
	C164.218124,121.461655 164.911667,121.916557 165.867844,122.875435 
	C166.220215,122.973595 166.572586,123.071754 167.193390,123.410385 
	C167.193390,123.410385 167.532898,123.531288 167.885834,123.956253 
	C168.241547,124.016006 168.597275,124.075760 169.204910,124.402916 
	C169.204910,124.402916 169.544586,124.542892 170.017624,124.926308 
	C170.605392,125.044212 171.193146,125.162117 171.918060,125.052620 
	C171.918060,125.052620 171.805313,125.292809 172.281174,125.822815 
	C174.179794,126.322365 176.053177,126.974754 177.981720,127.292961 
	C183.869797,128.264450 184.171158,127.926956 183.742813,121.740997 
	C183.742813,121.740997 183.918472,121.976196 184.440430,121.332756 
	C184.619934,120.529472 184.955002,119.726433 184.956268,118.922867 
	C184.990799,96.950157 185.015930,74.977318 184.938171,53.004860 
	C184.933334,51.639484 184.075760,50.277130 183.275726,48.583649 
	C182.953949,48.263588 182.632156,47.943527 182.015182,47.142956 
	C181.419113,46.698025 180.823029,46.253094 179.996719,45.307011 
	C179.656525,45.227859 179.316330,45.148708 178.581482,44.879848 
	C178.581482,44.879848 178.143616,44.883789 177.389359,44.531052 
	C154.799774,44.484123 132.210205,44.423218 109.620590,44.409088 
	C106.986351,44.407440 104.351952,44.664360 101.324203,44.819836 
	C101.324203,44.819836 101.023338,45.073997 100.552055,45.168941 
	C100.252853,45.431953 100.226463,45.719982 100.350731,46.855171 
	C100.519424,47.946571 100.688118,49.037971 100.665359,50.552483 
	C100.809174,50.979073 100.952980,51.405659 101.102448,52.602444 
	C101.697723,54.152977 102.292992,55.703510 102.889030,57.651234 
	C102.889030,57.651234 103.136032,57.962280 103.163765,58.653477 
	C104.166542,60.693890 105.169312,62.734306 106.140007,65.500832 
	C106.894470,66.194420 107.648933,66.888008 108.308212,67.714134 
	C108.308212,67.714134 108.340302,67.554146 108.547432,68.084717 
M120.510635,83.962723 
	C120.342010,83.963547 120.173393,83.964371 119.328041,83.486656 
	C118.356621,83.322578 117.386925,83.026680 116.413536,83.014000 
	C98.886765,82.785454 81.359650,82.577362 63.832008,82.445274 
	C63.201817,82.440529 62.565426,83.257484 61.452995,84.240112 
	C61.612656,85.862259 61.772316,87.484398 61.912624,89.898727 
	C65.545349,105.981369 75.207970,115.838455 91.725502,118.262955 
	C97.701637,119.140144 103.779594,119.323677 108.837463,119.743011 
	C109.240677,123.291496 109.564247,126.139145 109.201775,129.302795 
	C108.802368,131.098877 108.535271,132.938461 107.963577,134.677917 
	C107.465973,136.191956 106.624367,137.592926 105.848900,138.125305 
	C105.833298,135.805206 105.874977,133.483032 105.790733,131.165421 
	C105.585052,125.507156 103.170105,123.161026 97.416550,123.098633 
	C94.271729,123.064529 91.125092,123.198158 87.220039,123.136406 
	C86.459991,123.207573 85.699951,123.278732 84.149223,123.203445 
	C82.107872,123.283112 80.066528,123.362770 77.254852,123.323967 
	C75.960159,123.320053 74.665466,123.316139 72.935989,123.072739 
	C72.602600,122.968071 72.278770,122.992134 71.101662,123.090172 
	C69.085182,123.091774 67.068703,123.093384 64.532463,123.056900 
	C64.304413,123.304359 64.076355,123.551826 63.041367,123.906906 
	C61.690006,123.981148 60.338650,124.055389 58.139057,123.986679 
	C56.423824,124.033798 54.708588,124.080910 52.201702,123.972382 
	C51.131855,124.024551 50.062008,124.076714 48.203064,123.960411 
	C47.133301,124.013031 46.063541,124.065651 44.597858,123.950951 
	C44.597858,123.950951 44.173870,123.880318 43.940857,123.389832 
	C43.618359,123.330513 43.295864,123.271194 42.339325,123.099503 
	C41.912838,123.132721 41.486351,123.165932 40.145065,122.945786 
	C35.393467,122.904640 30.640816,122.911102 25.890631,122.806084 
	C22.566116,122.732582 21.207737,123.899734 22.749777,128.019836 
	C24.082085,140.978455 34.776230,153.166824 48.081158,156.689835 
	C51.063900,156.976532 54.046646,157.263229 57.896858,157.737656 
	C60.256878,157.667862 62.616894,157.598083 65.844757,157.771866 
	C67.431778,157.874390 69.018799,157.976929 70.508476,158.073166 
	C70.977638,164.787491 71.420845,171.130264 71.748344,178.225143 
	C75.189369,193.658356 87.534294,205.611023 105.389671,205.978882 
	C105.583069,205.971970 105.776459,205.965073 106.522911,205.876236 
	C106.689499,201.914841 106.856087,197.953430 107.509735,193.993973 
	C107.509735,193.993973 107.996796,193.993591 108.006165,194.781799 
	C108.006165,196.278076 108.006165,197.774353 108.006165,199.270615 
	C108.469002,199.237167 108.931847,199.203705 109.394684,199.170258 
	C108.935677,194.461624 108.476669,189.752991 108.008911,184.148941 
	C108.012955,181.756439 108.016998,179.363953 108.475754,176.290604 
	C108.613396,172.205109 110.088783,167.530121 108.603622,164.159714 
	C105.721222,157.618469 107.987755,152.778000 111.259521,147.562958 
	C112.330132,148.315033 113.381012,149.053253 114.313347,149.780701 
	C114.313347,149.780701 114.345490,149.666107 114.200668,150.437775 
	C114.247208,153.327637 115.206871,155.416061 118.646774,155.434982 
	C118.646774,155.434982 118.664658,155.525711 118.457169,156.204422 
	C119.638123,157.802948 120.819077,159.401474 121.645302,161.378021 
	C121.584053,161.998199 121.522812,162.618362 121.461571,163.238541 
	C121.719635,163.238205 121.977707,163.237885 122.235779,163.237564 
	C122.157082,162.491714 122.078392,161.745850 122.742752,161.007614 
	C123.485588,161.006943 124.228424,161.006287 125.473106,161.015259 
	C125.640411,161.014145 125.807724,161.013046 126.321419,161.540344 
	C126.892624,161.765564 127.463829,161.990799 128.246033,162.617416 
	C128.650681,162.799026 129.055328,162.980637 130.059448,163.626984 
	C134.987762,164.606003 139.916077,165.585037 145.027527,167.036972 
	C145.290253,167.131958 145.552994,167.226959 145.815720,167.321960 
	C145.853897,167.161072 145.925613,167.000168 145.925461,166.839310 
	C145.912033,152.177139 145.902756,137.514923 145.840012,122.852943 
	C145.837448,122.253220 145.328552,121.655655 144.885818,120.177444 
	C144.768127,117.805359 144.650436,115.433266 144.712906,112.274323 
	C144.679794,111.201393 144.646683,110.128456 144.788589,108.127434 
	C144.783066,102.975220 144.689331,97.821106 144.800888,92.671425 
	C144.884949,88.791115 143.487213,85.898872 139.803436,83.859047 
	C139.509415,83.645798 139.236969,83.678635 138.058319,83.977539 
	C133.699783,84.018608 129.341232,84.059677 124.194016,83.978088 
	C123.132133,84.003075 122.070259,84.028053 120.510635,83.962723 
z"/>
<path fill="#FDFEFE" opacity="1.000000" stroke="none" 
	d="
M165.605225,122.371460 
	C164.911667,121.916557 164.218124,121.461655 163.289352,120.428299 
	C161.565292,116.202026 160.076447,112.554222 158.182571,107.914024 
	C157.066864,108.484665 155.520187,109.275726 153.685242,109.845299 
	C148.503738,101.341743 148.913162,92.185356 149.162369,83.099998 
	C149.254730,79.732773 148.253250,78.396378 144.883423,79.625389 
	C142.577499,79.576942 140.271576,79.528496 137.110641,79.398926 
	C133.827850,79.229134 131.400070,79.140465 128.619446,78.925278 
	C123.848381,77.172592 119.430138,75.546425 115.011902,73.920250 
	C115.011902,73.920250 115.008995,73.985321 114.931129,73.694489 
	C114.203773,72.657448 113.554276,71.911240 113.080200,70.936951 
	C114.230881,65.759712 110.990150,65.376617 107.281937,65.248444 
	C107.129082,65.162605 107.014694,64.831299 107.054413,64.508804 
	C107.479881,62.998672 107.865639,61.811039 108.338577,60.354984 
	C106.509262,59.513660 104.822647,58.737972 103.136032,57.962280 
	C103.136032,57.962280 102.889030,57.651234 102.908478,57.034950 
	C101.224709,46.949387 102.021362,45.994820 111.665710,45.994919 
	C134.106796,45.995148 156.547882,45.999752 179.303375,45.985168 
	C179.820831,45.914558 180.023895,45.861359 180.226959,45.808159 
	C180.823029,46.253094 181.419113,46.698025 182.124725,47.773754 
	C182.657867,50.621632 183.081451,52.838715 183.542557,55.519196 
	C183.592758,59.623123 183.599686,63.263676 183.619110,66.904160 
	C183.717117,85.261520 183.818359,103.618851 183.918472,121.976196 
	C183.918472,121.976196 183.742813,121.740997 183.417664,121.999573 
	C182.810471,123.456566 182.528412,124.654976 182.204819,126.029869 
	C178.553207,125.771065 175.179260,125.531937 171.805313,125.292809 
	C171.805313,125.292809 171.918060,125.052620 171.653381,124.905045 
	C170.773987,124.685951 170.159286,124.614426 169.544586,124.542892 
	C169.544586,124.542892 169.204910,124.402916 168.911865,124.038040 
	C168.256851,123.625877 167.894867,123.578583 167.532898,123.531288 
	C167.532898,123.531288 167.193390,123.410385 166.906219,123.061371 
	C166.281097,122.598724 165.943161,122.485092 165.605225,122.371460 
M167.795120,117.389427 
	C167.212326,117.461967 166.629547,117.534500 166.046753,117.607033 
	C166.186432,117.967682 166.326096,118.328331 166.465775,118.688972 
	C167.023819,118.378937 167.581863,118.068893 167.795120,117.389427 
z"/>
<path fill="#F8FBFC" opacity="1.000000" stroke="none" 
	d="
M125.975029,161.011948 
	C125.807724,161.013046 125.640411,161.014145 125.055862,160.728439 
	C122.647293,158.802979 120.655975,157.164337 118.664658,155.525711 
	C118.664658,155.525711 118.646774,155.434982 118.493362,155.114975 
	C117.008469,153.085342 115.676979,151.375732 114.345490,149.666107 
	C114.345490,149.666107 114.313347,149.780701 114.302017,149.412903 
	C112.823067,142.359009 111.355438,135.672897 109.887817,128.986786 
	C109.564247,126.139145 109.240677,123.291496 108.837463,119.743011 
	C103.779594,119.323677 97.701637,119.140144 91.725502,118.262955 
	C75.207970,115.838455 65.545349,105.981369 62.007622,89.130051 
	C63.069801,87.254478 64.036987,86.147591 64.945908,85.347900 
	C63.022835,91.877403 65.878685,96.516960 72.318535,98.099266 
	C72.496567,100.770439 71.800133,104.055717 73.131050,105.703613 
	C74.099205,106.902336 77.745682,105.937897 80.526962,105.937897 
	C80.457024,106.835320 80.230042,107.938354 80.312393,109.017799 
	C80.601982,112.814018 82.576584,115.384857 86.473099,115.462761 
	C91.697136,115.567177 96.933235,115.215508 102.159271,114.959732 
	C103.351273,114.901390 104.523270,114.434158 106.666931,113.927750 
	C104.984451,111.859596 103.897926,110.532761 102.820930,109.198242 
	C100.882942,106.796844 98.950653,104.390846 97.395233,101.996063 
	C100.324837,103.838409 102.925400,105.606392 105.410721,107.523750 
	C107.670937,109.267456 109.805916,111.173508 112.242569,113.010773 
	C112.489044,113.013535 112.981979,113.019226 112.941055,113.337143 
	C112.902740,114.466721 112.555016,115.646660 112.961708,116.033531 
	C117.428360,120.282463 121.984703,124.439339 126.603134,128.523468 
	C127.130165,128.989517 128.183807,128.860046 129.014343,129.369385 
	C130.381317,134.942963 134.680283,136.982727 139.067047,139.354141 
	C140.789429,141.464203 142.439301,143.226242 144.162994,145.410645 
	C144.208740,147.806503 144.180664,149.779999 144.098480,152.228851 
	C144.009598,155.365768 143.817505,158.036789 143.976746,160.686691 
	C144.219238,164.721420 142.828842,166.204651 138.701141,164.993271 
	C135.700104,164.112518 132.545883,163.753754 129.459961,163.162231 
	C129.055328,162.980637 128.650681,162.799026 127.953201,162.166992 
	C127.098587,161.481689 126.536812,161.246826 125.975029,161.011948 
M107.914619,116.371994 
	C107.914619,116.371994 107.984756,116.618507 107.984756,116.618507 
	C107.984756,116.618507 108.065254,116.374435 107.914619,116.371994 
z"/>
<path fill="#FAFCFC" opacity="1.000000" stroke="none" 
	d="
M64.976913,157.528290 
	C62.616894,157.598083 60.256878,157.667862 57.265297,157.329010 
	C53.572636,156.670822 50.511536,156.421280 47.450432,156.171738 
	C34.776230,153.166824 24.082085,140.978455 22.950146,127.345917 
	C24.446606,125.754837 25.704008,124.122726 27.045794,124.050117 
	C31.686712,123.799011 36.357014,124.090919 41.039772,124.521713 
	C49.394009,134.435043 57.699848,144.024719 66.116936,153.515747 
	C66.619591,154.082535 68.012794,153.859543 68.995094,154.336273 
	C69.001907,155.111511 69.005226,155.554535 68.668251,155.999847 
	C67.210938,156.510864 66.093925,157.019577 64.976913,157.528290 
z"/>
<path fill="#F9FBFC" opacity="1.000000" stroke="none" 
	d="
M104.831482,205.819229 
	C87.534294,205.611023 75.189369,193.658356 71.852036,177.347260 
	C71.988762,172.333115 71.925926,168.192139 72.127815,164.064117 
	C72.173553,163.128815 72.959778,161.966278 73.756386,161.443207 
	C74.149696,161.184937 75.554955,161.948853 76.141975,162.583527 
	C83.143898,170.153915 89.910461,177.951614 97.132477,185.302902 
	C99.282722,187.491638 102.660789,188.474167 105.558548,190.457581 
	C105.683891,194.225555 105.726952,197.545334 105.613419,201.188171 
	C105.248375,202.947235 105.039925,204.383224 104.831482,205.819229 
z"/>
<path fill="#A6C3EE" opacity="1.000000" stroke="none" 
	d="
M65.052223,123.094994 
	C67.068703,123.093384 69.085182,123.091774 71.747803,123.248779 
	C72.719551,123.375671 73.045158,123.343948 73.370773,123.312225 
	C74.665466,123.316139 75.960159,123.320053 77.614807,123.825249 
	C78.818634,126.553436 79.285454,129.041367 80.600967,130.941788 
	C82.280228,133.367706 84.550835,135.419907 86.732086,137.455856 
	C92.725327,143.049850 98.805031,148.551224 104.872162,154.539047 
	C104.888260,158.340820 104.882713,161.692810 104.521393,165.012390 
	C103.199043,164.428864 101.987213,164.087265 101.307076,163.291336 
	C97.817619,159.207855 94.744888,154.734207 91.006470,150.904556 
	C83.123978,142.829712 74.896751,135.092102 66.875732,127.150696 
	C66.025986,126.309380 65.607185,125.032799 65.001846,123.742172 
	C65.015244,123.526192 65.052223,123.094994 65.052223,123.094994 
z"/>
<path fill="#BCD2F2" opacity="1.000000" stroke="none" 
	d="
M64.988457,123.958145 
	C65.607185,125.032799 66.025986,126.309380 66.875732,127.150696 
	C74.896751,135.092102 83.123978,142.829712 91.006470,150.904556 
	C94.744888,154.734207 97.817619,159.207855 101.307076,163.291336 
	C101.987213,164.087265 103.199043,164.428864 104.555382,165.446411 
	C104.920998,167.950378 104.896858,169.987946 104.518845,171.999054 
	C103.293144,171.556580 102.237984,171.330597 101.578583,170.694427 
	C96.508217,165.802689 91.429909,160.913818 86.516502,155.865952 
	C78.502289,147.632416 70.522865,139.360413 62.737526,130.912262 
	C61.036755,129.066727 60.214268,126.411804 58.987289,124.129639 
	C60.338650,124.055389 61.690006,123.981148 63.728363,123.904449 
	C64.606400,123.920723 64.797432,123.939438 64.988457,123.958145 
z"/>
<path fill="#CCDDF6" opacity="1.000000" stroke="none" 
	d="
M58.563171,124.058159 
	C60.214268,126.411804 61.036755,129.066727 62.737526,130.912262 
	C70.522865,139.360413 78.502289,147.632416 86.516502,155.865952 
	C91.429909,160.913818 96.508217,165.802689 101.578583,170.694427 
	C102.237984,171.330597 103.293144,171.556580 104.566513,172.423706 
	C104.968315,174.584381 104.968590,176.293915 104.598251,178.002289 
	C103.486000,177.999725 102.744377,177.998337 101.811447,177.856384 
	C101.377998,177.507782 101.172729,177.268158 100.978394,176.641235 
	C98.301689,173.856918 95.650917,171.428314 92.750412,168.999573 
	C92.500664,168.999451 92.001175,168.999054 91.998093,168.621582 
	C90.620224,162.756668 86.369980,159.825424 81.749329,156.878693 
	C81.002968,156.502319 80.507278,156.247864 79.941345,155.653091 
	C74.163826,149.105911 68.338516,143.002213 62.792301,136.654633 
	C59.309334,132.668396 56.245323,128.316101 52.993355,124.128029 
	C54.708588,124.080910 56.423824,124.033798 58.563171,124.058159 
z"/>
<path fill="#CEE0F6" opacity="1.000000" stroke="none" 
	d="
M65.004173,85.040695 
	C64.036987,86.147591 63.069801,87.254478 62.017296,88.733963 
	C61.772316,87.484398 61.612656,85.862259 62.161041,84.040939 
	C72.906403,83.931732 82.943710,84.021690 93.272339,84.300293 
	C94.707298,84.674126 95.850937,84.859329 97.071365,85.380722 
	C98.555550,87.030487 99.988060,88.318291 101.366371,89.661705 
	C112.581337,100.592644 123.825157,111.494583 134.956970,122.509659 
	C136.888107,124.420532 138.332581,126.823242 139.686432,129.048676 
	C138.577332,129.401794 137.783630,129.704987 136.740234,129.885574 
	C135.996582,129.507111 135.502655,129.251282 134.940292,128.658981 
	C129.245987,123.217705 123.620094,118.112892 117.997101,113.004036 
	C118.000000,113.000000 117.992340,113.006554 117.929581,112.670303 
	C116.242821,110.891243 114.618813,109.448441 112.997406,108.002823 
	C113.000000,108.000000 112.994080,108.004677 112.969467,107.650436 
	C111.961487,106.533150 110.978127,105.770103 109.997383,105.003525 
	C110.000000,105.000000 109.993263,105.005882 109.929031,104.667320 
	C104.726036,99.033569 99.613731,93.712021 94.404503,88.487099 
	C93.924149,88.005295 92.826309,88.139122 92.009041,87.992111 
	C92.002884,87.997139 92.010902,87.985374 91.908554,87.671585 
	C90.877304,86.896744 89.948418,86.435707 88.742355,85.762764 
	C86.642929,86.029526 84.820671,86.508194 82.659134,86.805328 
	C76.547958,86.096100 70.776062,85.568398 65.004173,85.040695 
z"/>
<path fill="#8BB1E8" opacity="1.000000" stroke="none" 
	d="
M104.850510,154.089249 
	C98.805031,148.551224 92.725327,143.049850 86.732086,137.455856 
	C84.550835,135.419907 82.280228,133.367706 80.600967,130.941788 
	C79.285454,129.041367 78.818634,126.553436 77.999969,123.884483 
	C80.066528,123.362770 82.107872,123.283112 84.551514,123.647972 
	C85.607361,125.699654 85.867226,127.684433 86.983269,128.847992 
	C91.587433,133.648193 96.413574,138.239212 101.250191,142.809708 
	C102.264984,143.768661 103.669472,144.315231 105.044647,145.072327 
	C105.194901,145.092819 105.494438,145.045227 105.533775,145.447052 
	C105.561806,146.923752 105.550499,147.998611 105.395561,149.398285 
	C105.118126,151.178497 104.984314,152.633865 104.850510,154.089249 
z"/>
<path fill="#EBF2FC" opacity="1.000000" stroke="none" 
	d="
M105.476273,190.009384 
	C102.660789,188.474167 99.282722,187.491638 97.132477,185.302902 
	C89.910461,177.951614 83.143898,170.153915 76.141975,162.583527 
	C75.554955,161.948853 74.149696,161.184937 73.756386,161.443207 
	C72.959778,161.966278 72.173553,163.128815 72.127815,164.064117 
	C71.925926,168.192139 71.988762,172.333115 71.909882,176.971222 
	C71.420845,171.130264 70.977638,164.787491 70.508476,158.073166 
	C69.018799,157.976929 67.431778,157.874390 65.410835,157.650085 
	C66.093925,157.019577 67.210938,156.510864 68.996506,156.000122 
	C70.102951,155.999237 70.540863,156.000366 71.260544,155.955505 
	C72.017014,155.617096 72.491699,155.324661 72.977364,155.019592 
	C72.988342,155.006958 73.008011,154.979858 73.381317,154.987457 
	C74.501480,154.999664 75.248344,155.004303 76.134598,155.200928 
	C76.482254,155.634949 76.723160,155.838318 77.128204,156.292511 
	C77.506989,157.387436 77.754257,158.192886 78.019882,159.355835 
	C78.924599,162.669449 80.205284,165.078735 84.244751,164.009552 
	C84.494629,164.010162 84.994377,164.009567 85.133453,164.201630 
	C85.480316,164.635956 85.721046,164.839233 86.115570,165.255768 
	C86.489548,166.006989 86.742683,166.505936 87.000229,167.381561 
	C88.336601,169.505615 89.668571,171.252975 91.191917,172.862457 
	C91.625298,172.519501 91.829620,172.282013 91.997833,172.007431 
	C91.999390,172.002762 92.001663,172.003708 92.251205,172.002151 
	C92.500748,172.000595 92.999847,172.000244 93.000481,172.332108 
	C93.003029,173.106445 93.004951,173.548935 93.024330,174.351807 
	C94.699196,176.474915 96.356606,178.237625 98.223755,180.240402 
	C99.622597,181.319504 100.811714,182.158539 102.153214,183.252289 
	C103.120415,184.007996 103.935226,184.509018 104.930588,185.050644 
	C105.111145,185.091263 105.480507,185.067093 105.577774,185.471436 
	C105.608780,187.253632 105.542526,188.631516 105.476273,190.009384 
z"/>
<path fill="#9CBDEE" opacity="1.000000" stroke="none" 
	d="
M144.532745,113.061180 
	C144.650436,115.433266 144.768127,117.805359 144.919952,120.546753 
	C144.954071,120.916061 144.781448,120.896667 144.564423,120.908119 
	C144.347412,120.919571 143.915466,120.968079 143.712280,120.692581 
	C142.545654,119.181328 141.684662,117.846283 140.600327,116.727745 
	C136.773331,112.780022 132.869812,108.906487 128.972137,104.649368 
	C126.297836,101.864098 123.646721,99.434273 120.997803,97.002228 
	C121.000000,97.000000 120.995544,97.004440 120.972595,96.650681 
	C119.625252,94.690384 118.213753,93.146629 116.998825,91.461182 
	C115.528412,89.421295 114.224304,87.261543 112.896866,85.102936 
	C112.945496,85.052223 113.042435,84.950470 113.452065,84.979080 
	C115.227356,85.077003 116.593018,85.146301 117.991348,85.564186 
	C124.347221,92.275978 130.670425,98.639175 137.030640,105.368774 
	C139.556015,108.177177 142.044373,110.619179 144.532745,113.061180 
z"/>
<path fill="#6D9CE7" opacity="1.000000" stroke="none" 
	d="
M139.965576,84.133980 
	C143.487213,85.898872 144.884949,88.791115 144.800888,92.671425 
	C144.689331,97.821106 144.783066,102.975220 144.415009,108.432617 
	C143.695053,107.487328 143.348694,106.236847 143.004456,104.654953 
	C143.004898,103.881302 143.003220,103.439056 142.995880,102.629181 
	C141.658478,100.510841 140.326736,98.760132 138.744217,97.125290 
	C137.999786,97.487808 137.506149,97.734459 137.009293,97.737946 
	C137.006088,97.494774 136.995407,97.008507 136.979553,96.645660 
	C134.308472,93.190727 131.653244,90.098648 128.623535,87.002197 
	C127.500076,86.997025 126.751122,86.996223 125.758438,86.989975 
	C125.514725,86.984543 125.027313,86.972565 125.022247,86.612564 
	C125.005692,85.535286 124.994186,84.818016 124.982689,84.100746 
	C129.341232,84.059677 133.699783,84.018608 138.762146,84.039307 
	C139.632507,84.112045 139.799042,84.123016 139.965576,84.133980 
z"/>
<path fill="#699BE2" opacity="1.000000" stroke="none" 
	d="
M105.494438,145.045227 
	C105.494438,145.045227 105.194901,145.092819 105.069275,144.670349 
	C103.743561,141.902466 102.942055,139.210983 101.265053,137.279694 
	C97.047157,132.422241 92.433975,127.907997 87.979271,123.256149 
	C91.125092,123.198158 94.271729,123.064529 97.416550,123.098633 
	C103.170105,123.161026 105.585052,125.507156 105.790733,131.165421 
	C105.874977,133.483032 105.833298,135.805206 105.839386,139.011353 
	C105.718063,141.613358 105.606247,143.329285 105.494438,145.045227 
z"/>
<path fill="#EBF2FC" opacity="1.000000" stroke="none" 
	d="
M68.991600,154.004074 
	C68.012794,153.859543 66.619591,154.082535 66.116936,153.515747 
	C57.699848,144.024719 49.394009,134.435043 41.067566,124.277802 
	C41.071716,123.688293 41.059864,123.199150 41.059864,123.199150 
	C41.486351,123.165932 41.912838,123.132721 42.810543,123.340111 
	C43.537857,123.803474 43.835228,123.903343 44.173870,123.880318 
	C44.173870,123.880318 44.597858,123.950951 44.825203,124.381851 
	C49.036060,128.874298 53.019573,132.935837 57.001541,136.998688 
	C57.000000,137.000000 57.002575,136.997147 57.067577,137.334229 
	C59.757793,140.112091 62.383003,142.552856 65.255219,144.996796 
	C65.502228,144.999939 65.996231,145.006531 66.017029,145.376099 
	C67.022423,148.498474 68.007011,151.251282 68.991600,154.004074 
z"/>
<path fill="#0E57BD" opacity="1.000000" stroke="none" 
	d="
M105.533775,145.447052 
	C105.606247,143.329285 105.718063,141.613358 105.882324,139.470642 
	C106.624367,137.592926 107.465973,136.191956 107.963577,134.677917 
	C108.535271,132.938461 108.802368,131.098877 109.544800,129.144791 
	C111.355438,135.672897 112.823067,142.359009 114.361290,149.418304 
	C113.381012,149.053253 112.330132,148.315033 111.259521,147.562958 
	C107.987755,152.778000 105.721222,157.618469 108.603622,164.159714 
	C110.088783,167.530121 108.613396,172.205109 108.246002,176.190186 
	C108.011574,173.727158 108.006889,171.364563 107.895599,168.890579 
	C107.477386,168.631638 107.217674,168.706696 107.005142,169.448166 
	C106.981186,172.259552 106.961937,174.627167 106.753502,177.000702 
	C106.564316,177.006638 106.186226,177.025360 106.125610,176.558426 
	C105.889725,167.085480 105.714455,158.079483 105.539192,149.073471 
	C105.550499,147.998611 105.561806,146.923752 105.533775,145.447052 
M107.316391,142.491760 
	C107.620323,142.744339 107.924263,142.996902 108.228195,143.249481 
	C108.340714,142.847412 108.453239,142.445343 108.565765,142.043274 
	C108.186638,142.043289 107.807518,142.043289 107.316391,142.491760 
z"/>
<path fill="#D8E5F7" opacity="1.000000" stroke="none" 
	d="
M65.996231,145.006531 
	C65.996231,145.006531 65.502228,144.999939 65.234344,144.636002 
	C62.311829,141.847092 59.657204,139.422119 57.002575,136.997147 
	C57.002575,136.997147 57.000000,137.000000 56.983444,136.637207 
	C56.051956,134.756744 55.190258,133.203690 54.210285,131.729233 
	C52.509457,129.170166 50.735470,126.659714 48.992165,124.128876 
	C50.062008,124.076714 51.131855,124.024551 52.597527,124.050201 
	C56.245323,128.316101 59.309334,132.668396 62.792301,136.654633 
	C68.338516,143.002213 74.163826,149.105911 79.564285,155.655075 
	C78.503868,155.999283 77.750275,156.001160 76.996689,156.003052 
	C76.723160,155.838318 76.482254,155.634949 76.070839,154.873932 
	C74.913017,153.569443 73.958336,152.783920 72.934586,151.658447 
	C70.575752,149.214523 68.285995,147.110519 65.996231,145.006531 
z"/>
<path fill="#78A4E4" opacity="1.000000" stroke="none" 
	d="
M87.599655,123.196274 
	C92.433975,127.907997 97.047157,132.422241 101.265053,137.279694 
	C102.942055,139.210983 103.743561,141.902466 104.919022,144.649841 
	C103.669472,144.315231 102.264984,143.768661 101.250191,142.809708 
	C96.413574,138.239212 91.587433,133.648193 86.983269,128.847992 
	C85.867226,127.684433 85.607361,125.699654 84.946854,123.721191 
	C85.699951,123.278732 86.459991,123.207573 87.599655,123.196274 
z"/>
<path fill="#E6F2F6" opacity="1.000000" stroke="none" 
	d="
M178.988968,46.002583 
	C156.547882,45.999752 134.106796,45.995148 111.665710,45.994919 
	C102.021362,45.994820 101.224709,46.949387 102.908096,56.836357 
	C102.292992,55.703510 101.697723,54.152977 101.169464,52.001007 
	C101.109924,50.976170 100.983368,50.552769 100.856812,50.129372 
	C100.688118,49.037971 100.519424,47.946571 100.572975,46.332619 
	C100.964897,45.593727 101.040939,45.348373 101.023338,45.073997 
	C101.023338,45.073997 101.324203,44.819836 101.998436,44.928452 
	C109.670799,45.086708 116.669144,45.198696 123.667007,45.173820 
	C141.826004,45.109276 159.984756,44.984516 178.143616,44.883789 
	C178.143616,44.883789 178.581482,44.879848 178.773712,45.207985 
	C178.965958,45.536121 178.988968,46.002583 178.988968,46.002583 
z"/>
<path fill="#AFCEEC" opacity="1.000000" stroke="none" 
	d="
M177.766479,44.707420 
	C159.984756,44.984516 141.826004,45.109276 123.667007,45.173820 
	C116.669144,45.198696 109.670799,45.086708 102.195145,44.919243 
	C104.351952,44.664360 106.986351,44.407440 109.620590,44.409088 
	C132.210205,44.423218 154.799774,44.484123 177.766479,44.707420 
z"/>
<path fill="#0043B3" opacity="1.000000" stroke="none" 
	d="
M184.179443,121.654480 
	C183.818359,103.618851 183.717117,85.261520 183.619110,66.904160 
	C183.599686,63.263676 183.592758,59.623123 183.697357,55.105404 
	C183.748062,52.456593 183.681488,50.684982 183.614929,48.913368 
	C184.075760,50.277130 184.933334,51.639484 184.938171,53.004860 
	C185.015930,74.977318 184.990799,96.950157 184.956268,118.922867 
	C184.955002,119.726433 184.619934,120.529472 184.179443,121.654480 
z"/>
<path fill="#2964C5" opacity="1.000000" stroke="none" 
	d="
M117.958679,85.215607 
	C116.593018,85.146301 115.227356,85.077003 113.151489,84.681778 
	C105.954529,84.274460 99.467781,84.193054 92.981026,84.111649 
	C82.943710,84.021690 72.906403,83.931732 62.400505,83.766632 
	C62.565426,83.257484 63.201817,82.440529 63.832008,82.445274 
	C81.359650,82.577362 98.886765,82.785454 116.413536,83.014000 
	C117.386925,83.026680 118.356621,83.322578 119.652702,83.969650 
	C119.977364,84.452637 119.893898,84.931511 119.569580,84.967758 
	C118.816399,85.074539 118.387543,85.145073 117.958679,85.215607 
z"/>
<path fill="#4175CA" opacity="1.000000" stroke="none" 
	d="
M145.102676,79.887154 
	C148.253250,78.396378 149.254730,79.732773 149.162369,83.099998 
	C148.913162,92.185356 148.503738,101.341743 153.764374,110.148384 
	C154.440170,111.440575 154.748581,112.208191 155.057007,112.975800 
	C149.321625,109.305862 148.835312,103.236145 148.227356,97.392128 
	C147.798248,93.267174 148.300735,89.046234 147.887161,84.918259 
	C147.720963,83.259453 146.217010,81.734688 145.102676,79.887154 
z"/>
<path fill="#E8F2F3" opacity="1.000000" stroke="none" 
	d="
M155.316315,113.185959 
	C154.748581,112.208191 154.440170,111.440575 154.052643,110.369873 
	C155.520187,109.275726 157.066864,108.484665 158.182571,107.914024 
	C160.076447,112.554222 161.565292,116.202026 163.050018,120.228119 
	C160.555817,118.202980 158.065720,115.799553 155.316315,113.185959 
z"/>
<path fill="#E4ECFA" opacity="1.000000" stroke="none" 
	d="
M48.597614,124.044647 
	C50.735470,126.659714 52.509457,129.170166 54.210285,131.729233 
	C55.190258,133.203690 56.051956,134.756744 56.984989,136.635895 
	C53.019573,132.935837 49.036060,128.874298 45.023163,124.465515 
	C46.063541,124.065651 47.133301,124.013031 48.597614,124.044647 
z"/>
<path fill="#0045AE" opacity="1.000000" stroke="none" 
	d="
M145.004807,120.986572 
	C145.328552,121.655655 145.837448,122.253220 145.840012,122.852943 
	C145.902756,137.514923 145.912033,152.177139 145.925461,166.839310 
	C145.925613,167.000168 145.853897,167.161072 145.815720,167.321960 
	C145.552994,167.226959 145.290253,167.131958 144.928513,166.366653 
	C144.832367,161.183517 144.835236,156.670700 144.956421,151.690186 
	C144.976974,141.113892 144.879211,131.005280 144.781448,120.896667 
	C144.781448,120.896667 144.954071,120.916061 145.004807,120.986572 
z"/>
<path fill="#EAF2FB" opacity="1.000000" stroke="none" 
	d="
M144.838104,152.157883 
	C144.835236,156.670700 144.832367,161.183517 144.836945,166.130203 
	C139.916077,165.585037 134.987762,164.606003 129.759705,163.394623 
	C132.545883,163.753754 135.700104,164.112518 138.701141,164.993271 
	C142.828842,166.204651 144.219238,164.721420 143.976746,160.686691 
	C143.817505,158.036789 144.009598,155.365768 144.268845,152.331451 
	C144.493347,151.958710 144.838089,152.157883 144.838104,152.157883 
z"/>
<path fill="#8BB1E8" opacity="1.000000" stroke="none" 
	d="
M143.002335,104.986359 
	C143.348694,106.236847 143.695053,107.487328 144.327484,108.896667 
	C144.646683,110.128456 144.679794,111.201393 144.622833,112.667755 
	C142.044373,110.619179 139.556015,108.177177 137.431458,105.367966 
	C138.863510,105.000412 139.931747,105.000053 141.333725,105.000252 
	C142.112411,104.995995 142.557373,104.991180 143.002335,104.986359 
z"/>
<path fill="#0644B4" opacity="1.000000" stroke="none" 
	d="
M106.186226,177.025360 
	C106.186226,177.025360 106.564316,177.006638 106.764587,177.468918 
	C106.984123,183.284805 107.003403,188.638428 107.022675,193.992035 
	C106.856087,197.953430 106.689499,201.914841 106.298782,205.490936 
	C105.973099,203.692139 105.871559,202.278641 105.770020,200.865128 
	C105.726952,197.545334 105.683891,194.225555 105.558548,190.457581 
	C105.542526,188.631516 105.608780,187.253632 105.682846,185.104584 
	C105.611359,183.583176 105.532074,182.832916 105.550858,181.867645 
	C105.648941,181.652618 105.697693,181.182449 105.831314,180.783295 
	C106.038696,179.264557 106.112457,178.144958 106.186226,177.025360 
z"/>
<path fill="#AFCEEC" opacity="1.000000" stroke="none" 
	d="
M172.043243,125.557816 
	C175.179260,125.531937 178.553207,125.771065 182.204819,126.029869 
	C182.528412,124.654976 182.810471,123.456566 183.296234,122.082001 
	C184.171158,127.926956 183.869797,128.264450 177.981720,127.292961 
	C176.053177,126.974754 174.179794,126.322365 172.043243,125.557816 
z"/>
<path fill="#245BB3" opacity="1.000000" stroke="none" 
	d="
M115.171921,74.227219 
	C119.430138,75.546425 123.848381,77.172592 128.655792,79.133736 
	C129.044968,79.468712 129.133835,79.882339 129.133835,79.882339 
	C123.939163,79.632668 119.046082,78.604683 115.171921,74.227219 
z"/>
<path fill="#0052D6" opacity="1.000000" stroke="none" 
	d="
M107.266205,193.993011 
	C107.003403,188.638428 106.984123,183.284805 106.953766,177.462982 
	C106.961937,174.627167 106.981186,172.259552 107.253159,169.447052 
	C107.505875,169.002136 108.002205,169.001968 108.002197,169.001968 
	C108.006889,171.364563 108.011574,173.727158 108.018646,176.530609 
	C108.016998,179.363953 108.012955,181.756439 108.012939,185.041290 
	C108.010246,188.620285 108.003525,191.306931 107.996796,193.993591 
	C107.996796,193.993591 107.509735,193.993973 107.266205,193.993011 
z"/>
<path fill="#B4CCF1" opacity="1.000000" stroke="none" 
	d="
M40.602463,123.072464 
	C41.059864,123.199150 41.071716,123.688293 41.043922,123.932205 
	C36.357014,124.090919 31.686712,123.799011 27.045794,124.050117 
	C25.704008,124.122726 24.446606,125.754837 22.962673,126.942093 
	C21.207737,123.899734 22.566116,122.732582 25.890631,122.806084 
	C30.640816,122.911102 35.393467,122.904640 40.602463,123.072464 
z"/>
<path fill="#E6F2F6" opacity="1.000000" stroke="none" 
	d="
M107.434784,65.334274 
	C110.990150,65.376617 114.230881,65.759712 112.812469,70.821503 
	C111.590363,70.384933 110.811394,69.835724 110.032425,69.286514 
	C110.032425,69.286514 109.850121,68.894218 109.563202,68.521835 
	C108.964294,67.951012 108.652298,67.752579 108.340302,67.554146 
	C108.340302,67.554146 108.308212,67.714134 108.253433,67.356934 
	C107.944038,66.444588 107.689407,65.889427 107.434784,65.334274 
z"/>
<path fill="#E6F2F6" opacity="1.000000" stroke="none" 
	d="
M103.149902,58.307877 
	C104.822647,58.737972 106.509262,59.513660 108.338577,60.354984 
	C107.865639,61.811039 107.479881,62.998672 106.842758,64.510559 
	C106.591393,64.834824 106.172089,64.774719 106.172089,64.774719 
	C105.169312,62.734306 104.166542,60.693890 103.149902,58.307877 
z"/>
<path fill="#0E57BD" opacity="1.000000" stroke="none" 
	d="
M108.001480,194.387695 
	C108.003525,191.306931 108.010246,188.620285 108.017319,185.488983 
	C108.476669,189.752991 108.935677,194.461624 109.394684,199.170258 
	C108.931847,199.203705 108.469002,199.237167 108.006165,199.270615 
	C108.006165,197.774353 108.006165,196.278076 108.001480,194.387695 
z"/>
<path fill="#EBF2FC" opacity="1.000000" stroke="none" 
	d="
M47.765793,156.430786 
	C50.511536,156.421280 53.572636,156.670822 56.831566,157.235138 
	C54.046646,157.263229 51.063900,156.976532 47.765793,156.430786 
z"/>
<path fill="#0E57BD" opacity="1.000000" stroke="none" 
	d="
M118.560913,155.865067 
	C120.655975,157.164337 122.647293,158.802979 124.804932,160.723618 
	C124.228424,161.006287 123.485588,161.006943 122.371376,161.003815 
	C122.000000,161.000000 122.000031,161.000000 122.000031,161.000000 
	C120.819077,159.401474 119.638123,157.802948 118.560913,155.865067 
z"/>
<path fill="#0E57BD" opacity="1.000000" stroke="none" 
	d="
M114.273079,150.051941 
	C115.676979,151.375732 117.008469,153.085342 118.449760,155.099594 
	C115.206871,155.416061 114.247208,153.327637 114.273079,150.051941 
z"/>
<path fill="#4175CA" opacity="1.000000" stroke="none" 
	d="
M129.501007,79.928406 
	C129.133835,79.882339 129.044968,79.468712 129.008636,79.260254 
	C131.400070,79.140465 133.827850,79.229134 136.684113,79.473755 
	C134.697784,79.744621 132.282974,79.859550 129.501007,79.928406 
z"/>
<path fill="#7DA5E5" opacity="1.000000" stroke="none" 
	d="
M124.588348,84.039413 
	C124.994186,84.818016 125.005692,85.535286 124.658928,86.615829 
	C123.200783,86.333359 122.100899,85.687614 121.003906,84.794662 
	C121.006805,84.547470 121.008377,84.053040 121.008377,84.053040 
	C122.070259,84.028053 123.132133,84.003075 124.588348,84.039413 
z"/>
<path fill="#AFCEEC" opacity="1.000000" stroke="none" 
	d="
M183.445328,48.748508 
	C183.681488,50.684982 183.748062,52.456593 183.659821,54.641998 
	C183.081451,52.838715 182.657867,50.621632 182.272324,48.014008 
	C182.632156,47.943527 182.953949,48.263588 183.445328,48.748508 
z"/>
<path fill="#245BB3" opacity="1.000000" stroke="none" 
	d="
M110.040710,69.618019 
	C110.811394,69.835724 111.590363,70.384933 112.637062,71.049583 
	C113.554276,71.911240 114.203773,72.657448 114.962097,73.684402 
	C113.396957,72.626602 111.722984,71.288063 110.040710,69.618019 
z"/>
<path fill="#245BB3" opacity="1.000000" stroke="none" 
	d="
M106.156052,65.137772 
	C106.172089,64.774719 106.591393,64.834824 106.803040,64.833061 
	C107.014694,64.831299 107.129082,65.162605 107.281937,65.248444 
	C107.689407,65.889427 107.944038,66.444588 108.301025,67.290665 
	C107.648933,66.888008 106.894470,66.194420 106.156052,65.137772 
z"/>
<path fill="#699BE2" opacity="1.000000" stroke="none" 
	d="
M105.613419,201.188171 
	C105.871559,202.278641 105.973099,203.692139 106.022247,205.531921 
	C105.776459,205.965073 105.583069,205.971970 105.110580,205.899048 
	C105.039925,204.383224 105.248375,202.947235 105.613419,201.188171 
z"/>
<path fill="#0E57BD" opacity="1.000000" stroke="none" 
	d="
M121.999847,161.000000 
	C122.078392,161.745850 122.157082,162.491714 122.235779,163.237564 
	C121.977707,163.237885 121.719635,163.238205 121.461571,163.238541 
	C121.522812,162.618362 121.584053,161.998199 121.822662,161.189011 
	C122.000031,161.000000 122.000000,161.000000 121.999847,161.000000 
z"/>
<path fill="#AFCEEC" opacity="1.000000" stroke="none" 
	d="
M169.781097,124.734604 
	C170.159286,124.614426 170.773987,124.685951 171.584808,125.018745 
	C171.193146,125.162117 170.605392,125.044212 169.781097,124.734604 
z"/>
<path fill="#EAF2FB" opacity="1.000000" stroke="none" 
	d="
M126.148224,161.276154 
	C126.536812,161.246826 127.098587,161.481689 127.847702,161.966309 
	C127.463829,161.990799 126.892624,161.765564 126.148224,161.276154 
z"/>
<path fill="#AFCEEC" opacity="1.000000" stroke="none" 
	d="
M100.761078,50.340927 
	C100.983368,50.552769 101.109924,50.976170 101.166634,51.615906 
	C100.952980,51.405659 100.809174,50.979073 100.761078,50.340927 
z"/>
<path fill="#AFCEEC" opacity="1.000000" stroke="none" 
	d="
M100.787697,45.121468 
	C101.040939,45.348373 100.964897,45.593727 100.634048,45.921543 
	C100.226463,45.719982 100.252853,45.431953 100.787697,45.121468 
z"/>
<path fill="#AFCEEC" opacity="1.000000" stroke="none" 
	d="
M179.303375,45.985168 
	C178.988968,46.002583 178.965958,45.536121 178.971039,45.302841 
	C179.316330,45.148708 179.656525,45.227859 180.111847,45.557587 
	C180.023895,45.861359 179.820831,45.914558 179.303375,45.985168 
z"/>
<path fill="#245BB3" opacity="1.000000" stroke="none" 
	d="
M108.443863,67.819427 
	C108.652298,67.752579 108.964294,67.951012 109.378220,68.409744 
	C109.169243,68.474930 108.858337,68.279823 108.443863,67.819427 
z"/>
<path fill="#2964C5" opacity="1.000000" stroke="none" 
	d="
M139.884506,83.996513 
	C139.799042,84.123016 139.632507,84.112045 139.226044,84.029320 
	C139.236969,83.678635 139.509415,83.645798 139.884506,83.996513 
z"/>
<path fill="#6D9CE7" opacity="1.000000" stroke="none" 
	d="
M120.759506,84.007881 
	C121.008377,84.053040 121.006805,84.547470 120.726898,84.768875 
	C120.262619,84.970688 120.078262,84.951096 119.893898,84.931511 
	C119.893898,84.931511 119.977364,84.452637 119.991074,84.208916 
	C120.173393,83.964371 120.342010,83.963547 120.759506,84.007881 
z"/>
<path fill="#AFCEEC" opacity="1.000000" stroke="none" 
	d="
M165.736542,122.623444 
	C165.943161,122.485092 166.281097,122.598724 166.772003,122.941132 
	C166.572586,123.071754 166.220215,122.973595 165.736542,122.623444 
z"/>
<path fill="#B4CCF1" opacity="1.000000" stroke="none" 
	d="
M44.057365,123.635071 
	C43.835228,123.903343 43.537857,123.803474 43.127563,123.396301 
	C43.295864,123.271194 43.618359,123.330513 44.057365,123.635071 
z"/>
<path fill="#699BE2" opacity="1.000000" stroke="none" 
	d="
M65.001846,123.742172 
	C64.797432,123.939438 64.606400,123.920723 64.131836,123.850647 
	C64.076355,123.551826 64.304413,123.304359 64.792343,123.075943 
	C65.052223,123.094994 65.015244,123.526192 65.001846,123.742172 
z"/>
<path fill="#699BE2" opacity="1.000000" stroke="none" 
	d="
M73.153381,123.192482 
	C73.045158,123.343948 72.719551,123.375671 72.179230,123.276154 
	C72.278770,122.992134 72.602600,122.968071 73.153381,123.192482 
z"/>
<path fill="#AFCEEC" opacity="1.000000" stroke="none" 
	d="
M167.709366,123.743774 
	C167.894867,123.578583 168.256851,123.625877 168.785904,123.904343 
	C168.597275,124.075760 168.241547,124.016006 167.709366,123.743774 
z"/>
<path fill="#E8F2F3" opacity="1.000000" stroke="none" 
	d="
M167.967514,117.574142 
	C167.581863,118.068893 167.023819,118.378937 166.465775,118.688980 
	C166.326096,118.328331 166.186432,117.967682 166.046753,117.607040 
	C166.629547,117.534500 167.212326,117.461967 167.967514,117.574142 
z"/>
<path fill="#FEFEFE" opacity="1.000000" stroke="none" 
	d="
M64.945908,85.347900 
	C70.776062,85.568398 76.547958,86.096100 82.840332,87.025406 
	C83.910477,87.948685 84.460129,88.470360 85.005859,89.244003 
	C85.000404,89.663895 84.998894,89.831818 84.783836,90.272614 
	C84.699188,91.785332 84.360741,93.671143 85.034149,94.158325 
	C88.894173,96.950867 92.994431,99.411354 97.008652,101.990425 
	C97.004150,101.996323 97.015984,101.986771 97.015984,101.986771 
	C98.950653,104.390846 100.882942,106.796844 102.820930,109.198242 
	C103.897926,110.532761 104.984451,111.859596 106.666931,113.927750 
	C104.523270,114.434158 103.351273,114.901390 102.159271,114.959732 
	C96.933235,115.215508 91.697136,115.567177 86.473099,115.462761 
	C82.576584,115.384857 80.601982,112.814018 80.312393,109.017799 
	C80.230042,107.938354 80.457024,106.835320 80.526962,105.937897 
	C77.745682,105.937897 74.099205,106.902336 73.131050,105.703613 
	C71.800133,104.055717 72.496567,100.770439 72.318535,98.099266 
	C65.878685,96.516960 63.022835,91.877403 64.945908,85.347900 
M73.002274,93.336868 
	C73.520065,91.976044 74.037857,90.615219 74.555649,89.254387 
	C72.657906,88.866745 70.760155,88.479103 68.862411,88.091469 
	C68.691948,88.631973 68.521492,89.172478 68.351028,89.712990 
	C69.681931,90.843918 71.012840,91.974846 73.002274,93.336868 
z"/>
<path fill="#EAF2FB" opacity="1.000000" stroke="none" 
	d="
M111.996101,113.008003 
	C109.805916,111.173508 107.670937,109.267456 105.410721,107.523750 
	C102.925400,105.606392 100.324837,103.838409 97.395233,101.996063 
	C97.015984,101.986771 97.004150,101.996323 97.006760,101.576004 
	C97.004089,99.772591 96.998825,98.389503 97.356308,97.023651 
	C100.281433,98.975616 102.780205,101.003922 105.432327,102.806610 
	C106.813026,103.745094 108.464241,104.285606 109.993263,105.005882 
	C109.993263,105.005882 110.000000,105.000000 110.063133,105.328979 
	C111.082199,106.440201 112.038139,107.222443 112.994080,108.004677 
	C112.994080,108.004677 113.000000,108.000000 112.996841,108.402100 
	C112.996193,109.869469 112.998703,110.934738 112.808014,112.140961 
	C112.370766,112.491730 112.164528,112.733757 111.996101,113.008003 
z"/>
<path fill="#EAF2FB" opacity="1.000000" stroke="none" 
	d="
M128.993286,129.006714 
	C128.183807,128.860046 127.130165,128.989517 126.603134,128.523468 
	C121.984703,124.439339 117.428360,120.282463 112.961708,116.033531 
	C112.555016,115.646660 112.902740,114.466721 112.948425,113.329300 
	C112.996712,113.003540 113.007347,112.992180 113.422714,112.993576 
	C115.222832,112.998840 116.607590,113.002701 117.992340,113.006554 
	C117.992340,113.006554 118.000000,113.000000 118.063805,113.340179 
	C119.751953,116.119576 121.376289,118.558800 123.081924,121.293465 
	C123.776421,122.058914 124.389610,122.528923 125.251823,123.143448 
	C126.000916,123.857704 126.500999,124.427437 127.082062,125.292580 
	C127.775360,126.058563 128.387680,126.529129 129.000305,126.999542 
	C129.000610,126.999390 129.007324,126.996964 129.005829,127.329346 
	C129.005951,128.104767 129.007553,128.547806 129.005402,128.994598 
	C129.001648,128.998352 128.993286,129.006714 128.993286,129.006714 
z"/>
<path fill="#EAF2FB" opacity="1.000000" stroke="none" 
	d="
M138.994507,139.006104 
	C134.680283,136.982727 130.381317,134.942963 129.014343,129.369385 
	C128.993286,129.006714 129.001648,128.998352 129.337616,128.996613 
	C130.116852,128.994141 130.560104,128.993408 131.334747,128.995331 
	C132.108002,129.001526 132.549866,129.005081 133.056534,129.330048 
	C134.879715,132.934235 135.213623,133.052933 137.209564,131.269928 
	C137.618164,132.336929 137.813522,133.162827 138.022675,134.355560 
	C138.361023,136.144669 138.685562,137.566925 139.006256,138.993317 
	C139.002396,138.997452 138.994507,139.006104 138.994507,139.006104 
z"/>
<path fill="#6D9CE7" opacity="1.000000" stroke="none" 
	d="
M144.956421,151.690186 
	C144.838089,152.157883 144.493347,151.958710 144.322968,151.856094 
	C144.180664,149.779999 144.208740,147.806503 144.233307,144.998016 
	C144.156967,142.773438 144.084152,141.383865 144.073547,139.620590 
	C144.095413,138.491409 144.055069,137.735962 144.073135,136.548340 
	C144.069031,134.088135 144.006546,132.060059 143.987244,129.774750 
	C144.024719,129.343689 144.018982,129.169876 144.045013,128.552307 
	C144.023010,125.728394 143.969238,123.348236 143.915466,120.968079 
	C143.915466,120.968079 144.347412,120.919571 144.564423,120.908119 
	C144.879211,131.005280 144.976974,141.113892 144.956421,151.690186 
z"/>
<path fill="#EAF2FB" opacity="1.000000" stroke="none" 
	d="
M144.011337,139.994308 
	C144.084152,141.383865 144.156967,142.773438 144.159470,144.575623 
	C142.439301,143.226242 140.789429,141.464203 139.067047,139.354141 
	C138.994507,139.006104 139.002396,138.997452 139.371490,139.014648 
	C141.164169,139.352676 142.587753,139.673492 144.011337,139.994308 
z"/>
<path fill="#FEFEFE" opacity="1.000000" stroke="none" 
	d="
M107.989937,116.373215 
	C108.065254,116.374435 107.984756,116.618507 107.984756,116.618507 
	C107.984756,116.618507 107.914619,116.371994 107.989937,116.373215 
z"/>
<path fill="#EAF1FA" opacity="1.000000" stroke="none" 
	d="
M112.242569,113.010773 
	C112.164528,112.733757 112.370766,112.491730 112.809662,112.389008 
	C113.004509,112.496094 113.007347,112.992180 113.007347,112.992180 
	C113.007347,112.992180 112.996712,113.003540 112.989349,113.011383 
	C112.981979,113.019226 112.489044,113.013535 112.242569,113.010773 
z"/>
<path fill="#E4ECFA" opacity="1.000000" stroke="none" 
	d="
M66.017029,145.376099 
	C68.285995,147.110519 70.575752,149.214523 72.933945,152.031418 
	C73.004257,153.489502 73.006134,154.234680 73.008011,154.979858 
	C73.008011,154.979858 72.988342,155.006958 72.696617,155.062408 
	C71.929520,155.412399 71.454147,155.706955 70.978775,156.001511 
	C70.540863,156.000366 70.102951,155.999237 69.336792,155.997833 
	C69.005226,155.554535 69.001907,155.111511 68.995094,154.336273 
	C68.007011,151.251282 67.022423,148.498474 66.017029,145.376099 
z"/>
<path fill="#699BE2" opacity="1.000000" stroke="none" 
	d="
M106.125610,176.558426 
	C106.112457,178.144958 106.038696,179.264557 105.638756,180.769867 
	C105.312584,181.155563 104.953270,181.014313 105.008728,180.640137 
	C105.032410,179.511810 105.000633,178.757629 104.968864,178.003464 
	C104.968590,176.293915 104.968315,174.584381 104.920380,172.450180 
	C104.896858,169.987946 104.920998,167.950378 104.911148,165.478790 
	C104.882713,161.692810 104.888260,158.340820 104.872162,154.539047 
	C104.984314,152.633865 105.118126,151.178497 105.395561,149.398285 
	C105.714455,158.079483 105.889725,167.085480 106.125610,176.558426 
z"/>
<path fill="#D8E5F7" opacity="1.000000" stroke="none" 
	d="
M85.994720,165.003494 
	C85.721046,164.839233 85.480316,164.635956 85.117249,163.841064 
	C83.974655,161.192490 82.987328,159.096558 82.000000,157.000610 
	C86.369980,159.825424 90.620224,162.756668 91.747444,168.622025 
	C91.332970,169.000153 91.166069,169.000336 90.750015,168.855957 
	C90.000252,168.141541 89.499626,167.571686 88.897964,166.685944 
	C87.862854,165.914536 86.928787,165.459015 85.994720,165.003494 
z"/>
<path fill="#D8E5F7" opacity="1.000000" stroke="none" 
	d="
M93.006866,173.991409 
	C93.004951,173.548935 93.003029,173.106445 93.000595,171.957016 
	C93.000107,170.499939 93.000130,169.749817 93.000153,168.999695 
	C95.650917,171.428314 98.301689,173.856918 100.643814,176.642426 
	C99.889198,177.000153 99.443230,177.000992 98.669876,176.891327 
	C96.563950,175.851013 94.785408,174.921219 93.006866,173.991409 
z"/>
<path fill="#DBE8F9" opacity="1.000000" stroke="none" 
	d="
M81.749329,156.878693 
	C82.987328,159.096558 83.974655,161.192490 84.978180,163.649002 
	C84.994377,164.009567 84.494629,164.010162 84.077225,163.722534 
	C81.773727,161.956039 79.887627,160.477188 78.001526,158.998337 
	C77.754257,158.192886 77.506989,157.387436 77.128204,156.292511 
	C77.750275,156.001160 78.503868,155.999283 79.634521,155.995407 
	C80.507278,156.247864 81.002968,156.502319 81.749329,156.878693 
z"/>
<path fill="#DBE8F9" opacity="1.000000" stroke="none" 
	d="
M98.997253,177.001831 
	C99.443230,177.000992 99.889198,177.000153 100.669754,176.998123 
	C101.172729,177.268158 101.377998,177.507782 101.837799,178.207443 
	C103.021400,179.470825 103.987335,180.242569 104.953270,181.014313 
	C104.953270,181.014313 105.312584,181.155563 105.505142,181.169006 
	C105.697693,181.182449 105.648941,181.652618 105.413452,182.014587 
	C105.025703,182.599304 104.881020,182.826843 104.503662,183.009094 
	C103.509224,182.971848 102.755028,182.984726 102.000824,182.997589 
	C100.811714,182.158539 99.622597,181.319504 98.432114,179.992126 
	C98.619576,178.669815 98.808411,177.835831 98.997253,177.001831 
z"/>
<path fill="#D8E5F7" opacity="1.000000" stroke="none" 
	d="
M105.008728,180.640137 
	C103.987335,180.242569 103.021400,179.470825 102.029099,178.348022 
	C102.744377,177.998337 103.486000,177.999725 104.598251,178.002289 
	C105.000633,178.757629 105.032410,179.511810 105.008728,180.640137 
z"/>
<path fill="#DBE8F9" opacity="1.000000" stroke="none" 
	d="
M92.750412,168.999573 
	C93.000130,169.749817 93.000107,170.499939 92.999969,171.625153 
	C92.999847,172.000244 92.500748,172.000595 92.119370,171.711884 
	C91.491714,170.615616 91.245438,169.808075 90.999168,169.000519 
	C91.166069,169.000336 91.332970,169.000153 91.750526,168.999512 
	C92.001175,168.999054 92.500664,168.999451 92.750412,168.999573 
z"/>
<path fill="#C4D7F3" opacity="1.000000" stroke="none" 
	d="
M144.013260,128.996048 
	C144.018982,129.169876 144.024719,129.343689 143.735748,129.848251 
	C142.294662,129.785599 141.148239,129.392197 140.001831,128.998779 
	C138.332581,126.823242 136.888107,124.420532 134.956970,122.509659 
	C123.825157,111.494583 112.581337,100.592644 101.366371,89.661705 
	C99.988060,88.318291 98.555550,87.030487 97.497849,85.365051 
	C99.553513,85.032158 101.259483,85.051125 103.002075,85.417648 
	C111.972809,94.810432 120.864929,103.897682 129.857407,112.884521 
	C134.929810,117.953751 141.303894,121.856987 144.013260,128.996048 
z"/>
<path fill="#DFE9F7" opacity="1.000000" stroke="none" 
	d="
M109.929031,104.667320 
	C108.464241,104.285606 106.813026,103.745094 105.432327,102.806610 
	C102.780205,101.003922 100.281433,98.975616 97.112823,97.013458 
	C96.506592,96.986023 96.019218,96.973495 96.000076,96.631966 
	C94.985558,95.198326 93.990181,94.106216 92.745399,93.011330 
	C92.495995,93.008545 91.997162,93.003746 92.001694,93.000328 
	C92.006226,92.996910 92.012718,92.986397 92.011650,92.738953 
	C92.010582,92.491516 92.007133,91.996643 92.006371,91.595901 
	C92.008804,90.125801 92.012001,89.056450 92.015198,87.987091 
	C92.826309,88.139122 93.924149,88.005295 94.404503,88.487099 
	C99.613731,93.712021 104.726036,99.033569 109.929031,104.667320 
z"/>
<path fill="#DFE9F7" opacity="1.000000" stroke="none" 
	d="
M132.991730,129.008652 
	C132.549866,129.005081 132.108002,129.001526 131.252411,128.701614 
	C130.228226,127.935829 129.617767,127.466400 129.007324,126.996964 
	C129.007324,126.996964 129.000610,126.999390 128.919312,126.704269 
	C128.225708,125.938484 127.613396,125.467819 127.001083,124.997162 
	C126.500999,124.427437 126.000916,123.857704 125.170013,122.848343 
	C124.226341,121.938477 123.613480,121.468254 123.000626,120.998024 
	C121.376289,118.558800 119.751953,116.119576 118.060905,113.344208 
	C123.620094,118.112892 129.245987,123.217705 134.604065,128.661194 
	C133.888077,129.002792 133.439911,129.005722 132.991730,129.008652 
z"/>
<path fill="#D3E3F3" opacity="1.000000" stroke="none" 
	d="
M139.686432,129.048676 
	C141.148239,129.392197 142.294662,129.785599 143.692566,130.105499 
	C144.006546,132.060059 144.069031,134.088135 143.734955,136.553162 
	C142.887512,136.993042 142.436646,136.995972 141.983734,136.670486 
	C141.326706,135.572968 140.671722,134.803879 139.682053,134.026489 
	C138.901199,134.008377 138.455048,133.998566 138.008881,133.988739 
	C137.813522,133.162827 137.618164,132.336929 137.208252,131.014603 
	C136.992432,130.348206 136.991180,130.178207 136.989929,130.008194 
	C137.783630,129.704987 138.577332,129.401794 139.686432,129.048676 
z"/>
<path fill="#E7EFFB" opacity="1.000000" stroke="none" 
	d="
M92.009041,87.992111 
	C92.012001,89.056450 92.008804,90.125801 91.754700,91.596916 
	C91.336060,91.999115 91.168335,91.999557 90.710831,91.810608 
	C88.617302,90.744812 86.813545,89.868423 85.009789,88.992035 
	C84.460129,88.470360 83.910477,87.948685 83.179619,87.206932 
	C84.820671,86.508194 86.642929,86.029526 88.836433,86.082779 
	C90.142090,87.071587 91.076492,87.528481 92.010902,87.985374 
	C92.010902,87.985374 92.002884,87.997139 92.009041,87.992111 
z"/>
<path fill="#9CBDEE" opacity="1.000000" stroke="none" 
	d="
M102.965462,85.070084 
	C101.259483,85.051125 99.553513,85.032158 97.421051,85.028870 
	C95.850937,84.859329 94.707298,84.674126 93.272339,84.300293 
	C99.467781,84.193054 105.954529,84.274460 112.741859,84.653168 
	C113.042435,84.950470 112.945496,85.052223 112.495438,85.062241 
	C110.683601,85.066467 109.321823,85.060684 107.544426,85.048477 
	C105.741028,85.051407 104.353249,85.060745 102.965462,85.070084 
z"/>
<path fill="#DFE9F7" opacity="1.000000" stroke="none" 
	d="
M113.422714,112.993576 
	C113.007347,112.992180 113.004509,112.496094 113.002869,112.248047 
	C112.998703,110.934738 112.996193,109.869469 112.994240,108.404922 
	C114.618813,109.448441 116.242821,110.891243 117.929581,112.670303 
	C116.607590,113.002701 115.222832,112.998840 113.422714,112.993576 
z"/>
<path fill="#E2EDF9" opacity="1.000000" stroke="none" 
	d="
M136.740234,129.885574 
	C136.991180,130.178207 136.992432,130.348206 136.995010,130.773529 
	C135.213623,133.052933 134.879715,132.934235 133.056534,129.330063 
	C133.439911,129.005722 133.888077,129.002792 134.672485,128.997650 
	C135.502655,129.251282 135.996582,129.507111 136.740234,129.885574 
z"/>
<path fill="#DFE9F7" opacity="1.000000" stroke="none" 
	d="
M112.969467,107.650436 
	C112.038139,107.222443 111.082199,106.440201 110.060516,105.332504 
	C110.978127,105.770103 111.961487,106.533150 112.969467,107.650436 
z"/>
<path fill="#DFE9F7" opacity="1.000000" stroke="none" 
	d="
M91.908554,87.671585 
	C91.076492,87.528481 90.142090,87.071587 89.113602,86.294678 
	C89.948418,86.435707 90.877304,86.896744 91.908554,87.671585 
z"/>
<path fill="#E4ECFA" opacity="1.000000" stroke="none" 
	d="
M98.669868,176.891327 
	C98.808411,177.835831 98.619576,178.669815 98.222382,179.752075 
	C96.356606,178.237625 94.699196,176.474915 93.024330,174.351807 
	C94.785408,174.921219 96.563950,175.851013 98.669868,176.891327 
z"/>
<path fill="#E4ECFA" opacity="1.000000" stroke="none" 
	d="
M90.750015,168.855957 
	C91.245438,169.808075 91.491714,170.615616 91.869827,171.713440 
	C92.001663,172.003708 91.999390,172.002762 91.806183,172.144623 
	C91.370964,172.491943 91.166817,172.729889 91.000542,173.000320 
	C89.668571,171.252975 88.336601,169.505615 87.334152,167.379974 
	C88.108780,167.001740 88.553894,167.001785 88.999008,167.001831 
	C89.499626,167.571686 90.000252,168.141541 90.750015,168.855957 
z"/>
<path fill="#E4ECFA" opacity="1.000000" stroke="none" 
	d="
M78.019882,159.355835 
	C79.887627,160.477188 81.773727,161.956039 83.827347,163.721924 
	C80.205284,165.078735 78.924599,162.669449 78.019882,159.355835 
z"/>
<path fill="#DBE8F9" opacity="1.000000" stroke="none" 
	d="
M73.381317,154.987457 
	C73.006134,154.234680 73.004257,153.489502 73.003014,152.371368 
	C73.958336,152.783920 74.913017,153.569443 75.931458,154.681946 
	C75.248344,155.004303 74.501480,154.999664 73.381317,154.987457 
z"/>
<path fill="#E4ECFA" opacity="1.000000" stroke="none" 
	d="
M102.153214,183.252289 
	C102.755028,182.984726 103.509224,182.971848 104.538040,183.333160 
	C104.791779,184.141571 104.770905,184.575806 104.750031,185.010025 
	C103.935226,184.509018 103.120415,184.007996 102.153214,183.252289 
z"/>
<path fill="#DBE8F9" opacity="1.000000" stroke="none" 
	d="
M88.897964,166.685944 
	C88.553894,167.001785 88.108780,167.001740 87.329742,167.003296 
	C86.742683,166.505936 86.489548,166.006989 86.115570,165.255768 
	C86.928787,165.459015 87.862854,165.914536 88.897964,166.685944 
z"/>
<path fill="#CCDDF6" opacity="1.000000" stroke="none" 
	d="
M104.930588,185.050644 
	C104.770905,184.575806 104.791779,184.141571 104.778275,183.383270 
	C104.881020,182.826843 105.025703,182.599304 105.315369,182.229614 
	C105.532074,182.832916 105.611359,183.583176 105.585571,184.700256 
	C105.480507,185.067093 105.111145,185.091263 104.930588,185.050644 
z"/>
<path fill="#FAFCFC" opacity="1.000000" stroke="none" 
	d="
M71.260544,155.955505 
	C71.454147,155.706955 71.929520,155.412399 72.685638,155.075043 
	C72.491699,155.324661 72.017014,155.617096 71.260544,155.955505 
z"/>
<path fill="#E7EFFB" opacity="1.000000" stroke="none" 
	d="
M91.191917,172.862457 
	C91.166817,172.729889 91.370964,172.491943 91.804626,172.149292 
	C91.829620,172.282013 91.625298,172.519501 91.191917,172.862457 
z"/>
<path fill="#B4CCF1" opacity="1.000000" stroke="none" 
	d="
M103.002075,85.417648 
	C104.353249,85.060745 105.741028,85.051407 107.577126,85.403824 
	C112.348808,89.511864 116.672173,93.258156 120.995544,97.004440 
	C120.995544,97.004440 121.000000,97.000000 121.023056,97.356796 
	C123.695847,100.144005 126.345573,102.574409 128.995300,105.004807 
	C132.869812,108.906487 136.773331,112.780022 140.600327,116.727745 
	C141.684662,117.846283 142.545654,119.181328 143.712280,120.692581 
	C143.969238,123.348236 144.023010,125.728394 144.045013,128.552307 
	C141.303894,121.856987 134.929810,117.953751 129.857407,112.884521 
	C120.864929,103.897682 111.972809,94.810432 103.002075,85.417648 
z"/>
<path fill="#8AB0E8" opacity="1.000000" stroke="none" 
	d="
M119.569580,84.967758 
	C120.078262,84.951096 120.262619,84.970688 120.723999,85.016068 
	C122.100899,85.687614 123.200783,86.333359 124.663986,86.975838 
	C125.027313,86.972565 125.514725,86.984543 125.774796,87.351921 
	C127.963112,92.309883 130.817123,95.907127 136.248428,97.007202 
	C136.497421,97.008224 136.995407,97.008507 136.995407,97.008507 
	C136.995407,97.008507 137.006088,97.494774 137.021622,98.101410 
	C138.358109,100.805260 139.679047,102.902481 141.000000,104.999695 
	C139.931747,105.000053 138.863510,105.000412 137.394440,105.001572 
	C130.670425,98.639175 124.347221,92.275978 117.991348,85.564194 
	C118.387543,85.145073 118.816399,85.074539 119.569580,84.967758 
z"/>
<path fill="#A8C3EE" opacity="1.000000" stroke="none" 
	d="
M120.972595,96.650681 
	C116.672173,93.258156 112.348808,89.511864 107.992737,85.410240 
	C109.321823,85.060684 110.683601,85.066467 112.446808,85.112953 
	C114.224304,87.261543 115.528412,89.421295 116.998825,91.461182 
	C118.213753,93.146629 119.625252,94.690384 120.972595,96.650681 
z"/>
<path fill="#A8C3EE" opacity="1.000000" stroke="none" 
	d="
M128.972137,104.649361 
	C126.345573,102.574409 123.695847,100.144005 121.020859,97.359024 
	C123.646721,99.434273 126.297836,101.864098 128.972137,104.649361 
z"/>
<path fill="#7DA5E5" opacity="1.000000" stroke="none" 
	d="
M135.999435,97.006180 
	C130.817123,95.907127 127.963112,92.309883 126.018517,87.357361 
	C126.751122,86.996223 127.500076,86.997025 128.691986,87.341812 
	C131.423080,90.792587 133.711258,93.899384 135.999435,97.006180 
z"/>
<path fill="#78A4E4" opacity="1.000000" stroke="none" 
	d="
M136.248428,97.007202 
	C133.711258,93.899384 131.423080,90.792587 129.066467,87.346176 
	C131.653244,90.098648 134.308472,93.190727 136.979553,96.645660 
	C136.995407,97.008507 136.497421,97.008224 136.248428,97.007202 
z"/>
<path fill="#7DA5E5" opacity="1.000000" stroke="none" 
	d="
M141.333725,105.000252 
	C139.679047,102.902481 138.358109,100.805260 137.024826,98.344582 
	C137.506149,97.734459 137.999786,97.487808 138.769379,97.471405 
	C140.364075,99.466705 141.682816,101.231758 143.001541,102.996803 
	C143.003220,103.439056 143.004898,103.881302 143.004456,104.654953 
	C142.557373,104.991180 142.112411,104.995995 141.333725,105.000252 
z"/>
<path fill="#78A4E4" opacity="1.000000" stroke="none" 
	d="
M142.995880,102.629181 
	C141.682816,101.231758 140.364075,99.466705 139.020172,97.355545 
	C140.326736,98.760132 141.658478,100.510841 142.995880,102.629181 
z"/>
<path fill="#E4ECFA" opacity="1.000000" stroke="none" 
	d="
M57.067577,137.334229 
	C59.657204,139.422119 62.311829,141.847092 64.987335,144.632843 
	C62.383003,142.552856 59.757793,140.112091 57.067577,137.334229 
z"/>
<path fill="#0152CC" opacity="1.000000" stroke="none" 
	d="
M107.372391,142.267532 
	C107.807518,142.043289 108.186638,142.043289 108.565765,142.043274 
	C108.453239,142.445343 108.340714,142.847412 108.228195,143.249481 
	C107.924263,142.996902 107.620323,142.744339 107.372391,142.267532 
z"/>
<path fill="#0152CC" opacity="1.000000" stroke="none" 
	d="
M107.895599,168.890579 
	C108.002205,169.001968 107.505875,169.002136 107.257858,169.003265 
	C107.217674,168.706696 107.477386,168.631638 107.895599,168.890579 
z"/>
<path fill="#F8FBFC" opacity="1.000000" stroke="none" 
	d="
M91.997162,93.003746 
	C91.997162,93.003746 92.495995,93.008545 92.752014,93.385521 
	C94.011757,94.832825 95.015488,95.903160 96.019218,96.973495 
	C96.019218,96.973495 96.506592,96.986023 96.750076,96.996216 
	C96.998825,98.389503 97.004089,99.772591 97.011261,101.570107 
	C92.994431,99.411354 88.894173,96.950867 85.034149,94.158325 
	C84.360741,93.671143 84.699188,91.785332 85.070129,90.443222 
	C87.712364,91.228546 89.854759,92.116150 91.997162,93.003746 
z"/>
<path fill="#F8FBFC" opacity="1.000000" stroke="none" 
	d="
M72.673004,93.221321 
	C71.012840,91.974846 69.681931,90.843918 68.351028,89.712990 
	C68.521492,89.172478 68.691948,88.631973 68.862411,88.091469 
	C70.760155,88.479103 72.657906,88.866745 74.555649,89.254387 
	C74.037857,90.615219 73.520065,91.976044 72.673004,93.221321 
z"/>
<path fill="#F3F5FD" opacity="1.000000" stroke="none" 
	d="
M92.001694,93.000328 
	C89.854759,92.116150 87.712364,91.228546 85.283669,90.170349 
	C84.998894,89.831818 85.000404,89.663895 85.005859,89.244003 
	C86.813545,89.868423 88.617302,90.744812 90.851471,92.002289 
	C91.491508,92.625557 91.735123,92.826569 92.012718,92.986397 
	C92.012718,92.986397 92.006226,92.996910 92.001694,93.000328 
z"/>
<path fill="#E2EDF9" opacity="1.000000" stroke="none" 
	d="
M129.005829,127.329353 
	C129.617767,127.466400 130.228226,127.935829 130.921021,128.698975 
	C130.560104,128.993408 130.116852,128.994141 129.341370,128.992859 
	C129.007553,128.547806 129.005951,128.104767 129.005829,127.329353 
z"/>
<path fill="#EAF1FA" opacity="1.000000" stroke="none" 
	d="
M123.081924,121.293465 
	C123.613480,121.468254 124.226341,121.938477 124.921005,122.703812 
	C124.389610,122.528923 123.776421,122.058914 123.081924,121.293465 
z"/>
<path fill="#EAF1FA" opacity="1.000000" stroke="none" 
	d="
M127.082062,125.292580 
	C127.613396,125.467819 128.225708,125.938484 128.919006,126.704422 
	C128.387680,126.529129 127.775360,126.058563 127.082062,125.292580 
z"/>
<path fill="#E2EDF9" opacity="1.000000" stroke="none" 
	d="
M138.022675,134.355560 
	C138.455048,133.998566 138.901199,134.008377 139.701508,134.357285 
	C140.699036,135.463898 141.342407,136.231400 141.985794,136.998917 
	C142.436646,136.995972 142.887512,136.993042 143.676544,136.985306 
	C144.055069,137.735962 144.095413,138.491409 144.073547,139.620590 
	C142.587753,139.673492 141.164169,139.352676 139.375351,139.010529 
	C138.685562,137.566925 138.361023,136.144669 138.022675,134.355560 
z"/>
<path fill="#EAF2FB" opacity="1.000000" stroke="none" 
	d="
M96.000076,96.631966 
	C95.015488,95.903160 94.011757,94.832825 93.001419,93.388306 
	C93.990181,94.106216 94.985558,95.198326 96.000076,96.631966 
z"/>
<path fill="#EAF2FB" opacity="1.000000" stroke="none" 
	d="
M92.011650,92.738953 
	C91.735123,92.826569 91.491508,92.625557 91.141251,92.191681 
	C91.168335,91.999557 91.336060,91.999115 91.755463,91.997658 
	C92.007133,91.996643 92.010582,92.491516 92.011650,92.738953 
z"/>
<path fill="#EAF2FB" opacity="1.000000" stroke="none" 
	d="
M141.983734,136.670486 
	C141.342407,136.231400 140.699036,135.463898 140.036194,134.365585 
	C140.671722,134.803879 141.326706,135.572968 141.983734,136.670486 
z"/>
</svg>