<svg version="1.1" id="Layer_1" xmlns="http://www.w3.org/2000/svg" xmlns:xlink="http://www.w3.org/1999/xlink" x="0px" y="0px"
	 width="100%" viewBox="0 0 224 225" enable-background="new 0 0 224 225" xml:space="preserve">
<path fill="#FDFDFD" opacity="1.000000" stroke="none" 
	d="
M147.000000,226.000000 
	C98.000000,226.000000 49.500008,226.000000 1.000006,226.000000 
	C1.000004,151.000000 1.000004,76.000015 1.000002,1.000017 
	C75.666656,1.000011 150.333313,1.000011 224.999969,1.000005 
	C224.999985,75.999985 224.999985,150.999969 225.000000,225.999969 
	C199.166672,226.000000 173.333328,226.000000 147.000000,226.000000 
M65.041649,199.042007 
	C65.041649,199.042007 65.081123,199.040024 65.817543,198.672653 
	C65.574928,196.648178 68.186707,193.685852 63.284416,192.890976 
	C62.842503,192.935181 62.400589,192.979401 61.330910,192.943222 
	C60.944168,193.303543 60.557426,193.663864 59.981922,194.780701 
	C60.303288,196.194946 60.624649,197.609192 61.089703,199.611679 
	C62.406742,199.434952 63.723785,199.258240 65.041649,199.042007 
M85.312103,192.956329 
	C83.270912,194.287048 83.270912,194.287048 85.405899,195.749008 
	C85.594765,194.853592 85.791222,193.922211 86.270706,192.875687 
	C86.184456,192.922012 86.098206,192.968338 85.312103,192.956329 
M165.943588,137.433304 
	C166.359802,136.568466 166.776016,135.703629 167.929825,134.859756 
	C172.809418,137.138168 177.688995,139.416580 183.485352,142.123062 
	C185.395416,135.999359 187.235260,130.100800 189.497864,123.673912 
	C189.622635,122.793678 189.747406,121.913452 190.093903,120.411209 
	C190.105301,119.758171 190.116699,119.105125 190.567062,117.869949 
	C190.657639,116.927132 190.748230,115.984322 191.032639,114.261513 
	C191.052643,112.928139 191.072647,111.594772 191.360260,109.892891 
	C191.390518,109.742851 191.474625,109.578796 191.439972,109.445663 
	C191.365295,109.158813 191.229568,108.887871 191.345215,107.759369 
	C191.177109,104.166389 191.008987,100.573418 190.920715,96.495682 
	C190.920715,96.495682 190.727219,96.044090 190.791595,95.308731 
	C190.479721,93.863739 190.167847,92.418739 189.895950,90.338036 
	C189.656677,90.010498 189.417419,89.682961 189.345978,88.608467 
	C184.160507,58.277119 153.323303,30.300249 122.478928,28.052134 
	C120.755699,27.926535 118.973427,28.611111 116.937744,28.404552 
	C116.194603,28.596375 115.451454,28.788198 114.379738,29.674360 
	C114.452927,31.192963 114.526123,32.711567 114.363304,35.034962 
	C114.474724,37.255554 114.586151,39.476151 114.448174,42.312691 
	C114.312729,42.734055 114.177292,43.155418 113.249290,43.586063 
	C112.473579,43.725239 111.697861,43.864414 110.306320,43.432491 
	C110.249527,39.938503 109.989151,36.432789 110.189522,32.953613 
	C110.419487,28.960560 109.162994,27.778046 104.993378,28.388500 
	C66.436867,34.033390 40.000607,60.846714 35.558136,99.569542 
	C33.750984,115.321617 37.249359,130.171432 44.860062,144.442780 
	C46.798920,143.335648 48.317535,142.389313 49.905117,141.577911 
	C53.526489,139.727066 57.181648,137.942322 60.957237,136.787781 
	C61.053192,136.988724 61.149147,137.189651 60.802933,137.888382 
	C55.924862,141.009079 51.046795,144.129761 45.847771,147.455780 
	C64.944901,174.051147 90.347664,186.580933 122.621552,182.792770 
	C147.229645,179.904388 166.096039,167.062195 179.646942,146.052048 
	C174.539536,143.148361 170.088211,140.617676 165.943588,137.433304 
M38.847435,191.333862 
	C32.009438,192.365433 37.369537,197.206024 35.232834,200.321304 
	C37.556667,200.181244 38.946728,200.097458 39.154442,200.084930 
	C39.360298,198.299789 39.568829,197.174500 39.601204,196.044174 
	C39.645367,194.502258 39.555294,192.956482 38.847435,191.333862 
M73.675667,193.831696 
	C72.110214,193.112076 70.544762,192.392456 68.979309,191.672836 
	C68.610634,194.379700 68.241959,197.086563 67.873283,199.793427 
	C68.554657,200.056107 69.236023,200.318787 69.917389,200.581467 
	C71.193466,198.579102 72.469543,196.576721 73.675667,193.831696 
M129.033310,198.914108 
	C130.542252,198.436356 132.510101,198.373749 133.426880,197.360306 
	C134.287949,196.408478 134.747040,193.906693 134.104050,193.071457 
	C133.238922,191.947693 131.146957,191.768417 129.029388,190.977524 
	C129.029388,194.175613 129.029388,196.127502 129.033310,198.914108 
M29.027782,197.500412 
	C28.531776,195.684174 28.035769,193.867935 27.508953,191.938889 
	C25.920004,192.011490 24.544228,192.074341 23.183350,192.136520 
	C23.183350,194.965851 23.183350,197.375153 23.183350,200.844482 
	C25.465385,199.853699 27.189716,199.105042 29.027782,197.500412 
M107.510483,200.230652 
	C107.316658,199.282257 107.122833,198.333878 106.997314,197.719696 
	C106.997314,196.333618 106.997314,195.119263 106.997314,193.457443 
	C107.035980,193.436707 107.907829,192.969131 110.148201,191.767609 
	C107.143150,191.767609 105.669632,191.767609 103.792831,191.767609 
	C103.792831,193.897171 103.455345,195.924255 103.925072,197.742813 
	C104.187996,198.760788 105.788986,199.433136 107.510483,200.230652 
M22.082422,197.147812 
	C21.544590,195.791489 21.006760,194.435150 20.468929,193.078827 
	C18.648426,194.658722 16.827925,196.238617 15.078603,197.756729 
	C17.930077,201.813232 20.077291,201.752151 22.082422,197.147812 
M75.594414,199.679764 
	C76.885513,199.866257 78.176613,200.052750 79.109863,200.187561 
	C79.109863,196.911102 79.109863,194.305511 79.109863,191.371384 
	C78.027054,191.448227 76.827560,191.533340 76.603706,191.549225 
	C76.223167,194.418533 75.922089,196.688660 75.594414,199.679764 
z"/>
<path fill="#FEA01F" opacity="1.000000" stroke="none" 
	d="
M190.840866,96.980438 
	C191.008987,100.573418 191.177109,104.166389 191.206818,108.598686 
	C191.076477,109.712471 191.084564,109.986931 191.092651,110.261398 
	C191.072647,111.594772 191.052643,112.928139 190.688538,114.913315 
	C190.272308,116.527435 190.200195,117.489761 190.128082,118.452087 
	C190.116699,119.105125 190.105301,119.758171 189.737030,120.958694 
	C189.278473,122.404869 189.176788,123.303551 189.075104,124.202232 
	C187.235260,130.100800 185.395416,135.999359 183.485352,142.123062 
	C177.688995,139.416580 172.809418,137.138168 167.437531,134.872864 
	C166.945236,134.885986 166.860077,134.651520 166.808472,134.519821 
	C166.638794,134.233231 166.489609,134.118851 166.066406,133.776749 
	C158.846649,129.860245 151.869827,126.211990 145.060242,122.651184 
	C146.542587,118.423317 147.850037,114.694328 149.367416,110.794693 
	C149.543640,109.794319 149.509933,108.964592 149.416611,107.675934 
	C149.396759,104.766479 149.436539,102.315948 149.630676,99.644012 
	C149.576813,98.627457 149.368576,97.832306 149.023468,96.685333 
	C145.321014,82.390671 136.388168,73.511383 122.736504,68.622444 
	C121.841156,68.299416 121.179871,68.217003 120.120499,68.194733 
	C118.116219,68.050499 116.510025,67.846123 114.065300,67.535049 
	C114.065300,60.223598 114.065300,53.121849 114.143066,45.614960 
	C114.161171,44.665478 114.101509,44.121128 114.041855,43.576782 
	C114.177292,43.155418 114.312729,42.734055 114.686134,41.687801 
	C114.815834,38.785332 114.707581,36.507748 114.599319,34.230167 
	C114.526123,32.711567 114.452927,31.192963 114.964706,29.334047 
	C116.105995,28.968689 116.662315,28.943642 117.218636,28.918594 
	C118.973427,28.611111 120.755699,27.926535 122.478928,28.052134 
	C153.323303,30.300249 184.160507,58.277119 189.269241,89.291748 
	C189.413651,90.307938 189.634811,90.640846 189.855972,90.973747 
	C190.167847,92.418739 190.479721,93.863739 190.635254,95.778976 
	C190.348312,96.592201 190.468964,96.835945 190.840866,96.980438 
M165.101440,111.308754 
	C165.193466,111.352509 165.285477,111.396263 165.377518,111.440002 
	C165.265213,111.282936 165.152908,111.125870 164.907700,110.695404 
	C164.813187,110.651230 164.718658,110.607063 164.624146,110.562889 
	C164.738266,110.723282 164.852386,110.883675 165.101440,111.308754 
M169.981522,104.567833 
	C170.128662,104.822433 170.275803,105.077042 170.422943,105.331650 
	C170.303223,104.875206 170.183487,104.418770 169.814133,103.491440 
	C169.465408,103.217262 169.116699,102.943077 168.767975,102.668892 
	C168.639114,102.868408 168.510269,103.067932 168.381424,103.267456 
	C168.884659,103.546860 169.387878,103.826256 169.981522,104.567833 
M178.999191,102.466049 
	C178.863480,102.198303 178.727768,101.930565 178.592056,101.662827 
	C178.708435,102.122368 178.824814,102.581909 178.972061,103.727150 
	C179.334702,104.609566 179.697327,105.491989 180.059967,106.374413 
	C180.455505,106.127602 180.851059,105.880798 181.246613,105.633995 
	C180.516846,104.737015 179.787064,103.840027 178.999191,102.466049 
M165.761124,87.244865 
	C164.673035,87.979683 163.584961,88.714500 162.496887,89.449318 
	C163.353912,88.662247 164.210938,87.875175 165.067963,87.088097 
	C166.473480,90.302147 167.878998,93.516190 169.284531,96.730232 
	C169.789841,96.269379 170.295166,95.808525 170.800491,95.347664 
	C169.348801,92.670532 167.897110,89.993393 165.761124,87.244865 
M149.521713,79.353172 
	C151.427765,80.174324 153.333832,80.995468 154.996506,81.711761 
	C153.839066,79.113312 152.839706,76.869720 151.825760,74.593391 
	C151.041718,75.911514 150.181870,77.357094 149.521713,79.353172 
M180.899780,73.557686 
	C179.908203,73.273239 178.916626,72.988800 177.183548,72.491653 
	C178.412064,75.281288 179.150635,76.958389 179.889191,78.635490 
	C180.203629,78.541878 180.518066,78.448273 180.832504,78.354660 
	C180.832504,76.976685 180.832504,75.598701 180.899780,73.557686 
M165.953079,83.120117 
	C166.527802,82.704605 167.102524,82.289101 167.993896,81.644653 
	C165.652176,81.228645 163.679245,80.878151 161.706329,80.527657 
	C163.859543,80.526825 161.313934,86.847237 165.953079,83.120117 
M160.468185,95.319885 
	C160.834137,95.963120 161.065567,96.784492 161.607941,97.194122 
	C162.054840,97.531647 162.870193,97.381332 163.522263,97.447205 
	C163.676575,97.084496 163.830887,96.721786 163.985214,96.359077 
	C162.243729,95.122215 160.502243,93.885361 158.760757,92.648499 
	C158.523087,92.990959 158.285416,93.333420 158.047745,93.675880 
	C158.748871,94.053856 159.449997,94.431839 160.468185,95.319885 
M174.487564,88.029854 
	C173.888000,87.214027 173.288422,86.398201 171.833313,84.418282 
	C172.093430,87.467522 172.229080,89.057899 172.493607,92.158875 
	C173.821701,90.079468 174.270920,89.376122 174.487564,88.029854 
M176.778183,79.520294 
	C176.880753,79.648506 176.962997,79.805435 177.091797,79.896591 
	C177.212494,79.982002 177.382462,79.997810 177.530746,80.044250 
	C177.367264,78.790192 177.203781,77.536125 177.040298,76.282074 
	C176.215851,76.507256 175.391403,76.732430 174.195023,77.059196 
	C175.199997,77.959358 175.799622,78.496445 176.778183,79.520294 
M155.902557,112.233650 
	C155.902496,112.888275 155.902420,113.542900 155.902359,114.197525 
	C156.432755,114.046738 156.963135,113.895950 157.493530,113.745171 
	C157.162430,113.203171 156.831345,112.661163 155.902557,112.233650 
M163.315491,99.467667 
	C162.975723,100.016808 162.635956,100.565956 162.296188,101.115089 
	C162.571457,101.250641 162.846725,101.386192 163.121979,101.521751 
	C163.327591,100.983917 163.533188,100.446083 163.315491,99.467667 
M165.377060,99.265945 
	C166.070679,99.613335 166.764282,99.960732 167.457901,100.308121 
	C167.574722,99.950455 167.691544,99.592789 167.808365,99.235130 
	C167.005508,99.055397 166.202637,98.875671 165.377060,99.265945 
M170.084183,75.478668 
	C169.728195,75.897568 169.372223,76.316460 169.016235,76.735352 
	C169.650238,76.767220 170.284241,76.799080 170.918243,76.830948 
	C170.826553,76.316116 170.734863,75.801292 170.084183,75.478668 
M172.516312,104.799850 
	C172.965286,104.786331 173.414246,104.772820 173.863235,104.759300 
	C173.729843,104.342239 173.596466,103.925186 173.463074,103.508133 
	C173.071045,103.765282 172.679016,104.022430 172.516312,104.799850 
M161.391541,110.202400 
	C161.786377,110.206444 162.181412,110.214172 162.575012,110.193954 
	C162.585159,110.193428 162.590439,109.744339 162.579758,109.743523 
	C162.186676,109.713539 161.791458,109.711876 161.391541,110.202400 
M155.796600,109.389381 
	C155.792419,109.785332 155.788254,110.181282 155.784073,110.577232 
	C155.948380,110.578758 156.255493,110.591286 156.256348,110.580238 
	C156.286682,110.186203 156.288345,109.789978 155.796600,109.389381 
M156.565933,90.296646 
	C156.293579,90.011414 156.021210,89.726181 155.748856,89.440956 
	C155.630768,89.553947 155.403778,89.758949 155.410294,89.766647 
	C155.664383,90.067398 155.939774,90.350182 156.565933,90.296646 
M169.548401,84.518341 
	C168.988525,84.371048 168.428650,84.223755 167.868774,84.076462 
	C167.782028,84.334877 167.695267,84.593285 167.608521,84.851692 
	C168.299316,84.902054 168.990128,84.952408 169.548401,84.518341 
M176.195023,104.617950 
	C176.198792,104.216560 176.206512,103.814972 176.185394,103.414894 
	C176.184799,103.403954 175.728363,103.398651 175.727600,103.408836 
	C175.697723,103.809700 175.696106,104.212677 176.195023,104.617950 
M170.588181,101.419067 
	C170.948822,101.397377 171.309479,101.375687 171.670120,101.353989 
	C171.595322,101.095924 171.520508,100.837852 171.445709,100.579781 
	C171.196838,100.715958 170.947983,100.852135 170.588181,101.419067 
M165.469299,78.611450 
	C165.180756,78.879150 164.892227,79.146843 164.603683,79.414536 
	C164.706894,79.516693 164.889954,79.716331 164.901642,79.706749 
	C165.192383,79.468582 165.465027,79.208305 165.469299,78.611450 
M167.080200,109.520630 
	C167.224960,109.762924 167.369720,110.005219 167.514481,110.247520 
	C167.648636,109.997681 167.944366,109.682022 167.876175,109.514595 
	C167.790405,109.303978 167.406937,109.214607 167.080200,109.520630 
M178.941727,108.272133 
	C178.965790,108.614204 178.989853,108.956276 179.013916,109.298355 
	C179.254089,109.226479 179.494278,109.154610 179.734451,109.082726 
	C179.615646,108.833237 179.496857,108.583748 178.941727,108.272133 
M180.182404,97.762444 
	C180.124969,97.588921 180.067551,97.415398 180.010101,97.241882 
	C179.954025,97.416496 179.897964,97.591110 180.182404,97.762444 
M177.617111,94.471802 
	C177.836060,94.527580 178.055008,94.583359 178.273956,94.639137 
	C178.133133,94.501129 177.992294,94.363121 177.617111,94.471802 
M153.824936,87.243156 
	C153.880402,87.410629 153.935867,87.578102 153.991318,87.745583 
	C154.045425,87.576981 154.099518,87.408371 153.824936,87.243156 
M159.740860,103.185646 
	C159.625610,103.027565 159.510361,102.869492 159.395126,102.711411 
	C159.418594,102.931168 159.442078,103.150917 159.740860,103.185646 
M175.747681,84.189140 
	C175.629593,84.028023 175.511490,83.866898 175.393402,83.705780 
	C175.417877,83.929939 175.442368,84.154091 175.747681,84.189140 
M169.483688,99.601791 
	C169.483688,99.601791 169.403854,99.474640 169.483688,99.601791 
M171.591629,107.516846 
	C171.591629,107.516846 171.476593,107.586426 171.591629,107.516846 
z"/>
<path fill="#034265" opacity="1.000000" stroke="none" 
	d="
M60.823074,136.130707 
	C57.181648,137.942322 53.526489,139.727066 49.905117,141.577911 
	C48.317535,142.389313 46.798920,143.335648 44.860062,144.442780 
	C37.249359,130.171432 33.750984,115.321617 35.558136,99.569542 
	C40.000607,60.846714 66.436867,34.033390 104.993378,28.388500 
	C109.162994,27.778046 110.419487,28.960560 110.189522,32.953613 
	C109.989151,36.432789 110.249527,39.938503 110.624336,43.956394 
	C110.942352,44.480297 110.939461,44.957520 110.667992,45.274979 
	C110.396523,52.861179 110.396523,60.129925 110.396523,67.410484 
	C108.671959,67.743675 107.878540,67.890022 107.088036,68.050697 
	C85.556778,72.427177 72.906738,92.058701 78.018082,113.157806 
	C78.810631,116.429390 81.056442,120.348656 79.978210,122.803642 
	C78.807594,125.468994 74.574265,126.832146 71.608963,128.653259 
	C69.062332,130.217239 66.356789,131.527618 63.849178,133.147736 
	C62.684299,133.900330 61.822346,135.121796 60.823074,136.130707 
M60.005840,70.999184 
	C60.005840,70.999184 59.969097,71.033592 59.323387,71.330452 
	C56.649467,74.413795 56.649467,74.413795 59.282608,77.470337 
	C59.607269,75.608368 59.834717,74.303925 60.624870,72.957611 
	C61.080849,72.303139 61.536827,71.648666 61.957165,70.471733 
	C61.319740,70.636955 60.682316,70.802185 60.005840,70.999184 
M66.794220,70.497734 
	C66.329124,70.248138 65.864029,69.998550 65.398933,69.748955 
	C65.269806,70.161392 65.140671,70.573830 65.081108,71.702255 
	C65.724426,73.472504 66.367737,75.242744 66.886490,77.714775 
	C65.291763,79.107101 63.697033,80.499428 62.102306,81.891754 
	C70.254677,79.657288 70.804909,78.872299 68.489021,73.622383 
	C67.997757,72.747009 67.506493,71.871628 66.794220,70.497734 
M70.883728,66.301216 
	C67.050690,61.118626 61.397026,63.601582 56.706787,63.587975 
	C53.848392,63.579685 53.105728,67.094238 55.316078,70.051300 
	C58.648388,65.591194 62.070099,64.929565 67.264793,67.162460 
	C68.294914,67.605247 69.739319,67.084229 70.957153,67.609970 
	C71.633865,70.889435 72.888069,74.184181 72.801872,77.443466 
	C72.734688,79.983780 71.000214,82.480003 69.361137,84.944588 
	C68.240479,84.958809 67.119827,84.973022 65.477997,85.200363 
	C64.983452,85.466690 64.488914,85.733017 63.264114,86.078400 
	C61.840328,86.383301 60.416542,86.688202 58.993984,86.362328 
	C58.011883,85.913872 57.029778,85.465416 56.015823,84.523514 
	C56.015823,84.523514 55.988632,84.029793 56.208008,83.455711 
	C53.469311,79.621490 52.179688,75.428528 52.971893,70.689705 
	C53.061241,70.155251 52.862316,69.572601 52.767235,68.756149 
	C47.577377,73.702095 48.658657,80.094765 54.719368,84.696594 
	C53.552334,88.283791 55.052731,90.661011 58.253643,92.103058 
	C60.801384,93.250832 63.758621,93.763969 65.940628,95.366753 
	C67.856689,96.774185 68.948715,99.303444 70.051552,100.843925 
	C69.589653,103.719627 69.159157,106.399803 68.760132,108.884079 
	C67.145103,111.258453 65.433281,113.775131 64.056442,115.799332 
	C62.288300,116.151543 60.647484,116.582726 58.978989,116.781181 
	C57.333431,116.976921 55.659859,116.937096 53.909912,116.352211 
	C52.940033,116.234612 51.970154,116.117004 50.233742,115.977928 
	C49.558205,115.603012 48.674526,115.386597 48.245876,114.823677 
	C46.922405,113.085663 45.772507,111.215477 44.002235,108.570404 
	C44.305088,106.809647 44.888878,103.415543 45.563343,99.494278 
	C46.717373,98.039970 48.457069,95.847618 50.484390,93.292801 
	C51.359608,93.379959 52.894215,93.532791 54.905258,93.733063 
	C48.932396,88.055450 48.945206,88.061554 45.847000,94.567284 
	C45.592148,95.102440 45.065849,95.769882 44.557571,95.880890 
	C40.907204,96.678123 41.489967,99.467819 41.519352,102.029984 
	C41.532242,103.154114 41.800991,104.393959 41.427677,105.382706 
	C40.041168,109.054962 41.049065,111.514778 44.928989,112.746872 
	C43.389263,117.923866 45.323017,119.762695 50.366112,118.838219 
	C51.117287,118.700516 52.391785,119.173531 52.803570,119.783180 
	C56.117401,124.689438 57.901394,120.469093 60.021389,118.630203 
	C62.326706,116.630554 66.669579,121.155037 67.957855,116.098335 
	C67.998322,115.939537 67.919853,115.713219 68.006210,115.609184 
	C68.747467,114.716339 69.378532,113.651436 70.299988,113.004875 
	C72.487831,111.469742 74.012306,109.902870 72.577660,106.972229 
	C72.196022,106.192657 72.141296,104.921448 72.514343,104.158531 
	C74.732117,99.623016 72.785568,97.335091 68.187065,96.315346 
	C68.620758,96.001709 69.054451,95.688065 69.488144,95.374420 
	C68.334877,93.577805 67.181610,91.781181 66.025658,89.496407 
	C66.025658,89.496407 66.026695,89.008255 66.801659,89.003616 
	C68.535194,88.336578 70.268738,87.669533 72.541122,86.537003 
	C72.798256,85.001839 73.055397,83.466682 73.271294,82.177696 
	C77.049385,82.985970 77.444138,81.037956 77.105370,78.216194 
	C76.838318,75.991837 76.763924,73.744331 76.580627,71.180832 
	C75.014923,70.004395 73.010841,68.498558 70.883728,66.301216 
M55.421711,112.520721 
	C56.614254,112.346947 57.806793,112.173164 59.695812,111.924217 
	C61.253448,110.140762 62.811085,108.357307 64.729797,106.160431 
	C63.263935,106.074287 62.635788,106.037369 62.002750,105.250320 
	C62.005928,104.500206 62.009102,103.750099 62.710693,102.988670 
	C63.249985,102.314247 63.789276,101.639824 64.328568,100.965401 
	C60.952320,99.683601 57.442257,97.202881 54.248856,97.559296 
	C52.259865,97.781296 49.305092,102.366348 49.432579,104.857765 
	C49.558926,107.326813 53.008545,109.625809 55.421711,112.520721 
M59.498901,78.063751 
	C58.970078,78.240837 58.441250,78.417923 57.912426,78.595009 
	C58.619385,79.123596 59.326344,79.652176 60.033306,80.180763 
	C60.043293,79.521881 60.053280,78.863007 59.498901,78.063751 
z"/>
<path fill="#FE401F" opacity="1.000000" stroke="none" 
	d="
M165.636871,138.086990 
	C170.088211,140.617676 174.539536,143.148361 179.646942,146.052048 
	C166.096039,167.062195 147.229645,179.904388 122.621552,182.792770 
	C90.347664,186.580933 64.944901,174.051147 45.847771,147.455780 
	C51.046795,144.129761 55.924862,141.009079 61.351917,137.511658 
	C68.832146,132.940704 75.763390,128.746475 82.599220,124.609993 
	C105.989021,145.414520 119.964264,145.770432 142.590042,126.349503 
	C150.264099,130.257812 157.950485,134.172394 165.636871,138.086990 
M110.894249,176.901016 
	C111.513367,176.873871 112.132492,176.846725 113.313553,176.926605 
	C113.503769,176.939987 113.693985,176.953354 113.882401,177.820465 
	C119.216499,177.987671 124.550606,178.154877 130.711594,177.903229 
	C130.851425,168.443268 131.007843,158.983429 131.083008,149.522949 
	C131.086838,149.040283 130.392090,148.552063 129.449234,147.454498 
	C122.990982,146.615738 116.337242,147.319778 109.128189,144.966232 
	C105.103889,144.958725 101.079582,144.951202 96.785858,144.513062 
	C96.171753,144.673462 95.557640,144.833878 94.636490,145.165588 
	C94.570358,145.260651 94.426949,145.402847 94.451286,145.442734 
	C94.564865,145.628922 94.724747,145.786835 94.994972,146.890320 
	C94.953911,156.941528 94.912857,166.992737 94.574753,177.237534 
	C94.715164,177.491501 94.855576,177.745468 95.780106,178.133926 
	C96.349258,177.725189 96.918419,177.316452 97.669235,176.881378 
	C97.669235,176.881378 97.843857,176.824753 98.513985,176.944321 
	C98.967377,176.951736 99.420761,176.959137 100.052757,177.771790 
	C103.488823,178.902954 106.967651,180.568130 110.154839,176.908264 
	C110.154839,176.908264 110.277657,176.831268 110.894249,176.901016 
z"/>
<path fill="#2D3B42" opacity="1.000000" stroke="none" 
	d="
M165.790222,137.760147 
	C157.950485,134.172394 150.264099,130.257812 142.590042,126.349503 
	C119.964264,145.770432 105.989021,145.414520 82.599220,124.609993 
	C75.763390,128.746475 68.832146,132.940704 61.573002,137.262756 
	C61.149147,137.189651 61.053192,136.988724 60.890152,136.459244 
	C61.822346,135.121796 62.684299,133.900330 63.849178,133.147736 
	C66.356789,131.527618 69.062332,130.217239 71.608963,128.653259 
	C74.574265,126.832146 78.807594,125.468994 79.978210,122.803642 
	C81.056442,120.348656 78.810631,116.429390 78.018082,113.157806 
	C72.906738,92.058701 85.556778,72.427177 107.088036,68.050697 
	C107.878540,67.890022 108.671959,67.743675 110.396523,67.410484 
	C110.396523,60.129925 110.396523,52.861179 111.000717,45.314774 
	C112.425041,45.364777 113.245171,45.692436 114.065300,46.020096 
	C114.065300,53.121849 114.065300,60.223598 114.065300,67.535049 
	C116.510025,67.846123 118.116219,68.050499 120.368141,68.424736 
	C121.666107,68.684082 122.318336,68.773575 122.970573,68.863068 
	C136.388168,73.511383 145.321014,82.390671 148.984436,97.044556 
	C149.213623,98.458862 149.344955,99.162148 149.476318,99.865425 
	C149.436539,102.315948 149.396759,104.766479 149.281006,108.011421 
	C149.189178,109.525673 149.173325,110.245499 149.157471,110.965332 
	C147.850037,114.694328 146.542587,118.423317 145.060242,122.651184 
	C151.869827,126.211990 158.846649,129.860245 166.030029,133.967560 
	C166.236588,134.426605 166.481293,134.725235 166.481293,134.725235 
	C166.481293,134.725235 166.860077,134.651520 166.860077,134.651520 
	C166.860077,134.651520 166.945236,134.885986 167.068726,134.862381 
	C166.776016,135.703629 166.359802,136.568466 165.790222,137.760147 
M100.984871,104.440102 
	C100.962440,102.612373 101.582428,100.409828 100.781197,99.036476 
	C99.208855,96.341431 97.274284,93.135727 94.674568,91.988853 
	C92.567665,91.059380 88.719711,92.064491 86.608284,93.566811 
	C81.889565,96.924255 81.840668,110.231438 86.024597,114.223938 
	C89.812843,117.838844 96.323639,117.367851 99.054695,112.835320 
	C100.330521,110.717934 100.379707,107.861450 100.984871,104.440102 
M124.027962,102.643982 
	C123.962196,101.152374 124.185303,99.575714 123.775940,98.185265 
	C122.597244,94.181671 119.923103,91.458290 115.658615,91.201683 
	C111.609436,90.958031 108.004021,93.057518 107.302063,96.895248 
	C106.462845,101.483498 106.232376,106.602539 107.479042,110.997925 
	C108.245316,113.699585 112.032516,116.711807 114.908150,117.262833 
	C117.045891,117.672455 120.709534,114.876411 122.207169,112.550934 
	C123.751167,110.153465 123.496086,106.597351 124.027962,102.643982 
M144.629059,98.819077 
	C142.462601,92.616135 139.925110,91.144958 132.914658,91.545166 
	C130.188126,91.700821 129.062561,92.723320 129.118591,95.484497 
	C129.233063,101.126083 129.250320,106.773865 129.120102,112.414772 
	C129.024658,116.549004 131.021225,116.659393 134.194229,115.494576 
	C134.328201,113.042297 134.452942,110.759071 134.599411,108.078430 
	C140.605164,108.349548 144.057053,105.513664 144.629059,98.819077 
z"/>
<path fill="#414F57" opacity="1.000000" stroke="none" 
	d="
M39.185104,191.373108 
	C39.555294,192.956482 39.645367,194.502258 39.601204,196.044174 
	C39.568829,197.174500 39.360298,198.299789 39.154442,200.084930 
	C38.946728,200.097458 37.556667,200.181244 35.232834,200.321304 
	C37.369537,197.206024 32.009438,192.365433 39.185104,191.373108 
z"/>
<path fill="#3E4D54" opacity="1.000000" stroke="none" 
	d="
M73.710648,194.203033 
	C72.469543,196.576721 71.193466,198.579102 69.917389,200.581467 
	C69.236023,200.318787 68.554657,200.056107 67.873283,199.793427 
	C68.241959,197.086563 68.610634,194.379700 68.979309,191.672836 
	C70.544762,192.392456 72.110214,193.112076 73.710648,194.203033 
z"/>
<path fill="#404E54" opacity="1.000000" stroke="none" 
	d="
M129.031342,198.496735 
	C129.029388,196.127502 129.029388,194.175613 129.029388,190.977524 
	C131.146957,191.768417 133.238922,191.947693 134.104050,193.071457 
	C134.747040,193.906693 134.287949,196.408478 133.426880,197.360306 
	C132.510101,198.373749 130.542252,198.436356 129.031342,198.496735 
z"/>
<path fill="#112831" opacity="1.000000" stroke="none" 
	d="
M28.970915,197.928406 
	C27.189716,199.105042 25.465385,199.853699 23.183350,200.844482 
	C23.183350,197.375153 23.183350,194.965851 23.183350,192.136520 
	C24.544228,192.074341 25.920004,192.011490 27.508953,191.938889 
	C28.035769,193.867935 28.531776,195.684174 28.970915,197.928406 
z"/>
<path fill="#3E4E55" opacity="1.000000" stroke="none" 
	d="
M107.148773,200.245941 
	C105.788986,199.433136 104.187996,198.760788 103.925072,197.742813 
	C103.455345,195.924255 103.792831,193.897171 103.792831,191.767609 
	C105.669632,191.767609 107.143150,191.767609 110.148201,191.767609 
	C107.907829,192.969131 107.035980,193.436707 106.997314,193.457443 
	C106.997314,195.119263 106.997314,196.333618 106.997314,197.719696 
	C107.122833,198.333878 107.316658,199.282257 107.148773,200.245941 
z"/>
<path fill="#E2E4E5" opacity="1.000000" stroke="none" 
	d="
M22.017868,197.543945 
	C20.077291,201.752151 17.930077,201.813232 15.078603,197.756729 
	C16.827925,196.238617 18.648426,194.658722 20.468929,193.078827 
	C21.006760,194.435150 21.544590,195.791489 22.017868,197.543945 
z"/>
<path fill="#515D64" opacity="1.000000" stroke="none" 
	d="
M75.607712,199.319275 
	C75.922089,196.688660 76.223167,194.418533 76.603706,191.549225 
	C76.827560,191.533340 78.027054,191.448227 79.109863,191.371384 
	C79.109863,194.305511 79.109863,196.911102 79.109863,200.187561 
	C78.176613,200.052750 76.885513,199.866257 75.607712,199.319275 
z"/>
<path fill="#CACDCE" opacity="1.000000" stroke="none" 
	d="
M61.958675,193.023621 
	C62.400589,192.979401 62.842503,192.935181 63.718994,193.318909 
	C64.462761,195.511230 64.771942,197.275635 65.081123,199.040024 
	C65.081123,199.040024 65.041649,199.042007 64.864288,198.714203 
	C63.937088,198.535416 63.187244,198.684433 62.229271,198.476135 
	C61.894753,196.761063 61.768356,195.403305 61.806679,193.816559 
	C61.967155,193.399597 61.962914,193.211609 61.958675,193.023621 
z"/>
<path fill="#09232B" opacity="1.000000" stroke="none" 
	d="
M61.641964,194.045532 
	C61.768356,195.403305 61.894753,196.761063 61.855988,198.520325 
	C61.442562,198.955688 61.194286,198.989563 60.946014,199.023438 
	C60.624649,197.609192 60.303288,196.194946 60.321716,194.402130 
	C60.988174,194.037888 61.314991,194.045212 61.641964,194.045532 
z"/>
<path fill="#FDA022" opacity="1.000000" stroke="none" 
	d="
M114.481316,34.632565 
	C114.707581,36.507748 114.815834,38.785332 114.810837,41.379829 
	C114.586151,39.476151 114.474724,37.255554 114.481316,34.632565 
z"/>
<path fill="#CBCED0" opacity="1.000000" stroke="none" 
	d="
M85.987679,192.990814 
	C85.791222,193.922211 85.594765,194.853592 85.405899,195.749008 
	C83.270912,194.287048 83.270912,194.287048 85.656433,192.978607 
	C86.000755,193.000885 85.987679,192.990814 85.987679,192.990814 
z"/>
<path fill="#253840" opacity="1.000000" stroke="none" 
	d="
M65.449333,198.856339 
	C64.771942,197.275635 64.462761,195.511230 64.049561,193.361008 
	C68.186707,193.685852 65.574928,196.648178 65.449333,198.856339 
z"/>
<path fill="#253840" opacity="1.000000" stroke="none" 
	d="
M61.017860,199.317566 
	C61.194286,198.989563 61.442562,198.955688 62.064117,198.877625 
	C63.187244,198.684433 63.937088,198.535416 64.863876,198.733963 
	C63.723785,199.258240 62.406742,199.434952 61.017860,199.317566 
z"/>
<path fill="#FDA022" opacity="1.000000" stroke="none" 
	d="
M117.078186,28.661573 
	C116.662315,28.943642 116.105995,28.968689 115.128998,28.986877 
	C115.451454,28.788198 116.194603,28.596375 117.078186,28.661573 
z"/>
<path fill="#193849" opacity="1.000000" stroke="none" 
	d="
M114.143066,45.614960 
	C113.245171,45.692436 112.425041,45.364777 111.272186,44.997318 
	C110.939461,44.957520 110.942352,44.480297 110.932251,44.241943 
	C111.697861,43.864414 112.473579,43.725239 113.645569,43.581421 
	C114.101509,44.121128 114.161171,44.665478 114.143066,45.614960 
z"/>
<path fill="#FDA022" opacity="1.000000" stroke="none" 
	d="
M190.347565,118.161018 
	C190.200195,117.489761 190.272308,116.527435 190.591614,115.303307 
	C190.748230,115.984322 190.657639,116.927132 190.347565,118.161018 
z"/>
<path fill="#FDA022" opacity="1.000000" stroke="none" 
	d="
M189.286484,123.938072 
	C189.176788,123.303551 189.278473,122.404869 189.626160,121.269699 
	C189.747406,121.913452 189.622635,122.793678 189.286484,123.938072 
z"/>
<path fill="#253840" opacity="1.000000" stroke="none" 
	d="
M61.806679,193.816559 
	C61.314991,194.045212 60.988174,194.037888 60.416100,194.023865 
	C60.557426,193.663864 60.944168,193.303543 61.644791,192.983429 
	C61.962914,193.211609 61.967155,193.399597 61.806679,193.816559 
z"/>
<path fill="#CBCED0" opacity="1.000000" stroke="none" 
	d="
M86.006363,193.007782 
	C86.098206,192.968338 86.184456,192.922012 86.129196,192.933258 
	C85.987679,192.990814 86.000755,193.000885 86.006363,193.007782 
z"/>
<path fill="#FDA022" opacity="1.000000" stroke="none" 
	d="
M189.875961,90.655891 
	C189.634811,90.640846 189.413651,90.307938 189.185333,89.665222 
	C189.417419,89.682961 189.656677,90.010498 189.875961,90.655891 
z"/>
<path fill="#FDA022" opacity="1.000000" stroke="none" 
	d="
M190.880798,96.738060 
	C190.468964,96.835945 190.348312,96.592201 190.603073,96.146652 
	C190.727219,96.044090 190.920715,96.495682 190.880798,96.738060 
z"/>
<path fill="#FDA022" opacity="1.000000" stroke="none" 
	d="
M191.226456,110.077148 
	C191.084564,109.986931 191.076477,109.712471 191.093597,109.024216 
	C191.229568,108.887871 191.365295,109.158813 191.439972,109.445663 
	C191.474625,109.578796 191.390518,109.742851 191.226456,110.077148 
z"/>
<path fill="#F4D7A5" opacity="1.000000" stroke="none" 
	d="
M166.103271,87.280563 
	C167.897110,89.993393 169.348801,92.670532 170.800491,95.347664 
	C170.295166,95.808525 169.789841,96.269379 169.284531,96.730232 
	C167.878998,93.516190 166.473480,90.302147 165.067963,87.088097 
	C164.210938,87.875175 163.353912,88.662247 162.496887,89.449318 
	C163.584961,88.714500 164.673035,87.979683 166.103271,87.280563 
z"/>
<path fill="#FDA022" opacity="1.000000" stroke="none" 
	d="
M149.421875,79.077927 
	C150.181870,77.357094 151.041718,75.911514 151.825760,74.593391 
	C152.839706,76.869720 153.839066,79.113312 154.996506,81.711761 
	C153.333832,80.995468 151.427765,80.174324 149.421875,79.077927 
z"/>
<path fill="#FDA327" opacity="1.000000" stroke="none" 
	d="
M180.866150,73.889206 
	C180.832504,75.598701 180.832504,76.976685 180.832504,78.354660 
	C180.518066,78.448273 180.203629,78.541878 179.889191,78.635490 
	C179.150635,76.958389 178.412064,75.281288 177.183548,72.491653 
	C178.916626,72.988800 179.908203,73.273239 180.866150,73.889206 
z"/>
<path fill="#FDA327" opacity="1.000000" stroke="none" 
	d="
M165.806335,83.379456 
	C161.313934,86.847237 163.859543,80.526825 161.706329,80.527657 
	C163.679245,80.878151 165.652176,81.228645 167.993896,81.644653 
	C167.102524,82.289101 166.527802,82.704605 165.806335,83.379456 
z"/>
<path fill="#FCA329" opacity="1.000000" stroke="none" 
	d="
M160.309662,95.064850 
	C159.449997,94.431839 158.748871,94.053856 158.047745,93.675880 
	C158.285416,93.333420 158.523087,92.990959 158.760757,92.648499 
	C160.502243,93.885361 162.243729,95.122215 163.985214,96.359077 
	C163.830887,96.721786 163.676575,97.084496 163.522263,97.447205 
	C162.870193,97.381332 162.054840,97.531647 161.607941,97.194122 
	C161.065567,96.784492 160.834137,95.963120 160.309662,95.064850 
z"/>
<path fill="#FDA327" opacity="1.000000" stroke="none" 
	d="
M174.603851,88.351318 
	C174.270920,89.376122 173.821701,90.079468 172.493607,92.158875 
	C172.229080,89.057899 172.093430,87.467522 171.833313,84.418282 
	C173.288422,86.398201 173.888000,87.214027 174.603851,88.351318 
z"/>
<path fill="#FDA327" opacity="1.000000" stroke="none" 
	d="
M176.588715,79.276917 
	C175.799622,78.496445 175.199997,77.959358 174.195023,77.059196 
	C175.391403,76.732430 176.215851,76.507256 177.040298,76.282074 
	C177.203781,77.536125 177.367264,78.790192 177.530746,80.044250 
	C177.382462,79.997810 177.212494,79.982002 177.091797,79.896591 
	C176.962997,79.805435 176.880753,79.648506 176.588715,79.276917 
z"/>
<path fill="#FCA42A" opacity="1.000000" stroke="none" 
	d="
M179.057297,102.943039 
	C179.787064,103.840027 180.516846,104.737015 181.246613,105.633995 
	C180.851059,105.880798 180.455505,106.127602 180.059967,106.374413 
	C179.697327,105.491989 179.334702,104.609566 178.986755,103.360977 
	C179.001434,102.994804 179.057297,102.943039 179.057297,102.943039 
z"/>
<path fill="#FDA022" opacity="1.000000" stroke="none" 
	d="
M156.201416,112.176407 
	C156.831345,112.661163 157.162430,113.203171 157.493530,113.745171 
	C156.963135,113.895950 156.432755,114.046738 155.902359,114.197525 
	C155.902420,113.542900 155.902496,112.888275 156.201416,112.176407 
z"/>
<path fill="#FEA122" opacity="1.000000" stroke="none" 
	d="
M163.527130,99.687958 
	C163.533188,100.446083 163.327591,100.983917 163.121979,101.521744 
	C162.846725,101.386192 162.571457,101.250641 162.296188,101.115097 
	C162.635956,100.565956 162.975723,100.016808 163.527130,99.687958 
z"/>
<path fill="#FCA329" opacity="1.000000" stroke="none" 
	d="
M165.388428,98.980942 
	C166.202637,98.875671 167.005508,99.055397 167.808365,99.235130 
	C167.691544,99.592789 167.574722,99.950455 167.457901,100.308121 
	C166.764282,99.960732 166.070679,99.613335 165.388428,98.980942 
z"/>
<path fill="#FDA327" opacity="1.000000" stroke="none" 
	d="
M170.363678,75.382568 
	C170.734863,75.801292 170.826553,76.316116 170.918243,76.830948 
	C170.284241,76.799080 169.650238,76.767220 169.016235,76.735352 
	C169.372223,76.316460 169.728195,75.897568 170.363678,75.382568 
z"/>
<path fill="#FCA42A" opacity="1.000000" stroke="none" 
	d="
M172.401642,104.539719 
	C172.679016,104.022430 173.071045,103.765282 173.463074,103.508133 
	C173.596466,103.925186 173.729843,104.342239 173.863220,104.759300 
	C173.414246,104.772820 172.965286,104.786331 172.401642,104.539719 
z"/>
<path fill="#FEA122" opacity="1.000000" stroke="none" 
	d="
M161.394028,109.954376 
	C161.791458,109.711876 162.186676,109.713539 162.579758,109.743523 
	C162.590439,109.744339 162.585159,110.193428 162.575012,110.193954 
	C162.181412,110.214172 161.786377,110.206444 161.394028,109.954376 
z"/>
<path fill="#FDA022" opacity="1.000000" stroke="none" 
	d="
M156.045319,109.391716 
	C156.288345,109.789978 156.286682,110.186203 156.256348,110.580238 
	C156.255493,110.591286 155.948380,110.578758 155.784073,110.577232 
	C155.788254,110.181282 155.792419,109.785332 156.045319,109.391716 
z"/>
<path fill="#FDA022" opacity="1.000000" stroke="none" 
	d="
M156.389160,90.465981 
	C155.939774,90.350182 155.664383,90.067398 155.410294,89.766647 
	C155.403778,89.758949 155.630768,89.553947 155.748856,89.440948 
	C156.021210,89.726181 156.293579,90.011414 156.389160,90.465981 
z"/>
<path fill="#FDA327" opacity="1.000000" stroke="none" 
	d="
M169.614655,84.760559 
	C168.990128,84.952408 168.299316,84.902054 167.608521,84.851692 
	C167.695267,84.593285 167.782028,84.334877 167.868774,84.076462 
	C168.428650,84.223755 168.988525,84.371048 169.614655,84.760559 
z"/>
<path fill="#FCA42A" opacity="1.000000" stroke="none" 
	d="
M175.942902,104.616661 
	C175.696106,104.212677 175.697723,103.809700 175.727600,103.408836 
	C175.728363,103.398651 176.184799,103.403954 176.185394,103.414894 
	C176.206512,103.814972 176.198792,104.216560 175.942902,104.616661 
z"/>
<path fill="#FEA122" opacity="1.000000" stroke="none" 
	d="
M169.891113,104.105659 
	C169.387878,103.826256 168.884659,103.546860 168.381424,103.267456 
	C168.510269,103.067932 168.639114,102.868408 168.767975,102.668892 
	C169.116699,102.943077 169.465408,103.217262 169.894165,103.760773 
	C169.974213,104.030106 169.891113,104.105659 169.891113,104.105659 
z"/>
<path fill="#FDA022" opacity="1.000000" stroke="none" 
	d="
M149.630676,99.644012 
	C149.344955,99.162148 149.213623,98.458862 149.121307,97.396370 
	C149.368576,97.832306 149.576813,98.627457 149.630676,99.644012 
z"/>
<path fill="#FCA42A" opacity="1.000000" stroke="none" 
	d="
M170.643646,101.203690 
	C170.947983,100.852135 171.196838,100.715958 171.445709,100.579788 
	C171.520508,100.837852 171.595322,101.095924 171.670120,101.353989 
	C171.309479,101.375687 170.948822,101.397377 170.643646,101.203690 
z"/>
<path fill="#FDA327" opacity="1.000000" stroke="none" 
	d="
M165.605103,78.781700 
	C165.465027,79.208305 165.192383,79.468582 164.901642,79.706749 
	C164.889954,79.716331 164.706894,79.516693 164.603683,79.414536 
	C164.892227,79.146843 165.180756,78.879150 165.605103,78.781700 
z"/>
<path fill="#FDA022" opacity="1.000000" stroke="none" 
	d="
M149.367416,110.794693 
	C149.173325,110.245499 149.189178,109.525673 149.340637,108.470352 
	C149.509933,108.964592 149.543640,109.794319 149.367416,110.794693 
z"/>
<path fill="#FEA122" opacity="1.000000" stroke="none" 
	d="
M167.116058,109.296768 
	C167.406937,109.214607 167.790405,109.303978 167.876175,109.514595 
	C167.944366,109.682022 167.648636,109.997681 167.514481,110.247520 
	C167.369720,110.005219 167.224960,109.762924 167.116058,109.296768 
z"/>
<path fill="#FDA022" opacity="1.000000" stroke="none" 
	d="
M179.159897,108.303192 
	C179.496857,108.583748 179.615646,108.833237 179.734451,109.082733 
	C179.494278,109.154610 179.254089,109.226479 179.013916,109.298355 
	C178.989853,108.956276 178.965790,108.614204 179.159897,108.303192 
z"/>
<path fill="#FCA42A" opacity="1.000000" stroke="none" 
	d="
M180.012146,97.764084 
	C179.897964,97.591110 179.954025,97.416496 180.010101,97.241882 
	C180.067551,97.415398 180.124969,97.588921 180.012146,97.764084 
z"/>
<path fill="#FDA022" opacity="1.000000" stroke="none" 
	d="
M122.736504,68.622452 
	C122.318336,68.773575 121.666107,68.684082 120.766235,68.364594 
	C121.179871,68.217003 121.841156,68.299416 122.736504,68.622452 
z"/>
<path fill="#FCA42A" opacity="1.000000" stroke="none" 
	d="
M177.734283,94.348457 
	C177.992294,94.363121 178.133133,94.501129 178.273956,94.639137 
	C178.055008,94.583359 177.836060,94.527580 177.734283,94.348457 
z"/>
<path fill="#FDA022" opacity="1.000000" stroke="none" 
	d="
M153.989273,87.241455 
	C154.099518,87.408371 154.045425,87.576981 153.991318,87.745583 
	C153.935867,87.578102 153.880402,87.410629 153.989273,87.241455 
z"/>
<path fill="#FCA42A" opacity="1.000000" stroke="none" 
	d="
M178.971313,103.018127 
	C178.824814,102.581909 178.708435,102.122368 178.592056,101.662827 
	C178.727768,101.930565 178.863480,102.198303 179.028244,102.704544 
	C179.057297,102.943039 179.001434,102.994804 178.971313,103.018127 
z"/>
<path fill="#FEA122" opacity="1.000000" stroke="none" 
	d="
M159.603210,103.278160 
	C159.442078,103.150917 159.418594,102.931168 159.395126,102.711411 
	C159.510361,102.869492 159.625610,103.027565 159.603210,103.278160 
z"/>
<path fill="#FDA327" opacity="1.000000" stroke="none" 
	d="
M175.607269,84.283691 
	C175.442368,84.154091 175.417877,83.929939 175.393402,83.705780 
	C175.511490,83.866898 175.629593,84.028023 175.607269,84.283691 
z"/>
<path fill="#FEA122" opacity="1.000000" stroke="none" 
	d="
M170.018982,103.996216 
	C170.183487,104.418770 170.303223,104.875206 170.422943,105.331650 
	C170.275803,105.077042 170.128662,104.822433 169.936310,104.336746 
	C169.891113,104.105659 169.974213,104.030106 170.018982,103.996216 
z"/>
<path fill="#FCA42A" opacity="1.000000" stroke="none" 
	d="
M169.443771,99.538216 
	C169.403854,99.474640 169.483688,99.601791 169.443771,99.538216 
z"/>
<path fill="#FEA122" opacity="1.000000" stroke="none" 
	d="
M164.966522,111.044060 
	C164.852386,110.883675 164.738266,110.723282 164.624146,110.562897 
	C164.718658,110.607063 164.813187,110.651230 164.954132,110.849442 
	C165.000549,111.003471 164.966522,111.044060 164.966522,111.044060 
z"/>
<path fill="#FEA122" opacity="1.000000" stroke="none" 
	d="
M171.534119,107.551636 
	C171.476593,107.586426 171.591629,107.516846 171.534119,107.551636 
z"/>
<path fill="#FDA022" opacity="1.000000" stroke="none" 
	d="
M166.808472,134.519821 
	C166.860077,134.651520 166.481293,134.725235 166.481293,134.725235 
	C166.481293,134.725235 166.236588,134.426605 166.272949,134.235809 
	C166.489609,134.118851 166.638794,134.233231 166.808472,134.519821 
z"/>
<path fill="#FEA122" opacity="1.000000" stroke="none" 
	d="
M165.020569,110.986130 
	C165.152908,111.125870 165.265213,111.282936 165.377502,111.440010 
	C165.285477,111.396263 165.193466,111.352509 165.033981,111.176407 
	C164.966522,111.044060 165.000549,111.003471 165.020569,110.986130 
z"/>
<path fill="#053F63" opacity="1.000000" stroke="none" 
	d="
M53.998577,117.000610 
	C55.659859,116.937096 57.333431,116.976921 58.978989,116.781181 
	C60.647484,116.582726 62.288300,116.151543 64.056442,115.799332 
	C65.433281,113.775131 67.145103,111.258453 68.760132,108.884079 
	C69.159157,106.399803 69.589653,103.719627 70.051552,100.843925 
	C68.948715,99.303444 67.856689,96.774185 65.940628,95.366753 
	C63.758621,93.763969 60.801384,93.250832 58.253643,92.103058 
	C55.052731,90.661011 53.552334,88.283791 55.106247,84.376129 
	C55.493126,84.055672 55.988632,84.029793 55.988632,84.029793 
	C55.988632,84.029793 56.015823,84.523514 56.074074,85.110703 
	C57.085800,86.129623 58.039280,86.561363 58.992756,86.993103 
	C60.416542,86.688202 61.840328,86.383301 63.801384,86.269760 
	C64.892159,85.969826 65.445663,85.478531 65.999168,84.987236 
	C67.119827,84.973022 68.240479,84.958809 70.003632,85.013191 
	C71.098175,85.722031 71.550224,86.362259 72.002274,87.002495 
	C70.268738,87.669533 68.535194,88.336578 66.096458,88.862793 
	C64.173988,88.721970 62.956726,88.721970 61.739460,88.721970 
	C61.766846,89.142830 61.794231,89.563698 61.821617,89.984558 
	C63.223858,89.984558 64.626099,89.984558 66.028343,89.984558 
	C67.181610,91.781181 68.334877,93.577805 69.488144,95.374420 
	C69.054451,95.688065 68.620758,96.001709 68.187065,96.315346 
	C72.785568,97.335091 74.732117,99.623016 72.514343,104.158531 
	C72.141296,104.921448 72.196022,106.192657 72.577660,106.972229 
	C74.012306,109.902870 72.487831,111.469742 70.299988,113.004875 
	C69.378532,113.651436 68.747467,114.716339 68.006210,115.609184 
	C67.919853,115.713219 67.998322,115.939537 67.957855,116.098335 
	C66.669579,121.155037 62.326706,116.630554 60.021389,118.630203 
	C57.901394,120.469093 56.117401,124.689438 52.803570,119.783180 
	C52.391785,119.173531 51.117287,118.700516 50.366112,118.838219 
	C45.323017,119.762695 43.389263,117.923866 44.928989,112.746872 
	C41.049065,111.514778 40.041168,109.054962 41.427677,105.382706 
	C41.800991,104.393959 41.532242,103.154114 41.519352,102.029984 
	C41.489967,99.467819 40.907204,96.678123 44.557571,95.880890 
	C45.065849,95.769882 45.592148,95.102440 45.847000,94.567284 
	C48.945206,88.061554 48.932396,88.055450 54.905258,93.733063 
	C52.894215,93.532791 51.359608,93.379959 50.484390,93.292801 
	C48.457069,95.847618 46.717373,98.039970 45.563343,99.494278 
	C44.888878,103.415543 44.305088,106.809647 44.002235,108.570404 
	C45.772507,111.215477 46.922405,113.085663 48.245876,114.823677 
	C48.674526,115.386597 49.558205,115.603012 50.822990,116.250481 
	C52.274357,116.682228 53.136467,116.841415 53.998577,117.000610 
z"/>
<path fill="#053F63" opacity="1.000000" stroke="none" 
	d="
M62.007637,106.000458 
	C62.635788,106.037369 63.263935,106.074287 64.729797,106.160431 
	C62.811085,108.357307 61.253448,110.140762 59.136829,111.701485 
	C57.385426,111.652298 56.193005,111.825844 55.000580,111.999390 
	C53.008545,109.625809 49.558926,107.326813 49.432579,104.857765 
	C49.305092,102.366348 52.259865,97.781296 54.248856,97.559296 
	C57.442257,97.202881 60.952320,99.683601 64.328568,100.965401 
	C63.789276,101.639824 63.249985,102.314247 62.191700,102.670380 
	C59.703915,99.530251 56.761143,99.088264 54.285748,100.729683 
	C52.964027,101.606110 52.465786,104.317848 52.399422,106.229172 
	C52.368893,107.108498 54.468498,108.970367 55.256371,108.798775 
	C57.598835,108.288628 59.769707,106.990578 62.007637,106.000458 
z"/>
<path fill="#044063" opacity="1.000000" stroke="none" 
	d="
M62.005196,105.625389 
	C59.769707,106.990578 57.598835,108.288628 55.256371,108.798775 
	C54.468498,108.970367 52.368893,107.108498 52.399422,106.229172 
	C52.465786,104.317848 52.964027,101.606110 54.285748,100.729683 
	C56.761143,99.088264 59.703915,99.530251 61.842491,102.676041 
	C62.009102,103.750099 62.005928,104.500206 62.005196,105.625389 
z"/>
<path fill="#0D4467" opacity="1.000000" stroke="none" 
	d="
M72.271698,86.769745 
	C71.550224,86.362259 71.098175,85.722031 70.326401,85.038803 
	C71.000214,82.480003 72.734688,79.983780 72.801872,77.443466 
	C72.888069,74.184181 71.633865,70.889435 70.978546,67.305023 
	C70.999931,67.000069 71.006760,66.992722 71.006760,66.992722 
	C73.010841,68.498558 75.014923,70.004395 76.580627,71.180832 
	C76.763924,73.744331 76.838318,75.991837 77.105370,78.216194 
	C77.444138,81.037956 77.049385,82.985970 73.271294,82.177696 
	C73.055397,83.466682 72.798256,85.001839 72.271698,86.769745 
z"/>
<path fill="#0D4467" opacity="1.000000" stroke="none" 
	d="
M70.996307,67.003868 
	C69.739319,67.084229 68.294914,67.605247 67.264793,67.162460 
	C62.070099,64.929565 58.648388,65.591194 55.316078,70.051300 
	C53.105728,67.094238 53.848392,63.579685 56.706787,63.587975 
	C61.397026,63.601582 67.050690,61.118626 70.945244,66.646973 
	C71.006760,66.992722 70.999931,67.000069 70.996307,67.003868 
z"/>
<path fill="#0D4467" opacity="1.000000" stroke="none" 
	d="
M56.098320,83.742752 
	C55.988632,84.029793 55.493126,84.055672 55.247765,84.093262 
	C48.658657,80.094765 47.577377,73.702095 52.767235,68.756149 
	C52.862316,69.572601 53.061241,70.155251 52.971893,70.689705 
	C52.179688,75.428528 53.469311,79.621490 56.098320,83.742752 
z"/>
<path fill="#0D4467" opacity="1.000000" stroke="none" 
	d="
M68.985138,73.994629 
	C70.804909,78.872299 70.254677,79.657288 62.102306,81.891754 
	C63.697033,80.499428 65.291763,79.107101 67.291405,77.306717 
	C68.125923,75.930656 68.555527,74.962639 68.985138,73.994629 
z"/>
<path fill="#0D4467" opacity="1.000000" stroke="none" 
	d="
M60.062164,72.999481 
	C59.834717,74.303925 59.607269,75.608368 59.282608,77.470337 
	C56.649467,74.413795 56.649467,74.413795 59.665756,71.509171 
	C60.026134,72.125084 60.044147,72.562279 60.062164,72.999481 
z"/>
<path fill="#044164" opacity="1.000000" stroke="none" 
	d="
M68.737076,73.808502 
	C68.555527,74.962639 68.125923,75.930656 67.353683,76.955826 
	C66.367737,75.242744 65.724426,73.472504 65.379990,71.349457 
	C66.124329,70.996521 66.569786,70.996391 67.015236,70.996254 
	C67.506493,71.871628 67.997757,72.747009 68.737076,73.808502 
z"/>
<path fill="#0D4467" opacity="1.000000" stroke="none" 
	d="
M66.027000,89.740479 
	C64.626099,89.984558 63.223858,89.984558 61.821617,89.984558 
	C61.794231,89.563698 61.766846,89.142830 61.739460,88.721970 
	C62.956726,88.721970 64.173988,88.721970 65.708977,88.865112 
	C66.026695,89.008255 66.025658,89.496407 66.027000,89.740479 
z"/>
<path fill="#044063" opacity="1.000000" stroke="none" 
	d="
M55.211147,112.260056 
	C56.193005,111.825844 57.385426,111.652298 58.788589,111.739075 
	C57.806793,112.173164 56.614254,112.346947 55.211147,112.260056 
z"/>
<path fill="#0D4467" opacity="1.000000" stroke="none" 
	d="
M58.993370,86.677719 
	C58.039280,86.561363 57.085800,86.129623 56.090000,85.357422 
	C57.029778,85.465416 58.011883,85.913872 58.993370,86.677719 
z"/>
<path fill="#0D4467" opacity="1.000000" stroke="none" 
	d="
M59.781082,78.133942 
	C60.053280,78.863007 60.043293,79.521881 60.033302,80.180763 
	C59.326344,79.652176 58.619385,79.123596 57.912426,78.595009 
	C58.441250,78.417923 58.970078,78.240837 59.781082,78.133942 
z"/>
<path fill="#044063" opacity="1.000000" stroke="none" 
	d="
M53.954247,116.676407 
	C53.136467,116.841415 52.274357,116.682228 51.206261,116.261215 
	C51.970154,116.117004 52.940033,116.234612 53.954247,116.676407 
z"/>
<path fill="#044164" opacity="1.000000" stroke="none" 
	d="
M60.343513,72.978546 
	C60.044147,72.562279 60.026134,72.125084 59.988609,71.360733 
	C59.969097,71.033592 60.005840,70.999184 60.349533,70.995247 
	C61.126419,70.992279 61.559616,70.993240 61.992805,70.994202 
	C61.536827,71.648666 61.080849,72.303139 60.343513,72.978546 
z"/>
<path fill="#0D4467" opacity="1.000000" stroke="none" 
	d="
M65.738586,85.093796 
	C65.445663,85.478531 64.892159,85.969826 64.166512,86.230225 
	C64.488914,85.733017 64.983452,85.466690 65.738586,85.093796 
z"/>
<path fill="#0D4467" opacity="1.000000" stroke="none" 
	d="
M66.904724,70.746994 
	C66.569786,70.996391 66.124329,70.996521 65.345215,70.991455 
	C65.140671,70.573830 65.269806,70.161392 65.398933,69.748955 
	C65.864029,69.998550 66.329124,70.248138 66.904724,70.746994 
z"/>
<path fill="#0D4467" opacity="1.000000" stroke="none" 
	d="
M61.974987,70.732971 
	C61.559616,70.993240 61.126419,70.992279 60.369057,70.979355 
	C60.682316,70.802185 61.319740,70.636955 61.974987,70.732971 
z"/>
<path fill="#FD4222" opacity="1.000000" stroke="none" 
	d="
M113.884193,176.966736 
	C113.693985,176.953354 113.503769,176.939987 112.902481,176.649078 
	C111.753487,176.524796 111.015572,176.678024 110.277657,176.831268 
	C110.277657,176.831268 110.154839,176.908264 109.633179,176.981506 
	C106.032394,177.025360 102.953278,176.995956 99.874153,176.966553 
	C99.420761,176.959137 98.967377,176.951736 98.239014,176.446625 
	C97.635071,172.294510 97.306091,168.640076 96.920547,164.640182 
	C96.882530,163.829178 96.901077,163.363647 97.120346,162.858414 
	C97.187431,162.579239 97.053787,162.339737 96.883270,161.641174 
	C96.889122,158.124847 96.931847,155.067566 97.185875,151.916077 
	C97.673180,151.654343 97.860107,151.416733 98.425972,151.049438 
	C108.942665,151.029861 118.991341,151.069901 129.125366,151.299774 
	C129.377441,151.726608 129.599991,151.885452 129.948883,152.432251 
	C129.972397,160.610916 129.925369,168.323425 129.687836,176.128372 
	C129.261276,176.396729 129.105865,176.627090 128.566437,176.974838 
	C123.362595,177.014130 118.623390,176.990433 113.884193,176.966736 
M106.037148,167.317535 
	C105.851189,167.020996 105.587830,166.832748 105.067657,166.292618 
	C104.889183,165.992554 104.630669,165.799881 104.092560,165.259537 
	C103.892998,164.974548 103.624207,164.790848 102.960945,164.056030 
	C102.596169,162.986893 102.231392,161.917755 101.725388,160.434708 
	C98.239868,163.146362 101.306892,164.260010 102.709656,166.005417 
	C102.883110,166.202011 103.078423,166.373764 103.636192,167.021057 
	C103.929878,167.293060 104.223564,167.565079 104.695435,168.080917 
	C104.828201,168.237534 104.982964,168.368088 105.689125,169.056488 
	C106.074997,169.084641 106.460869,169.112778 106.846741,169.140915 
	C106.637489,168.686829 106.428230,168.232758 106.037148,167.317535 
M104.831017,160.096939 
	C105.066414,159.601868 105.301811,159.106796 105.537201,158.611725 
	C104.788101,158.905945 104.039009,159.200165 102.841125,159.975266 
	C103.317986,160.075531 103.794853,160.175797 104.831017,160.096939 
M107.613991,170.441452 
	C107.959595,170.778503 108.305199,171.115540 108.650795,171.452591 
	C108.523773,170.989273 108.396751,170.525970 107.613991,170.441452 
z"/>
<path fill="#FE3810" opacity="1.000000" stroke="none" 
	d="
M110.066826,144.998566 
	C116.337242,147.319778 122.990982,146.615738 129.679184,148.024445 
	C129.681778,148.868668 129.454407,149.142960 128.753006,149.296661 
	C120.854340,149.113510 113.429695,149.050949 105.913994,148.714813 
	C105.246857,147.943878 104.670792,147.446472 104.302139,146.643890 
	C106.361984,145.891998 108.214401,145.445282 110.066826,144.998566 
z"/>
<path fill="#F4A192" opacity="1.000000" stroke="none" 
	d="
M96.974571,152.010300 
	C96.931847,155.067566 96.889122,158.124847 96.879227,161.840286 
	C96.912056,162.498459 96.919617,162.898102 96.919617,162.898102 
	C96.901077,163.363647 96.882530,163.829178 96.868210,165.090240 
	C97.077477,169.559738 97.282524,173.233734 97.487572,176.907715 
	C96.918419,177.316452 96.349258,177.725189 95.373459,177.825684 
	C94.966820,177.517426 94.871803,177.043945 94.871803,177.043945 
	C94.912857,166.992737 94.953911,156.941528 94.973686,146.184311 
	C94.952400,145.478302 94.943535,144.994278 94.943535,144.994278 
	C95.557640,144.833878 96.171753,144.673462 96.880157,144.993286 
	C96.963051,145.651596 96.951653,145.829697 96.705956,146.200256 
	C96.661858,147.579056 96.852058,148.765396 97.036781,150.228775 
	C97.028473,150.690521 97.025635,150.875214 96.967529,151.295319 
	C96.912270,151.530731 96.974571,152.010300 96.974571,152.010300 
z"/>
<path fill="#F2BAAF" opacity="1.000000" stroke="none" 
	d="
M129.227036,149.417236 
	C129.454407,149.142960 129.681778,148.868668 129.965851,148.330414 
	C130.392090,148.552063 131.086838,149.040283 131.083008,149.522949 
	C131.007843,158.983429 130.851425,168.443268 130.322021,177.749176 
	C129.930008,177.353699 129.927567,177.112274 129.945007,176.660355 
	C129.964890,176.449860 129.878357,176.035950 129.878357,176.035950 
	C129.925369,168.323425 129.972397,160.610916 129.990448,152.226349 
	C129.961456,151.554321 129.907120,151.137756 129.874908,150.905273 
	C129.637466,150.254288 129.432251,149.835754 129.227036,149.417236 
z"/>
<path fill="#F4A192" opacity="1.000000" stroke="none" 
	d="
M129.925140,176.870850 
	C129.927567,177.112274 129.930008,177.353699 129.908569,177.958588 
	C124.550606,178.154877 119.216499,177.987671 113.883301,177.393600 
	C118.623390,176.990433 123.362595,177.014130 128.791580,177.000763 
	C129.481369,176.963715 129.925140,176.870850 129.925140,176.870850 
z"/>
<path fill="#EF735F" opacity="1.000000" stroke="none" 
	d="
M96.940247,146.007812 
	C96.951653,145.829697 96.963051,145.651596 97.014862,145.208588 
	C101.079582,144.951202 105.103889,144.958725 109.597504,144.982391 
	C108.214401,145.445282 106.361984,145.891998 103.951057,146.639496 
	C101.241783,146.629440 99.091019,146.318634 96.940247,146.007812 
z"/>
<path fill="#F4A192" opacity="1.000000" stroke="none" 
	d="
M99.963455,177.369171 
	C102.953278,176.995956 106.032394,177.025360 109.568344,177.013916 
	C106.967651,180.568130 103.488823,178.902954 99.963455,177.369171 
z"/>
<path fill="#FE360D" opacity="1.000000" stroke="none" 
	d="
M97.578400,176.894547 
	C97.282524,173.233734 97.077477,169.559738 96.924774,165.435699 
	C97.306091,168.640076 97.635071,172.294510 97.903946,176.386841 
	C97.843857,176.824753 97.669235,176.881378 97.578400,176.894547 
z"/>
<path fill="#FE360D" opacity="1.000000" stroke="none" 
	d="
M110.585953,176.866150 
	C111.015572,176.678024 111.753487,176.524796 112.621506,176.595581 
	C112.132492,176.846725 111.513367,176.873871 110.585953,176.866150 
z"/>
<path fill="#FF360B" opacity="1.000000" stroke="none" 
	d="
M94.723282,177.140747 
	C94.871803,177.043945 94.966820,177.517426 94.981400,177.758423 
	C94.855576,177.745468 94.715164,177.491501 94.723282,177.140747 
z"/>
<path fill="#FF360B" opacity="1.000000" stroke="none" 
	d="
M94.790009,145.079926 
	C94.943535,144.994278 94.952400,145.478302 94.910240,145.716583 
	C94.724747,145.786835 94.564865,145.628922 94.451286,145.442734 
	C94.426949,145.402847 94.570358,145.260651 94.790009,145.079926 
z"/>
<path fill="#F0F2F2" opacity="1.000000" stroke="none" 
	d="
M100.984863,104.890030 
	C100.379707,107.861450 100.330521,110.717934 99.054695,112.835320 
	C96.323639,117.367851 89.812843,117.838844 86.024597,114.223938 
	C81.840668,110.231438 81.889565,96.924255 86.608284,93.566811 
	C88.719711,92.064491 92.567665,91.059380 94.674568,91.988853 
	C97.274284,93.135727 99.208855,96.341431 100.781197,99.036476 
	C101.582428,100.409828 100.962440,102.612373 100.984863,104.890030 
M90.640877,110.857719 
	C92.329498,109.987343 95.393707,109.208641 95.458916,108.230072 
	C95.690956,104.748428 97.656685,100.786934 93.658760,97.793694 
	C91.007843,95.808968 89.190506,96.834373 89.018707,99.290283 
	C88.763557,102.937607 89.580017,106.659897 90.640877,110.857719 
z"/>
<path fill="#F1F2F2" opacity="1.000000" stroke="none" 
	d="
M124.028046,103.096077 
	C123.496086,106.597351 123.751167,110.153465 122.207169,112.550934 
	C120.709534,114.876411 117.045891,117.672455 114.908150,117.262833 
	C112.032516,116.711807 108.245316,113.699585 107.479042,110.997925 
	C106.232376,106.602539 106.462845,101.483498 107.302063,96.895248 
	C108.004021,93.057518 111.609436,90.958031 115.658615,91.201683 
	C119.923103,91.458290 122.597244,94.181671 123.775940,98.185265 
	C124.185303,99.575714 123.962196,101.152374 124.028046,103.096077 
M112.373497,109.680046 
	C115.345306,112.301704 117.771744,111.538795 118.695862,107.978241 
	C119.343292,105.483749 119.358528,102.553993 118.675453,100.090538 
	C118.286880,98.689194 115.926308,97.834648 114.453789,96.733864 
	C113.544205,97.964691 112.010956,99.121643 111.854599,100.441689 
	C111.526917,103.208168 111.923981,106.060486 112.373497,109.680046 
z"/>
<path fill="#F3F4F4" opacity="1.000000" stroke="none" 
	d="
M144.679688,99.193123 
	C144.057053,105.513664 140.605164,108.349548 134.599411,108.078430 
	C134.452942,110.759071 134.328201,113.042297 134.194229,115.494576 
	C131.021225,116.659393 129.024658,116.549004 129.120102,112.414772 
	C129.250320,106.773865 129.233063,101.126083 129.118591,95.484497 
	C129.062561,92.723320 130.188126,91.700821 132.914658,91.545166 
	C139.925110,91.144958 142.462601,92.616135 144.679688,99.193123 
z"/>
<path fill="#F0998A" opacity="1.000000" stroke="none" 
	d="
M128.753006,149.296661 
	C129.432251,149.835754 129.637466,150.254288 129.659149,150.866760 
	C129.475632,151.060730 129.040024,151.109955 129.040024,151.109955 
	C118.991341,151.069901 108.942665,151.029861 98.193375,151.015411 
	C97.492775,151.041016 97.022797,151.059921 97.022797,151.059921 
	C97.025635,150.875214 97.028473,150.690521 97.471527,150.248352 
	C100.609512,149.656708 103.307289,149.322540 106.005058,148.988373 
	C113.429695,149.050949 120.854340,149.113510 128.753006,149.296661 
z"/>
<path fill="#F7E1DB" opacity="1.000000" stroke="none" 
	d="
M102.470757,165.697723 
	C101.306892,164.260010 98.239868,163.146362 101.725388,160.434708 
	C102.231392,161.917755 102.596169,162.986893 102.909569,164.621262 
	C102.729050,165.356903 102.599899,165.527313 102.470757,165.697723 
z"/>
<path fill="#F7E1DB" opacity="1.000000" stroke="none" 
	d="
M103.289917,159.494400 
	C104.039009,159.200165 104.788101,158.905945 105.537201,158.611725 
	C105.301811,159.106796 105.066414,159.601868 104.316490,159.977798 
	C103.631279,159.737244 103.460594,159.615814 103.289917,159.494400 
z"/>
<path fill="#F7E1DB" opacity="1.000000" stroke="none" 
	d="
M107.941856,170.252045 
	C108.396751,170.525970 108.523773,170.989273 108.650803,171.452591 
	C108.305199,171.115540 107.959595,170.778503 107.941856,170.252045 
z"/>
<path fill="#F7E1DB" opacity="1.000000" stroke="none" 
	d="
M104.292114,165.714584 
	C104.630669,165.799881 104.889183,165.992554 104.953888,166.779633 
	C104.732491,167.456787 104.624870,167.646942 104.517250,167.837082 
	C104.223564,167.565079 103.929878,167.293060 103.723602,166.579956 
	C103.971382,165.997421 104.131752,165.856003 104.292114,165.714584 
z"/>
<path fill="#FE360D" opacity="1.000000" stroke="none" 
	d="
M129.945007,176.660355 
	C129.925140,176.870850 129.481369,176.963715 129.256226,176.937775 
	C129.105865,176.627090 129.261276,176.396729 129.687836,176.128372 
	C129.878357,176.035950 129.964890,176.449860 129.945007,176.660355 
z"/>
<path fill="#F7E1DB" opacity="1.000000" stroke="none" 
	d="
M106.218971,167.778671 
	C106.428230,168.232758 106.637489,168.686829 106.846741,169.140915 
	C106.460869,169.112778 106.074997,169.084641 105.705132,168.613220 
	C105.887085,168.039520 106.053024,167.909088 106.218971,167.778671 
z"/>
<path fill="#F7E1DB" opacity="1.000000" stroke="none" 
	d="
M105.043587,167.009705 
	C105.587830,166.832748 105.851189,167.020996 106.128059,167.548096 
	C106.053024,167.909088 105.887085,168.039520 105.440430,168.321259 
	C104.982964,168.368088 104.828201,168.237534 104.606339,167.959000 
	C104.624870,167.646942 104.732491,167.456787 105.043587,167.009705 
z"/>
<path fill="#F7E1DB" opacity="1.000000" stroke="none" 
	d="
M103.553299,166.329758 
	C103.078423,166.373764 102.883110,166.202011 102.590210,165.851562 
	C102.599899,165.527313 102.729050,165.356903 103.072189,164.947479 
	C103.624207,164.790848 103.892998,164.974548 104.192337,165.487061 
	C104.131752,165.856003 103.971382,165.997421 103.553299,166.329758 
z"/>
<path fill="#F27A69" opacity="1.000000" stroke="none" 
	d="
M97.120346,162.858414 
	C96.919617,162.898102 96.912056,162.498459 96.916100,162.299347 
	C97.053787,162.339737 97.187431,162.579239 97.120346,162.858414 
z"/>
<path fill="#F7E1DB" opacity="1.000000" stroke="none" 
	d="
M104.036835,160.067352 
	C103.794853,160.175797 103.317986,160.075531 103.065521,159.734833 
	C103.460594,159.615814 103.631279,159.737244 104.036835,160.067352 
z"/>
<path fill="#FE360D" opacity="1.000000" stroke="none" 
	d="
M129.125366,151.299774 
	C129.040024,151.109955 129.475632,151.060730 129.691376,151.099243 
	C129.907120,151.137756 129.961456,151.554321 129.919907,151.760208 
	C129.599991,151.885452 129.377441,151.726608 129.125366,151.299774 
z"/>
<path fill="#FE360D" opacity="1.000000" stroke="none" 
	d="
M96.967529,151.295319 
	C97.022797,151.059921 97.492775,151.041016 97.725372,151.075043 
	C97.860107,151.416733 97.673180,151.654343 97.185875,151.916077 
	C96.974571,152.010300 96.912270,151.530731 96.967529,151.295319 
z"/>
<path fill="#F28677" opacity="1.000000" stroke="none" 
	d="
M105.913994,148.714813 
	C103.307289,149.322540 100.609512,149.656708 97.476997,149.971313 
	C96.852058,148.765396 96.661858,147.579056 96.705956,146.200256 
	C99.091019,146.318634 101.241783,146.629440 103.743637,146.944672 
	C104.670792,147.446472 105.246857,147.943878 105.913994,148.714813 
z"/>
<path fill="#2F3E45" opacity="1.000000" stroke="none" 
	d="
M90.290619,110.603996 
	C89.580017,106.659897 88.763557,102.937607 89.018707,99.290283 
	C89.190506,96.834373 91.007843,95.808968 93.658760,97.793694 
	C97.656685,100.786934 95.690956,104.748428 95.458916,108.230072 
	C95.393707,109.208641 92.329498,109.987343 90.290619,110.603996 
z"/>
<path fill="#2D3C43" opacity="1.000000" stroke="none" 
	d="
M112.198471,109.278801 
	C111.923981,106.060486 111.526917,103.208168 111.854599,100.441689 
	C112.010956,99.121643 113.544205,97.964691 114.453781,96.733864 
	C115.926308,97.834648 118.286880,98.689194 118.675453,100.090538 
	C119.358528,102.553993 119.343292,105.483749 118.695862,107.978241 
	C117.771744,111.538795 115.345306,112.301704 112.198471,109.278801 
z"/>
</svg>