<svg version="1.1" id="Layer_1" xmlns="http://www.w3.org/2000/svg" xmlns:xlink="http://www.w3.org/1999/xlink" x="0px" y="0px"
	 width="100%" viewBox="0 0 232 217" enable-background="new 0 0 232 217" xml:space="preserve">
<path fill="#FDFDFE" opacity="1.000000" stroke="none" 
	d="
M1.000000,84.000000 
	C1.000000,56.000004 1.000000,28.500010 1.000000,1.000011 
	C78.333313,1.000007 155.666626,1.000007 232.999954,1.000004 
	C232.999969,73.333305 232.999969,145.666611 232.999985,217.999939 
	C155.666718,217.999954 78.333427,217.999954 1.000068,217.999969 
	C1.000000,173.500000 1.000000,129.000000 1.000000,84.000000 
M200.395279,176.870956 
	C232.264816,135.743668 225.229309,79.671761 194.273224,45.796665 
	C145.888123,-7.150943 57.858166,-0.915174 17.239328,58.303299 
	C13.777664,63.350079 10.996396,68.895233 8.281940,74.397758 
	C7.695930,75.585670 8.764267,77.589691 9.070578,79.217796 
	C10.705826,78.748978 12.703759,78.710258 13.890478,77.709534 
	C15.627588,76.244698 16.805082,74.106392 18.183544,72.227577 
	C38.283356,44.831875 64.333084,26.990311 98.840385,24.387033 
	C136.260742,21.563995 167.054703,34.727779 188.163101,66.445679 
	C213.571976,104.625565 203.760941,155.201370 167.133682,179.069077 
	C137.467560,198.400604 97.807549,191.270676 78.796547,163.188141 
	C65.354881,143.332474 68.273224,115.367043 85.377190,100.128319 
	C97.672462,89.173882 114.855743,88.069778 127.732796,97.406776 
	C138.100876,104.924545 140.002365,118.611794 131.675629,125.788208 
	C127.190849,129.653412 123.911018,128.694641 122.377892,123.070244 
	C120.414520,115.867447 113.496918,112.939201 107.234108,117.109993 
	C104.727379,118.779366 102.481018,121.411034 101.108192,124.109406 
	C96.093849,133.965378 100.669350,146.528152 111.193977,152.844849 
	C128.298065,163.110428 150.659653,156.310898 160.792374,137.763351 
	C174.427704,112.804466 162.876877,80.868515 135.832352,68.753441 
	C105.797607,55.298855 70.223633,67.293640 54.185246,96.901855 
	C26.745031,147.558792 62.636349,209.342773 123.367035,212.134109 
	C154.612045,213.570206 180.133057,201.602814 200.395279,176.870956 
z"/>
<path fill="#055FA7" opacity="1.000000" stroke="none" 
	d="
M200.165771,177.142685 
	C180.133057,201.602814 154.612045,213.570206 123.367035,212.134109 
	C62.636349,209.342773 26.745031,147.558792 54.185246,96.901855 
	C70.223633,67.293640 105.797607,55.298855 135.832352,68.753441 
	C162.876877,80.868515 174.427704,112.804466 160.792374,137.763351 
	C150.659653,156.310898 128.298065,163.110428 111.193977,152.844849 
	C100.669350,146.528152 96.093849,133.965378 101.108192,124.109406 
	C102.481018,121.411034 104.727379,118.779366 107.234108,117.109993 
	C113.496918,112.939201 120.414520,115.867447 122.377892,123.070244 
	C123.911018,128.694641 127.190849,129.653412 131.675629,125.788208 
	C140.002365,118.611794 138.100876,104.924545 127.732796,97.406776 
	C114.855743,88.069778 97.672462,89.173882 85.377190,100.128319 
	C68.273224,115.367043 65.354881,143.332474 78.796547,163.188141 
	C97.807549,191.270676 137.467560,198.400604 167.133682,179.069077 
	C203.760941,155.201370 213.571976,104.625565 188.163101,66.445679 
	C167.054703,34.727779 136.260742,21.563995 98.840385,24.387033 
	C64.333084,26.990311 38.283356,44.831875 18.183544,72.227577 
	C16.805082,74.106392 15.627588,76.244698 13.890478,77.709534 
	C12.703759,78.710258 10.705826,78.748978 9.070578,79.217796 
	C8.764267,77.589691 7.695930,75.585670 8.281940,74.397758 
	C10.996396,68.895233 13.777664,63.350079 17.239328,58.303299 
	C57.858166,-0.915174 145.888123,-7.150943 194.273224,45.796665 
	C225.229309,79.671761 232.264816,135.743668 200.165771,177.142685 
z"/>
</svg>