<svg version="1.1" id="Layer_1" xmlns="http://www.w3.org/2000/svg" xmlns:xlink="http://www.w3.org/1999/xlink" x="0px" y="0px"
	 width="100%" viewBox="0 0 287 175" enable-background="new 0 0 287 175" xml:space="preserve">
<path fill="#005D85" opacity="1.000000" stroke="none" 
	d="
M116.000000,176.000000 
	C77.692032,176.000000 39.384068,176.000000 1.038049,176.000000 
	C1.038049,117.730652 1.038049,59.461277 1.038049,1.095951 
	C96.666626,1.095951 192.333298,1.095951 287.998962,1.095951 
	C287.998962,59.411900 287.998962,117.705948 287.998474,176.000000 
	C286.998627,176.000000 285.999329,176.000000 284.500000,175.531342 
	C283.999939,158.253952 283.896088,141.444122 284.070892,124.637207 
	C284.116058,120.292099 282.700684,117.088715 279.645966,114.055206 
	C256.855011,91.422569 234.182953,68.670242 211.457458,45.971626 
	C210.050980,44.566807 208.507355,43.299309 206.871887,41.763603 
	C206.445770,41.348186 206.175278,41.137085 205.639175,40.720100 
	C203.479904,36.540306 200.142136,35.347321 195.981384,35.346333 
	C186.674377,35.344124 177.367416,35.186420 167.894638,34.795380 
	C164.834061,31.654591 161.939270,28.810469 158.811417,25.628395 
	C150.359192,26.217333 142.123428,27.018002 133.924347,28.097460 
	C116.975861,30.328829 100.046921,32.708664 82.839233,35.342010 
	C82.381271,36.622009 82.031219,37.587280 82.030350,38.552868 
	C82.000511,71.643410 81.988678,104.734016 82.055534,137.824448 
	C82.058304,139.193878 82.842461,140.561722 83.510178,141.916443 
	C84.232155,142.019058 84.706543,142.135529 85.250610,142.612335 
	C86.449524,144.384445 87.461838,145.912048 88.727013,147.189133 
	C96.683937,155.220963 104.732101,163.162659 112.657707,171.224991 
	C114.000946,172.591400 114.897224,174.397202 116.000000,176.000000 
z"/>
<path fill="#005072" opacity="1.000000" stroke="none" 
	d="
M207.027527,41.967918 
	C208.507355,43.299309 210.050980,44.566807 211.457458,45.971626 
	C234.182953,68.670242 256.855011,91.422569 279.645966,114.055206 
	C282.700684,117.088715 284.116058,120.292099 284.070892,124.637207 
	C283.896088,141.444122 283.999939,158.253952 284.000000,175.531342 
	C228.312439,176.000000 172.624878,176.000000 116.468658,176.000000 
	C114.897224,174.397202 114.000946,172.591400 112.657707,171.224991 
	C104.732101,163.162659 96.683937,155.220963 88.727013,147.189133 
	C87.461838,145.912048 86.449524,144.384445 85.697174,142.606781 
	C110.166573,145.553497 134.259094,148.866119 159.016953,152.270203 
	C159.016953,148.139816 159.016953,144.756256 159.016953,141.177734 
	C171.547424,141.177734 183.502670,141.042511 195.452133,141.246262 
	C200.040222,141.324509 203.519562,140.020477 206.062378,135.639435 
	C206.570282,133.397125 206.969116,131.449341 206.972397,129.500916 
	C207.021454,100.323303 207.018356,71.145599 207.027527,41.967918 
z"/>
<path fill="#FBFCFD" opacity="1.000000" stroke="none" 
	d="
M205.769318,135.933670 
	C203.519562,140.020477 200.040222,141.324509 195.452133,141.246262 
	C183.502670,141.042511 171.547424,141.177734 159.016953,141.177734 
	C159.016953,144.756256 159.016953,148.139816 159.016953,152.270203 
	C134.259094,148.866119 110.166573,145.553497 85.627487,142.246445 
	C84.706543,142.135529 84.232155,142.019058 83.446846,141.455658 
	C83.127258,105.681618 83.118599,70.354530 83.109940,35.027435 
	C100.046921,32.708664 116.975861,30.328829 133.924347,28.097460 
	C142.123428,27.018002 150.359192,26.217333 158.715591,26.089703 
	C158.852829,29.607307 158.852829,32.325649 158.852829,35.092045 
	C162.270477,35.092045 165.165451,35.092045 168.060425,35.092045 
	C177.367416,35.186420 186.674377,35.344124 195.981384,35.346333 
	C200.142136,35.347321 203.479904,36.540306 205.645447,41.196922 
	C205.947617,52.164967 206.022537,62.450401 205.998856,72.735611 
	C205.950348,93.801697 205.848938,114.867661 205.769318,135.933670 
M158.846848,94.738800 
	C158.910995,95.491875 158.975143,96.244949 158.863937,97.921227 
	C158.863937,110.668297 158.863937,123.415359 158.863937,135.887039 
	C172.706284,135.887039 185.841599,135.887039 199.579803,135.891571 
	C199.994461,135.254547 200.409119,134.617538 201.051239,133.069626 
	C201.066528,103.964462 201.095474,74.859276 201.054718,45.754196 
	C201.052780,44.371441 200.433273,42.989555 199.655930,40.974697 
	C198.389145,40.704544 197.123596,40.206600 195.855408,40.199829 
	C184.449371,40.138927 173.042801,40.146439 161.636719,40.201000 
	C160.801010,40.204998 159.967819,40.732277 158.874680,41.920406 
	C158.929550,59.280941 158.984421,76.641479 158.846848,94.738800 
M139.103851,70.865051 
	C137.835281,70.865051 136.566711,70.865051 135.180176,70.865051 
	C135.180176,79.508865 135.180176,87.733627 135.492798,96.753746 
	C140.792969,96.753746 146.093140,96.753746 151.623047,96.753746 
	C151.623047,95.307098 151.623047,93.923004 151.623047,91.986969 
	C148.030197,91.986969 144.622314,91.986969 140.930252,91.986969 
	C140.930252,88.638344 141.045441,85.827072 140.902710,83.028961 
	C140.699005,79.035652 140.306320,75.051994 139.103851,70.865051 
M130.869904,81.859428 
	C128.911682,73.815079 125.653214,70.783966 119.069473,70.882347 
	C112.979172,70.973358 108.860901,74.620644 107.527374,81.104401 
	C106.233177,87.396965 108.942764,93.777962 114.103821,95.748077 
	C118.998772,97.616608 124.046959,99.083710 129.351517,100.834183 
	C129.806061,99.393684 130.205887,98.126617 130.639572,96.752197 
	C128.655884,96.135376 127.129082,95.660614 126.907646,95.591766 
	C128.308304,91.089806 129.616028,86.886528 130.869904,81.859428 
M89.893402,91.905983 
	C89.935928,92.849289 89.900612,94.604599 90.032356,94.617218 
	C93.386482,94.938759 96.964912,95.825996 100.050453,94.973091 
	C101.954498,94.446777 103.919800,91.399986 104.418304,89.163902 
	C105.195374,85.678383 102.579933,83.581970 99.595795,81.876457 
	C97.725525,80.807549 96.347984,78.876495 94.749374,77.332260 
	C96.889160,76.929504 99.027824,76.520668 101.169617,76.128860 
	C101.627327,76.045135 102.096352,76.023209 103.192001,75.904160 
	C102.868729,74.486374 103.004898,72.707153 102.225685,72.097061 
	C99.533447,69.989151 92.482704,71.918030 90.587189,74.998573 
	C88.400154,78.552895 89.818359,82.677429 94.032707,84.918114 
	C94.909889,85.384506 96.102379,85.498688 96.712517,86.171509 
	C97.690933,87.250435 98.304497,88.660217 99.072258,89.930176 
	C97.665909,90.547356 96.303558,91.496254 94.841080,91.690231 
	C93.319633,91.892044 91.701454,91.364655 89.893402,91.905983 
z"/>
<path fill="#004E7B" opacity="1.000000" stroke="none" 
	d="
M82.839233,35.342010 
	C83.118599,70.354530 83.127258,105.681618 83.199257,141.469513 
	C82.842461,140.561722 82.058304,139.193878 82.055534,137.824448 
	C81.988678,104.734016 82.000511,71.643410 82.030350,38.552868 
	C82.031219,37.587280 82.381271,36.622009 82.839233,35.342010 
z"/>
<path fill="#00446A" opacity="1.000000" stroke="none" 
	d="
M206.062378,135.639435 
	C205.848938,114.867661 205.950348,93.801697 205.998856,72.735611 
	C206.022537,62.450401 205.947617,52.164967 205.911072,41.402809 
	C206.175278,41.137085 206.445770,41.348186 206.871887,41.763603 
	C207.018356,71.145599 207.021454,100.323303 206.972397,129.500916 
	C206.969116,131.449341 206.570282,133.397125 206.062378,135.639435 
z"/>
<path fill="#004B6F" opacity="1.000000" stroke="none" 
	d="
M167.894638,34.795380 
	C165.165451,35.092045 162.270477,35.092045 158.852829,35.092045 
	C158.852829,32.325649 158.852829,29.607307 158.948654,26.427658 
	C161.939270,28.810469 164.834061,31.654591 167.894638,34.795380 
z"/>
<path fill="#035173" opacity="1.000000" stroke="none" 
	d="
M159.133453,41.016273 
	C159.967819,40.732277 160.801010,40.204998 161.636719,40.201000 
	C173.042801,40.146439 184.449371,40.138927 195.855408,40.199829 
	C197.123596,40.206600 198.389145,40.704544 199.856430,41.786003 
	C200.037643,71.622086 200.006561,100.646873 200.034256,129.671616 
	C200.035629,131.108170 200.548874,132.544220 200.823776,133.980515 
	C200.409119,134.617538 199.994461,135.254547 198.935089,135.663391 
	C196.482895,135.290146 194.675949,135.027893 192.867859,135.019623 
	C183.399994,134.976257 173.931564,134.959579 164.463898,135.019989 
	C161.800156,135.036972 159.943176,134.579971 159.982849,131.281113 
	C160.082703,122.977051 159.961929,114.670135 160.088898,106.366814 
	C160.106857,105.192490 161.014923,104.031776 161.682037,103.144173 
	C162.397903,104.231453 162.800293,105.202667 163.509933,105.821518 
	C169.523239,111.065430 185.639740,111.346848 191.718674,106.142418 
	C192.920944,105.113106 193.874039,103.113991 193.921936,101.531235 
	C194.142532,94.238937 193.920761,86.934540 194.025848,79.636917 
	C194.077484,76.051254 192.296707,73.529549 189.099380,73.212593 
	C182.417603,72.550209 175.650192,72.255875 168.944412,72.509621 
	C164.646790,72.672234 161.703140,75.371147 161.042145,79.784668 
	C160.491013,69.087898 160.289963,58.688313 159.971207,48.292336 
	C159.896652,45.860706 159.423325,43.441303 159.133453,41.016273 
z"/>
<path fill="#0A5274" opacity="1.000000" stroke="none" 
	d="
M130.896820,82.271339 
	C129.616028,86.886528 128.308304,91.089806 126.907646,95.591766 
	C127.129082,95.660614 128.655884,96.135376 130.639572,96.752197 
	C130.205887,98.126617 129.806061,99.393684 129.351517,100.834183 
	C124.046959,99.083710 118.998772,97.616608 114.103821,95.748077 
	C108.942764,93.777962 106.233177,87.396965 107.527374,81.104401 
	C108.860901,74.620644 112.979172,70.973358 119.069473,70.882347 
	C125.653214,70.783966 128.911682,73.815079 130.896820,82.271339 
M115.196465,76.785660 
	C114.525581,80.248329 113.162445,83.755096 113.379372,87.161224 
	C113.594383,90.537392 116.144905,92.847054 120.091957,92.042328 
	C123.901848,91.265579 126.053741,85.319443 124.449059,80.249504 
	C123.003044,75.680855 120.431992,74.498177 115.196465,76.785660 
z"/>
<path fill="#0C5374" opacity="1.000000" stroke="none" 
	d="
M90.009491,91.531052 
	C91.701454,91.364655 93.319633,91.892044 94.841080,91.690231 
	C96.303558,91.496254 97.665909,90.547356 99.072258,89.930176 
	C98.304497,88.660217 97.690933,87.250435 96.712517,86.171509 
	C96.102379,85.498688 94.909889,85.384506 94.032707,84.918114 
	C89.818359,82.677429 88.400154,78.552895 90.587189,74.998573 
	C92.482704,71.918030 99.533447,69.989151 102.225685,72.097061 
	C103.004898,72.707153 102.868729,74.486374 103.192001,75.904160 
	C102.096352,76.023209 101.627327,76.045135 101.169617,76.128860 
	C99.027824,76.520668 96.889160,76.929504 94.749374,77.332260 
	C96.347984,78.876495 97.725525,80.807549 99.595795,81.876457 
	C102.579933,83.581970 105.195374,85.678383 104.418304,89.163902 
	C103.919800,91.399986 101.954498,94.446777 100.050453,94.973091 
	C96.964912,95.825996 93.386482,94.938759 90.032356,94.617218 
	C89.900612,94.604599 89.935928,92.849289 90.009491,91.531052 
z"/>
<path fill="#085475" opacity="1.000000" stroke="none" 
	d="
M139.994339,71.064209 
	C140.306320,75.051994 140.699005,79.035652 140.902710,83.028961 
	C141.045441,85.827072 140.930252,88.638344 140.930252,91.986969 
	C144.622314,91.986969 148.030197,91.986969 151.623047,91.986969 
	C151.623047,93.923004 151.623047,95.307098 151.623047,96.753746 
	C146.093140,96.753746 140.792969,96.753746 135.552536,96.008789 
	C135.743698,89.285873 136.135742,83.297852 135.905502,77.333847 
	C135.774429,73.938606 136.914536,72.038666 139.994339,71.064209 
z"/>
<path fill="#004168" opacity="1.000000" stroke="none" 
	d="
M200.937500,133.525070 
	C200.548874,132.544220 200.035629,131.108170 200.034256,129.671616 
	C200.006561,100.646873 200.037643,71.622086 200.079147,42.102287 
	C200.433273,42.989555 201.052780,44.371441 201.054718,45.754196 
	C201.095474,74.859276 201.066528,103.964462 200.937500,133.525070 
z"/>
<path fill="#004369" opacity="1.000000" stroke="none" 
	d="
M161.510986,102.864761 
	C161.014923,104.031776 160.106857,105.192490 160.088898,106.366814 
	C159.961929,114.670135 160.082703,122.977051 159.982849,131.281113 
	C159.943176,134.579971 161.800156,135.036972 164.463898,135.019989 
	C173.931564,134.959579 183.399994,134.976257 192.867859,135.019623 
	C194.675949,135.027893 196.482895,135.290146 198.633636,135.661133 
	C185.841599,135.887039 172.706284,135.887039 158.863937,135.887039 
	C158.863937,123.415359 158.863937,110.668297 159.364288,97.466629 
	C160.413239,97.053596 160.961838,97.095161 161.539459,97.545120 
	C161.549316,99.590599 161.530151,101.227684 161.510986,102.864761 
z"/>
<path fill="#004369" opacity="1.000000" stroke="none" 
	d="
M159.004059,41.468342 
	C159.423325,43.441303 159.896652,45.860706 159.971207,48.292336 
	C160.289963,58.688313 160.491013,69.087898 161.130737,80.179733 
	C161.465363,82.213684 161.404251,83.554070 161.076263,85.117630 
	C161.071457,86.281822 161.333511,87.222847 161.599075,88.574112 
	C161.531845,90.625420 161.461121,92.266487 160.999054,93.934875 
	C160.084930,93.975471 159.562103,93.988739 159.039291,94.002014 
	C158.984421,76.641479 158.929550,59.280941 159.004059,41.468342 
z"/>
<path fill="#004067" opacity="1.000000" stroke="none" 
	d="
M139.549103,70.964630 
	C136.914536,72.038666 135.774429,73.938606 135.905502,77.333847 
	C136.135742,83.297852 135.743698,89.285873 135.396225,95.611115 
	C135.180176,87.733627 135.180176,79.508865 135.180176,70.865051 
	C136.566711,70.865051 137.835281,70.865051 139.549103,70.964630 
z"/>
<path fill="#035173" opacity="1.000000" stroke="none" 
	d="
M158.943069,94.370407 
	C159.562103,93.988739 160.084930,93.975471 161.170624,94.165634 
	C161.659149,95.291618 161.584793,96.214172 161.510452,97.136726 
	C160.961838,97.095161 160.413239,97.053596 159.451965,97.005028 
	C158.975143,96.244949 158.910995,95.491875 158.943069,94.370407 
z"/>
<path fill="#EFF3F5" opacity="1.000000" stroke="none" 
	d="
M161.539459,97.545120 
	C161.584793,96.214172 161.659149,95.291618 161.561951,94.138306 
	C161.461121,92.266487 161.531845,90.625420 161.753937,88.324615 
	C161.717911,86.741402 161.530533,85.817932 161.343155,84.894463 
	C161.404251,83.554070 161.465363,82.213684 161.437866,80.478226 
	C161.703140,75.371147 164.646790,72.672234 168.944412,72.509621 
	C175.650192,72.255875 182.417603,72.550209 189.099380,73.212593 
	C192.296707,73.529549 194.077484,76.051254 194.025848,79.636917 
	C193.920761,86.934540 194.142532,94.238937 193.921936,101.531235 
	C193.874039,103.113991 192.920944,105.113106 191.718674,106.142418 
	C185.639740,111.346848 169.523239,111.065430 163.509933,105.821518 
	C162.800293,105.202667 162.397903,104.231453 161.682037,103.144173 
	C161.530151,101.227684 161.549316,99.590599 161.539459,97.545120 
M192.075912,102.060181 
	C191.245544,101.321907 190.123657,99.783722 189.628159,99.964310 
	C180.973465,103.118439 172.464218,102.713814 164.023087,99.004066 
	C162.717361,103.066605 164.648712,104.850471 167.799652,106.132683 
	C176.073410,109.499519 187.315536,108.047668 192.075912,102.060181 
M187.970413,88.780174 
	C189.507980,87.121338 191.045547,85.462509 193.105606,83.239990 
	C182.409729,83.239990 173.232422,83.239990 163.607498,83.239990 
	C162.736084,85.840942 164.742554,88.200768 167.637955,88.479317 
	C174.103775,89.101372 180.649689,88.890968 187.970413,88.780174 
M182.022339,98.981178 
	C186.109329,97.926208 191.082275,98.142509 192.131622,91.299965 
	C182.385300,93.242126 172.977768,94.910736 163.980576,90.252327 
	C162.733337,94.419640 164.630814,96.719856 167.867950,97.404770 
	C172.206848,98.322800 176.701492,98.504784 182.022339,98.981178 
z"/>
<path fill="#F7F9FA" opacity="1.000000" stroke="none" 
	d="
M115.481689,76.520699 
	C120.431992,74.498177 123.003044,75.680855 124.449059,80.249504 
	C126.053741,85.319443 123.901848,91.265579 120.091957,92.042328 
	C116.144905,92.847054 113.594383,90.537392 113.379372,87.161224 
	C113.162445,83.755096 114.525581,80.248329 115.481689,76.520699 
z"/>
<path fill="#035173" opacity="1.000000" stroke="none" 
	d="
M161.076263,85.117630 
	C161.530533,85.817932 161.717911,86.741402 161.750427,87.914368 
	C161.333511,87.222847 161.071457,86.281822 161.076263,85.117630 
z"/>
<path fill="#0A5374" opacity="1.000000" stroke="none" 
	d="
M192.022400,102.481857 
	C187.315536,108.047668 176.073410,109.499519 167.799652,106.132683 
	C164.648712,104.850471 162.717361,103.066605 164.023087,99.004066 
	C172.464218,102.713814 180.973465,103.118439 189.628159,99.964310 
	C190.123657,99.783722 191.245544,101.321907 192.022400,102.481857 
z"/>
<path fill="#0B5375" opacity="1.000000" stroke="none" 
	d="
M187.566681,88.899933 
	C180.649689,88.890968 174.103775,89.101372 167.637955,88.479317 
	C164.742554,88.200768 162.736084,85.840942 163.607498,83.239990 
	C173.232422,83.239990 182.409729,83.239990 193.105606,83.239990 
	C191.045547,85.462509 189.507980,87.121338 187.566681,88.899933 
z"/>
<path fill="#0B5475" opacity="1.000000" stroke="none" 
	d="
M181.575806,98.991989 
	C176.701492,98.504784 172.206848,98.322800 167.867950,97.404770 
	C164.630814,96.719856 162.733337,94.419640 163.980576,90.252327 
	C172.977768,94.910736 182.385300,93.242126 192.131622,91.299965 
	C191.082275,98.142509 186.109329,97.926208 181.575806,98.991989 
z"/>
</svg>