<svg version="1.1" id="Layer_1" xmlns="http://www.w3.org/2000/svg" xmlns:xlink="http://www.w3.org/1999/xlink" x="0px" y="0px"
	 width="100%" viewBox="0 0 275 183" enable-background="new 0 0 275 183" xml:space="preserve">
<path fill="#FEFFFF" opacity="1.000000" stroke="none" 
	d="
M205.000000,184.000000 
	C136.666672,184.000000 68.833351,184.000000 1.000018,184.000000 
	C1.000012,123.000015 1.000012,62.000031 1.000006,1.000035 
	C92.666634,1.000023 184.333267,1.000023 275.999939,1.000012 
	C275.999939,61.999966 275.999939,122.999931 275.999969,183.999939 
	C252.500000,184.000000 229.000000,184.000000 205.000000,184.000000 
M184.202423,146.035019 
	C183.208557,145.149216 181.240143,143.702530 181.375809,143.466812 
	C182.411255,141.667709 183.857071,140.104782 185.231857,138.398041 
	C182.043930,137.320709 179.636871,138.935715 179.508499,142.088837 
	C179.433060,143.942093 181.692429,145.890427 182.901627,147.796005 
	C183.582977,147.204910 184.264328,146.613800 185.607330,146.065872 
	C190.837891,145.413986 188.909744,142.528625 187.595139,139.226990 
	C186.581985,141.853424 185.773270,143.949875 184.202423,146.035019 
M181.132538,33.195309 
	C142.755890,33.127567 104.379257,33.059826 65.427040,33.050316 
	C65.211861,33.349964 64.996674,33.649616 64.392479,34.672943 
	C64.392479,46.027168 64.392479,57.381393 64.392479,69.237038 
	C66.068497,68.706230 66.976868,68.412704 67.888779,68.130585 
	C92.407585,60.545086 116.849030,52.695210 141.478043,45.486141 
	C154.153107,41.776073 167.162384,39.207890 180.865784,36.124645 
	C185.294388,35.317604 189.722992,34.510563 194.151596,33.703526 
	C194.117661,33.375969 194.083740,33.048409 194.049805,32.720852 
	C190.024200,32.910709 185.998581,33.100567 181.132538,33.195309 
M69.157135,95.520172 
	C67.593513,95.827087 66.029892,96.134003 64.627441,96.409286 
	C64.627441,106.379433 64.627441,115.916336 64.627441,125.743828 
	C94.309387,121.316490 123.282890,115.748360 151.320450,106.176552 
	C158.659241,103.671135 165.679184,100.136917 172.621643,96.631721 
	C174.371750,95.748100 175.258698,93.154922 176.542313,91.347366 
	C174.460403,90.215683 172.408524,88.181557 170.291290,88.111046 
	C161.849716,87.829964 153.345627,87.656273 144.941299,88.359016 
	C119.952339,90.448494 94.999641,92.971718 69.157135,95.520172 
M178.500000,134.910858 
	C187.109940,134.910858 195.719894,134.910858 204.583893,134.910858 
	C204.583893,122.385040 204.583893,110.498482 204.583893,98.146851 
	C159.466415,114.801994 113.282471,125.912392 66.515015,134.910721 
	C103.510010,134.910721 140.505005,134.910721 178.500000,134.910858 
M204.847061,60.428944 
	C204.847061,54.014809 204.847061,47.600674 204.847061,40.626553 
	C201.171906,41.159569 198.401291,41.517899 195.645660,41.967823 
	C169.856018,46.178593 144.368713,51.680153 119.897972,61.032547 
	C113.755371,63.380169 107.869987,66.640961 102.309662,70.178757 
	C99.151321,72.188263 99.885551,74.979599 103.617668,75.671852 
	C107.646851,76.419205 111.886909,76.712494 115.968155,76.381020 
	C136.348694,74.725739 156.707581,72.803474 177.073441,70.967979 
	C186.141937,70.150658 195.208923,69.316513 204.846832,68.438034 
	C204.846832,65.965607 204.846832,63.682583 204.847061,60.428944 
M200.145905,153.922089 
	C201.556595,153.760345 202.967300,153.598602 204.377991,153.436874 
	C204.322998,153.079575 204.268005,152.722290 204.213013,152.364990 
	C157.643921,152.364990 111.074814,152.364990 64.505707,152.364990 
	C64.503082,152.883987 64.500458,153.403000 64.497833,153.921997 
	C109.406578,153.921997 154.315323,153.921997 200.145905,153.922089 
M98.466064,147.927979 
	C104.646721,148.631134 103.283455,144.094391 102.735138,141.007507 
	C102.521126,139.802673 99.871994,138.749329 98.150414,138.236038 
	C97.491386,138.039551 95.503952,139.582016 95.535538,140.266830 
	C95.657349,142.907028 93.559410,146.356384 98.466064,147.927979 
M198.263168,139.088333 
	C197.522400,139.180984 196.141083,139.243774 196.135178,139.370667 
	C196.010468,142.047028 196.040848,144.730621 196.040848,147.412796 
	C196.411575,147.441895 196.782318,147.471008 197.153046,147.500107 
	C197.579102,146.170471 198.005157,144.840836 198.509888,143.265640 
	C200.020767,144.998856 201.270844,146.432892 203.379135,148.851440 
	C203.379135,144.599197 203.379135,141.609024 203.379135,138.618866 
	C203.072205,138.589539 202.765289,138.560226 202.458359,138.530899 
	C202.172958,140.088013 201.887543,141.645142 201.495804,143.782410 
	C200.339661,142.072952 199.523071,140.865540 198.263168,139.088333 
M144.789978,145.451630 
	C145.533951,146.251862 146.277924,147.052078 147.021881,147.852310 
	C147.365860,146.022095 146.499634,144.856827 146.511169,143.700272 
	C146.570862,137.710251 146.649063,137.711029 139.245682,138.794403 
	C141.304886,141.248276 142.827728,143.062988 144.789978,145.451630 
M110.328262,139.011887 
	C111.379883,141.992783 112.431496,144.973694 113.483116,147.954590 
	C114.030792,147.946899 114.578461,147.939224 115.126137,147.931534 
	C116.248840,144.921158 117.371544,141.910767 118.494247,138.900375 
	C118.011604,138.699966 117.528954,138.499573 117.046303,138.299164 
	C116.181969,140.297165 115.317642,142.295181 114.576645,144.008057 
	C113.369125,142.263504 112.064796,140.379089 110.328262,139.011887 
M161.185776,147.158340 
	C163.531082,144.955185 162.433701,143.452271 160.186691,142.155487 
	C159.291016,141.638596 158.444504,141.036575 157.549377,140.518646 
	C156.930435,140.160492 156.266525,139.880035 155.622726,139.564850 
	C155.818954,141.907791 155.675110,144.364853 156.401688,146.529800 
	C156.645584,147.256577 159.105789,147.239563 161.185776,147.158340 
z"/>
<path fill="#819DCA" opacity="1.000000" stroke="none" 
	d="
M69.594955,95.422798 
	C94.999641,92.971718 119.952339,90.448494 144.941299,88.359016 
	C153.345627,87.656273 161.849716,87.829964 170.291290,88.111046 
	C172.408524,88.181557 174.460403,90.215683 176.542297,91.347366 
	C175.258698,93.154922 174.371750,95.748100 172.621643,96.631721 
	C165.679184,100.136917 158.659241,103.671135 151.320450,106.176552 
	C123.282890,115.748360 94.309387,121.316490 64.627441,125.743828 
	C64.627441,115.916336 64.627441,106.379433 64.627441,96.409286 
	C66.029892,96.134003 67.593513,95.827087 69.594955,95.422798 
z"/>
<path fill="#839ECA" opacity="1.000000" stroke="none" 
	d="
M178.000000,134.910797 
	C140.505005,134.910721 103.510010,134.910721 66.515015,134.910721 
	C113.282471,125.912392 159.466415,114.801994 204.583893,98.146851 
	C204.583893,110.498482 204.583893,122.385040 204.583893,134.910858 
	C195.719894,134.910858 187.109940,134.910858 178.000000,134.910797 
z"/>
<path fill="#819DCA" opacity="1.000000" stroke="none" 
	d="
M204.846954,60.914253 
	C204.846832,63.682583 204.846832,65.965607 204.846832,68.438034 
	C195.208923,69.316513 186.141937,70.150658 177.073441,70.967979 
	C156.707581,72.803474 136.348694,74.725739 115.968155,76.381020 
	C111.886909,76.712494 107.646851,76.419205 103.617668,75.671852 
	C99.885551,74.979599 99.151321,72.188263 102.309662,70.178757 
	C107.869987,66.640961 113.755371,63.380169 119.897972,61.032547 
	C144.368713,51.680153 169.856018,46.178593 195.645660,41.967823 
	C198.401291,41.517899 201.171906,41.159569 204.847061,40.626553 
	C204.847061,47.600674 204.847061,54.014809 204.846954,60.914253 
z"/>
<path fill="#819DCA" opacity="1.000000" stroke="none" 
	d="
M66.002617,32.992085 
	C104.379257,33.059826 142.755890,33.127567 181.462219,33.596825 
	C181.201477,34.706799 180.611069,35.415257 180.020645,36.123718 
	C167.162384,39.207890 154.153107,41.776073 141.478043,45.486141 
	C116.849030,52.695210 92.407585,60.545086 67.888779,68.130585 
	C66.976868,68.412704 66.068497,68.706230 64.392479,69.237038 
	C64.392479,57.381393 64.392479,46.027168 64.848816,34.234818 
	C65.537643,33.528492 65.770126,33.260288 66.002617,32.992085 
z"/>
<path fill="#AABCDA" opacity="1.000000" stroke="none" 
	d="
M199.684982,153.922043 
	C154.315323,153.921997 109.406578,153.921997 64.497833,153.921997 
	C64.500458,153.403000 64.503082,152.883987 64.505707,152.364990 
	C111.074814,152.364990 157.643921,152.364990 204.213013,152.364990 
	C204.268005,152.722290 204.322998,153.079575 204.377991,153.436874 
	C202.967300,153.598602 201.556595,153.760345 199.684982,153.922043 
z"/>
<path fill="#98AED3" opacity="1.000000" stroke="none" 
	d="
M98.068497,147.910522 
	C93.559410,146.356384 95.657349,142.907028 95.535538,140.266830 
	C95.503952,139.582016 97.491386,138.039551 98.150414,138.236038 
	C99.871994,138.749329 102.521126,139.802673 102.735138,141.007507 
	C103.283455,144.094391 104.646721,148.631134 98.068497,147.910522 
z"/>
<path fill="#A2A2A2" opacity="1.000000" stroke="none" 
	d="
M198.484833,139.373230 
	C199.523071,140.865540 200.339661,142.072952 201.495804,143.782410 
	C201.887543,141.645142 202.172958,140.088013 202.458359,138.530899 
	C202.765289,138.560226 203.072205,138.589539 203.379135,138.618866 
	C203.379135,141.609024 203.379135,144.599197 203.379135,148.851440 
	C201.270844,146.432892 200.020767,144.998856 198.509888,143.265640 
	C198.005157,144.840836 197.579102,146.170471 197.153046,147.500107 
	C196.782318,147.471008 196.411575,147.441895 196.040848,147.412796 
	C196.040848,144.730621 196.010468,142.047028 196.135178,139.370667 
	C196.141083,139.243774 197.522400,139.180984 198.484833,139.373230 
z"/>
<path fill="#ADADAD" opacity="1.000000" stroke="none" 
	d="
M144.570282,145.164673 
	C142.827728,143.062988 141.304886,141.248276 139.245682,138.794403 
	C146.649063,137.711029 146.570862,137.710251 146.511169,143.700272 
	C146.499634,144.856827 147.365860,146.022095 147.021881,147.852310 
	C146.277924,147.052078 145.533951,146.251862 144.570282,145.164673 
z"/>
<path fill="#A2A2A2" opacity="1.000000" stroke="none" 
	d="
M110.544357,138.753265 
	C112.064796,140.379089 113.369125,142.263504 114.576645,144.008057 
	C115.317642,142.295181 116.181969,140.297165 117.046303,138.299164 
	C117.528954,138.499573 118.011604,138.699966 118.494247,138.900375 
	C117.371544,141.910767 116.248840,144.921158 115.126137,147.931534 
	C114.578461,147.939224 114.030792,147.946899 113.483116,147.954590 
	C112.431496,144.973694 111.379883,141.992783 110.544357,138.753265 
z"/>
<path fill="#A6A6A6" opacity="1.000000" stroke="none" 
	d="
M160.869385,147.360413 
	C159.105789,147.239563 156.645584,147.256577 156.401688,146.529800 
	C155.675110,144.364853 155.818954,141.907791 155.622711,139.564850 
	C156.266525,139.880035 156.930435,140.160492 157.549377,140.518646 
	C158.444504,141.036575 159.291016,141.638596 160.186691,142.155487 
	C162.433701,143.452271 163.531082,144.955185 160.869385,147.360413 
M157.126129,144.566818 
	C157.779755,145.008072 158.433380,145.449310 159.087006,145.890564 
	C159.311691,145.520859 159.536362,145.151169 159.761047,144.781464 
	C159.066833,144.533066 158.372604,144.284668 157.126129,144.566818 
z"/>
<path fill="#A5A5A5" opacity="1.000000" stroke="none" 
	d="
M184.945663,146.022690 
	C184.264328,146.613800 183.582977,147.204910 182.901642,147.796005 
	C181.692429,145.890427 179.433060,143.942093 179.508499,142.088837 
	C179.636871,138.935715 182.043930,137.320709 185.231857,138.398041 
	C183.857071,140.104782 182.411255,141.667709 181.375809,143.466812 
	C181.240143,143.702530 183.208557,145.149216 184.601349,146.017395 
	C185.000259,145.999786 184.945663,146.022690 184.945663,146.022690 
z"/>
<path fill="#7B98C7" opacity="1.000000" stroke="none" 
	d="
M180.443207,36.124180 
	C180.611069,35.415257 181.201477,34.706799 181.882446,33.644382 
	C185.998581,33.100567 190.024200,32.910709 194.049805,32.720852 
	C194.083740,33.048409 194.117661,33.375969 194.151596,33.703526 
	C189.722992,34.510563 185.294388,35.317604 180.443207,36.124180 
z"/>
<path fill="#F3F3F3" opacity="1.000000" stroke="none" 
	d="
M184.982407,146.023071 
	C185.773270,143.949875 186.581985,141.853424 187.595139,139.226990 
	C188.909744,142.528625 190.837891,145.413986 185.276489,146.044281 
	C184.945663,146.022690 185.000259,145.999786 184.982407,146.023071 
z"/>
<path fill="#7B98C7" opacity="1.000000" stroke="none" 
	d="
M65.714828,33.021202 
	C65.770126,33.260288 65.537643,33.528492 65.043327,33.872982 
	C64.996674,33.649616 65.211861,33.349964 65.714828,33.021202 
z"/>
<path fill="#FEFFFF" opacity="1.000000" stroke="none" 
	d="
M157.402252,144.301544 
	C158.372604,144.284668 159.066833,144.533066 159.761047,144.781464 
	C159.536362,145.151169 159.311691,145.520859 159.087006,145.890564 
	C158.433380,145.449310 157.779755,145.008072 157.402252,144.301544 
z"/>
</svg>