<svg version="1.1" id="Layer_1" xmlns="http://www.w3.org/2000/svg" xmlns:xlink="http://www.w3.org/1999/xlink" x="0px" y="0px"
	 width="100%" viewBox="0 0 225 225" enable-background="new 0 0 225 225" xml:space="preserve">
<path fill="#FEFEFE" opacity="1.000000" stroke="none" 
	d="
M154.000000,226.000000 
	C102.666672,226.000000 51.833340,226.000000 1.000007,226.000000 
	C1.000005,151.000000 1.000005,76.000015 1.000002,1.000017 
	C75.999992,1.000011 150.999985,1.000011 225.999969,1.000006 
	C225.999985,75.999985 225.999985,150.999969 226.000000,225.999969 
	C202.166672,226.000000 178.333328,226.000000 154.000000,226.000000 
M177.414001,128.695114 
	C177.414001,128.695114 177.440994,128.639160 177.752777,127.851059 
	C177.727798,125.586258 177.702820,123.321449 177.915451,120.308098 
	C177.658554,117.669281 178.622192,116.679115 181.485779,116.618126 
	C184.628510,116.551208 187.751770,115.569885 191.576462,115.046692 
	C192.564667,115.198303 193.552872,115.349907 194.541077,115.501518 
	C194.648788,115.103409 194.756516,114.705299 194.864243,114.307198 
	C193.536392,113.875198 192.208542,113.443207 190.668900,112.370773 
	C189.489731,111.873199 188.340851,111.058914 187.125214,110.942642 
	C184.426559,110.684525 181.694443,110.776314 178.794846,110.413383 
	C178.636765,110.222298 178.439499,110.089340 178.027374,109.185188 
	C177.937408,107.781197 177.847427,106.377205 177.954178,104.981750 
	C177.954178,104.981750 178.136185,105.056885 178.925232,104.988838 
	C181.962524,102.396378 181.810608,96.952690 178.592575,95.503799 
	C178.316757,95.379601 177.588379,96.260590 176.214325,96.753242 
	C174.781174,96.757019 173.348038,96.760803 171.559937,96.372200 
	C170.927628,96.617416 170.295303,96.862633 169.662994,97.107849 
	C170.223007,97.419548 170.783020,97.731239 171.618515,98.828735 
	C171.560837,100.206406 171.503174,101.584084 170.724670,102.981369 
	C169.467026,103.363213 168.209381,103.745049 166.385544,104.298790 
	C168.705887,105.473320 170.069138,106.163376 171.598999,107.618622 
	C171.681290,108.396446 171.763565,109.174263 171.500793,110.016106 
	C171.500793,110.016106 171.151947,110.054535 170.698608,110.146675 
	C170.399948,110.268768 170.176453,110.473068 169.500916,110.940002 
	C169.325638,111.001442 169.150345,111.062874 168.098846,110.964005 
	C165.724319,110.889908 163.349777,110.815811 160.797531,110.482147 
	C160.485718,110.295181 160.231506,110.367462 159.425247,111.045761 
	C159.281525,111.695175 159.137817,112.344582 158.832474,112.990860 
	C158.832474,112.990860 158.670837,112.992867 158.305908,113.421577 
	C158.446594,114.261696 158.587280,115.101807 159.037323,116.394676 
	C159.102844,116.565308 159.168381,116.735931 158.388062,116.958214 
	C157.258301,116.972549 156.128540,116.986885 154.929001,116.433136 
	C154.624741,116.110687 154.320480,115.788239 154.016220,115.465797 
	C153.834854,115.675003 153.653503,115.884216 153.472137,116.093422 
	C153.981827,116.395218 154.491531,116.697006 154.990723,117.762459 
	C153.900314,119.041611 152.914474,121.283752 151.699509,121.415665 
	C148.329117,121.781563 147.626419,124.071205 147.396622,126.454048 
	C146.994339,130.625809 146.903885,134.849884 147.019974,139.042694 
	C147.120651,142.678696 147.213928,145.695068 142.048981,145.120728 
	C140.441910,144.942017 138.680191,146.154190 136.324814,146.881516 
	C135.875717,146.833771 135.426636,146.786026 134.790771,146.469299 
	C134.453873,146.296127 134.197006,146.391464 133.301758,146.916580 
	C132.508453,147.620895 131.715149,148.325211 130.349350,149.078857 
	C129.852798,150.437378 129.356247,151.795914 128.308594,154.662186 
	C131.332382,154.094772 133.130676,153.757324 135.838394,153.214233 
	C139.554321,153.280975 143.270233,153.347702 146.983292,154.158997 
	C146.689758,157.222763 146.514282,160.303345 146.080444,163.347107 
	C144.814163,172.231110 149.613129,178.954163 157.129547,179.056915 
	C160.234482,179.099335 161.368744,177.948853 160.998291,174.184906 
	C160.764191,171.564423 162.079071,168.048111 157.231155,167.149582 
	C157.291672,165.436325 157.352203,163.723068 158.123901,161.970383 
	C158.749466,160.647125 159.375046,159.323868 160.660583,157.664642 
	C163.252106,155.613785 165.831024,155.115143 168.653580,157.369980 
	C171.906219,159.968384 174.980148,158.503738 176.527771,153.424438 
	C176.666718,151.313583 176.805664,149.202713 176.839172,146.327484 
	C172.904251,146.471954 168.969315,146.616425 164.365967,146.918716 
	C163.914536,146.864304 163.463089,146.809891 162.891342,146.147568 
	C161.056076,145.758545 159.220810,145.369522 157.218353,144.063095 
	C157.217743,139.014938 157.217117,133.966797 157.704193,128.456329 
	C159.071518,124.769943 162.552216,121.508804 160.903503,116.864532 
	C164.491516,116.967018 168.079529,117.069496 171.704422,117.601028 
	C171.704422,117.601028 171.930191,117.967735 171.788956,118.608597 
	C171.666077,119.690018 171.543213,120.771431 170.738098,122.277405 
	C170.957779,124.524414 171.177460,126.771423 171.652679,129.658920 
	C171.797623,130.094833 171.942566,130.530746 171.424713,130.974106 
	C167.972305,133.004562 172.091827,134.119858 171.429642,136.165527 
	C173.434769,135.579819 174.800491,135.180878 175.982590,134.835587 
	C175.634689,133.463257 175.331177,132.265915 174.925095,130.916473 
	C174.925095,130.916473 174.901718,130.734497 175.577530,130.912979 
	C176.301453,130.578171 177.025375,130.243362 177.893906,129.446777 
	C177.956696,129.047104 177.788437,128.815536 177.414001,128.695114 
M96.756813,152.803558 
	C96.486946,150.939102 96.217079,149.074646 95.042473,146.991501 
	C89.476669,146.991501 83.910866,146.991501 77.889389,146.991501 
	C77.889389,139.478226 77.889389,133.072052 77.889389,126.715225 
	C75.312836,126.715225 73.242455,126.715225 70.753716,126.715225 
	C70.753716,133.506256 70.753716,139.945312 70.753716,146.953781 
	C67.900673,146.953781 65.442093,146.828720 63.001141,146.982910 
	C59.286636,147.217545 55.584354,147.645660 51.309181,148.319595 
	C49.470692,150.195770 49.677204,151.744080 52.944077,153.155502 
	C56.312305,153.247192 59.680538,153.338898 63.546646,153.872284 
	C65.561836,154.220993 67.577034,154.569702 69.229958,154.855728 
	C69.229958,161.738297 69.229958,168.646759 69.229958,175.600021 
	C70.210571,175.685867 71.908257,175.340729 72.932549,176.016403 
	C76.050858,178.073456 77.017075,176.142715 78.136734,173.033325 
	C78.158424,167.746658 77.979218,162.446487 78.333580,157.182205 
	C78.430290,155.745605 80.131104,154.416992 81.994064,153.215988 
	C86.005241,153.151077 90.016411,153.086166 94.500183,153.184525 
	C94.500183,153.184525 94.973198,153.022491 95.483078,153.171738 
	C95.651733,153.118362 95.820389,153.064987 96.756813,152.803558 
M139.002838,109.175858 
	C138.017776,109.233246 137.032700,109.290642 135.269104,109.524109 
	C134.215958,109.454628 133.162811,109.385147 131.869797,108.833618 
	C130.877182,109.004883 129.884567,109.176155 128.046570,109.546921 
	C125.738052,109.476562 123.429543,109.406204 120.839203,108.640564 
	C120.544510,102.897362 120.361938,97.144730 119.879906,91.417297 
	C119.752045,89.898079 118.703545,88.456337 118.009346,86.990669 
	C118.009346,86.990669 118.021362,86.922325 117.897987,86.227371 
	C115.498466,85.187263 113.022865,82.898285 110.408752,87.010170 
	C110.165680,87.340767 109.922607,87.671364 109.314209,88.318085 
	C109.431992,88.880615 109.549767,89.443146 109.794708,90.870209 
	C109.747406,92.904305 109.700104,94.938400 109.381607,97.177002 
	C109.341705,97.282738 109.240387,97.417023 109.273705,97.488716 
	C109.363777,97.682457 109.511131,97.849571 109.760788,98.881210 
	C109.713951,100.888565 109.667114,102.895927 109.039764,105.082985 
	C108.317856,106.490929 107.595947,107.898880 106.022491,109.517159 
	C102.363052,109.426918 98.703613,109.336670 94.553032,108.607216 
	C92.170197,108.954102 89.787354,109.300987 87.404518,109.647873 
	C87.875153,112.115570 88.345787,114.583275 89.081535,117.531013 
	C89.387772,117.719269 89.694000,117.907516 90.631332,118.628700 
	C93.741180,118.743546 96.881004,118.630814 99.952690,119.035385 
	C103.212669,119.464752 106.407982,120.385155 109.760689,121.951691 
	C109.721954,124.271973 109.683220,126.592255 108.963234,129.197540 
	C109.250259,132.794083 109.537285,136.390640 110.155022,140.400940 
	C110.437180,140.608826 110.719345,140.816711 111.268814,141.595627 
	C113.904892,145.252228 115.996307,144.008240 118.006981,140.980728 
	C118.006981,140.980728 117.866402,140.874496 118.685837,140.806122 
	C119.110390,139.333862 119.841232,137.873901 119.900948,136.386993 
	C120.067131,132.249207 120.187828,128.083084 119.884865,123.960617 
	C119.597382,120.048828 120.901047,118.734718 124.897774,118.844574 
	C129.571121,118.973038 134.267273,118.272598 138.972458,118.002144 
	C138.972458,118.002144 138.938629,117.933372 139.710892,117.856644 
	C141.494095,115.099533 142.171082,112.406624 139.107712,109.856728 
	C139.107712,109.856728 139.100693,109.699776 139.002838,109.175858 
M149.960068,81.050735 
	C149.960068,81.050735 150.136978,80.987030 150.019699,81.856255 
	C149.959518,83.900459 149.899338,85.944664 149.147324,88.139030 
	C147.650528,92.431053 146.153732,96.723068 144.656921,101.015083 
	C145.078293,101.312828 145.499649,101.610580 145.921021,101.908325 
	C147.873581,100.702713 150.570679,105.576805 152.797302,100.567986 
	C154.256866,100.394341 155.716431,100.220695 157.933197,99.810791 
	C158.287979,98.135780 158.781052,96.476265 158.970734,94.782761 
	C159.472366,90.304283 159.842621,85.811073 160.234039,81.654076 
	C162.593262,81.064720 164.303070,80.637596 166.680984,80.068825 
	C167.131546,80.115074 167.582123,80.161324 168.333984,80.587044 
	C168.877884,80.464973 169.421768,80.342903 170.730560,80.087967 
	C171.502380,80.146736 172.274185,80.205505 173.381332,80.631363 
	C173.925781,80.452240 174.470215,80.273109 175.223053,79.512093 
	C175.554550,78.995705 175.886047,78.479317 176.634155,77.571541 
	C176.490173,76.726082 176.346207,75.880623 175.913025,74.403938 
	C175.569656,74.102119 175.226288,73.800301 174.569351,73.229210 
	C174.079651,73.337326 173.589935,73.445442 172.386597,73.750732 
	C171.898621,73.701241 171.410660,73.651749 170.626373,73.293686 
	C170.118317,73.372177 169.610275,73.450676 168.205551,73.745117 
	C165.136078,73.834251 162.066605,73.923393 159.080261,73.796822 
	C159.080261,73.796822 159.113449,73.568047 159.043228,72.760223 
	C159.486496,70.233658 159.655823,67.619537 160.429428,65.198532 
	C162.099350,59.972668 160.618881,54.333679 156.282349,53.006660 
	C155.854034,53.062111 155.425735,53.117558 154.254547,53.025574 
	C153.502441,53.071949 152.750351,53.118328 151.152039,53.109539 
	C150.763046,54.242584 150.055939,55.370911 150.039047,56.509472 
	C149.957794,61.990059 150.062698,67.473412 149.587814,73.547096 
	C143.481812,74.143402 137.375793,74.739700 130.843582,75.377625 
	C131.199753,76.810783 131.620300,78.503036 132.421722,80.621292 
	C133.267746,80.483360 134.113770,80.345428 135.652756,80.067009 
	C136.118820,80.117363 136.584885,80.167709 137.628525,80.696152 
	C140.068893,80.540100 142.509262,80.384056 145.717667,80.105782 
	C146.491730,80.152710 147.265793,80.199646 148.359787,80.631401 
	C148.831390,80.781494 149.303009,80.931587 149.960068,81.050735 
M92.664833,80.088043 
	C93.130402,80.151871 93.595963,80.215691 94.616318,80.729332 
	C97.894501,81.667023 99.876976,80.356392 99.862259,77.037338 
	C99.846039,73.381271 97.642967,72.246429 93.342255,73.601273 
	C90.566788,73.563889 87.791321,73.526512 84.803055,72.868019 
	C81.423790,71.179443 79.023026,69.126106 80.800682,64.754082 
	C81.326584,63.460655 81.114075,61.774448 80.935371,60.305275 
	C80.488014,56.627300 79.866226,52.970539 79.314407,49.305267 
	C76.346207,50.683083 74.794540,50.571312 73.386688,50.968861 
	C72.446022,51.234482 71.709930,52.224590 70.172112,52.795387 
	C69.364464,51.538486 68.556816,50.281590 67.426056,48.521854 
	C66.756569,49.729065 66.139511,50.352188 66.082306,51.023045 
	C65.661148,55.962353 65.051987,60.913723 65.093681,65.856300 
	C65.133423,70.567139 62.769855,72.455498 58.575569,72.944138 
	C57.258308,73.097603 55.931252,73.166931 54.111660,73.410500 
	C53.591930,73.397606 53.072197,73.384720 51.908417,73.197708 
	C51.359467,73.522148 50.358479,73.817307 50.335258,74.175797 
	C50.189529,76.425476 50.261562,78.689262 50.261562,81.007736 
	C53.257622,81.007736 56.119957,81.279266 58.910343,80.946846 
	C63.602104,80.387917 65.540779,81.894104 65.100624,86.881058 
	C64.675430,91.698540 65.008537,96.582962 65.008537,101.437973 
	C65.559540,101.470306 66.110542,101.502632 66.661545,101.534966 
	C66.913536,94.740623 67.165520,87.946281 67.417503,81.151932 
	C68.241814,81.214836 69.066124,81.277733 69.890434,81.340637 
	C69.730820,83.983353 69.122055,86.693703 69.507591,89.254341 
	C70.249359,94.181068 64.865028,100.904594 73.460869,103.689934 
	C73.679932,103.760918 73.686699,104.367798 73.923988,104.520836 
	C75.694298,105.662613 77.432983,106.897141 79.338432,107.753677 
	C79.791161,107.957199 80.995979,106.960548 81.520309,106.264084 
	C81.693474,106.034065 80.964470,104.775124 80.382248,104.407791 
	C79.499161,103.850647 78.383896,103.661499 76.742249,103.103622 
	C84.627037,96.697670 78.291832,88.385765 80.423828,81.579987 
	C82.879341,81.076378 84.952271,80.651230 87.770760,80.082130 
	C88.524292,80.136566 89.277824,80.191002 90.340401,80.614609 
	C90.883751,80.487167 91.427101,80.359734 92.664833,80.088043 
M99.429420,170.778137 
	C99.105507,172.111145 98.781601,173.444138 98.457687,174.777145 
	C99.178169,174.557083 99.898651,174.337021 101.248138,174.881378 
	C104.386986,174.961456 107.525826,175.041550 110.861923,175.746323 
	C110.990509,176.163773 111.119102,176.581223 111.079750,177.868683 
	C111.137047,179.932175 111.194351,181.995667 111.104607,184.887009 
	C111.104607,186.316696 111.104607,187.746384 111.104607,189.418869 
	C113.367882,189.418869 115.117279,189.418869 117.313576,189.418869 
	C117.313576,186.840332 117.310905,184.394791 117.314095,181.949249 
	C117.322655,175.397339 117.323647,175.397980 123.659210,175.405777 
	C125.623024,175.408203 127.586838,175.406158 130.318420,175.406158 
	C129.835953,173.448959 129.566635,170.761200 129.100815,170.726715 
	C126.163956,170.509186 123.183472,170.880676 119.415398,170.916382 
	C118.388924,167.233032 116.017662,163.309280 116.623932,159.917816 
	C117.783806,153.429489 114.472710,155.426025 111.358246,155.756973 
	C111.218765,156.582382 111.077332,157.060913 111.066139,157.542480 
	C110.977928,161.335587 112.295883,166.193192 110.435547,168.608490 
	C108.745682,170.802444 103.606499,170.339600 99.429420,170.778137 
M118.723343,56.987904 
	C122.173668,56.987904 125.623985,56.987904 129.906143,56.987904 
	C127.781036,48.531181 120.706299,54.570789 116.860909,50.817329 
	C116.860909,47.331436 116.860909,43.086674 116.860909,38.582413 
	C114.918396,38.582413 113.522621,38.582413 112.090767,38.582413 
	C111.912674,39.243431 111.688133,39.706249 111.677971,40.173717 
	C111.602364,43.653397 112.806755,48.030369 111.137344,50.335091 
	C109.763367,52.231956 104.954567,51.501713 101.757690,52.296432 
	C100.708153,52.557339 99.939552,53.948357 99.042480,54.822582 
	C99.912506,55.538681 100.737335,56.795025 101.660805,56.872292 
	C104.762054,57.131760 107.898460,56.970886 111.373253,56.970886 
	C111.569092,61.003582 111.571159,64.491081 112.002762,67.924583 
	C112.139908,69.015625 113.420593,69.962914 114.177994,70.975983 
	C115.060730,69.928955 116.512405,68.982918 116.719543,67.815964 
	C117.341148,64.313927 117.476944,60.725651 118.723343,56.987904 
M37.207279,113.582008 
	C38.303883,114.398415 39.337269,115.790352 40.509407,115.919106 
	C43.550011,116.253105 46.651676,116.031235 49.990913,116.031235 
	C49.990913,119.654465 50.072384,122.470413 49.969395,125.279587 
	C49.852131,128.478073 50.105556,131.088791 55.103104,129.235703 
	C55.103104,125.005379 55.103104,120.636757 55.103104,116.351639 
	C67.850151,115.224442 67.850151,115.224442 66.616348,110.962219 
	C62.984612,110.962219 59.224537,110.962219 54.873329,110.962219 
	C54.873329,106.325851 54.873329,102.109375 54.873329,97.490196 
	C52.861565,97.672073 51.495445,97.795586 49.748695,97.953506 
	C49.748695,102.492165 49.748695,106.585037 49.748695,111.147804 
	C47.377136,111.147804 45.389294,110.942253 43.464691,111.203194 
	C41.364689,111.487907 39.323280,112.204773 37.207279,113.582008 
M72.853622,108.509735 
	C72.428940,108.207985 72.004265,107.906235 71.579590,107.604477 
	C71.466515,108.050957 71.353447,108.497444 71.240372,108.943916 
	C71.737503,108.997360 72.234634,109.050804 72.853622,108.509735 
M158.410889,108.483315 
	C158.410889,108.483315 158.523315,108.415787 158.410889,108.483315 
M49.488007,147.575333 
	C49.488007,147.575333 49.432220,147.478317 49.488007,147.575333 
z"/>
<path fill="#BE263B" opacity="1.000000" stroke="none" 
	d="
M51.876881,147.991608 
	C55.584354,147.645660 59.286636,147.217545 63.001141,146.982910 
	C65.442093,146.828720 67.900673,146.953781 70.753716,146.953781 
	C70.753716,139.945312 70.753716,133.506256 70.753716,126.715225 
	C73.242455,126.715225 75.312836,126.715225 77.889389,126.715225 
	C77.889389,133.072052 77.889389,139.478226 77.889389,146.991501 
	C83.910866,146.991501 89.476669,146.991501 95.510117,147.498535 
	C95.981239,149.333023 95.984718,150.660492 95.767441,152.104019 
	C95.273087,152.428619 95.081924,152.696091 94.973198,153.022491 
	C94.973198,153.022491 94.500183,153.184525 93.969940,152.804855 
	C88.692230,152.550766 83.944748,152.676331 78.793457,152.930420 
	C77.929001,154.525986 77.141907,155.977417 77.070824,157.463104 
	C76.880859,161.433456 77.202377,165.435654 76.870979,169.387466 
	C76.769699,170.595139 75.210266,171.680527 74.318611,172.821930 
	C73.547913,171.725555 72.264771,170.696106 72.111099,169.519165 
	C71.770439,166.910202 72.155594,164.214752 71.948639,161.577805 
	C71.726448,158.746689 71.165123,155.942184 70.324158,153.123169 
	C67.613945,153.223724 65.331360,153.327164 63.048767,153.430603 
	C59.680538,153.338898 56.312305,153.247192 52.524391,152.637573 
	C52.028763,150.743637 51.952824,149.367630 51.876881,147.991608 
z"/>
<path fill="#5E889B" opacity="1.000000" stroke="none" 
	d="
M148.039856,80.246582 
	C147.265793,80.199646 146.491730,80.152710 144.902161,80.079224 
	C141.741425,80.107803 139.396179,80.162933 137.050949,80.218056 
	C136.584885,80.167709 136.118820,80.117363 134.946335,80.056679 
	C133.506897,80.095993 132.773880,80.145638 132.040863,80.195290 
	C131.620300,78.503036 131.199753,76.810783 130.843582,75.377625 
	C137.375793,74.739700 143.481812,74.143402 150.122498,72.949051 
	C151.104218,65.955566 151.551239,59.560139 151.998260,53.164707 
	C152.750351,53.118328 153.502441,53.071949 154.638260,53.509979 
	C155.347748,56.935741 155.694901,59.874931 155.993698,62.819027 
	C156.337234,66.203880 156.638000,69.593063 157.032608,73.187637 
	C157.107864,73.394913 157.146835,73.834198 156.993179,73.915329 
	C156.947845,73.948463 157.056183,73.900475 157.495682,73.844955 
	C158.255722,73.747627 158.684586,73.657837 159.113449,73.568047 
	C159.113449,73.568047 159.080261,73.796822 159.331451,74.199791 
	C164.059357,76.251892 169.446976,73.157951 173.532486,77.663300 
	C169.475433,78.690781 165.483673,78.627251 161.497070,78.742142 
	C160.657440,78.766335 159.836700,79.445221 158.721741,79.916374 
	C157.953156,80.344986 157.470093,80.679665 156.691666,81.305832 
	C156.571198,86.721336 156.746094,91.845360 156.986588,97.306030 
	C156.997360,98.093384 156.942535,98.544106 156.472260,98.995461 
	C152.227722,99.462990 150.860489,97.779076 150.921158,93.950294 
	C150.989532,89.634430 150.425781,85.308556 150.136978,80.987030 
	C150.136978,80.987030 149.960068,81.050735 149.828369,80.770432 
	C149.144394,80.408951 148.592133,80.327766 148.039856,80.246582 
z"/>
<path fill="#21467A" opacity="1.000000" stroke="none" 
	d="
M157.216507,128.918640 
	C157.217117,133.966797 157.217743,139.014938 157.225891,144.907654 
	C159.159500,146.086624 161.085587,146.421051 163.011658,146.755478 
	C163.463089,146.809891 163.914536,146.864304 165.144287,146.933853 
	C169.232254,146.997787 172.541916,147.046600 175.872162,147.468079 
	C175.277756,149.626648 174.662781,151.412582 173.580200,153.205841 
	C168.748917,153.247681 164.385254,153.282227 159.734131,153.215149 
	C158.889740,153.271454 158.332825,153.429367 157.722092,153.618408 
	C157.668289,153.649536 157.581955,153.738983 157.394745,153.905457 
	C157.236038,154.391830 157.264542,154.711716 157.242218,155.402374 
	C157.257935,156.513580 157.324493,157.254013 157.296875,158.389648 
	C157.272690,159.859833 157.342712,160.934814 157.412720,162.009811 
	C157.352203,163.723068 157.291672,165.436325 157.225479,168.005219 
	C157.199387,170.350128 157.178970,171.839417 156.832977,173.459518 
	C154.337509,173.063980 152.167618,172.537598 150.006195,171.542419 
	C149.986649,165.109573 149.958618,159.145523 149.947571,152.828217 
	C149.644348,151.655838 149.324142,150.836731 148.912506,149.777893 
	C148.874863,148.754318 148.928635,147.970459 149.196503,147.104034 
	C149.410614,147.021469 149.864532,146.953506 150.232086,146.791000 
	C151.066544,144.990845 151.858841,143.368851 151.938461,141.712585 
	C152.165451,136.991364 152.102280,132.256180 152.478592,127.521027 
	C154.274780,127.983246 155.745636,128.450943 157.216507,128.918640 
z"/>
<path fill="#80A2AA" opacity="1.000000" stroke="none" 
	d="
M118.262825,57.079468 
	C117.476944,60.725651 117.341148,64.313927 116.719543,67.815964 
	C116.512405,68.982918 115.060730,69.928955 114.177994,70.975983 
	C113.420593,69.962914 112.139908,69.015625 112.002762,67.924583 
	C111.571159,64.491081 111.569092,61.003582 111.373253,56.970886 
	C107.898460,56.970886 104.762054,57.131760 101.660805,56.872292 
	C100.737335,56.795025 99.912506,55.538681 99.042480,54.822582 
	C99.939552,53.948357 100.708153,52.557339 101.757690,52.296432 
	C104.954567,51.501713 109.763367,52.231956 111.137344,50.335091 
	C112.806755,48.030369 111.602364,43.653397 111.677971,40.173717 
	C111.688133,39.706249 111.912674,39.243431 112.090767,38.582413 
	C113.522621,38.582413 114.918396,38.582413 116.860909,38.582413 
	C116.860909,43.086674 116.860909,47.331436 116.860909,50.817329 
	C120.706299,54.570789 127.781036,48.531181 129.906143,56.987904 
	C125.623985,56.987904 122.173668,56.987904 118.262825,57.079468 
z"/>
<path fill="#809FA9" opacity="1.000000" stroke="none" 
	d="
M37.231804,113.157631 
	C39.323280,112.204773 41.364689,111.487907 43.464691,111.203194 
	C45.389294,110.942253 47.377136,111.147804 49.748695,111.147804 
	C49.748695,106.585037 49.748695,102.492165 49.748695,97.953506 
	C51.495445,97.795586 52.861565,97.672073 54.873329,97.490196 
	C54.873329,102.109375 54.873329,106.325851 54.873329,110.962219 
	C59.224537,110.962219 62.984612,110.962219 66.616348,110.962219 
	C67.850151,115.224442 67.850151,115.224442 55.103104,116.351639 
	C55.103104,120.636757 55.103104,125.005379 55.103104,129.235703 
	C50.105556,131.088791 49.852131,128.478073 49.969395,125.279587 
	C50.072384,122.470413 49.990913,119.654465 49.990913,116.031235 
	C46.651676,116.031235 43.550011,116.253105 40.509407,115.919106 
	C39.337269,115.790352 38.303883,114.398415 37.231804,113.157631 
z"/>
<path fill="#626A94" opacity="1.000000" stroke="none" 
	d="
M111.251648,184.059158 
	C111.194351,181.995667 111.137047,179.932175 111.466217,177.392151 
	C112.492912,176.339645 113.133133,175.763672 114.529770,174.507202 
	C112.453514,174.837265 111.559090,174.979446 110.664673,175.121643 
	C107.525826,175.041550 104.386986,174.961456 100.803909,174.282150 
	C100.235771,172.804611 100.111862,171.926300 99.987946,171.047989 
	C103.606499,170.339600 108.745682,170.802444 110.435547,168.608490 
	C112.295883,166.193192 110.977928,161.335587 111.066139,157.542480 
	C111.077332,157.060913 111.218765,156.582382 111.358246,155.756973 
	C114.472710,155.426025 117.783806,153.429489 116.623932,159.917816 
	C116.017662,163.309280 118.388924,167.233032 120.248032,170.953094 
	C123.654930,170.989792 126.229195,170.989792 128.803467,170.989792 
	C128.811890,171.926926 128.820297,172.864059 128.828720,173.801178 
	C125.767609,173.867172 122.699928,174.087784 119.647148,173.957916 
	C116.236557,173.812866 114.780769,175.184311 114.968498,178.620773 
	C115.129959,181.576126 115.001984,184.547272 115.001984,187.511444 
	C114.561356,187.553909 114.120720,187.596375 113.680092,187.638855 
	C112.870605,186.445618 112.061127,185.252396 111.251648,184.059158 
z"/>
<path fill="#FBF8EA" opacity="1.000000" stroke="none" 
	d="
M87.025200,80.226074 
	C84.952271,80.651230 82.879341,81.076378 80.423828,81.579987 
	C78.291832,88.385765 84.627037,96.697670 76.742249,103.103622 
	C78.383896,103.661499 79.499161,103.850647 80.382248,104.407791 
	C80.964470,104.775124 81.693474,106.034065 81.520309,106.264084 
	C80.995979,106.960548 79.791161,107.957199 79.338432,107.753677 
	C77.432983,106.897141 75.694298,105.662613 73.923988,104.520836 
	C73.686699,104.367798 73.679932,103.760918 73.460869,103.689934 
	C64.865028,100.904594 70.249359,94.181068 69.507591,89.254341 
	C69.122055,86.693703 69.730820,83.983353 69.890434,81.340637 
	C69.066124,81.277733 68.241814,81.214836 67.417503,81.151932 
	C67.165520,87.946281 66.913536,94.740623 66.661545,101.534966 
	C66.110542,101.502632 65.559540,101.470306 65.008537,101.437973 
	C65.008537,96.582962 64.675430,91.698540 65.100624,86.881058 
	C65.540779,81.894104 63.602104,80.387917 58.910343,80.946846 
	C56.119957,81.279266 53.257622,81.007736 50.261562,81.007736 
	C50.261562,78.689262 50.189529,76.425476 50.335258,74.175797 
	C50.358479,73.817307 51.359467,73.522148 52.081242,73.678497 
	C50.907696,78.869698 52.757114,80.420448 57.484077,80.067322 
	C61.930496,79.735146 66.426819,80.071014 70.988663,80.332687 
	C71.076134,80.552406 71.324188,80.954796 71.221695,81.416870 
	C71.091156,86.182281 71.046410,90.485588 71.039108,94.788963 
	C71.029007,100.743103 71.757133,101.236427 78.067886,99.188202 
	C78.067886,92.903679 78.067886,86.472168 78.052338,80.033051 
	C78.036781,80.025452 78.051407,80.064400 78.499496,80.067764 
	C81.640121,80.122780 84.332664,80.174431 87.025200,80.226074 
z"/>
<path fill="#666F93" opacity="1.000000" stroke="none" 
	d="
M171.930191,117.967735 
	C171.930191,117.967735 171.704422,117.601028 171.978073,117.168274 
	C171.607864,116.165070 170.984467,115.130424 170.316772,115.101006 
	C166.554794,114.935257 162.782166,115.011139 158.951752,114.669304 
	C158.817184,113.886932 158.744019,113.439896 158.670837,112.992867 
	C158.670837,112.992867 158.832474,112.990860 159.331131,112.987915 
	C162.878220,112.364754 165.926636,111.744530 168.975067,111.124313 
	C169.150345,111.062874 169.325638,111.001442 170.030121,110.893814 
	C170.756866,110.583260 170.954407,110.318893 171.151947,110.054535 
	C171.151947,110.054535 171.500793,110.016106 172.032974,110.002007 
	C173.045135,109.994530 173.525116,110.001144 174.253845,110.008141 
	C174.502609,110.008514 175.000122,110.005760 175.233749,109.999466 
	C175.652359,109.658310 175.837341,109.323441 176.018097,108.743530 
	C176.013870,108.498489 176.017105,108.008362 176.261078,107.831345 
	C176.922531,106.760620 177.339996,105.866920 177.757462,104.973221 
	C177.847427,106.377205 177.937408,107.781197 178.096985,109.830994 
	C178.166580,110.476807 178.515656,110.782051 178.515656,110.782051 
	C178.515656,110.782051 178.975967,110.725449 178.975967,110.725449 
	C181.694443,110.776314 184.426559,110.684525 187.125214,110.942642 
	C188.340851,111.058914 189.489731,111.873199 190.693115,113.017120 
	C190.772736,114.104652 190.828125,114.545822 190.883514,114.987000 
	C187.751770,115.569885 184.628510,116.551208 181.485779,116.618126 
	C178.622192,116.679115 177.658554,117.669281 177.392487,120.835388 
	C176.554260,123.915222 176.238983,126.467773 175.716934,129.017120 
	C175.510162,129.013931 175.096695,129.004791 174.700592,128.921127 
	C173.873978,127.222046 173.380325,125.620216 173.029129,123.987747 
	C172.600327,121.994522 172.291122,119.975563 171.930191,117.967735 
z"/>
<path fill="#F5F8F8" opacity="1.000000" stroke="none" 
	d="
M157.460358,128.687485 
	C155.745636,128.450943 154.274780,127.983246 152.226257,127.239243 
	C151.105026,128.551422 150.169556,130.120682 150.090530,131.731949 
	C149.842102,136.797318 149.915649,141.878464 149.864532,146.953506 
	C149.864532,146.953506 149.410614,147.021469 148.746765,147.000580 
	C144.385040,146.896347 140.687149,146.812973 136.989258,146.729614 
	C138.680191,146.154190 140.441910,144.942017 142.048981,145.120728 
	C147.213928,145.695068 147.120651,142.678696 147.019974,139.042694 
	C146.903885,134.849884 146.994339,130.625809 147.396622,126.454048 
	C147.626419,124.071205 148.329117,121.781563 151.699509,121.415665 
	C152.914474,121.283752 153.900314,119.041611 154.995361,117.381226 
	C155.000000,117.000000 154.998779,117.001221 154.998779,117.001221 
	C156.128540,116.986885 157.258301,116.972549 159.010101,116.921745 
	C159.632141,116.885277 160.002502,117.034248 160.002502,117.034248 
	C162.552216,121.508804 159.071518,124.769943 157.460358,128.687485 
z"/>
<path fill="#DB7F41" opacity="1.000000" stroke="none" 
	d="
M132.109665,109.315674 
	C133.162811,109.385147 134.215958,109.454628 136.013016,109.600403 
	C137.538177,109.684387 138.319443,109.692078 139.100693,109.699768 
	C139.100693,109.699776 139.107712,109.856728 139.126892,110.334183 
	C139.076920,113.185547 139.007782,115.559464 138.938629,117.933372 
	C138.938629,117.933372 138.972458,118.002144 138.499023,117.939011 
	C131.080368,118.013687 124.135132,118.151512 117.235229,117.959793 
	C118.383156,117.180580 119.490959,116.335197 120.587440,116.349632 
	C125.382332,116.412743 130.178955,116.918037 134.962784,116.793976 
	C135.991364,116.767296 136.969452,114.793861 137.970810,113.717194 
	C136.909775,112.813400 135.884476,111.186211 134.781464,111.131721 
	C130.137405,110.902306 125.411621,110.720016 120.831390,111.354866 
	C117.621071,111.799835 116.561386,110.648628 116.063919,107.595901 
	C116.410347,102.788750 116.701431,98.394798 116.995987,93.587357 
	C117.430214,90.095055 116.287483,88.519615 112.705345,89.265945 
	C111.948967,94.691597 111.489990,99.842041 111.055176,105.336533 
	C111.378822,106.780373 111.678307,107.880173 111.650459,108.989868 
	C110.886284,109.005020 110.449448,109.010269 110.005524,108.600098 
	C109.872398,107.090881 109.746338,105.997078 109.620285,104.903282 
	C109.667114,102.895927 109.713951,100.888565 109.783615,98.191803 
	C109.755226,97.325768 109.704018,97.149132 109.652802,96.972496 
	C109.700104,94.938400 109.747406,92.904305 109.846359,90.110916 
	C109.825180,88.901741 109.752357,88.451843 109.679535,88.001953 
	C109.922607,87.671364 110.165680,87.340767 111.097412,86.934052 
	C113.864510,86.879395 115.942932,86.900856 118.021362,86.922325 
	C118.021362,86.922325 118.009346,86.990669 118.047554,87.454437 
	C118.093430,93.974632 118.072975,100.031288 118.125305,106.087318 
	C118.141731,107.988487 117.708633,110.486298 121.121025,109.335846 
	C123.429543,109.406204 125.738052,109.476562 128.858734,109.604233 
	C130.483810,109.546249 131.296738,109.430962 132.109665,109.315674 
z"/>
<path fill="#DB7F41" opacity="1.000000" stroke="none" 
	d="
M109.644493,128.912537 
	C109.683220,126.592255 109.721954,124.271973 109.810532,121.105103 
	C108.733208,119.466209 107.626534,118.028023 106.475388,117.991493 
	C100.990295,117.817451 95.493118,118.024376 90.000237,118.095772 
	C89.694000,117.907516 89.387772,117.719269 89.014420,116.848862 
	C88.947311,114.141083 88.947311,112.115463 88.947311,110.247261 
	C91.561974,109.818047 93.303070,109.532234 95.044174,109.246429 
	C98.703613,109.336670 102.363052,109.426918 106.787621,109.578606 
	C108.052399,109.703552 108.552048,109.767052 108.778107,110.164124 
	C104.229027,110.665985 99.937759,111.136993 95.682579,110.915359 
	C91.622375,110.703888 90.354553,112.372681 90.895538,116.857956 
	C98.033340,116.857956 105.193695,116.857956 111.079727,116.857956 
	C111.079727,123.604065 110.891991,129.515640 111.232422,135.396652 
	C111.303574,136.625839 113.323792,137.742218 114.445831,138.910568 
	C115.296165,137.699951 116.607819,136.587204 116.890198,135.256088 
	C117.328781,133.188721 117.066666,130.972687 117.431198,129.098633 
	C117.796013,133.209885 117.831207,137.042191 117.866402,140.874496 
	C117.866402,140.874496 118.006981,140.980728 117.514801,140.895142 
	C115.015587,140.881226 113.008553,140.952896 111.001511,141.024567 
	C110.719345,140.816711 110.437180,140.608826 110.056717,139.740326 
	C109.853775,135.690643 109.749130,132.301590 109.644493,128.912537 
z"/>
<path fill="#F2F6F4" opacity="1.000000" stroke="none" 
	d="
M149.930603,153.181488 
	C149.958618,159.145523 149.986649,165.109573 149.960403,171.943573 
	C152.219666,173.525787 154.533218,174.238052 157.261398,174.966263 
	C158.782196,174.991013 159.888351,174.999817 160.994507,175.008636 
	C161.368744,177.948853 160.234482,179.099335 157.129547,179.056915 
	C149.613129,178.954163 144.814163,172.231110 146.080444,163.347107 
	C146.514282,160.303345 146.689758,157.222763 147.342102,153.681412 
	C148.444138,153.196381 149.187363,153.188934 149.930603,153.181488 
z"/>
<path fill="#626B84" opacity="1.000000" stroke="none" 
	d="
M111.178131,184.473083 
	C112.061127,185.252396 112.870605,186.445618 113.680092,187.638855 
	C114.120720,187.596375 114.561356,187.553909 115.001984,187.511444 
	C115.001984,184.547272 115.129959,181.576126 114.968498,178.620773 
	C114.780769,175.184311 116.236557,173.812866 119.647148,173.957916 
	C122.699928,174.087784 125.767609,173.867172 128.828720,173.801178 
	C128.820297,172.864059 128.811890,171.926926 128.803467,170.989792 
	C126.229195,170.989792 123.654930,170.989792 120.649033,171.023682 
	C123.183472,170.880676 126.163956,170.509186 129.100815,170.726715 
	C129.566635,170.761200 129.835953,173.448959 130.318420,175.406158 
	C127.586838,175.406158 125.623024,175.408203 123.659210,175.405777 
	C117.323647,175.397980 117.322655,175.397339 117.314095,181.949249 
	C117.310905,184.394791 117.313576,186.840332 117.313576,189.418869 
	C115.117279,189.418869 113.367882,189.418869 111.104607,189.418869 
	C111.104607,187.746384 111.104607,186.316696 111.178131,184.473083 
z"/>
<path fill="#FBF8EA" opacity="1.000000" stroke="none" 
	d="
M54.608677,73.274780 
	C55.931252,73.166931 57.258308,73.097603 58.575569,72.944138 
	C62.769855,72.455498 65.133423,70.567139 65.093681,65.856300 
	C65.051987,60.913723 65.661148,55.962353 66.082306,51.023045 
	C66.139511,50.352188 66.756569,49.729065 67.426056,48.521854 
	C68.556816,50.281590 69.364464,51.538486 70.601532,52.913555 
	C71.030960,53.031723 71.178024,53.174644 71.141838,53.627544 
	C70.999306,60.661777 70.892952,67.243111 70.797722,73.847191 
	C70.808838,73.869942 70.803055,73.807831 70.493408,73.771469 
	C69.779510,73.663330 69.375259,73.591545 68.978638,73.110733 
	C69.300949,67.560005 69.615639,62.418320 69.930321,57.276634 
	C68.963226,57.231827 67.996132,57.187023 67.029037,57.142220 
	C67.029037,62.558704 67.029037,67.975189 66.592247,73.533051 
	C62.306530,73.541214 58.457603,73.407997 54.608677,73.274780 
z"/>
<path fill="#FBF8EA" opacity="1.000000" stroke="none" 
	d="
M70.956619,52.961105 
	C71.709930,52.224590 72.446022,51.234482 73.386688,50.968861 
	C74.794540,50.571312 76.346207,50.683083 79.314407,49.305267 
	C79.866226,52.970539 80.488014,56.627300 80.935371,60.305275 
	C81.114075,61.774448 81.326584,63.460655 80.800682,64.754082 
	C79.023026,69.126106 81.423790,71.179443 84.489502,73.280029 
	C82.165634,73.704384 80.155304,73.716736 78.100632,73.546463 
	C78.056282,73.363838 77.839523,73.056763 77.901871,72.586754 
	C77.964211,65.929405 77.964211,59.742069 77.964211,53.174644 
	C75.342323,53.174644 73.260170,53.174644 71.178024,53.174644 
	C71.178024,53.174644 71.030960,53.031723 70.956619,52.961105 
z"/>
<path fill="#FCFDFD" opacity="1.000000" stroke="none" 
	d="
M160.021591,153.316772 
	C164.385254,153.282227 168.748917,153.247681 173.728577,153.447754 
	C174.895889,153.783875 175.447174,153.885361 175.998474,153.986862 
	C174.980148,158.503738 171.906219,159.968384 168.653580,157.369980 
	C165.831024,155.115143 163.252106,155.613785 160.004395,157.832321 
	C158.695831,157.998154 158.043442,157.996307 157.391068,157.994461 
	C157.324493,157.254013 157.257935,156.513580 157.428802,155.231171 
	C157.638138,154.372452 157.610046,154.055725 157.581955,153.738983 
	C157.581955,153.738983 157.668289,153.649536 158.005508,153.760483 
	C158.902344,153.686539 159.461975,153.501663 160.021591,153.316772 
z"/>
<path fill="#F8E6CD" opacity="1.000000" stroke="none" 
	d="
M118.276123,140.840302 
	C117.831207,137.042191 117.796013,133.209885 117.417816,128.676559 
	C117.113174,124.746796 117.151535,121.518066 117.189896,118.289337 
	C124.135132,118.151512 131.080368,118.013687 138.489563,117.903809 
	C134.267273,118.272598 129.571121,118.973038 124.897774,118.844574 
	C120.901047,118.734718 119.597382,120.048828 119.884865,123.960617 
	C120.187828,128.083084 120.067131,132.249207 119.900948,136.386993 
	C119.841232,137.873901 119.110390,139.333862 118.276123,140.840302 
z"/>
<path fill="#A32F40" opacity="1.000000" stroke="none" 
	d="
M70.751785,153.126068 
	C71.165123,155.942184 71.726448,158.746689 71.948639,161.577805 
	C72.155594,164.214752 71.770439,166.910202 72.111099,169.519165 
	C72.264771,170.696106 73.547913,171.725555 74.318611,172.821930 
	C75.210266,171.680527 76.769699,170.595139 76.870979,169.387466 
	C77.202377,165.435654 76.880859,161.433456 77.070824,157.463104 
	C77.141907,155.977417 77.929001,154.525986 79.104736,152.988617 
	C80.245140,152.958481 80.670441,152.998642 81.095749,153.038818 
	C80.131104,154.416992 78.430290,155.745605 78.333580,157.182205 
	C77.979218,162.446487 78.158424,167.746658 77.610626,173.408249 
	C75.183464,173.783173 73.282417,173.783173 70.995499,173.783173 
	C70.995499,169.894821 71.027161,166.655396 70.986855,163.416870 
	C70.944160,159.986160 70.833015,156.556305 70.751785,153.126068 
z"/>
<path fill="#DD9B4D" opacity="1.000000" stroke="none" 
	d="
M68.971016,73.519768 
	C69.375259,73.591545 69.779510,73.663330 70.283371,74.127625 
	C65.041634,74.794022 59.700291,75.067909 54.358944,75.341797 
	C54.185661,75.724022 54.012379,76.106255 53.839096,76.488480 
	C54.765984,77.292778 55.738407,78.830276 56.611973,78.776024 
	C60.662750,78.524445 64.676437,77.726082 68.724594,77.354111 
	C70.115540,77.226303 71.568085,77.768700 72.996445,78.002274 
	C73.000397,77.999619 73.008041,77.991417 72.721062,78.105667 
	C71.923119,78.850929 71.412155,79.481949 70.901192,80.112961 
	C66.426819,80.071014 61.930496,79.735146 57.484077,80.067322 
	C52.757114,80.420448 50.907696,78.869698 52.403267,73.765564 
	C53.072197,73.384720 53.591930,73.397606 54.360168,73.342644 
	C58.457603,73.407997 62.306530,73.541214 66.905441,73.651077 
	C68.093964,73.591728 68.532486,73.555748 68.971016,73.519768 
z"/>
<path fill="#F5F8F8" opacity="1.000000" stroke="none" 
	d="
M159.078339,73.164139 
	C158.684586,73.657837 158.255722,73.747627 157.414993,73.915306 
	C157.003128,73.993187 157.146835,73.834198 157.146835,73.834198 
	C157.146835,73.834198 157.107864,73.394913 157.106110,72.725868 
	C157.047363,65.713509 156.990387,59.370190 156.933411,53.026875 
	C160.618881,54.333679 162.099350,59.972668 160.429428,65.198532 
	C159.655823,67.619537 159.486496,70.233658 159.078339,73.164139 
z"/>
<path fill="#DD9B4D" opacity="1.000000" stroke="none" 
	d="
M78.144981,73.729080 
	C80.155304,73.716736 82.165634,73.704384 84.595901,73.590576 
	C87.791321,73.526512 90.566788,73.563889 94.156937,73.635292 
	C98.158096,76.428261 97.848457,78.677216 94.061531,80.279518 
	C93.595963,80.215691 93.130402,80.151871 91.997192,80.081894 
	C90.896812,80.132301 90.464088,80.188866 90.031357,80.245438 
	C89.277824,80.191002 88.524292,80.136566 87.397980,80.154099 
	C84.332664,80.174431 81.640121,80.122780 78.532196,79.692192 
	C79.072884,79.036110 80.031319,78.517975 80.984581,78.527351 
	C83.763893,78.554665 86.550247,78.977623 89.313934,78.841461 
	C90.202202,78.797707 91.028542,77.497131 91.883217,76.771545 
	C91.051743,76.187500 90.234085,75.130981 89.386253,75.106178 
	C86.614815,75.025108 83.826454,75.483261 81.057335,75.382866 
	C80.067863,75.346992 79.114708,74.309441 78.144981,73.729080 
z"/>
<path fill="#F5F8F8" opacity="1.000000" stroke="none" 
	d="
M152.069214,100.663628 
	C150.570679,105.576805 147.873581,100.702713 145.921021,101.908325 
	C145.499649,101.610580 145.078293,101.312828 144.656921,101.015083 
	C146.153732,96.723068 147.650528,92.431053 149.564758,88.518135 
	C149.993561,91.040199 149.743576,93.227158 150.094635,95.312943 
	C150.404694,97.155098 151.384918,98.884460 152.069214,100.663628 
z"/>
<path fill="#F5F8F8" opacity="1.000000" stroke="none" 
	d="
M156.987030,81.014351 
	C157.470093,80.679665 157.953156,80.344986 159.154541,79.993942 
	C161.919525,80.055214 163.966202,80.132835 166.012863,80.210464 
	C164.303070,80.637596 162.593262,81.064720 160.234039,81.654076 
	C159.842621,85.811073 159.472366,90.304283 158.970734,94.782761 
	C158.781052,96.476265 158.287979,98.135780 157.497345,99.661789 
	C157.003571,99.340134 156.945648,99.167480 156.887726,98.994827 
	C156.942535,98.544106 156.997360,98.093384 157.067764,96.847755 
	C157.051254,91.040016 157.019150,86.027184 156.987030,81.014351 
z"/>
<path fill="#F1DCDF" opacity="1.000000" stroke="none" 
	d="
M70.324158,153.123169 
	C70.833015,156.556305 70.944160,159.986160 70.986855,163.416870 
	C71.027161,166.655396 70.995499,169.894821 70.995499,173.783173 
	C73.282417,173.783173 75.183464,173.783173 77.524506,173.782043 
	C77.017075,176.142715 76.050858,178.073456 72.932549,176.016403 
	C71.908257,175.340729 70.210571,175.685867 69.229958,175.600021 
	C69.229958,168.646759 69.229958,161.738297 69.229958,154.855728 
	C67.577034,154.569702 65.561836,154.220993 63.297707,153.651428 
	C65.331360,153.327164 67.613945,153.223724 70.324158,153.123169 
z"/>
<path fill="#61848D" opacity="1.000000" stroke="none" 
	d="
M166.346924,80.139641 
	C163.966202,80.132835 161.919525,80.055214 159.440063,79.900009 
	C159.836700,79.445221 160.657440,78.766335 161.497070,78.742142 
	C165.483673,78.627251 169.475433,78.690781 173.532486,77.663300 
	C169.446976,73.157951 164.059357,76.251892 159.289886,74.307648 
	C162.066605,73.923393 165.136078,73.834251 168.949585,73.740128 
	C170.103317,73.690842 170.513000,73.646553 170.922684,73.602257 
	C171.410660,73.651749 171.898621,73.701241 173.038147,73.745193 
	C174.087433,73.659256 174.485168,73.578865 174.882919,73.498474 
	C175.226288,73.800301 175.569656,74.102119 175.984070,75.081589 
	C176.109268,76.493797 176.163406,77.228363 176.217545,77.962921 
	C175.886047,78.479317 175.554550,78.995705 174.787354,79.795044 
	C173.916428,80.140083 173.481216,80.202179 173.046005,80.264282 
	C172.274185,80.205505 171.502380,80.146736 170.029846,80.070633 
	C168.896973,80.104729 168.464828,80.156151 168.032684,80.207573 
	C167.582123,80.161324 167.131546,80.115074 166.346924,80.139641 
z"/>
<path fill="#F8E6CD" opacity="1.000000" stroke="none" 
	d="
M120.980118,108.988205 
	C117.708633,110.486298 118.141731,107.988487 118.125305,106.087318 
	C118.072975,100.031288 118.093430,93.974632 118.081757,87.448624 
	C118.703545,88.456337 119.752045,89.898079 119.879906,91.417297 
	C120.361938,97.144730 120.544510,102.897362 120.980118,108.988205 
z"/>
<path fill="#5C6588" opacity="1.000000" stroke="none" 
	d="
M177.855835,104.977486 
	C177.339996,105.866920 176.922531,106.760620 176.000336,107.811089 
	C175.495605,105.052254 175.495605,102.136650 175.495605,99.221054 
	C174.900620,99.219810 174.305649,99.218575 173.710663,99.217339 
	C172.611694,102.753914 172.453842,106.337845 174.005096,110.007767 
	C173.525116,110.001144 173.045135,109.994530 172.205505,109.970001 
	C171.763565,109.174263 171.681290,108.396446 171.650177,106.862717 
	C171.616058,105.058464 171.530777,104.010109 171.445511,102.961754 
	C171.503174,101.584084 171.560837,100.206406 171.643646,98.125031 
	C171.750809,97.202415 171.832840,96.983505 171.914886,96.764587 
	C173.348038,96.760803 174.781174,96.757019 176.607239,96.812897 
	C177.000137,96.872551 176.967224,97.079910 176.975922,97.389679 
	C177.227036,98.450081 177.469421,99.200706 177.783630,100.373398 
	C177.949020,102.215935 178.042603,103.636406 178.136185,105.056885 
	C178.136185,105.056885 177.954178,104.981750 177.855835,104.977486 
z"/>
<path fill="#2B4D7C" opacity="1.000000" stroke="none" 
	d="
M136.657043,146.805573 
	C140.687149,146.812973 144.385040,146.896347 148.532669,147.083160 
	C148.928635,147.970459 148.874863,148.754318 148.745544,150.021912 
	C148.115204,150.671326 147.560410,150.836990 146.939117,150.629684 
	C143.574142,149.513580 140.275650,148.770447 136.759338,148.128418 
	C136.266266,148.421539 136.085358,148.679703 135.793701,149.264618 
	C134.729767,149.680252 133.870941,149.835266 133.139923,149.761810 
	C133.594284,149.203156 133.920837,148.872971 134.247375,148.542786 
	C133.295074,148.649689 132.342773,148.756607 131.276276,148.913391 
	C131.162094,148.963257 130.921844,149.029510 130.921844,149.029510 
	C131.715149,148.325211 132.508453,147.620895 133.901703,146.910797 
	C134.660278,146.849426 134.818909,146.793854 134.977539,146.738281 
	C135.426636,146.786026 135.875717,146.833771 136.657043,146.805573 
z"/>
<path fill="#66838D" opacity="1.000000" stroke="none" 
	d="
M156.472260,98.995461 
	C156.945648,99.167480 157.003571,99.340134 157.118744,99.779922 
	C155.716431,100.220695 154.256866,100.394341 152.433258,100.615807 
	C151.384918,98.884460 150.404694,97.155098 150.094635,95.312943 
	C149.743576,93.227158 149.993561,91.040199 149.910675,88.443054 
	C149.899338,85.944664 149.959518,83.900459 150.078339,81.421646 
	C150.425781,85.308556 150.989532,89.634430 150.921158,93.950294 
	C150.860489,97.779076 152.227722,99.462990 156.472260,98.995461 
z"/>
<path fill="#F8E6CD" opacity="1.000000" stroke="none" 
	d="
M94.798599,108.926819 
	C93.303070,109.532234 91.561974,109.818047 88.947311,110.247261 
	C88.947311,112.115463 88.947311,114.141083 88.881866,116.608841 
	C88.345787,114.583275 87.875153,112.115570 87.404518,109.647873 
	C89.787354,109.300987 92.170197,108.954102 94.798599,108.926819 
z"/>
<path fill="#F5F8F8" opacity="1.000000" stroke="none" 
	d="
M178.530701,105.022858 
	C178.042603,103.636406 177.949020,102.215935 177.873383,100.043983 
	C177.583282,98.554977 177.275253,97.817444 176.967224,97.079910 
	C176.967224,97.079910 177.000137,96.872551 177.035187,96.773590 
	C177.588379,96.260590 178.316757,95.379601 178.592575,95.503799 
	C181.810608,96.952690 181.962524,102.396378 178.530701,105.022858 
z"/>
<path fill="#717791" opacity="1.000000" stroke="none" 
	d="
M160.453003,116.949387 
	C160.002502,117.034248 159.632141,116.885277 159.433044,116.895920 
	C159.168381,116.735931 159.102844,116.565308 158.942932,115.930679 
	C158.848541,115.466682 159.013168,115.004639 159.013168,115.004639 
	C162.782166,115.011139 166.554794,114.935257 170.316772,115.101006 
	C170.984467,115.130424 171.607864,116.165070 171.959625,116.953751 
	C168.079529,117.069496 164.491516,116.967018 160.453003,116.949387 
z"/>
<path fill="#FCFEFC" opacity="1.000000" stroke="none" 
	d="
M160.996399,174.596771 
	C159.888351,174.999817 158.782196,174.991013 157.338379,174.699860 
	C157.053314,174.054581 157.105927,173.691635 157.158554,173.328690 
	C157.178970,171.839417 157.199387,170.350128 157.317535,168.425140 
	C162.079071,168.048111 160.764191,171.564423 160.996399,174.596771 
z"/>
<path fill="#FBF8EA" opacity="1.000000" stroke="none" 
	d="
M94.338928,80.504425 
	C97.848457,78.677216 98.158096,76.428261 94.603073,73.503510 
	C97.642967,72.246429 99.846039,73.381271 99.862259,77.037338 
	C99.876976,80.356392 97.894501,81.667023 94.338928,80.504425 
z"/>
<path fill="#F8E6CD" opacity="1.000000" stroke="none" 
	d="
M90.315781,118.362236 
	C95.493118,118.024376 100.990295,117.817451 106.475388,117.991493 
	C107.626534,118.028023 108.733208,119.466209 109.745956,120.674820 
	C106.407982,120.385155 103.212669,119.464752 99.952690,119.035385 
	C96.881004,118.630814 93.741180,118.743546 90.315781,118.362236 
z"/>
<path fill="#F5F8F8" opacity="1.000000" stroke="none" 
	d="
M175.027649,131.068588 
	C175.331177,132.265915 175.634689,133.463257 175.982590,134.835587 
	C174.800491,135.180878 173.434769,135.579819 171.429642,136.165527 
	C172.091827,134.119858 167.972305,133.004562 172.124695,130.932983 
	C173.559006,130.950760 174.293335,131.009674 175.027649,131.068588 
z"/>
<path fill="#68848F" opacity="1.000000" stroke="none" 
	d="
M156.607880,53.016769 
	C156.990387,59.370190 157.047363,65.713509 157.030853,72.518600 
	C156.638000,69.593063 156.337234,66.203880 155.993698,62.819027 
	C155.694901,59.874931 155.347748,56.935741 155.009705,53.583694 
	C155.425735,53.117558 155.854034,53.062111 156.607880,53.016769 
z"/>
<path fill="#68848F" opacity="1.000000" stroke="none" 
	d="
M151.575150,53.137123 
	C151.551239,59.560139 151.104218,65.955566 150.379364,72.653389 
	C150.062698,67.473412 149.957794,61.990059 150.039047,56.509472 
	C150.055939,55.370911 150.763046,54.242584 151.575150,53.137123 
z"/>
<path fill="#1B3C6C" opacity="1.000000" stroke="none" 
	d="
M147.005600,151.002655 
	C147.560410,150.836990 148.115204,150.671326 148.836975,150.261658 
	C149.324142,150.836731 149.644348,151.655838 149.947571,152.828217 
	C149.187363,153.188934 148.444138,153.196381 147.343536,153.309143 
	C143.270233,153.347702 139.554321,153.280975 135.423340,153.211761 
	C135.008270,153.209274 134.996796,152.984512 135.054504,152.655426 
	C139.076675,151.885101 143.041138,151.443878 147.005600,151.002655 
z"/>
<path fill="#565F80" opacity="1.000000" stroke="none" 
	d="
M174.976379,130.992523 
	C174.293335,131.009674 173.559006,130.950760 172.456100,130.929260 
	C171.942566,130.530746 171.797623,130.094833 171.670029,128.950150 
	C171.598373,126.111870 171.509354,123.982361 171.420349,121.852852 
	C171.543213,120.771431 171.666077,119.690018 171.859573,118.288162 
	C172.291122,119.975563 172.600327,121.994522 173.029129,123.987747 
	C173.380325,125.620216 173.873978,127.222046 174.665070,129.209183 
	C174.984360,129.965439 174.943039,130.349960 174.901718,130.734497 
	C174.901718,130.734497 174.925095,130.916473 174.976379,130.992523 
z"/>
<path fill="#F8E6CD" opacity="1.000000" stroke="none" 
	d="
M109.303864,129.055038 
	C109.749130,132.301590 109.853775,135.690643 109.891357,139.533447 
	C109.537285,136.390640 109.250259,132.794083 109.303864,129.055038 
z"/>
<path fill="#F5F8F8" opacity="1.000000" stroke="none" 
	d="
M175.851578,147.095413 
	C172.541916,147.046600 169.232254,146.997787 165.478485,146.854950 
	C168.969315,146.616425 172.904251,146.471954 176.618820,146.692535 
	C176.216187,147.070190 176.033890,147.082794 175.851578,147.095413 
z"/>
<path fill="#F8E6CD" opacity="1.000000" stroke="none" 
	d="
M139.324768,117.895004 
	C139.007782,115.559464 139.076920,113.185547 139.198212,110.367088 
	C142.171082,112.406624 141.494095,115.099533 139.324768,117.895004 
z"/>
<path fill="#F2F6F4" opacity="1.000000" stroke="none" 
	d="
M134.968628,153.314575 
	C133.130676,153.757324 131.332382,154.094772 128.308594,154.662186 
	C129.356247,151.795914 129.852798,150.437378 130.635590,149.054184 
	C130.921844,149.029510 131.162094,148.963257 131.197845,149.304718 
	C131.285095,150.439651 131.336624,151.233139 131.302124,152.251892 
	C131.352554,152.855347 131.612442,152.983582 132.238083,152.981567 
	C132.656906,153.064804 132.833389,153.028336 133.336990,153.085907 
	C134.108353,153.114777 134.552567,153.049637 134.996796,152.984497 
	C134.996796,152.984512 135.008270,153.209274 134.968628,153.314575 
z"/>
<path fill="#F8E6CD" opacity="1.000000" stroke="none" 
	d="
M111.135162,141.310089 
	C113.008553,140.952896 115.015587,140.881226 117.449425,140.835419 
	C115.996307,144.008240 113.904892,145.252228 111.135162,141.310089 
z"/>
<path fill="#AA2739" opacity="1.000000" stroke="none" 
	d="
M81.544907,153.127411 
	C80.670441,152.998642 80.245140,152.958481 79.508553,152.860107 
	C83.944748,152.676331 88.692230,152.550766 93.733643,152.723221 
	C90.016411,153.086166 86.005241,153.151077 81.544907,153.127411 
z"/>
<path fill="#F8E6CD" opacity="1.000000" stroke="none" 
	d="
M117.959671,86.574844 
	C115.942932,86.900856 113.864510,86.879395 111.350754,86.755341 
	C113.022865,82.898285 115.498466,85.187263 117.959671,86.574844 
z"/>
<path fill="#717791" opacity="1.000000" stroke="none" 
	d="
M168.536957,111.044159 
	C165.926636,111.744530 162.878220,112.364754 159.411942,112.989487 
	C159.137817,112.344582 159.281525,111.695175 159.962219,110.947647 
	C160.499207,110.849525 160.975250,110.741714 160.975250,110.741714 
	C163.349777,110.815811 165.724319,110.889908 168.536957,111.044159 
z"/>
<path fill="#F5F8F8" opacity="1.000000" stroke="none" 
	d="
M171.079224,122.065125 
	C171.509354,123.982361 171.598373,126.111870 171.542267,128.629913 
	C171.177460,126.771423 170.957779,124.524414 171.079224,122.065125 
z"/>
<path fill="#626B84" opacity="1.000000" stroke="none" 
	d="
M99.708679,170.913055 
	C100.111862,171.926300 100.235771,172.804611 100.489410,173.899933 
	C99.898651,174.337021 99.178169,174.557083 98.457687,174.777145 
	C98.781601,173.444138 99.105507,172.111145 99.708679,170.913055 
z"/>
<path fill="#F5F8F8" opacity="1.000000" stroke="none" 
	d="
M171.085083,102.971558 
	C171.530777,104.010109 171.616058,105.058464 171.566864,106.480125 
	C170.069138,106.163376 168.705887,105.473320 166.385544,104.298790 
	C168.209381,103.745049 169.467026,103.363213 171.085083,102.971558 
z"/>
<path fill="#C9D5DE" opacity="1.000000" stroke="none" 
	d="
M175.872162,147.468079 
	C176.033890,147.082794 176.216187,147.070190 176.671539,147.074707 
	C176.805664,149.202713 176.666718,151.313583 176.263123,153.705658 
	C175.447174,153.885361 174.895889,153.783875 174.196198,153.440445 
	C174.662781,151.412582 175.277756,149.626648 175.872162,147.468079 
z"/>
<path fill="#F8E6CD" opacity="1.000000" stroke="none" 
	d="
M109.051697,109.830551 
	C108.552048,109.767052 108.052399,109.703552 107.213394,109.473442 
	C107.595947,107.898880 108.317856,106.490929 109.330025,104.993134 
	C109.746338,105.997078 109.872398,107.090881 109.857414,108.776932 
	C109.716377,109.369186 109.542480,109.796806 109.416252,109.753845 
	C109.290024,109.710892 109.051697,109.830551 109.051697,109.830551 
z"/>
<path fill="#FCFEFC" opacity="1.000000" stroke="none" 
	d="
M157.296875,158.389648 
	C158.043442,157.996307 158.695831,157.998154 159.674408,158.000305 
	C159.375046,159.323868 158.749466,160.647125 157.768311,161.990097 
	C157.342712,160.934814 157.272690,159.859833 157.296875,158.389648 
z"/>
<path fill="#F5F8F8" opacity="1.000000" stroke="none" 
	d="
M162.951508,146.451523 
	C161.085587,146.421051 159.159500,146.086624 157.309479,145.366348 
	C159.220810,145.369522 161.056076,145.758545 162.951508,146.451523 
z"/>
<path fill="#F5F8F8" opacity="1.000000" stroke="none" 
	d="
M191.229980,115.016846 
	C190.828125,114.545822 190.772736,114.104652 190.799011,113.337341 
	C192.208542,113.443207 193.536392,113.875198 194.864243,114.307198 
	C194.756516,114.705299 194.648788,115.103409 194.541077,115.501518 
	C193.552872,115.349907 192.564667,115.198303 191.229980,115.016846 
z"/>
<path fill="#F1DCDF" opacity="1.000000" stroke="none" 
	d="
M51.593033,148.155609 
	C51.952824,149.367630 52.028763,150.743637 52.077721,152.532318 
	C49.677204,151.744080 49.470692,150.195770 51.593033,148.155609 
z"/>
<path fill="#F5F8F8" opacity="1.000000" stroke="none" 
	d="
M137.339737,80.457108 
	C139.396179,80.162933 141.741425,80.107803 144.518143,80.140335 
	C142.509262,80.384056 140.068893,80.540100 137.339737,80.457108 
z"/>
<path fill="#565F80" opacity="1.000000" stroke="none" 
	d="
M175.923706,129.020325 
	C176.238983,126.467773 176.554260,123.915222 177.273682,121.209656 
	C177.702820,123.321449 177.727798,125.586258 177.221893,128.360504 
	C176.435242,128.920059 176.179474,128.970200 175.923706,129.020325 
z"/>
<path fill="#FBF8EA" opacity="1.000000" stroke="none" 
	d="
M72.792694,108.806992 
	C72.234634,109.050804 71.737503,108.997360 71.240372,108.943924 
	C71.353447,108.497444 71.466515,108.050957 71.579590,107.604477 
	C72.004265,107.906235 72.428940,108.207985 72.792694,108.806992 
z"/>
<path fill="#F8E6CD" opacity="1.000000" stroke="none" 
	d="
M131.989731,109.074646 
	C131.296738,109.430962 130.483810,109.546249 129.281418,109.504486 
	C129.884567,109.176155 130.877182,109.004883 131.989731,109.074646 
z"/>
<path fill="#A32F40" opacity="1.000000" stroke="none" 
	d="
M95.988205,151.987961 
	C95.984718,150.660492 95.981239,149.333023 95.962479,147.607880 
	C96.217079,149.074646 96.486946,150.939102 96.374634,152.651672 
	C95.991043,152.329163 95.989624,152.158554 95.988205,151.987961 
z"/>
<path fill="#626B84" opacity="1.000000" stroke="none" 
	d="
M110.763298,175.433975 
	C111.559090,174.979446 112.453514,174.837265 114.529770,174.507202 
	C113.133133,175.763672 112.492912,176.339645 111.550194,176.957138 
	C111.119102,176.581223 110.990509,176.163773 110.763298,175.433975 
z"/>
<path fill="#F5F8F8" opacity="1.000000" stroke="none" 
	d="
M171.737411,96.568390 
	C171.832840,96.983505 171.750809,97.202415 171.505890,97.732132 
	C170.783020,97.731239 170.223007,97.419548 169.662994,97.107849 
	C170.295303,96.862633 170.927628,96.617416 171.737411,96.568390 
z"/>
<path fill="#717791" opacity="1.000000" stroke="none" 
	d="
M175.716934,129.017120 
	C176.179474,128.970200 176.435242,128.920059 177.066010,128.754547 
	C177.440994,128.639160 177.414001,128.695114 177.331848,128.942459 
	C177.293015,129.515091 177.459564,129.754669 177.749298,129.908539 
	C177.025375,130.243362 176.301453,130.578171 175.239624,130.823730 
	C174.943039,130.349960 174.984360,129.965439 175.061188,129.292847 
	C175.096695,129.004791 175.510162,129.013931 175.716934,129.017120 
z"/>
<path fill="#F8E6CD" opacity="1.000000" stroke="none" 
	d="
M139.051758,109.437813 
	C138.319443,109.692078 137.538177,109.684387 136.402283,109.512360 
	C137.032700,109.290642 138.017776,109.233246 139.051758,109.437813 
z"/>
<path fill="#F5F8F8" opacity="1.000000" stroke="none" 
	d="
M155.000610,116.999405 
	C154.491531,116.697006 153.981827,116.395218 153.472137,116.093422 
	C153.653503,115.884216 153.834854,115.675003 154.016220,115.465797 
	C154.320480,115.788239 154.624741,116.110687 154.963898,116.717178 
	C154.998779,117.001221 155.000000,117.000000 155.000610,116.999405 
z"/>
<path fill="#F5F8F8" opacity="1.000000" stroke="none" 
	d="
M176.425842,77.767227 
	C176.163406,77.228363 176.109268,76.493797 176.128693,75.397202 
	C176.346207,75.880623 176.490173,76.726082 176.425842,77.767227 
z"/>
<path fill="#F5F8F8" opacity="1.000000" stroke="none" 
	d="
M132.231293,80.408295 
	C132.773880,80.145638 133.506897,80.095993 134.599854,80.126923 
	C134.113770,80.345428 133.267746,80.483360 132.231293,80.408295 
z"/>
<path fill="#F5F8F8" opacity="1.000000" stroke="none" 
	d="
M158.951752,114.669304 
	C159.013168,115.004639 158.848541,115.466682 158.788254,115.704300 
	C158.587280,115.101807 158.446594,114.261696 158.488373,113.207222 
	C158.744019,113.439896 158.817184,113.886932 158.951752,114.669304 
z"/>
<path fill="#F5F8F8" opacity="1.000000" stroke="none" 
	d="
M170.774536,73.447968 
	C170.513000,73.646553 170.103317,73.690842 169.397919,73.632156 
	C169.610275,73.450676 170.118317,73.372177 170.774536,73.447968 
z"/>
<path fill="#F8E6CD" opacity="1.000000" stroke="none" 
	d="
M109.496872,88.160019 
	C109.752357,88.451843 109.825180,88.901741 109.782776,89.678650 
	C109.549767,89.443146 109.431992,88.880615 109.496872,88.160019 
z"/>
<path fill="#F5F8F8" opacity="1.000000" stroke="none" 
	d="
M148.199829,80.438995 
	C148.592133,80.327766 149.144394,80.408951 149.735641,80.785904 
	C149.303009,80.931587 148.831390,80.781494 148.199829,80.438995 
z"/>
<path fill="#FBF8EA" opacity="1.000000" stroke="none" 
	d="
M90.185883,80.430023 
	C90.464088,80.188866 90.896812,80.132301 91.649994,80.154022 
	C91.427101,80.359734 90.883751,80.487167 90.185883,80.430023 
z"/>
<path fill="#F5F8F8" opacity="1.000000" stroke="none" 
	d="
M174.726135,73.363846 
	C174.485168,73.578865 174.087433,73.659256 173.394958,73.646599 
	C173.589935,73.445442 174.079651,73.337326 174.726135,73.363846 
z"/>
<path fill="#F5F8F8" opacity="1.000000" stroke="none" 
	d="
M173.213669,80.447815 
	C173.481216,80.202179 173.916428,80.140083 174.683151,80.085983 
	C174.470215,80.273109 173.925781,80.452240 173.213669,80.447815 
z"/>
<path fill="#F5F8F8" opacity="1.000000" stroke="none" 
	d="
M168.183334,80.397308 
	C168.464828,80.156151 168.896973,80.104729 169.647400,80.137070 
	C169.421768,80.342903 168.877884,80.464973 168.183334,80.397308 
z"/>
<path fill="#F8E6CD" opacity="1.000000" stroke="none" 
	d="
M109.517204,97.074753 
	C109.704018,97.149132 109.755226,97.325768 109.721100,97.764832 
	C109.511131,97.849571 109.363777,97.682457 109.273705,97.488716 
	C109.240387,97.417023 109.341705,97.282738 109.517204,97.074753 
z"/>
<path fill="#F5F8F8" opacity="1.000000" stroke="none" 
	d="
M158.467102,108.449554 
	C158.523315,108.415787 158.410889,108.483315 158.467102,108.449554 
z"/>
<path fill="#F5F8F8" opacity="1.000000" stroke="none" 
	d="
M160.886383,110.611931 
	C160.975250,110.741714 160.499207,110.849525 160.267059,110.774261 
	C160.231506,110.367462 160.485718,110.295181 160.886383,110.611931 
z"/>
<path fill="#F5F8F8" opacity="1.000000" stroke="none" 
	d="
M170.925278,110.100601 
	C170.954407,110.318893 170.756866,110.583260 170.293716,110.803596 
	C170.176453,110.473068 170.399948,110.268768 170.925278,110.100601 
z"/>
<path fill="#F5F8F8" opacity="1.000000" stroke="none" 
	d="
M134.884155,146.603790 
	C134.818909,146.793854 134.660278,146.849426 134.260895,146.830154 
	C134.197006,146.391464 134.453873,146.296127 134.884155,146.603790 
z"/>
<path fill="#AA2739" opacity="1.000000" stroke="none" 
	d="
M95.767441,152.104019 
	C95.989624,152.158554 95.991043,152.329163 95.990753,152.755692 
	C95.820389,153.064987 95.651733,153.118362 95.228134,153.097107 
	C95.081924,152.696091 95.273087,152.428619 95.767441,152.104019 
z"/>
<path fill="#F5F8F8" opacity="1.000000" stroke="none" 
	d="
M178.885406,110.569412 
	C178.975967,110.725449 178.515656,110.782051 178.515656,110.782051 
	C178.515656,110.782051 178.166580,110.476807 178.184814,110.245651 
	C178.439499,110.089340 178.636765,110.222298 178.885406,110.569412 
z"/>
<path fill="#666F93" opacity="1.000000" stroke="none" 
	d="
M177.821594,129.677658 
	C177.459564,129.754669 177.293015,129.515091 177.319412,128.970917 
	C177.788437,128.815536 177.956696,129.047104 177.821594,129.677658 
z"/>
<path fill="#F1DCDF" opacity="1.000000" stroke="none" 
	d="
M49.460114,147.526825 
	C49.432220,147.478317 49.488007,147.575333 49.460114,147.526825 
z"/>
<path fill="#66838D" opacity="1.000000" stroke="none" 
	d="
M156.691666,81.305832 
	C157.019150,86.027184 157.051254,91.040016 157.002182,96.511124 
	C156.746094,91.845360 156.571198,86.721336 156.691666,81.305832 
z"/>
<path fill="#61848D" opacity="1.000000" stroke="none" 
	d="
M157.083817,73.922836 
	C157.056183,73.900475 156.947845,73.948463 156.993179,73.915329 
	C157.146835,73.834198 157.003128,73.993187 157.083817,73.922836 
z"/>
<path fill="#224570" opacity="1.000000" stroke="none" 
	d="
M150.232086,146.791000 
	C149.915649,141.878464 149.842102,136.797318 150.090530,131.731949 
	C150.169556,130.120682 151.105026,128.551422 151.900940,127.244713 
	C152.102280,132.256180 152.165451,136.991364 151.938461,141.712585 
	C151.858841,143.368851 151.066544,144.990845 150.232086,146.791000 
z"/>
<path fill="#C9D5DE" opacity="1.000000" stroke="none" 
	d="
M156.832977,173.459518 
	C157.105927,173.691635 157.053314,174.054581 156.923737,174.683929 
	C154.533218,174.238052 152.219666,173.525787 149.951935,172.412384 
	C152.167618,172.537598 154.337509,173.063980 156.832977,173.459518 
z"/>
<path fill="#C9D5DE" opacity="1.000000" stroke="none" 
	d="
M159.734131,153.215149 
	C159.461975,153.501663 158.902344,153.686539 158.059311,153.729355 
	C158.332825,153.429367 158.889740,153.271454 159.734131,153.215149 
z"/>
<path fill="#C9D5DE" opacity="1.000000" stroke="none" 
	d="
M157.394745,153.905457 
	C157.610046,154.055725 157.638138,154.372452 157.479630,154.860397 
	C157.264542,154.711716 157.236038,154.391830 157.394745,153.905457 
z"/>
<path fill="#ED9024" opacity="1.000000" stroke="none" 
	d="
M78.100632,73.546463 
	C79.114708,74.309441 80.067863,75.346992 81.057335,75.382866 
	C83.826454,75.483261 86.614815,75.025108 89.386253,75.106178 
	C90.234085,75.130981 91.051743,76.187500 91.883217,76.771545 
	C91.028542,77.497131 90.202202,78.797707 89.313934,78.841461 
	C86.550247,78.977623 83.763893,78.554665 80.984581,78.527351 
	C80.031319,78.517975 79.072884,79.036110 78.084106,79.688828 
	C78.051407,80.064400 78.036781,80.025452 77.646851,80.094086 
	C76.847748,84.799126 76.509552,89.443504 75.990395,94.067566 
	C75.811806,95.658188 75.181526,97.198097 74.757591,98.761169 
	C74.163040,98.635162 73.568497,98.509163 72.973946,98.383156 
	C72.973946,93.957687 73.104088,89.526154 72.898186,85.110283 
	C72.832596,83.703712 71.874107,82.338783 71.324188,80.954796 
	C71.324188,80.954796 71.076134,80.552406 70.988663,80.332687 
	C71.412155,79.481949 71.923119,78.850929 72.743225,78.338623 
	C73.158531,78.728989 73.264702,79.000648 73.370865,79.272301 
	C73.489540,79.187408 73.608215,79.102524 73.726891,79.017639 
	C73.482086,78.680069 73.237289,78.342491 72.992485,78.004921 
	C71.568085,77.768700 70.115540,77.226303 68.724594,77.354111 
	C64.676437,77.726082 60.662750,78.524445 56.611973,78.776024 
	C55.738407,78.830276 54.765984,77.292778 53.839096,76.488480 
	C54.012379,76.106255 54.185661,75.724022 54.358944,75.341797 
	C59.700291,75.067909 65.041634,74.794022 70.593018,74.163986 
	C70.803055,73.807831 70.808838,73.869942 71.214340,73.829437 
	C72.070709,71.992142 72.838226,70.208008 72.910561,68.396118 
	C73.095985,63.751541 72.972458,59.094631 72.972458,54.442650 
	C73.618568,54.382923 74.264671,54.323196 74.910782,54.263470 
	C75.284157,55.679688 75.915192,57.084259 75.979828,58.514427 
	C76.137535,62.004311 75.865738,65.518105 76.116508,68.997070 
	C76.216515,70.384491 77.237694,71.705513 77.839523,73.056763 
	C77.839523,73.056763 78.056282,73.363838 78.100632,73.546463 
M73.517792,75.424988 
	C73.517792,75.424988 73.570282,75.522690 73.517792,75.424988 
z"/>
<path fill="#DD9B4D" opacity="1.000000" stroke="none" 
	d="
M71.221695,81.416870 
	C71.874107,82.338783 72.832596,83.703712 72.898186,85.110283 
	C73.104088,89.526154 72.973946,93.957687 72.973946,98.383156 
	C73.568497,98.509163 74.163040,98.635162 74.757591,98.761169 
	C75.181526,97.198097 75.811806,95.658188 75.990395,94.067566 
	C76.509552,89.443504 76.847748,84.799126 77.662399,80.101685 
	C78.067886,86.472168 78.067886,92.903679 78.067886,99.188202 
	C71.757133,101.236427 71.029007,100.743103 71.039108,94.788963 
	C71.046410,90.485588 71.091156,86.182281 71.221695,81.416870 
z"/>
<path fill="#596693" opacity="1.000000" stroke="none" 
	d="
M174.253845,110.008141 
	C172.453842,106.337845 172.611694,102.753914 173.710663,99.217339 
	C174.305649,99.218575 174.900620,99.219810 175.495605,99.221054 
	C175.495605,102.136650 175.495605,105.052254 175.756348,107.988106 
	C176.017105,108.008362 176.013870,108.498489 175.794067,108.853485 
	C175.293518,109.409874 175.102142,109.675636 175.000122,110.005760 
	C175.000122,110.005760 174.502609,110.008514 174.253845,110.008141 
z"/>
<path fill="#5C6588" opacity="1.000000" stroke="none" 
	d="
M175.233749,109.999466 
	C175.102142,109.675636 175.293518,109.409874 175.798294,109.098526 
	C175.837341,109.323441 175.652359,109.658310 175.233749,109.999466 
z"/>
<path fill="#E57630" opacity="1.000000" stroke="none" 
	d="
M108.778107,110.164124 
	C109.051697,109.830551 109.290024,109.710892 109.732483,109.876640 
	C110.909126,110.195618 111.643318,110.348839 112.377502,110.502068 
	C112.244263,109.994698 112.111023,109.487335 111.977783,108.979965 
	C111.678307,107.880173 111.378822,106.780373 111.429626,105.256569 
	C112.414940,102.511337 113.049965,100.190125 114.026207,96.621681 
	C114.826347,101.217964 115.417458,104.613533 116.008575,108.009094 
	C116.561386,110.648628 117.621071,111.799835 120.831390,111.354866 
	C125.411621,110.720016 130.137405,110.902306 134.781464,111.131721 
	C135.884476,111.186211 136.909775,112.813400 137.970810,113.717194 
	C136.969452,114.793861 135.991364,116.767296 134.962784,116.793976 
	C130.178955,116.918037 125.382332,116.412743 120.587440,116.349632 
	C119.490959,116.335197 118.383156,117.180580 117.235229,117.959785 
	C117.151535,121.518066 117.113174,124.746796 117.088196,128.397598 
	C117.066666,130.972687 117.328781,133.188721 116.890198,135.256088 
	C116.607819,136.587204 115.296165,137.699951 114.445831,138.910568 
	C113.323792,137.742218 111.303574,136.625839 111.232422,135.396652 
	C110.891991,129.515640 111.079727,123.604065 111.079727,116.857956 
	C105.193695,116.857956 98.033340,116.857956 90.895538,116.857956 
	C90.354553,112.372681 91.622375,110.703888 95.682579,110.915359 
	C99.937759,111.136993 104.229027,110.665985 108.778107,110.164124 
M106.964790,113.183769 
	C106.559082,113.277344 106.153366,113.370918 105.747650,113.464478 
	C105.837120,113.584068 105.941505,113.814613 106.013603,113.804924 
	C106.425308,113.749603 106.829330,113.637085 106.964790,113.183769 
z"/>
<path fill="#E6752D" opacity="1.000000" stroke="none" 
	d="
M116.063919,107.595901 
	C115.417458,104.613533 114.826347,101.217964 114.026207,96.621681 
	C113.049965,100.190125 112.414940,102.511337 111.405457,104.912521 
	C111.489990,99.842041 111.948967,94.691597 112.705429,89.658737 
	C112.783638,92.647476 113.937538,94.221840 116.992516,94.000847 
	C116.701431,98.394798 116.410347,102.788750 116.063919,107.595901 
z"/>
<path fill="#E57630" opacity="1.000000" stroke="none" 
	d="
M116.995987,93.587357 
	C113.937538,94.221840 112.783638,92.647476 113.002823,89.383514 
	C116.287483,88.519615 117.430214,90.095055 116.995987,93.587357 
z"/>
<path fill="#E6752D" opacity="1.000000" stroke="none" 
	d="
M111.650452,108.989868 
	C112.111023,109.487335 112.244263,109.994698 112.377502,110.502068 
	C111.643318,110.348839 110.909126,110.195618 109.858711,109.919601 
	C109.542480,109.796806 109.716377,109.369186 109.864487,109.192352 
	C110.449448,109.010269 110.886284,109.005020 111.650452,108.989868 
z"/>
<path fill="#DD9B4D" opacity="1.000000" stroke="none" 
	d="
M77.901871,72.586754 
	C77.237694,71.705513 76.216515,70.384491 76.116508,68.997070 
	C75.865738,65.518105 76.137535,62.004311 75.979828,58.514427 
	C75.915192,57.084259 75.284157,55.679688 74.910782,54.263470 
	C74.264671,54.323196 73.618568,54.382923 72.972458,54.442650 
	C72.972458,59.094631 73.095985,63.751541 72.910561,68.396118 
	C72.838226,70.208008 72.070709,71.992142 71.203217,73.806686 
	C70.892952,67.243111 70.999306,60.661777 71.141838,53.627544 
	C73.260170,53.174644 75.342323,53.174644 77.964211,53.174644 
	C77.964211,59.742069 77.964211,65.929405 77.901871,72.586754 
z"/>
<path fill="#FDFEFC" opacity="1.000000" stroke="none" 
	d="
M68.978638,73.110733 
	C68.532486,73.555748 68.093964,73.591728 67.342239,73.509689 
	C67.029037,67.975189 67.029037,62.558704 67.029037,57.142220 
	C67.996132,57.187023 68.963226,57.231827 69.930321,57.276634 
	C69.615639,62.418320 69.300949,67.560005 68.978638,73.110733 
z"/>
<path fill="#666F93" opacity="1.000000" stroke="none" 
	d="
M176.975922,97.389679 
	C177.275253,97.817444 177.583282,98.554977 177.801559,99.621918 
	C177.469421,99.200706 177.227036,98.450081 176.975922,97.389679 
z"/>
<path fill="#21467A" opacity="1.000000" stroke="none" 
	d="
M135.054504,152.655411 
	C134.552567,153.049637 134.108353,153.114777 133.337006,152.710815 
	C133.010651,151.491226 133.011383,150.740753 133.012131,149.990280 
	C133.870941,149.835266 134.729767,149.680252 136.009781,149.160461 
	C136.703537,148.603897 136.885590,148.347763 136.977158,148.027298 
	C140.275650,148.770447 143.574142,149.513580 146.939117,150.629684 
	C143.041138,151.443878 139.076675,151.885101 135.054504,152.655411 
z"/>
<path fill="#1B3C6C" opacity="1.000000" stroke="none" 
	d="
M133.139923,149.761810 
	C133.011383,150.740753 133.010651,151.491226 133.009888,152.616791 
	C132.833389,153.028336 132.656906,153.064804 132.191589,152.806442 
	C131.803925,152.272827 131.632385,152.111160 131.388153,152.026627 
	C131.336624,151.233139 131.285095,150.439651 131.312027,149.254837 
	C132.342773,148.756607 133.295074,148.649689 134.247375,148.542786 
	C133.920837,148.872971 133.594284,149.203156 133.139923,149.761810 
z"/>
<path fill="#1B3C6C" opacity="1.000000" stroke="none" 
	d="
M136.759338,148.128418 
	C136.885590,148.347763 136.703537,148.603897 136.214905,148.899841 
	C136.085358,148.679703 136.266266,148.421539 136.759338,148.128418 
z"/>
<path fill="#2B4D7C" opacity="1.000000" stroke="none" 
	d="
M131.302124,152.251892 
	C131.632385,152.111160 131.803925,152.272827 131.949249,152.686768 
	C131.612442,152.983582 131.352554,152.855347 131.302124,152.251892 
z"/>
<path fill="#DD9B4D" opacity="1.000000" stroke="none" 
	d="
M72.996445,78.002274 
	C73.237289,78.342491 73.482086,78.680069 73.726891,79.017639 
	C73.608215,79.102524 73.489540,79.187408 73.370865,79.272301 
	C73.264702,79.000648 73.158531,78.728989 73.030205,78.224380 
	C73.008041,77.991417 73.000397,77.999619 72.996445,78.002274 
z"/>
<path fill="#DD9B4D" opacity="1.000000" stroke="none" 
	d="
M73.544037,75.473839 
	C73.570282,75.522690 73.517792,75.424988 73.544037,75.473839 
z"/>
<path fill="#DB7F41" opacity="1.000000" stroke="none" 
	d="
M107.100372,113.363884 
	C106.829330,113.637085 106.425308,113.749603 106.013603,113.804924 
	C105.941505,113.814613 105.837120,113.584068 105.747650,113.464478 
	C106.153366,113.370918 106.559082,113.277344 107.100372,113.363884 
z"/>
</svg>