<svg version="1.1" id="Layer_1" xmlns="http://www.w3.org/2000/svg" xmlns:xlink="http://www.w3.org/1999/xlink" x="0px" y="0px"
	 width="100%" viewBox="0 0 225 225" enable-background="new 0 0 225 225" xml:space="preserve">
<path fill="#FEFFFF" opacity="1.000000" stroke="none" 
	d="
M155.000000,226.000000 
	C103.333336,226.000000 52.166672,226.000000 1.000007,226.000000 
	C1.000005,151.000000 1.000005,76.000015 1.000002,1.000017 
	C75.999992,1.000011 150.999985,1.000011 225.999969,1.000006 
	C225.999985,75.999985 225.999985,150.999969 226.000000,225.999969 
	C202.500000,226.000000 179.000000,226.000000 155.000000,226.000000 
M103.000008,155.000000 
	C103.000008,155.000000 103.011879,154.990921 103.269447,155.481506 
	C103.586319,155.661331 103.903191,155.841156 104.606049,156.121597 
	C104.854675,156.267471 104.996346,156.483459 105.008720,157.573486 
	C106.605423,160.405670 108.202133,163.237839 110.213608,166.805695 
	C110.244049,166.758835 109.603050,167.745407 108.703529,169.129837 
	C113.575920,168.239746 116.841927,169.842316 119.009293,173.835663 
	C120.608002,176.781235 123.120636,177.259323 126.679131,176.211746 
	C127.112282,176.687317 127.545433,177.162903 127.167068,177.808563 
	C125.720383,178.297485 124.273705,178.786392 122.008163,179.552048 
	C124.963394,181.669235 127.222038,183.287384 129.716415,185.074402 
	C130.644547,183.305969 131.224030,182.201843 132.408691,181.372498 
	C134.255432,182.953430 136.102158,184.534363 138.124634,186.603256 
	C138.539871,186.894760 138.955109,187.186249 139.501572,187.589218 
	C139.501572,187.589218 139.634659,187.698486 139.948502,188.206711 
	C141.980576,190.108994 144.012650,192.011276 145.742386,194.605011 
	C145.538315,195.918640 145.334259,197.232269 145.249359,197.778824 
	C148.309235,198.784653 150.590393,199.534515 153.206894,200.394608 
	C154.140152,199.658997 155.579132,198.524765 156.741852,197.608292 
	C156.177521,196.769348 155.598495,195.908508 155.409744,194.618149 
	C155.948471,194.442749 156.487198,194.267365 157.502792,194.593155 
	C159.848953,195.516251 161.082550,194.807877 161.605759,191.771378 
	C170.963348,186.852356 180.443481,182.145767 189.594009,176.867767 
	C191.936386,175.516678 193.236969,172.359436 195.447891,169.846497 
	C195.782532,169.649750 195.862885,169.377853 195.858688,168.104248 
	C195.797668,160.398804 195.736664,152.693359 195.840775,144.066467 
	C195.780487,118.016052 195.720200,91.965637 195.855423,65.034851 
	C195.983170,59.304703 196.762543,53.260323 190.375107,49.990185 
	C178.871368,44.100677 167.396942,38.135010 155.680496,32.696117 
	C153.379578,31.628010 150.038498,32.800571 146.481979,33.106979 
	C137.946411,40.953617 129.410843,48.800259 120.171692,56.857609 
	C118.029152,58.564209 115.886620,60.270809 113.002373,61.985592 
	C111.869614,62.068741 110.736855,62.151886 109.418449,62.248661 
	C109.544731,63.600773 109.647972,64.706146 109.008141,65.900932 
	C106.976631,65.576591 104.945114,65.252243 102.913605,64.927902 
	C103.223160,65.417221 103.532707,65.906540 103.842262,66.395859 
	C102.737312,67.837280 101.921333,69.806801 100.464005,70.604195 
	C97.865631,72.025940 97.495361,73.540642 98.696541,76.349266 
	C98.383179,76.529335 98.069817,76.709412 97.206718,76.567612 
	C95.984222,75.072731 94.373817,72.902954 92.791153,75.426674 
	C91.003983,78.276497 90.208923,81.748489 88.686691,85.528862 
	C87.155342,87.025696 85.624001,88.522530 83.495354,90.253067 
	C82.277206,91.426773 81.059059,92.600479 79.253441,93.510330 
	C72.700424,88.619682 66.066612,83.833031 59.610752,78.817322 
	C44.958851,67.433922 47.140522,68.812447 34.807110,79.882164 
	C29.887644,84.297585 29.919222,87.762932 34.909199,92.398926 
	C41.252720,98.292458 47.751408,104.019493 54.066551,109.942665 
	C55.554642,111.338394 56.576157,113.231560 57.177269,115.141647 
	C49.027493,122.369095 40.740028,129.450073 32.806904,136.907974 
	C30.229124,139.331345 30.655897,142.763901 33.038002,145.461761 
	C36.154255,148.991089 39.247005,152.603775 42.810699,155.639618 
	C43.971691,156.628647 47.109802,156.728104 48.429577,155.854126 
	C54.470280,151.853775 60.186581,147.363586 66.637047,142.870926 
	C67.474350,141.932281 68.311653,140.993622 69.600769,139.932129 
	C69.890488,139.751541 70.042175,139.490677 70.764862,139.047012 
	C73.553299,137.073364 76.341743,135.099731 79.707901,133.409729 
	C83.483643,136.936020 87.259384,140.462311 90.366737,144.093033 
	C90.148872,144.582306 89.931007,145.071594 89.713142,145.560867 
	C90.627571,145.439148 91.542007,145.317413 92.733871,145.325333 
	C92.733871,145.325333 92.912018,145.574432 92.355881,146.044479 
	C91.258972,148.057907 90.162064,150.071335 89.219322,151.801788 
	C93.000633,152.787979 96.484344,153.739319 100.002045,154.541565 
	C100.320679,154.614227 100.858170,153.727234 101.758339,153.514221 
	C101.836487,153.667984 101.914627,153.821732 102.196480,154.433502 
	C102.467232,154.618332 102.737991,154.803146 103.000008,155.000000 
M197.999390,126.498947 
	C197.999390,132.249954 197.999390,138.000946 197.999390,143.751953 
	C198.218216,143.742249 198.437027,143.732544 198.655853,143.722824 
	C198.655853,115.240402 198.655853,86.757980 198.655853,58.275555 
	C198.437027,58.276115 198.218216,58.276672 197.999390,58.277233 
	C197.999390,80.684608 197.999390,103.091980 197.999390,126.498947 
M106.566971,166.295410 
	C106.295166,166.010651 106.023361,165.725891 105.751549,165.441147 
	C105.633698,165.553833 105.407188,165.758301 105.413666,165.765976 
	C105.667320,166.066299 105.942207,166.348694 106.566971,166.295410 
z"/>
<path fill="#0386D0" opacity="1.000000" stroke="none" 
	d="
M105.031067,156.769562 
	C104.996346,156.483459 104.854675,156.267471 104.302887,155.807892 
	C103.670433,155.326431 103.341156,155.158676 103.011879,154.990921 
	C103.011879,154.990921 103.000008,155.000000 102.926994,154.744446 
	C102.566910,154.317749 102.279839,154.146606 101.992767,153.975479 
	C101.914627,153.821732 101.836487,153.667984 101.358307,153.142487 
	C98.276184,150.371979 95.594101,147.973206 92.912018,145.574432 
	C92.912018,145.574432 92.733871,145.325333 92.459343,145.064468 
	C91.801582,144.531937 91.418350,144.260284 91.035118,143.988617 
	C87.259384,140.462311 83.483643,136.936020 79.141693,133.063568 
	C73.374756,127.817596 68.174034,122.917793 62.851997,117.724899 
	C62.471519,116.642456 62.212353,115.853081 62.196514,114.908203 
	C63.669373,113.172806 65.310356,111.759819 66.034424,109.974884 
	C67.193329,107.118019 68.786201,105.855392 71.975647,105.924355 
	C76.418045,106.020401 80.878304,105.383659 85.316414,105.522911 
	C86.529205,105.560966 87.826561,107.127617 88.840988,108.219551 
	C90.177544,109.658234 91.273148,111.320778 92.472351,112.887070 
	C93.995743,111.563812 95.519142,110.240562 97.405540,108.941750 
	C100.442932,110.332024 103.117317,111.697861 105.898880,113.389862 
	C108.317940,115.513680 110.629829,117.311333 113.053696,119.393974 
	C114.026413,120.161407 114.887146,120.643837 115.921249,121.408531 
	C117.716454,122.798943 119.338303,123.907104 121.109993,125.296349 
	C122.141052,126.161087 123.022263,126.744736 124.077271,127.599960 
	C127.855446,130.506393 131.459808,133.141251 135.307526,136.032547 
	C137.731461,138.098083 139.912018,139.907181 141.937714,142.061707 
	C139.935272,143.822052 137.184036,144.872955 136.435623,146.730698 
	C135.045807,150.180496 132.999954,151.216095 129.626617,151.031326 
	C126.821236,150.877655 123.996490,150.903168 121.188110,151.026566 
	C118.244843,151.155884 116.054123,150.669495 114.057274,147.882248 
	C111.425926,144.209396 107.277603,144.166962 103.291969,145.916946 
	C101.066139,146.894272 100.143303,148.362137 102.425697,150.393524 
	C105.119659,152.791214 107.915627,155.108566 110.335358,157.763367 
	C111.313560,158.836609 111.413513,160.710342 111.596970,162.095367 
	C109.197563,160.237152 107.114311,158.503357 105.031067,156.769562 
z"/>
<path fill="#0376B8" opacity="1.000000" stroke="none" 
	d="
M84.092651,90.019363 
	C85.624001,88.522530 87.155342,87.025696 89.149979,85.130646 
	C92.327667,82.118118 95.042061,79.503799 97.756454,76.889481 
	C98.069817,76.709412 98.383179,76.529335 99.130539,75.984039 
	C102.581894,72.999580 105.599243,70.380341 108.698517,68.084778 
	C108.798576,69.803185 108.816696,71.197922 108.834824,72.592659 
	C109.327766,72.566071 109.820709,72.539474 110.313660,72.512886 
	C110.668877,71.422737 111.024086,70.332596 111.258659,69.612709 
	C112.903793,70.543350 114.176880,71.871056 115.480675,71.901947 
	C123.615776,72.094620 131.765091,72.172363 139.890472,71.830666 
	C141.309921,71.770973 143.336273,69.790199 143.876785,68.268478 
	C145.459442,63.812740 146.653458,59.184616 147.577911,54.540073 
	C148.346466,50.678867 149.474350,46.500496 148.711731,42.821503 
	C147.756424,38.212944 149.665161,36.847893 153.490631,36.168095 
	C154.145020,39.057613 154.853271,41.655678 154.883057,44.261494 
	C155.008255,55.212204 154.930603,66.165237 154.578598,77.100937 
	C145.078201,83.868454 135.926407,90.652451 126.453117,97.583359 
	C123.058495,100.141182 119.985359,102.552101 116.678467,105.002289 
	C116.107430,105.155266 115.916458,105.388680 115.634171,105.821167 
	C115.082603,106.003578 114.768669,106.106628 114.139328,106.091599 
	C111.575417,106.586716 109.326912,107.199905 107.078407,107.813095 
	C107.329010,107.429359 107.579613,107.045624 107.830215,106.661888 
	C104.725151,104.517494 101.620865,102.371971 98.514488,100.229477 
	C97.702309,99.669312 96.873360,99.133018 96.069603,98.561172 
	C92.074074,95.718422 88.084396,92.867439 84.092651,90.019363 
z"/>
<path fill="#048DD3" opacity="1.000000" stroke="none" 
	d="
M97.042542,108.917313 
	C95.519142,110.240562 93.995743,111.563812 92.472351,112.887070 
	C91.273148,111.320778 90.177544,109.658234 88.840988,108.219551 
	C87.826561,107.127617 86.529205,105.560966 85.316414,105.522911 
	C80.878304,105.383659 76.418045,106.020401 71.975647,105.924355 
	C68.786201,105.855392 67.193329,107.118019 66.034424,109.974884 
	C65.310356,111.759819 63.669373,113.172806 62.206490,114.893806 
	C61.973137,115.034912 61.959003,115.038429 61.884911,114.861603 
	C61.540428,114.801392 61.270039,114.917999 60.600456,115.033615 
	C59.404945,114.987045 58.608631,114.941460 57.812309,114.895882 
	C56.576157,113.231560 55.554642,111.338394 54.066551,109.942665 
	C47.751408,104.019493 41.252720,98.292458 34.909199,92.398926 
	C29.919222,87.762932 29.887644,84.297585 34.807110,79.882164 
	C47.140522,68.812447 44.958851,67.433922 59.610752,78.817322 
	C66.066612,83.833031 72.700424,88.619682 79.739960,93.940758 
	C83.561996,97.154968 86.929123,99.902000 90.222298,102.735001 
	C92.547638,104.735405 94.772713,106.852379 97.042542,108.917313 
z"/>
<path fill="#29B1F4" opacity="1.000000" stroke="none" 
	d="
M154.927200,77.117424 
	C154.930603,66.165237 155.008255,55.212204 154.883057,44.261494 
	C154.853271,41.655678 154.145020,39.057613 153.368378,35.828465 
	C151.051010,34.447205 149.114075,33.693470 147.177155,32.939732 
	C150.038498,32.800571 153.379578,31.628010 155.680496,32.696117 
	C167.396942,38.135010 178.871368,44.100677 190.375107,49.990185 
	C196.762543,53.260323 195.983170,59.304703 195.536896,65.161942 
	C195.071487,62.896049 194.924637,60.503071 194.777786,58.110092 
	C194.518112,58.115185 194.258453,58.120277 193.998779,58.125370 
	C193.998779,63.416912 193.998779,68.708458 193.530243,73.999817 
	C184.117935,74.000534 175.172760,73.906113 166.230865,74.036438 
	C160.438995,74.120850 158.783539,75.871635 158.741547,81.007401 
	C158.497879,81.003304 158.010178,80.996750 157.757339,80.994156 
	C157.335938,80.990669 157.167358,80.989784 156.997375,80.745178 
	C156.995987,80.501450 156.989624,80.014038 156.956024,79.695480 
	C156.299255,78.920021 155.676086,78.463135 154.974182,77.790726 
	C154.895477,77.575203 154.927200,77.117424 154.927200,77.117424 
z"/>
<path fill="#0280CE" opacity="1.000000" stroke="none" 
	d="
M111.913132,162.219788 
	C111.413513,160.710342 111.313560,158.836609 110.335358,157.763367 
	C107.915627,155.108566 105.119659,152.791214 102.425697,150.393524 
	C100.143303,148.362137 101.066139,146.894272 103.291969,145.916946 
	C107.277603,144.166962 111.425926,144.209396 114.057274,147.882248 
	C116.054123,150.669495 118.244843,151.155884 121.188110,151.026566 
	C123.996490,150.903168 126.821236,150.877655 129.626617,151.031326 
	C132.999954,151.216095 135.045807,150.180496 136.435623,146.730698 
	C137.184036,144.872955 139.935272,143.822052 142.238190,142.219803 
	C143.795822,143.052963 144.898087,144.073456 145.861176,145.392334 
	C146.562698,147.142609 147.403397,148.594498 148.244095,150.046387 
	C149.284988,151.114090 149.273209,152.743835 149.056152,154.345779 
	C148.069168,161.630219 146.643646,168.880081 146.130188,176.195328 
	C145.769714,181.331207 146.244476,186.342651 139.634659,187.698486 
	C139.634659,187.698486 139.501572,187.589218 139.600967,187.227936 
	C139.476334,186.375610 139.252319,185.884552 139.028290,185.393494 
	C138.668488,185.634094 138.308685,185.874695 137.948883,186.115295 
	C136.102158,184.534363 134.255432,182.953430 131.971786,180.966034 
	C130.349442,179.585861 129.164017,178.612167 127.978577,177.638474 
	C127.545433,177.162903 127.112282,176.687317 126.246826,175.779083 
	C121.180717,170.970871 116.546928,166.595337 111.913132,162.219788 
z"/>
<path fill="#209FF1" opacity="1.000000" stroke="none" 
	d="
M157.025925,194.091965 
	C156.487198,194.267365 155.948471,194.442749 154.791046,194.828018 
	C152.765808,194.987732 151.359268,194.937576 150.142731,194.600861 
	C153.940872,191.902481 155.218811,188.620605 155.064331,184.229050 
	C154.768814,175.829086 154.989563,167.410965 155.401352,159.014740 
	C156.961304,161.475555 158.115997,163.922043 159.628876,167.127411 
	C159.859863,161.511703 163.043671,160.803940 167.226135,160.938599 
	C174.210861,161.163513 181.214951,160.813171 188.197495,161.069870 
	C192.402359,161.224457 194.453278,160.039963 194.059158,155.478287 
	C193.759354,152.008255 194.000671,148.491486 194.280304,144.995361 
	C194.931473,144.992798 195.303558,144.990356 195.675659,144.987915 
	C195.736664,152.693359 195.797668,160.398804 195.605560,168.691650 
	C195.155029,169.491913 195.042938,169.742905 195.016174,170.032013 
	C193.236969,172.359436 191.936386,175.516678 189.594009,176.867767 
	C180.443481,182.145767 170.963348,186.852356 160.994293,192.034973 
	C159.263855,192.896378 158.144882,193.494171 157.025925,194.091965 
z"/>
<path fill="#056EB1" opacity="1.000000" stroke="none" 
	d="
M57.494789,115.018768 
	C58.608631,114.941460 59.404945,114.987045 60.840332,115.035156 
	C61.479401,115.037674 61.959003,115.038429 61.959003,115.038429 
	C61.959003,115.038429 61.973137,115.034912 61.963161,115.049316 
	C62.212353,115.853081 62.471519,116.642456 62.576126,117.932037 
	C60.787334,122.145683 62.562206,127.459763 65.884506,128.800583 
	C71.631744,131.120041 72.668770,133.692902 70.055824,139.149567 
	C70.042175,139.490677 69.890488,139.751541 68.990326,139.984863 
	C67.593048,141.041504 66.806221,142.045410 66.019394,143.049332 
	C60.186581,147.363586 54.470280,151.853775 48.429577,155.854126 
	C47.109802,156.728104 43.971691,156.628647 42.810699,155.639618 
	C39.247005,152.603775 36.154255,148.991089 33.038002,145.461761 
	C30.655897,142.763901 30.229124,139.331345 32.806904,136.907974 
	C40.740028,129.450073 49.027493,122.369095 57.494789,115.018768 
z"/>
<path fill="#037BBC" opacity="1.000000" stroke="none" 
	d="
M146.829559,33.023354 
	C149.114075,33.693470 151.051010,34.447205 153.110168,35.540573 
	C149.665161,36.847893 147.756424,38.212944 148.711731,42.821503 
	C149.474350,46.500496 148.346466,50.678867 147.577911,54.540073 
	C146.653458,59.184616 145.459442,63.812740 143.876785,68.268478 
	C143.336273,69.790199 141.309921,71.770973 139.890472,71.830666 
	C131.765091,72.172363 123.615776,72.094620 115.480675,71.901947 
	C114.176880,71.871056 112.903793,70.543350 111.258659,69.612709 
	C111.024086,70.332596 110.668877,71.422737 110.313660,72.512886 
	C109.820709,72.539474 109.327766,72.566071 108.834824,72.592659 
	C108.816696,71.197922 108.798576,69.803185 108.730103,68.087128 
	C108.679756,67.765808 108.728195,67.806618 109.009552,67.754044 
	C109.478500,67.386452 109.666100,67.071426 109.848068,66.820267 
	C109.842445,66.884125 109.731178,66.820427 109.994186,66.795670 
	C110.503464,66.533684 110.749748,66.296455 111.225327,65.876801 
	C111.896912,65.095284 112.339195,64.496185 113.143570,63.948624 
	C118.567566,65.065018 120.844246,62.793388 120.875275,56.646900 
	C129.410843,48.800259 137.946411,40.953617 146.829559,33.023354 
z"/>
<path fill="#0478CD" opacity="1.000000" stroke="none" 
	d="
M154.996078,159.000381 
	C154.989563,167.410965 154.768814,175.829086 155.064331,184.229050 
	C155.218811,188.620605 153.940872,191.902481 149.799622,194.648376 
	C148.192596,194.626175 147.118668,194.269867 146.044724,193.913544 
	C144.012650,192.011276 141.980576,190.108994 139.791580,187.952606 
	C146.244476,186.342651 145.769714,181.331207 146.130188,176.195328 
	C146.643646,168.880081 148.069168,161.630219 149.056152,154.345779 
	C149.273209,152.743835 149.284988,151.114090 148.244095,150.046387 
	C147.403397,148.594498 146.562698,147.142609 146.206512,145.349854 
	C149.438416,146.693466 152.185806,148.377945 154.918396,150.502808 
	C154.934448,153.628906 154.965271,156.314651 154.996078,159.000381 
z"/>
<path fill="#056CB1" opacity="1.000000" stroke="none" 
	d="
M97.405540,108.941750 
	C94.772713,106.852379 92.547638,104.735405 90.222298,102.735001 
	C86.929123,99.902000 83.561996,97.154968 80.033691,94.072678 
	C81.059059,92.600479 82.277206,91.426773 83.794006,90.136215 
	C88.084396,92.867439 92.074074,95.718422 96.069603,98.561172 
	C96.873360,99.133018 97.702309,99.669312 98.514488,100.229477 
	C101.620865,102.371971 104.725151,104.517494 107.830215,106.661888 
	C107.579613,107.045624 107.329010,107.429359 107.078407,107.813095 
	C109.326912,107.199905 111.575417,106.586716 113.980789,106.338470 
	C113.770187,107.140442 113.402718,107.577469 113.018173,108.005371 
	C113.001091,107.996246 113.012589,108.033157 112.745605,108.097260 
	C111.945549,108.646606 111.412468,109.131851 110.636513,109.722786 
	C110.281837,109.965157 110.170036,110.101830 109.759079,110.340652 
	C108.237183,111.316437 107.014442,112.190071 105.791702,113.063705 
	C103.117317,111.697861 100.442932,110.332024 97.405540,108.941750 
z"/>
<path fill="#19AAEB" opacity="1.000000" stroke="none" 
	d="
M195.758209,144.527191 
	C195.303558,144.990356 194.931473,144.992798 194.280319,144.529755 
	C193.999008,139.375107 193.996765,134.685928 193.995773,129.528320 
	C193.997620,110.706573 193.998199,92.353287 193.998779,74.000000 
	C193.998779,68.708458 193.998779,63.416912 193.998779,58.125370 
	C194.258453,58.120277 194.518112,58.115185 194.777786,58.110092 
	C194.924637,60.503071 195.071487,62.896049 195.439133,65.602127 
	C195.720200,91.965637 195.780487,118.016052 195.758209,144.527191 
z"/>
<path fill="#0568AD" opacity="1.000000" stroke="none" 
	d="
M70.410339,139.098297 
	C72.668770,133.692902 71.631744,131.120041 65.884506,128.800583 
	C62.562206,127.459763 60.787334,122.145683 62.697433,118.225121 
	C68.174034,122.917793 73.374756,127.817596 78.852829,132.921753 
	C76.341743,135.099731 73.553299,137.073364 70.410339,139.098297 
z"/>
<path fill="#F3F8F9" opacity="1.000000" stroke="none" 
	d="
M111.596970,162.095367 
	C116.546928,166.595337 121.180717,170.970871 125.948486,175.654572 
	C123.120636,177.259323 120.608002,176.781235 119.009293,173.835663 
	C116.841927,169.842316 113.575920,168.239746 108.703529,169.129837 
	C109.603050,167.745407 110.244049,166.758835 110.213608,166.805695 
	C108.202133,163.237839 106.605423,160.405670 105.019897,157.171524 
	C107.114311,158.503357 109.197563,160.237152 111.596970,162.095367 
z"/>
<path fill="#FFFBEF" opacity="1.000000" stroke="none" 
	d="
M197.999390,125.999146 
	C197.999390,103.091980 197.999390,80.684608 197.999390,58.277233 
	C198.218216,58.276672 198.437027,58.276115 198.655853,58.275555 
	C198.655853,86.757980 198.655853,115.240402 198.655853,143.722824 
	C198.437027,143.732544 198.218216,143.742249 197.999390,143.751953 
	C197.999390,138.000946 197.999390,132.249954 197.999390,125.999146 
z"/>
<path fill="#EEF8F8" opacity="1.000000" stroke="none" 
	d="
M92.633949,145.809448 
	C95.594101,147.973206 98.276184,150.371979 101.126144,153.028320 
	C100.858170,153.727234 100.320679,154.614227 100.002045,154.541565 
	C96.484344,153.739319 93.000633,152.787979 89.219322,151.801788 
	C90.162064,150.071335 91.258972,148.057907 92.633949,145.809448 
z"/>
<path fill="#F1F7F7" opacity="1.000000" stroke="none" 
	d="
M145.893555,194.259277 
	C147.118668,194.269867 148.192596,194.626175 149.609619,194.934967 
	C151.359268,194.937576 152.765808,194.987732 154.595917,195.042786 
	C155.598495,195.908508 156.177521,196.769348 156.741852,197.608292 
	C155.579132,198.524765 154.140152,199.658997 153.206894,200.394608 
	C150.590393,199.534515 148.309235,198.784653 145.249359,197.778824 
	C145.334259,197.232269 145.538315,195.918640 145.893555,194.259277 
z"/>
<path fill="#F0F7F7" opacity="1.000000" stroke="none" 
	d="
M108.648178,67.763458 
	C105.599243,70.380341 102.581894,72.999580 99.258476,75.740234 
	C97.495361,73.540642 97.865631,72.025940 100.464005,70.604195 
	C101.921333,69.806801 102.737312,67.837280 103.842262,66.395859 
	C103.532707,65.906540 103.223160,65.417221 102.913605,64.927902 
	C104.945114,65.252243 106.976631,65.576591 109.436623,65.894073 
	C109.865105,65.887207 109.973030,65.966949 109.888695,66.173553 
	C109.804359,66.380165 109.731178,66.820427 109.731178,66.820427 
	C109.731178,66.820427 109.842445,66.884125 109.574295,66.885155 
	C109.113495,67.193001 108.920845,67.499809 108.728195,67.806618 
	C108.728195,67.806618 108.679756,67.765808 108.648178,67.763458 
z"/>
<path fill="#F0F7F7" opacity="1.000000" stroke="none" 
	d="
M97.481583,76.728546 
	C95.042061,79.503799 92.327667,82.118118 89.297836,84.841171 
	C90.208923,81.748489 91.003983,78.276497 92.791153,75.426674 
	C94.373817,72.902954 95.984222,75.072731 97.481583,76.728546 
z"/>
<path fill="#F3F8F9" opacity="1.000000" stroke="none" 
	d="
M127.572823,177.723511 
	C129.164017,178.612167 130.349442,179.585861 131.669189,180.828644 
	C131.224030,182.201843 130.644547,183.305969 129.716415,185.074402 
	C127.222038,183.287384 124.963394,181.669235 122.008163,179.552048 
	C124.273705,178.786392 125.720383,178.297485 127.572823,177.723511 
z"/>
<path fill="#157CB2" opacity="1.000000" stroke="none" 
	d="
M120.523483,56.752254 
	C120.844246,62.793388 118.567566,65.065018 113.245567,63.689445 
	C113.238335,62.911617 113.491211,62.444511 113.744080,61.977409 
	C115.886620,60.270809 118.029152,58.564209 120.523483,56.752254 
z"/>
<path fill="#F0F7F7" opacity="1.000000" stroke="none" 
	d="
M113.373230,61.981499 
	C113.491211,62.444511 113.238335,62.911617 112.883469,63.637901 
	C112.339195,64.496185 111.896912,65.095284 110.975403,65.788727 
	C110.321808,65.911018 110.147415,65.938980 109.973030,65.966949 
	C109.973030,65.966949 109.865105,65.887207 109.808159,65.849365 
	C109.647972,64.706146 109.544731,63.600773 109.418449,62.248661 
	C110.736855,62.151886 111.869614,62.068741 113.373230,61.981499 
z"/>
<path fill="#F1F7F7" opacity="1.000000" stroke="none" 
	d="
M157.264359,194.342560 
	C158.144882,193.494171 159.263855,192.896378 160.700439,192.247284 
	C161.082550,194.807877 159.848953,195.516251 157.264359,194.342560 
z"/>
<path fill="#0568AD" opacity="1.000000" stroke="none" 
	d="
M66.328224,142.960129 
	C66.806221,142.045410 67.593048,141.041504 68.764420,140.046280 
	C68.311653,140.993622 67.474350,141.932281 66.328224,142.960129 
z"/>
<path fill="#EEF8F8" opacity="1.000000" stroke="none" 
	d="
M90.700928,144.040833 
	C91.418350,144.260284 91.801582,144.531937 92.320625,144.999634 
	C91.542007,145.317413 90.627571,145.439148 89.713150,145.560867 
	C89.931007,145.071594 90.148872,144.582306 90.700928,144.040833 
z"/>
<path fill="#F3F8F9" opacity="1.000000" stroke="none" 
	d="
M106.390640,166.464417 
	C105.942207,166.348694 105.667320,166.066299 105.413666,165.765976 
	C105.407188,165.758301 105.633698,165.553833 105.751556,165.441147 
	C106.023361,165.725891 106.295166,166.010651 106.390640,166.464417 
z"/>
<path fill="#0478CD" opacity="1.000000" stroke="none" 
	d="
M138.036758,186.359268 
	C138.308685,185.874695 138.668488,185.634094 139.028290,185.393494 
	C139.252319,185.884552 139.476334,186.375610 139.535370,187.172195 
	C138.955109,187.186249 138.539871,186.894760 138.036758,186.359268 
z"/>
<path fill="#29B1F4" opacity="1.000000" stroke="none" 
	d="
M195.232040,169.939255 
	C195.042938,169.742905 195.155029,169.491913 195.520706,169.154922 
	C195.862885,169.377853 195.782532,169.649750 195.232040,169.939255 
z"/>
<path fill="#EEF8F8" opacity="1.000000" stroke="none" 
	d="
M103.140663,155.236206 
	C103.341156,155.158676 103.670433,155.326431 104.109894,155.757584 
	C103.903191,155.841156 103.586319,155.661331 103.140663,155.236206 
z"/>
<path fill="#EEF8F8" opacity="1.000000" stroke="none" 
	d="
M102.094620,154.204498 
	C102.279839,154.146606 102.566910,154.317749 102.931366,154.738434 
	C102.737991,154.803146 102.467232,154.618332 102.094620,154.204498 
z"/>
<path fill="#FAFDFD" opacity="1.000000" stroke="none" 
	d="
M154.933182,150.062424 
	C152.185806,148.377945 149.438416,146.693466 146.345703,145.051453 
	C144.898087,144.073456 143.795822,143.052963 142.393066,141.874390 
	C139.912018,139.907181 137.731461,138.098083 135.449753,135.780655 
	C138.333527,132.151993 134.091202,133.131470 133.434891,132.281525 
	C130.918884,129.023102 127.949944,126.114433 124.499672,122.369308 
	C124.206398,124.808693 124.054939,126.068542 123.903473,127.328392 
	C123.022263,126.744736 122.141052,126.161087 121.374580,125.094650 
	C121.329689,120.560539 119.266624,119.644516 115.747879,121.126274 
	C114.887146,120.643837 114.026413,120.161407 113.201202,119.143463 
	C113.157646,117.071869 113.078583,115.535782 113.166931,113.911255 
	C113.223206,113.548286 113.112068,113.273766 113.000000,112.585289 
	C113.003563,110.791946 113.008080,109.412552 113.012589,108.033157 
	C113.012589,108.033157 113.001091,107.996246 113.386246,108.046425 
	C115.293999,108.361076 116.816597,108.625549 118.339195,108.890015 
	C118.419464,108.590775 118.499733,108.291527 118.580002,107.992279 
	C117.677269,107.242119 116.774536,106.491966 115.871803,105.741814 
	C115.916458,105.388680 116.107430,105.155266 117.083679,105.016212 
	C122.160431,104.174774 125.680779,102.259384 126.774612,97.436447 
	C135.926407,90.652451 145.078201,83.868454 154.578598,77.100937 
	C154.927200,77.117424 154.895477,77.575203 154.903015,78.092285 
	C155.171494,79.107582 155.432449,79.605804 155.737854,80.269875 
	C155.782303,80.435730 155.922928,80.749031 155.551849,81.002724 
	C155.099472,104.168365 155.018173,127.080315 154.940659,150.008850 
	C154.944443,150.025421 154.933182,150.062424 154.933182,150.062424 
M117.370903,113.524719 
	C117.159271,113.470383 116.947639,113.416039 116.736000,113.361702 
	C116.871956,113.495171 117.007912,113.628639 117.370903,113.524719 
z"/>
<path fill="#F1F7F7" opacity="1.000000" stroke="none" 
	d="
M124.077271,127.599960 
	C124.054939,126.068542 124.206398,124.808693 124.499672,122.369308 
	C127.949944,126.114433 130.918884,129.023102 133.434891,132.281525 
	C134.091202,133.131470 138.333527,132.151993 135.206390,135.524216 
	C131.459808,133.141251 127.855446,130.506393 124.077271,127.599960 
z"/>
<path fill="#F4F9F9" opacity="1.000000" stroke="none" 
	d="
M112.745605,108.097260 
	C113.008080,109.412552 113.003563,110.791946 112.999527,112.585670 
	C113.000000,113.000000 112.999031,113.000969 112.694946,113.001846 
	C111.868027,113.105316 111.345192,113.207901 110.822365,113.310478 
	C110.830887,113.489746 110.839409,113.669014 110.847931,113.848282 
	C111.565491,113.899063 112.283051,113.949837 113.000305,114.000305 
	C113.000000,114.000000 112.999512,113.999695 112.999512,113.999695 
	C113.078583,115.535782 113.157646,117.071869 113.089218,118.858467 
	C110.629829,117.311333 108.317940,115.513680 105.898880,113.389862 
	C107.014442,112.190071 108.237183,111.316437 109.914909,110.450531 
	C110.539734,110.177879 110.709564,109.897491 110.879395,109.617096 
	C111.412468,109.131851 111.945549,108.646606 112.745605,108.097260 
z"/>
<path fill="#F1F7F7" opacity="1.000000" stroke="none" 
	d="
M115.921249,121.408531 
	C119.266624,119.644516 121.329689,120.560539 121.224731,124.813568 
	C119.338303,123.907104 117.716454,122.798943 115.921249,121.408531 
z"/>
<path fill="#EAF5F5" opacity="1.000000" stroke="none" 
	d="
M126.453125,97.583359 
	C125.680779,102.259384 122.160431,104.174774 117.317436,104.976936 
	C119.985359,102.552101 123.058495,100.141182 126.453125,97.583359 
z"/>
<path fill="#F4F9F9" opacity="1.000000" stroke="none" 
	d="
M115.634171,105.821167 
	C116.774536,106.491966 117.677269,107.242119 118.580002,107.992279 
	C118.499733,108.291527 118.419464,108.590775 118.339195,108.890015 
	C116.816597,108.625549 115.293999,108.361076 113.403328,108.055550 
	C113.402718,107.577469 113.770187,107.140442 114.296188,106.456551 
	C114.768669,106.106628 115.082603,106.003578 115.634171,105.821167 
z"/>
<path fill="#0386D0" opacity="1.000000" stroke="none" 
	d="
M61.884911,114.861603 
	C61.959003,115.038429 61.479401,115.037674 61.239525,115.036133 
	C61.270039,114.917999 61.540428,114.801392 61.884911,114.861603 
z"/>
<path fill="#24A9F2" opacity="1.000000" stroke="none" 
	d="
M193.530243,73.999817 
	C193.998199,92.353287 193.997620,110.706573 193.527740,129.529510 
	C181.705231,129.665909 170.352005,129.332657 158.998871,128.530762 
	C158.994370,112.378601 158.989777,96.695045 158.985199,81.011497 
	C158.783539,75.871635 160.438995,74.120850 166.230865,74.036438 
	C175.172760,73.906113 184.117935,74.000534 193.530243,73.999817 
z"/>
<path fill="#2BA3EF" opacity="1.000000" stroke="none" 
	d="
M155.922928,80.749031 
	C155.922928,80.749031 155.782303,80.435730 156.061584,80.239899 
	C156.557129,80.034065 156.773376,80.024055 156.989624,80.014038 
	C156.989624,80.014038 156.995987,80.501450 156.996414,81.215096 
	C156.999527,100.283791 157.002197,118.638847 157.003281,137.433563 
	C156.673309,140.580399 156.344940,143.287582 156.009506,145.526672 
	C155.975937,123.622063 155.949432,102.185547 155.922928,80.749031 
z"/>
<path fill="#1EAFE6" opacity="1.000000" stroke="none" 
	d="
M157.004883,136.993896 
	C157.002197,118.638847 156.999527,100.283791 156.997803,81.458817 
	C157.167358,80.989784 157.335938,80.990669 157.754669,81.463165 
	C158.000946,100.289925 157.997025,118.645058 157.746048,136.998932 
	C157.498993,136.997665 157.004883,136.993896 157.004883,136.993896 
z"/>
<path fill="#1EA7FC" opacity="1.000000" stroke="none" 
	d="
M157.993103,137.000198 
	C157.997025,118.645058 158.000946,100.289925 158.007507,81.465767 
	C158.010178,80.996750 158.497879,81.003304 158.741547,81.007401 
	C158.989777,96.695045 158.994370,112.378601 158.998611,128.960632 
	C158.663223,132.239487 158.328156,134.619843 157.993103,137.000198 
z"/>
<path fill="#24A9F2" opacity="1.000000" stroke="none" 
	d="
M156.956024,79.695480 
	C156.773376,80.024055 156.557129,80.034065 156.017151,80.074051 
	C155.432449,79.605804 155.171494,79.107582 154.981720,78.307800 
	C155.676086,78.463135 156.299255,78.920021 156.956024,79.695480 
z"/>
<path fill="#21A3F1" opacity="1.000000" stroke="none" 
	d="
M157.746048,136.998932 
	C158.328156,134.619843 158.663223,132.239487 158.998535,129.429260 
	C170.352005,129.332657 181.705231,129.665909 193.526489,129.997955 
	C193.996765,134.685928 193.999008,139.375107 194.001236,144.529877 
	C194.000671,148.491486 193.759354,152.008255 194.059158,155.478287 
	C194.453278,160.039963 192.402359,161.224457 188.197495,161.069870 
	C181.214951,160.813171 174.210861,161.163513 167.226135,160.938599 
	C163.043671,160.803940 159.859863,161.511703 159.628876,167.127411 
	C158.115997,163.922043 156.961304,161.475555 155.401352,159.014740 
	C154.965271,156.314651 154.934448,153.628906 154.918396,150.502808 
	C154.933182,150.062424 154.944443,150.025421 155.225784,149.788116 
	C155.676941,148.365479 155.846756,147.180115 156.016571,145.994766 
	C156.344940,143.287582 156.673309,140.580399 157.003281,137.433563 
	C157.004883,136.993896 157.498993,136.997665 157.746048,136.998932 
z"/>
<path fill="#0376B8" opacity="1.000000" stroke="none" 
	d="
M109.009552,67.754044 
	C108.920845,67.499809 109.113495,67.193001 109.579926,66.821297 
	C109.666100,67.071426 109.478500,67.386452 109.009552,67.754044 
z"/>
<path fill="#0376B8" opacity="1.000000" stroke="none" 
	d="
M109.888695,66.173553 
	C110.147415,65.938980 110.321808,65.911018 110.746109,65.971146 
	C110.749748,66.296455 110.503464,66.533684 109.994186,66.795670 
	C109.731178,66.820427 109.804359,66.380165 109.888695,66.173553 
z"/>
<path fill="#FAFDFD" opacity="1.000000" stroke="none" 
	d="
M110.636520,109.722794 
	C110.709564,109.897491 110.539734,110.177879 110.214066,110.348389 
	C110.170036,110.101830 110.281837,109.965157 110.636520,109.722794 
z"/>
<path fill="#02A2F7" opacity="1.000000" stroke="none" 
	d="
M156.009506,145.526672 
	C155.846756,147.180115 155.676941,148.365479 155.222000,149.771545 
	C155.018173,127.080315 155.099472,104.168365 155.551849,81.002724 
	C155.949432,102.185547 155.975937,123.622063 156.009506,145.526672 
z"/>
<path fill="#F4F9F9" opacity="1.000000" stroke="none" 
	d="
M117.257385,113.643417 
	C117.007912,113.628639 116.871956,113.495171 116.736008,113.361694 
	C116.947639,113.416039 117.159271,113.470383 117.257385,113.643417 
z"/>
<path fill="#F4F9F9" opacity="1.000000" stroke="none" 
	d="
M113.000473,112.999619 
	C113.112068,113.273766 113.223206,113.548286 113.166931,113.911255 
	C112.999512,113.999695 113.000000,114.000000 112.999847,113.750389 
	C112.999695,113.500778 112.999031,113.000969 112.999031,113.000969 
	C112.999031,113.000969 113.000000,113.000000 113.000473,112.999619 
z"/>
<path fill="#FAFDFD" opacity="1.000000" stroke="none" 
	d="
M112.694946,113.001846 
	C112.999031,113.000969 112.999695,113.500778 113.000153,113.750694 
	C112.283051,113.949837 111.565491,113.899063 110.847931,113.848282 
	C110.839409,113.669014 110.830887,113.489746 110.822365,113.310478 
	C111.345192,113.207901 111.868027,113.105316 112.694946,113.001846 
z"/>
</svg>